<?xml version="1.0" encoding="utf-8"?>
<!-- Generator: Adobe Illustrator 19.2.1, SVG Export Plug-In . SVG Version: 6.00 Build 0)  -->
<svg version="1.1" id="Layer_1" xmlns="http://www.w3.org/2000/svg" xmlns:xlink="http://www.w3.org/1999/xlink" x="0px" y="0px"
	 viewBox="0 0 528.8 84.2" style="enable-background:new 0 0 528.8 84.2;" xml:space="preserve">
<g>
	<path style="fill:#1D1D1B;" d="M63.4,41.3c0,6.9-0.9,13-2.8,18.2c-1.9,5.2-4.6,9.6-8.2,13.1c-3.6,3.5-7.9,6.1-13.1,7.9
		c-5.2,1.8-11.1,2.6-17.7,2.6H0v-82h24c6,0,11.5,0.9,16.3,2.6s9,4.3,12.4,7.7c3.4,3.4,6.1,7.6,7.9,12.6
		C62.5,28.9,63.4,34.7,63.4,41.3z M45.8,41.7c0-4.6-0.5-8.5-1.4-11.8s-2.2-6-4-8.2c-1.7-2.2-3.9-3.8-6.4-4.8s-5.4-1.6-8.7-1.6h-8
		v53.4h6.4c7.3,0,12.8-2.2,16.5-6.7C43.9,57.5,45.8,50.7,45.8,41.7z"/>
	<path style="fill:#1D1D1B;" d="M128.5,51.6c0,5.2-0.7,9.9-2,13.9s-3.2,7.4-5.7,10.2c-2.5,2.8-5.5,4.9-9.1,6.3s-7.6,2.2-12,2.2
		c-4.2,0-8-0.7-11.4-2.2c-3.5-1.4-6.5-3.5-9-6.3s-4.5-6.2-5.9-10.2s-2.1-8.7-2.1-13.9c0-5.2,0.7-9.8,2-13.9c1.3-4,3.2-7.4,5.7-10.2
		c2.5-2.7,5.5-4.8,9.1-6.3c3.6-1.4,7.6-2.1,12.1-2.1c4.2,0,8,0.7,11.4,2.1c3.5,1.4,6.5,3.5,9,6.3c2.5,2.7,4.5,6.1,5.9,10.2
		C127.8,41.8,128.5,46.4,128.5,51.6z M88.7,51.6c0,6.2,0.9,10.9,2.6,14.1c1.8,3.2,4.6,4.7,8.6,4.7c3.9,0,6.8-1.6,8.5-4.8
		c1.8-3.2,2.6-7.9,2.6-14.1s-0.9-10.9-2.6-14c-1.8-3.1-4.6-4.6-8.6-4.6c-3.9,0-6.8,1.5-8.5,4.6C89.6,40.7,88.7,45.3,88.7,51.6z"/>
	<path style="fill:#1D1D1B;" d="M190.2,83.1h-17.1V46.5c0-4.5-0.7-7.9-2-10.2c-1.3-2.3-3.5-3.4-6.3-3.4c-2.2,0-4,0.4-5.4,1.3
		s-2.6,2.2-3.5,4s-1.5,3.9-1.9,6.5s-0.6,5.5-0.6,8.9v29.5h-17.1V20.4h13.2l2.3,8h1c0.9-1.6,2-3,3.2-4.2c1.3-1.2,2.6-2.1,4.1-2.9
		c1.5-0.7,3.1-1.3,4.8-1.7c1.7-0.4,3.4-0.5,5.1-0.5c4.3,0,8,0.7,11,2.2s5.3,3.8,6.9,7h1.4c0.9-1.6,2-3,3.3-4.2s2.7-2.1,4.2-2.9
		c1.5-0.7,3.2-1.3,4.9-1.7c1.7-0.4,3.4-0.5,5.1-0.5c6.7,0,11.8,1.8,15.2,5.5c3.4,3.6,5.1,9.5,5.1,17.5v40.9h-17.2V46.3
		c0-4.5-0.7-7.9-2-10.2c-1.3-2.3-3.5-3.4-6.3-3.4c-4.1,0-7,1.6-8.7,4.9c-1.7,3.2-2.6,7.9-2.6,13.9L190.2,83.1L190.2,83.1z"/>
	<path style="fill:#1D1D1B;" d="M276.4,83.1l-3.3-8.5h-0.5c-1.2,1.7-2.5,3.1-3.7,4.3c-1.2,1.2-2.6,2.2-4,3c-1.5,0.8-3.1,1.4-4.9,1.7
		c-1.8,0.4-3.9,0.6-6.3,0.6c-2.5,0-4.9-0.4-7.1-1.2c-2.2-0.8-4.1-2-5.6-3.6c-1.6-1.6-2.8-3.7-3.7-6.2c-0.9-2.5-1.3-5.4-1.3-8.8
		c0-6.7,2.1-11.6,6.4-14.7c4.3-3.2,10.6-4.9,19.1-5.2l10-0.3v-4.7c0-2.6-0.7-4.5-2.2-5.7s-3.6-1.9-6.3-1.9s-5.3,0.4-7.9,1.2
		c-2.6,0.8-5.1,1.8-7.7,3.1l-5.6-11.3c3.1-1.8,6.6-3.1,10.4-4.2c3.8-1,7.8-1.5,12-1.5c7.8,0,13.8,1.8,18,5.5s6.3,9.2,6.3,16.7v41.8
		L276.4,83.1L276.4,83.1z M271.4,54l-5.7,0.2c-2.3,0.1-4.2,0.4-5.8,0.9c-1.6,0.5-2.8,1.2-3.8,2.1c-1,0.9-1.6,1.9-2.1,3.1
		c-0.4,1.2-0.6,2.6-0.6,4.1c0,2.6,0.6,4.5,1.9,5.6c1.3,1.1,2.9,1.7,5,1.7c1.6,0,3-0.3,4.4-0.8c1.3-0.5,2.5-1.3,3.5-2.4
		s1.8-2.4,2.3-3.9c0.6-1.6,0.8-3.3,0.8-5.4V54H271.4z"/>
	<path style="fill:#1D1D1B;" d="M337.6,14.3c-3.3,0-6.3,0.6-8.8,1.9c-2.6,1.3-4.7,3.1-6.5,5.6c-1.7,2.4-3.1,5.3-4,8.8
		c-0.9,3.5-1.3,7.3-1.3,11.6c0,4.4,0.4,8.3,1.2,11.7c0.8,3.4,2,6.3,3.7,8.6c1.7,2.3,3.8,4.1,6.4,5.3c2.6,1.2,5.7,1.8,9.3,1.8
		c3.3,0,6.7-0.4,10-1.1s7-1.8,10.9-3.2v14.6c-1.8,0.8-3.6,1.4-5.3,1.9c-1.8,0.5-3.6,1-5.4,1.3s-3.7,0.6-5.6,0.8
		c-1.9,0.2-4,0.3-6.2,0.3c-6.3,0-11.8-1-16.4-3c-4.6-2-8.5-4.9-11.5-8.5c-3-3.7-5.3-8.1-6.7-13.2c-1.5-5.2-2.2-10.9-2.2-17.2
		c0-6.2,0.8-11.9,2.5-17.1s4.2-9.6,7.4-13.4c3.3-3.7,7.3-6.6,12.1-8.7C326,1,331.5,0,337.7,0c4.1,0,8.2,0.5,12.3,1.5s8,2.4,11.8,4.2
		l-5.6,14.1c-3.1-1.5-6.2-2.7-9.3-3.8C343.6,14.9,340.6,14.3,337.6,14.3z"/>
	<path style="fill:#1D1D1B;" d="M406.4,83.1l-3.3-8.5h-0.5c-1.2,1.7-2.5,3.1-3.7,4.3c-1.2,1.2-2.6,2.2-4,3c-1.5,0.8-3.1,1.4-4.9,1.7
		c-1.8,0.4-3.9,0.6-6.3,0.6c-2.5,0-4.9-0.4-7.1-1.2c-2.2-0.8-4-2-5.6-3.6s-2.8-3.7-3.7-6.2s-1.3-5.4-1.3-8.8
		c0-6.7,2.1-11.6,6.4-14.7c4.3-3.2,10.6-4.9,19.1-5.2l10-0.3v-4.7c0-2.6-0.7-4.5-2.2-5.7s-3.6-1.9-6.3-1.9s-5.3,0.4-7.9,1.2
		c-2.6,0.8-5.1,1.8-7.7,3.1l-5.6-11.3c3.1-1.8,6.6-3.1,10.4-4.2c3.8-1,7.8-1.5,12-1.5c7.8,0,13.8,1.8,18,5.5s6.3,9.2,6.3,16.7v41.8
		L406.4,83.1L406.4,83.1z M401.4,54l-5.7,0.2c-2.3,0.1-4.2,0.4-5.8,0.9s-2.8,1.2-3.8,2.1s-1.6,1.9-2.1,3.1c-0.4,1.2-0.6,2.6-0.6,4.1
		c0,2.6,0.6,4.5,1.9,5.6c1.3,1.1,2.9,1.7,5,1.7c1.6,0,3-0.3,4.4-0.8c1.3-0.5,2.5-1.3,3.5-2.4s1.8-2.4,2.3-3.9
		c0.6-1.6,0.8-3.3,0.8-5.4L401.4,54L401.4,54z"/>
	<path style="fill:#1D1D1B;" d="M464.1,19.2c0.4,0,0.9,0,1.5,0c0.5,0,1.1,0.1,1.6,0.1c0.5,0.1,1,0.1,1.4,0.2s0.8,0.1,1,0.2v16
		c-0.3-0.1-0.7-0.1-1.2-0.2s-1.1-0.1-1.7-0.2c-0.6-0.1-1.2-0.1-1.7-0.1c-0.6,0-1,0-1.4,0c-2.2,0-4.2,0.3-6.1,0.8
		c-1.9,0.6-3.4,1.5-4.8,2.7c-1.3,1.3-2.4,2.9-3.1,4.9c-0.7,2-1.1,4.5-1.1,7.5V83h-17.1V20.3h13l2.5,9.4h0.8c0.9-1.6,1.9-3.1,2.9-4.4
		s2.2-2.4,3.5-3.3s2.7-1.6,4.4-2.1C460.1,19.4,462,19.2,464.1,19.2z"/>
	<path style="fill:#1D1D1B;" d="M504.2,84.2c-4.5,0-8.6-0.7-12.4-2c-3.8-1.3-7-3.3-9.8-5.9c-2.7-2.6-4.9-6-6.4-10s-2.3-8.7-2.3-14.2
		s0.7-10.3,2.1-14.4c1.4-4.1,3.3-7.5,5.8-10.3c2.5-2.7,5.5-4.8,9-6.2c3.5-1.4,7.4-2.1,11.6-2.1c4.2,0,7.9,0.6,11.2,1.9
		s6.2,3.1,8.5,5.5s4.1,5.4,5.4,8.9c1.3,3.5,1.9,7.6,1.9,12.1v8.3h-38.3c0.1,2.4,0.5,4.6,1.1,6.5c0.7,1.9,1.7,3.6,2.9,4.9
		c1.3,1.3,2.8,2.3,4.5,3.1c1.8,0.7,3.8,1.1,6.1,1.1c1.9,0,3.7-0.1,5.4-0.3c1.7-0.2,3.4-0.5,5-0.9s3.2-0.9,4.8-1.5s3.2-1.3,4.8-2.2
		v13.2c-1.5,0.8-3,1.5-4.5,2s-3.1,1-4.8,1.4s-3.5,0.6-5.4,0.8C508.7,84.1,506.5,84.2,504.2,84.2z M502,31.3c-3,0-5.5,1.1-7.5,3.2
		s-3.2,5.5-3.5,10h21.8c0-1.9-0.3-3.7-0.7-5.3c-0.4-1.6-1.1-3-2-4.2s-2-2.1-3.4-2.8C505.4,31.7,503.8,31.3,502,31.3z"/>
</g>
</svg>
