<?xml version="1.0" encoding="utf-8"?>
<!-- Generator: Adobe Illustrator 19.2.0, SVG Export Plug-In . SVG Version: 6.00 Build 0)  -->
<svg version="1.1" id="Layer_1" xmlns="http://www.w3.org/2000/svg" xmlns:xlink="http://www.w3.org/1999/xlink" x="0px" y="0px"
	 viewBox="0 0 500 100" style="enable-background:new 0 0 500 100;" xml:space="preserve">
<g>
	<path d="M135.7,49.5c0,5.4-0.7,10.2-2.2,14.2c-1.5,4.1-3.6,7.5-6.4,10.2c-2.8,2.7-6.2,4.8-10.3,6.2c-4.1,1.4-8.7,2.1-13.8,2.1H86.1
		V18h18.8c4.7,0,9,0.7,12.8,2s7,3.3,9.7,6c2.7,2.6,4.8,5.9,6.2,9.9C135,39.8,135.7,44.4,135.7,49.5z M122,49.9
		c0-3.6-0.4-6.6-1.1-9.2c-0.7-2.6-1.7-4.7-3.1-6.4s-3-3-5-3.8s-4.2-1.2-6.8-1.2h-6.3V71h5c5.7,0,10-1.8,12.9-5.3
		C120.5,62.2,122,56.9,122,49.9z"/>
	<path d="M186.7,57.6c0,4.1-0.5,7.7-1.6,10.9c-1,3.2-2.5,5.8-4.5,8c-1.9,2.2-4.3,3.8-7.1,4.9s-5.9,1.7-9.4,1.7c-3.2,0-6.2-0.6-9-1.7
		c-2.7-1.1-5.1-2.8-7-4.9c-2-2.2-3.5-4.8-4.6-8s-1.7-6.8-1.7-10.9s0.5-7.7,1.6-10.8c1-3.2,2.5-5.8,4.5-8c1.9-2.1,4.3-3.8,7.1-4.9
		c2.8-1.1,5.9-1.7,9.4-1.7c3.2,0,6.2,0.6,9,1.7c2.7,1.1,5.1,2.7,7.1,4.9s3.5,4.8,4.6,8C186.2,49.9,186.7,53.5,186.7,57.6z
		 M155.5,57.6c0,4.9,0.7,8.6,2.1,11c1.4,2.5,3.6,3.7,6.7,3.7c3.1,0,5.3-1.2,6.7-3.7s2.1-6.2,2.1-11c0-4.9-0.7-8.5-2.1-10.9
		c-1.4-2.4-3.6-3.6-6.8-3.6c-3.1,0-5.3,1.2-6.6,3.6C156.2,49,155.5,52.7,155.5,57.6z"/>
	<path d="M235,82.2h-13.4V53.5c0-3.5-0.5-6.2-1.6-8s-2.7-2.7-5-2.7c-1.7,0-3.1,0.4-4.2,1.1c-1.1,0.7-2,1.7-2.7,3.1
		c-0.7,1.4-1.2,3.1-1.4,5.1c-0.3,2-0.4,4.3-0.4,6.9v23.1h-13.4v-49h10.2l1.8,6.3h0.7c0.7-1.3,1.5-2.3,2.5-3.2s2.1-1.7,3.2-2.2
		c1.2-0.6,2.4-1,3.7-1.3s2.7-0.4,4-0.4c3.4,0,6.2,0.6,8.6,1.7c2.3,1.2,4.2,3,5.4,5.5h1.1c0.7-1.3,1.6-2.3,2.6-3.2s2.1-1.7,3.3-2.2
		c1.2-0.6,2.5-1,3.8-1.3s2.7-0.4,4-0.4c5.3,0,9.2,1.4,11.9,4.3c2.7,2.9,4,7.4,4,13.7v32h-13.4V53.5c0-3.5-0.5-6.2-1.6-8
		s-2.7-2.7-5-2.7c-3.2,0-5.5,1.3-6.8,3.8s-2,6.2-2,10.9L235,82.2L235,82.2z"/>
	<path d="M302.4,82.2l-2.6-6.7h-0.4c-1,1.3-1.9,2.4-2.9,3.4s-2,1.7-3.2,2.4c-1.1,0.6-2.4,1.1-3.8,1.4s-3.1,0.4-4.9,0.4
		c-2,0-3.8-0.3-5.5-0.9s-3.2-1.6-4.4-2.8c-1.2-1.3-2.2-2.9-2.9-4.8c-0.7-1.9-1.1-4.2-1.1-6.9c0-5.2,1.7-9,5-11.5s8.3-3.8,15-4.1
		l7.8-0.3V48c0-2-0.6-3.5-1.8-4.5c-1.2-1-2.8-1.4-4.9-1.4s-4.2,0.3-6.2,0.9c-2,0.6-4,1.4-6,2.5l-4.3-8.9c2.4-1.4,5.2-2.5,8.2-3.2
		c3-0.8,6.1-1.2,9.4-1.2c6.1,0,10.8,1.4,14.1,4.3c3.3,2.9,4.9,7.2,4.9,13.1v32.7h-9.5V82.2z M298.5,59.5l-4.4,0.2
		c-1.8,0.1-3.3,0.3-4.5,0.7s-2.2,1-3,1.6c-0.7,0.7-1.3,1.5-1.6,2.5c-0.3,1-0.5,2-0.5,3.2c0,2,0.5,3.5,1.5,4.4s2.3,1.3,3.9,1.3
		c1.2,0,2.4-0.2,3.4-0.6c1.1-0.4,2-1.1,2.7-1.9c0.8-0.8,1.4-1.9,1.8-3.1s0.7-2.6,0.7-4.2V59.5z"/>
	<path d="M350.3,28.4c-2.6,0-4.9,0.5-6.9,1.5s-3.7,2.5-5,4.3c-1.4,1.9-2.4,4.2-3.1,6.9s-1.1,5.7-1.1,9.1s0.3,6.5,0.9,9.1
		c0.6,2.7,1.6,4.9,2.9,6.7c1.3,1.8,3,3.2,5,4.2c2,0.9,4.5,1.4,7.3,1.4c2.6,0,5.2-0.3,7.8-0.9c2.6-0.6,5.5-1.4,8.5-2.5v11.4
		c-1.4,0.6-2.8,1.1-4.2,1.5c-1.4,0.4-2.8,0.7-4.2,1c-1.4,0.3-2.9,0.5-4.4,0.6s-3.1,0.2-4.9,0.2c-4.9,0-9.2-0.8-12.9-2.4
		c-3.6-1.6-6.6-3.8-9-6.7c-2.4-2.9-4.1-6.3-5.3-10.4c-1.1-4-1.7-8.5-1.7-13.5c0-4.9,0.7-9.3,2-13.4s3.3-7.5,5.8-10.5
		c2.5-2.9,5.7-5.2,9.4-6.8c3.8-1.6,8.1-2.4,12.9-2.4c3.2,0,6.4,0.4,9.6,1.2c3.2,0.8,6.3,1.9,9.2,3.3l-4.4,11.1
		c-2.4-1.1-4.8-2.1-7.2-3C355,28.9,352.6,28.4,350.3,28.4z"/>
	<path d="M404.1,82.2l-2.6-6.7h-0.4c-1,1.3-1.9,2.4-2.9,3.4s-2,1.7-3.2,2.4c-1.1,0.6-2.4,1.1-3.8,1.4s-3.1,0.4-4.9,0.4
		c-2,0-3.8-0.3-5.5-0.9s-3.2-1.6-4.4-2.8c-1.2-1.3-2.2-2.9-2.9-4.8c-0.7-1.9-1.1-4.2-1.1-6.9c0-5.2,1.7-9,5-11.5s8.3-3.8,15-4.1
		l7.8-0.3V48c0-2-0.6-3.5-1.7-4.5c-1.2-1-2.8-1.4-4.9-1.4s-4.2,0.3-6.2,0.9c-2,0.6-4,1.4-6,2.5l-4.3-8.9c2.5-1.4,5.2-2.5,8.2-3.2
		c3-0.8,6.1-1.2,9.4-1.2c6.1,0,10.8,1.4,14.1,4.3c3.3,2.9,4.9,7.2,4.9,13.1v32.7h-9.6V82.2z M400.2,59.5l-4.4,0.2
		c-1.8,0.1-3.3,0.3-4.5,0.7s-2.2,1-3,1.6c-0.7,0.7-1.3,1.5-1.6,2.5c-0.3,1-0.5,2-0.5,3.2c0,2,0.5,3.5,1.5,4.4s2.3,1.3,3.9,1.3
		c1.2,0,2.4-0.2,3.4-0.6c1.1-0.4,2-1.1,2.8-1.9s1.4-1.9,1.8-3.1s0.7-2.6,0.7-4.2L400.2,59.5L400.2,59.5z"/>
	<path d="M449.2,32.2c0.4,0,0.7,0,1.2,0c0.4,0,0.8,0,1.2,0.1c0.4,0,0.8,0.1,1.1,0.1c0.3,0,0.6,0.1,0.8,0.2v12.6
		c-0.2-0.1-0.6-0.1-1-0.2c-0.4-0.1-0.8-0.1-1.3-0.1c-0.4,0-0.9-0.1-1.3-0.1s-0.8,0-1.1,0c-1.7,0-3.3,0.2-4.8,0.7
		c-1.5,0.4-2.7,1.1-3.7,2.1s-1.8,2.3-2.4,3.9c-0.6,1.6-0.9,3.5-0.9,5.9v25h-13.4V33.1h10.1l2,7.4h0.7c0.7-1.3,1.5-2.4,2.3-3.4
		s1.7-1.9,2.7-2.6c1-0.7,2.2-1.3,3.4-1.7C446.2,32.4,447.6,32.2,449.2,32.2z"/>
	<path d="M480.6,83.1c-3.5,0-6.7-0.5-9.7-1.5s-5.5-2.6-7.6-4.6c-2.1-2.1-3.8-4.7-5-7.8c-1.2-3.1-1.8-6.8-1.8-11.1s0.5-8.1,1.6-11.3
		s2.6-5.9,4.5-8.1s4.3-3.8,7-4.9c2.7-1.1,5.8-1.6,9.1-1.6c3.3,0,6.2,0.5,8.8,1.5c2.6,1,4.8,2.4,6.7,4.3c1.8,1.9,3.2,4.2,4.2,7
		s1.5,5.9,1.5,9.5V61H470c0.1,1.9,0.4,3.6,0.9,5.1s1.3,2.8,2.3,3.8s2.2,1.8,3.6,2.4s3,0.8,4.8,0.8c1.5,0,2.9-0.1,4.2-0.2
		c1.3-0.2,2.6-0.4,3.9-0.7c1.3-0.3,2.5-0.7,3.7-1.2s2.5-1,3.8-1.7v10.4c-1.2,0.6-2.3,1.1-3.5,1.6c-1.2,0.4-2.4,0.8-3.7,1.1
		c-1.3,0.3-2.7,0.5-4.3,0.6C484.1,83,482.5,83.1,480.6,83.1z M478.9,41.7c-2.4,0-4.3,0.8-5.9,2.5s-2.5,4.3-2.7,7.9h17.1
		c0-1.5-0.2-2.9-0.6-4.1c-0.3-1.3-0.9-2.3-1.6-3.3c-0.7-0.9-1.6-1.6-2.6-2.2C481.6,42,480.3,41.7,478.9,41.7z"/>
</g>
<polygon style="fill:#C8DA2C;" points="14.8,16.9 65,16.9 65,30.4 0,30.4 "/>
<rect y="33.9" style="fill:#D8E2ED;" width="65" height="13.4"/>
<rect y="51" style="fill:#96ADC3;" width="65" height="13.4"/>
<polygon style="fill:#4F7087;" points="0,68 65,68 52.7,81.4 0,81.4 "/>
</svg>
