<?xml version="1.0" encoding="utf-8"?>
<!-- Generator: Adobe Illustrator 19.2.0, SVG Export Plug-In . SVG Version: 6.00 Build 0)  -->
<svg version="1.1" id="Layer_1" xmlns="http://www.w3.org/2000/svg" xmlns:xlink="http://www.w3.org/1999/xlink" x="0px" y="0px"
	 viewBox="0 0 100 100" style="enable-background:new 0 0 100 100;" xml:space="preserve">
<rect x="33.7" y="56" transform="matrix(0.5501 -0.8351 0.8351 0.5501 -34.4679 59.6438)" style="fill:#686868;" width="8.9" height="11.6"/>
<rect x="6.6" y="75.4" transform="matrix(0.5496 -0.8354 0.8354 0.5496 -56.3672 57.751)" style="fill:#686868;" width="37.5" height="11.6"/>
<path style="fill:#686868;" d="M57.7,64.1c-6.3,0-12.4-1.8-17.6-5.3C25.4,49.1,21.2,29.2,31,14.4C37,5.4,47,0,57.8,0
	C64,0,70.1,1.8,75.4,5.3c7.2,4.7,12,11.9,13.8,20.3c1.7,8.4,0.1,17-4.6,24.1C78.6,58.7,68.6,64.1,57.7,64.1z M57.8,3.2
	C48,3.2,39,8,33.6,16.2c-8.8,13.3-5.1,31.3,8.2,40C46.5,59.3,52,61,57.7,61c9.8,0,18.8-4.9,24.2-13c4.3-6.4,5.7-14.2,4.2-21.7
	c-1.6-7.6-6-14.1-12.4-18.3C68.9,4.8,63.4,3.2,57.8,3.2z"/>
</svg>
