<?xml version="1.0" encoding="utf-8"?>
<!-- Generator: Adobe Illustrator 19.2.0, SVG Export Plug-In . SVG Version: 6.00 Build 0)  -->
<svg version="1.1" id="Layer_1" xmlns="http://www.w3.org/2000/svg" xmlns:xlink="http://www.w3.org/1999/xlink" x="0px" y="0px"
	 viewBox="0 0 100 100" style="enable-background:new 0 0 100 100;" xml:space="preserve">
<path style="fill:#FFFFFF;" d="M59.7,98.7c-6.4,0.8-10.2,2.1-19.7-0.3c-3.8-1.3-10-2.9-12.1-4.1s-6.5-3.5-9.1-6s-6.3-5.4-7.5-7.5
	c1.2-1.4,2.7-2.6,4.4-3.6c5.1-2.8,10.6-4.6,16-6.5c2.1-0.7,4.2-1.5,6.1-2.3s3.2-3.4,3-5.4c-0.1-0.2-0.2-0.5-0.4-0.7
	c-4.3-6.2-6.6-13.1-7.8-20.4c-0.6-4-0.8-8.1,0-12.1c1.3-7,5.7-11.2,12.7-12.1c3.3-0.5,6.6-0.5,9.9,0.1c7,1.3,11.2,5.7,12.1,12.8
	c1.1,8-0.4,15.7-3.4,23c-1.1,2.7-2.6,5.2-4,7.9c-0.2,0.4-0.4,0.9-0.4,1.4c0.1,3.1,1.3,5.4,4.4,6.4c4.3,1.5,8.7,2.9,12.9,4.6
	c2.7,1.1,5.3,2.4,7.9,3.7c1.6,0.8,2.9,1.8,4,3c-1.9,2.7-4.2,4.9-7.3,7.7c-4.7,3.5-5.9,4.2-9.3,6.1C72.2,94.5,65.4,97.6,59.7,98.7z"
	/>
<path style="fill:#FFFFFF;" d="M50,100C22.4,100,0,77.6,0,50S22.4,0,50,0s50,22.4,50,50S77.6,100,50,100z M50,1C23,1,1,23,1,50
	s22,49,49,49s49-22,49-49S77,1,50,1z"/>
</svg>
