<?xml version="1.0" encoding="utf-8"?>
<!-- Generator: Adobe Illustrator 19.2.0, SVG Export Plug-In . SVG Version: 6.00 Build 0)  -->
<svg version="1.1" id="Layer_1" xmlns="http://www.w3.org/2000/svg" xmlns:xlink="http://www.w3.org/1999/xlink" x="0px" y="0px"
	 viewBox="0 0 100 100" style="enable-background:new 0 0 100 100;" xml:space="preserve">
<g>
	<g>
		<g>
			<path style="fill:#686969;" d="M75.9,53c-3.2,14.3-12,21.5-26.4,21.5S26.3,67.3,23,53h-4c2,18.5,13.5,29.7,30.5,29.7
				S78,71.5,80,53H75.9z"/>
		</g>
	</g>
	<path style="fill:#686969;" d="M40.8,39.4c0,4.5-2.7,8.1-6.1,8.1s-6.1-3.6-6.1-8.1s2.7-8.1,6.1-8.1C38,31.3,40.8,34.9,40.8,39.4z"
		/>
	<path style="fill:#686969;" d="M70.5,39.4c0,4.5-2.7,8.1-6.1,8.1s-6.1-3.6-6.1-8.1s2.7-8.1,6.1-8.1C67.8,31.3,70.5,34.9,70.5,39.4z
		"/>
	<path style="fill:#686969;" d="M50,5.3c24.7,0,44.7,20.1,44.7,44.7c0,24.7-20.1,44.7-44.7,44.7c-24.7,0-44.7-20-44.7-44.7
		S25.3,5.3,50,5.3 M50,0C22.4,0,0,22.4,0,50s22.4,50,50,50s50-22.4,50-50S77.6,0,50,0L50,0z"/>
</g>
</svg>
