<?xml version="1.0" encoding="utf-8"?>
<!-- Generator: Adobe Illustrator 19.2.0, SVG Export Plug-In . SVG Version: 6.00 Build 0)  -->
<svg version="1.1" id="Layer_1" xmlns="http://www.w3.org/2000/svg" xmlns:xlink="http://www.w3.org/1999/xlink" x="0px" y="0px"
	 viewBox="0 0 100 100" style="enable-background:new 0 0 100 100;" xml:space="preserve">
<path style="fill:#FFFFFF;" d="M74.4,41.2c0,0,4-3.1,1-6.1C72.3,32,69.3,36,69.3,36L45.2,60c0,0-7.3,9.4-12.8,3.7
	C27,58,36.2,50.9,36.2,50.9l33.7-33.7c0,0,9.5-10.4,18.4-1.5s-1.6,18.4-1.6,18.4L41,79.7c0,0-14.6,16.9-28.1,3.4s3.5-27.9,3.5-27.9
	L51,20.6c0,0,3.9-3.2,1-6.2c-2.9-2.9-6.1,1-6.1,1L6.2,55c0,0-15,16.5,1.7,33.2S41.1,90,41.1,90l54.6-54.6c0,0,10.9-12.1-2.1-25.1
	S68.5,8.2,68.5,8.2l-40,40c0,0-12,9.8-1.1,20.7s20.5-1.3,20.5-1.3L74.4,41.2z"/>
</svg>
