<?xml version="1.0" encoding="utf-8"?>
<!-- Generator: Adobe Illustrator 19.2.0, SVG Export Plug-In . SVG Version: 6.00 Build 0)  -->
<svg version="1.1" id="Layer_1" xmlns="http://www.w3.org/2000/svg" xmlns:xlink="http://www.w3.org/1999/xlink" x="0px" y="0px"
	 viewBox="0 0 100 100" style="enable-background:new 0 0 100 100;" xml:space="preserve">
<rect style="fill:#3DB54A;" width="100" height="100"/>
<path style="fill:#FFFFFF;" d="M67.4,51.1c0-1.5-1.2-2.7-2.7-2.7H54V37.7c0-1.5-1.2-2.7-2.7-2.7h-2.7c-1.5,0-2.7,1.2-2.7,2.7v10.8
	H35.2c-1.5,0-2.7,1.2-2.7,2.7v2.7c0,1.5,1.2,2.7,2.7,2.7H46v10.8c0,1.5,1.2,2.7,2.7,2.7h2.7c1.5,0,2.7-1.2,2.7-2.7V56.5h10.8
	c1.5,0,2.7-1.2,2.7-2.7v-2.7H67.4z"/>
</svg>
