<?xml version="1.0" encoding="utf-8"?>
<!-- Generator: Adobe Illustrator 19.2.0, SVG Export Plug-In . SVG Version: 6.00 Build 0)  -->
<svg version="1.1" id="Layer_1" xmlns="http://www.w3.org/2000/svg" xmlns:xlink="http://www.w3.org/1999/xlink" x="0px" y="0px"
	 viewBox="0 0 100 100" style="enable-background:new 0 0 100 100;" xml:space="preserve">
<path style="fill:#FFFFFF;" d="M100,46.2c0-4.3-3.5-7.7-7.7-7.7H61.5V7.7c0-4.3-3.4-7.7-7.7-7.7h-7.7c-4.2,0-7.7,3.4-7.7,7.7v30.8
	H7.7c-4.2,0-7.7,3.4-7.7,7.7v7.7c0,4.2,3.5,7.7,7.7,7.7h30.8v30.8c0,4.3,3.4,7.7,7.7,7.7h7.7c4.3,0,7.7-3.4,7.7-7.7V61.5h30.8
	c4.2,0,7.7-3.4,7.7-7.7L100,46.2L100,46.2z"/>
</svg>
