<?xml version="1.0" encoding="utf-8"?>
<!-- Generator: Adobe Illustrator 19.2.1, SVG Export Plug-In . SVG Version: 6.00 Build 0)  -->
<svg version="1.1" id="Layer_1" xmlns="http://www.w3.org/2000/svg" xmlns:xlink="http://www.w3.org/1999/xlink" x="0px" y="0px"
	 viewBox="0 0 80 74" style="enable-background:new 0 0 80 74;" xml:space="preserve">
<g>
	<polygon style="fill-rule:evenodd;clip-rule:evenodd;fill:#FFFFFF;" points="51.7,69.3 1,69.3 1,11.8 13.6,11.8 13.8,7.6 38.6,7.6 
		40.1,11.8 51.7,11.8 	"/>
	<path style="fill-rule:evenodd;clip-rule:evenodd;fill:#A3897A;" d="M51.7,52.7v16.6c0,2.6-2.1,4.7-4.7,4.7H4.7
		C2.1,74,0,71.9,0,69.3V12.4c0-2.6,2.1-4.7,4.7-4.7h11.8v4.9H7.1c-1.3,0-2.4,1.1-2.4,2.4v52c0,1.3,1.1,2.4,2.4,2.4h37.6
		c1.3,0,2.4-1.1,2.4-2.4v-9.2L51.7,52.7z M47,21.9v-7c0-1.3-1.1-2.4-2.4-2.4h-9.4V7.6H47c2.6,0,4.7,2.1,4.7,4.7v4.8L47,21.9z"/>
	<g>
		<path style="fill-rule:evenodd;clip-rule:evenodd;fill:#D9D9D9;" d="M40,14.5c1.3,0,2.4,1.1,2.4,2.4c0,1.3,0,4.6,0,4.6H9.4
			c0,0,0-3.3,0-4.6c0-1.3,1.1-2.4,2.4-2.4h7.1c0,0,0-3.4,0-7.2c0-4,3.1-7.3,7-7.3c4,0,7.1,3.5,7.1,7.3c0,4.1-0.1,7.2-0.1,7.2H40z
			 M25.9,7.1c-1.3,0-2.4,1.1-2.4,2.4c0,1.3,1.1,2.4,2.4,2.4c1.3,0,2.4-1.1,2.4-2.4C28.2,8.1,27.2,7.1,25.9,7.1z"/>
	</g>
	<g>
		<path style="fill-rule:evenodd;clip-rule:evenodd;fill:#C99D66;" d="M65.8,8.1c1.6-1.6,4.2-1.6,5.8,0l7.2,7.2
			c1.6,1.6,1.6,4.2,0,5.8l-4.4,4.5l-13-13L65.8,8.1z"/>
		<path style="fill-rule:evenodd;clip-rule:evenodd;fill:#93C01F;" d="M29.1,44.6l30.5-30.7L72.7,27L42.2,57.7L29.1,44.6z"/>
		<path style="fill-rule:evenodd;clip-rule:evenodd;fill:#E5D9C7;" d="M27.8,46.3l12.4,12.4l-10.8,3.9l-5.4-5.4L27.8,46.3z"/>
		<path style="fill-rule:evenodd;clip-rule:evenodd;fill:#868686;" d="M27.1,63.4l-6.3,2.3l2.3-6.3L27.1,63.4z"/>
	</g>
</g>
</svg>
