<?xml version="1.0" encoding="utf-8"?>
<!-- Generator: Adobe Illustrator 19.2.0, SVG Export Plug-In . SVG Version: 6.00 Build 0)  -->
<svg version="1.1" id="Layer_1" xmlns="http://www.w3.org/2000/svg" xmlns:xlink="http://www.w3.org/1999/xlink" x="0px" y="0px"
	 viewBox="0 0 100 100" style="enable-background:new 0 0 100 100;" xml:space="preserve">
<g>
	<g>
		<path style="fill:#6F7070;" d="M18,88c0,6.6,5.4,12,12,12h40c6.6,0,12-5.4,12-12l8-64H10L18,88z M62,36h8v52h-8V36z M46,36h8v52
			h-8V36z M30,36h8v52h-8V36z M88,8H62c0,0-1.8-8-4-8H42c-2.2,0-4,8-4,8H12c-3.3,0-6,2.7-6,6s0,6,0,6h88c0,0,0-2.7,0-6S91.3,8,88,8z
			"/>
	</g>
</g>
</svg>
