<?xml version="1.0" encoding="utf-8"?>
<!-- Generator: Adobe Illustrator 19.2.1, SVG Export Plug-In . SVG Version: 6.00 Build 0)  -->
<svg version="1.1" id="Layer_1" xmlns="http://www.w3.org/2000/svg" xmlns:xlink="http://www.w3.org/1999/xlink" x="0px" y="0px"
	 viewBox="0 0 100 100" style="enable-background:new 0 0 100 100;" xml:space="preserve">
<circle style="fill:#EC008C;" cx="50" cy="50" r="50"/>
<g>
	
		<g id="svg1_copy_3" inkscape:output_extension="org.inkscape.output.svg.inkscape" inkscape:version="0.46" sodipodi:docbase="C:\Documents and Settings\Jon Phillips\My Documents\projects\clipart-project\submissions" sodipodi:docname="heart_jon_phillips_01.svg" sodipodi:version="0.32" xmlns:cc="http://creativecommons.org/ns#" xmlns:dc="http://purl.org/dc/elements/1.1/" xmlns:inkscape="http://www.inkscape.org/namespaces/inkscape" xmlns:rdf="http://www.w3.org/1999/02/22-rdf-syntax-ns#" xmlns:sodipodi="http://sodipodi.sourceforge.net/DTD/sodipodi-0.dtd" xmlns:svg="http://www.w3.org/2000/svg">
		<defs>
			
			
				<inkscape:perspective  id="perspective9" inkscape:persp3d-origin="372.04724 : 350.78739 : 1" inkscape:vp_x="0 : 526.18109 : 1" inkscape:vp_y="0 : 1000 : 0" inkscape:vp_z="744.09448 : 526.18109 : 1" sodipodi:type="inkscape:persp3d">
				</inkscape:perspective>
		</defs>
		
			<sodipodi:namedview  bordercolor="#666666" borderopacity="1.0" id="base" inkscape:current-layer="layer1" inkscape:cx="549.40674" inkscape:cy="596.00159" inkscape:document-units="px" inkscape:guide-bbox="true" inkscape:pageopacity="0.0" inkscape:pageshadow="2" inkscape:window-height="667" inkscape:window-width="866" inkscape:window-x="88" inkscape:window-y="116" inkscape:zoom="0.35" pagecolor="#ffffff" showgrid="false" showguides="true">
			</sodipodi:namedview>
		<g id="layer1_2_" transform="translate(-134.06575,-225.79588)" inkscape:groupmode="layer" inkscape:label="Layer 1">
			<path id="path7_2_" sodipodi:nodetypes="ccccccc" style="fill:#FFFFFF;" d="M180.6,251.3c-8,0-14.5,6.5-14.5,14.5
				c0,16.2,16.4,20.5,27.6,36.6c10.6-16,27.6-20.8,27.6-36.6c0-8-6.5-14.5-14.5-14.5c-5.8,0-10.8,3.4-13.1,8.3
				C191.4,254.7,186.4,251.3,180.6,251.3z"/>
		</g>
	</g>
	<g>
		<path style="fill:#FFFFFF;" d="M63.8,52.8c0-4.4-3.6-8-8-8c-4.4,0-8.1,3.6-8.1,8c0,4,2.9,7.3,6.7,7.9v8.4
			c0,6.6-5.3,11.9-11.9,11.9c-6.6,0-11.9-5.3-11.9-11.9l0-9.7c3.1-0.4,6.2-2.2,8.9-5.4c0.4-0.5,0.5-1,0.5-1.6
			c3.5-4.7,5.7-11.1,5.7-16c0-7.6-3.4-8.4-9-9.6l0,0c-0.3-0.7-1-1.2-1.9-1.2c-1.2,0-2.1,1-2.1,2.1c0,1.2,1,2.1,2.1,2.1
			c0.5,0,0.9-0.2,1.3-0.5l0.1,0c5.4,1.3,6.9,1.6,6.9,7c0,4.3-2,10.1-5.2,14.3c-0.5,0-1,0.3-1.4,0.7c-1.6,1.8-4.1,4.1-7.1,4.1
			c-3,0-5.6-2.2-7.1-4c-0.4-0.4-0.9-0.7-1.4-0.7c-3.1-4.2-5.2-10-5.2-14.3c0-5.4,1.4-5.8,6.9-7l0,0c0.4,0.3,0.8,0.5,1.3,0.5
			c1.2,0,2.1-1,2.1-2.1c0-1.2-1-2.1-2.1-2.1c-0.8,0-1.5,0.5-1.9,1.2h0c-5.6,1.3-9,2.1-9,9.7c0,4.9,2.2,11.3,5.8,16
			c-0.1,0.6,0.1,1.2,0.4,1.6c2.7,3.1,5.7,4.9,8.8,5.3l0,9.7c0,8.1,6.6,14.6,14.6,14.6c8.1,0,14.6-6.5,14.6-14.6v-8.4
			C60.9,60.1,63.8,56.8,63.8,52.8L63.8,52.8z M55.8,58.2c-3,0-5.4-2.4-5.4-5.4c0-3,2.4-5.4,5.4-5.4c3,0,5.3,2.4,5.3,5.4
			C61.1,55.8,58.7,58.2,55.8,58.2L55.8,58.2z M55.8,58.2"/>
		<path d="M55.8,48.8c-2.2,0-4,1.8-4,4c0,2.2,1.8,4,4,4c2.2,0,4-1.8,4-4C59.8,50.6,58,48.8,55.8,48.8L55.8,48.8z M55.8,48.8"/>
	</g>
	<g>
		<path style="fill:#EC008C;" d="M56.7,72.7c0.3-1.1,0.4-2.3,0.4-3.5v-8.4c3.8-0.6,6.7-3.9,6.7-7.9l0,0c0-4.4-3.6-8-8-8
			c-4.4,0-8.1,3.6-8.1,8c0,4,2.9,7.3,6.7,7.9v8.4c0,0.3,0,0.6,0,1L56.7,72.7z M22.5,29.5 M36.4,29.6c5.1,1.2,6.5,1.6,6.5,6.9
			c0,4.3-2,10.1-5.2,14.3c-0.5,0-1,0.3-1.4,0.7c-0.2,0.2-0.3,0.4-0.5,0.5l2.6,3.1c0.3-0.3,0.6-0.7,1-1c0.4-0.5,0.5-1,0.5-1.6
			c3.5-4.7,5.7-11.1,5.7-16c0-6.4-2.4-7.9-6.5-9L36.4,29.6z M55.8,58.2c-3,0-5.4-2.4-5.4-5.4c0-3,2.4-5.4,5.4-5.4
			c3,0,5.3,2.4,5.3,5.4C61.1,55.8,58.7,58.2,55.8,58.2L55.8,58.2z M55.8,58.2"/>
		<path style="fill:#EC008C;" d="M55.8,48.8c-2.2,0-4,1.8-4,4c0,2.2,1.8,4,4,4c2.2,0,4-1.8,4-4C59.8,50.6,58,48.8,55.8,48.8
			L55.8,48.8z M55.8,48.8"/>
	</g>
</g>
</svg>
