<?xml version="1.0" encoding="utf-8"?>
<!-- Generator: Adobe Illustrator 19.2.1, SVG Export Plug-In . SVG Version: 6.00 Build 0)  -->
<svg version="1.1" id="Layer_1" xmlns="http://www.w3.org/2000/svg" xmlns:xlink="http://www.w3.org/1999/xlink" x="0px" y="0px"
	 viewBox="0 0 100 100" style="enable-background:new 0 0 100 100;" xml:space="preserve">
<g>
	<circle style="fill:#44A9DF;" cx="50" cy="50" r="50"/>
	<g>
		<path style="fill:#FFFFFF;" d="M68.5,38.7l-8.7-8.8c-0.3,0.2-0.6,0.3-1,0.5c-0.4,0.1-0.9,0.2-1.4,0.2c-0.5,0-1.1-0.1-1.6-0.3
			L53,33.2c0.3,0.3,0.8,0.4,1.3,0.5c0.6,0,1.2-0.2,1.7-0.7l0.1-0.1l8.7,9.2c0.3,0.3,0.8,0.5,1.3,0.5c0.5,0,1-0.2,1.3-0.5l1.1-1.1
			c0.3-0.3,0.5-0.8,0.5-1.3C69,39.3,68.8,39,68.5,38.7L68.5,38.7z M68.5,38.7"/>
		<path style="fill:#FFFFFF;" d="M47.7,27.1l2.6-2.5c-0.1-0.5-0.2-1-0.2-1.4c0-0.8,0.3-1.6,0.7-2.3l-5.5-5.7c-0.8-0.8-2.3-0.8-3.1,0
			c-1.4,1.4-1.5,3.8-0.2,5.3L47.7,27.1z M47.7,27.1"/>
		<path style="fill:#FFFFFF;" d="M55.9,28c0.4,0.4,1,0.6,1.5,0.6c0.5,0,1.1-0.2,1.5-0.6l6.9-6.9c0.3-0.3,0.3-0.7,0-1l-0.1-0.1
			c-0.1-0.1-0.3-0.2-0.5-0.2c-0.2,0-0.3,0.1-0.5,0.2l-4.6,4.6c-0.2,0.2-0.5,0.3-0.8,0.3c-0.3,0-0.5-0.1-0.8-0.3l-0.1-0.1
			c-0.4-0.4-0.4-1,0-1.4l4.6-4.6c0.3-0.3,0.3-0.7,0-1L63,17.3c-0.1-0.1-0.3-0.2-0.5-0.2c-0.2,0-0.3,0.1-0.5,0.2l-4.6,4.6
			c-0.2,0.2-0.5,0.3-0.8,0.3c-0.3,0-0.5-0.1-0.8-0.3l-0.1-0.1c-0.2-0.2-0.3-0.5-0.3-0.8c0-0.3,0.1-0.5,0.3-0.8l4.6-4.6
			c0.1-0.1,0.2-0.3,0.2-0.5c0-0.2-0.1-0.3-0.2-0.5l-0.1-0.1c-0.1-0.1-0.3-0.2-0.5-0.2c-0.2,0,0,0.3-0.1,0.4l-6.9,6.9
			c-0.4,0.4-0.6,1-0.6,1.5c0,0.5,0.2,1.2,0.6,1.5l0.2,0.2L38.6,38.4c-0.3,0.3-0.5,0.8-0.5,1.3c0,0.5,0.2,1,0.5,1.3l1,1.2
			c0.3,0.3,0.8,0.7,1.3,0.7c0.5,0,1-0.3,1.3-0.7l13.5-14.4L55.9,28z M55.9,28"/>
	</g>
	<g>
		<path style="fill:#FFFFFF;" d="M76.3,49.7c-2.7-1.6-6.5-1.6-9.8-0.2c-3.1,1.4-5.3,4.3-6.6,6.6c-0.6-0.1-1.2,0.1-1.5,0.7
			c-0.3,0.5-0.1,1.2,0.3,1.6c-0.1,0.3-0.2,0.4-0.2,0.5l-6.3,13.9c-0.6-0.3-1.4,0-1.7,0.6c-0.3,0.6-0.1,1.4,0.6,1.8l0,0l-1.4,3.1
			h-3.5c-0.7,0-1.3,0.6-1.3,1.3c0,0.7,0.6,1.3,1.3,1.3h6.6c0.7,0,1.3-0.6,1.3-1.3c0-0.7-0.6-1.3-1.3-1.3h-0.1l0.9-2
			c0.1,0,0.2,0.1,0.4,0.1c0.5,0,0.9-0.3,1.2-0.7c0.3-0.6,0.1-1.3-0.5-1.7l6.6-14.5c0.2,0.1,0.4,0.1,0.5,0.1c0.5,0,1-0.3,1.2-0.7
			c0.3-0.6,0.1-1.4-0.5-1.7c1.1-1.9,2.9-4.3,5.3-5.3c2.5-1.1,5.4-1.1,7.4,0c1.5,0.8,2.3,2.2,2.5,4c0.4,3.4,0.1,5.6-0.9,6.7
			c-0.1,0.1-0.2,0.2-0.3,0.3v2.9c0.8-0.3,1.6-0.7,2.2-1.5c1.5-1.7,2-4.5,1.6-8.7C79.8,53.1,78.4,51,76.3,49.7z"/>
		<path style="fill:#FFFFFF;" d="M72.6,71.9c0.9,0,1.7,0.2,2.4,0.5v-6.2v-2.7V62c0-0.7,0.1-0.7-0.7-0.7h-2.6c-0.7,0-8,0.6-10,10.1
			l-1.2,7.9c0,0.7,0.6,1.6,1.3,1.6h6.2c-0.7-1-1.2-2.2-1.2-3.5C66.9,74.4,69.4,71.9,72.6,71.9z"/>
		<path style="fill:#FFFFFF;" d="M75.6,74.4c-0.2-0.2-0.4-0.4-0.7-0.5c-0.7-0.5-1.5-0.7-2.4-0.7c-2.4,0-4.4,2-4.4,4.4
			c0,1.4,0.7,2.7,1.7,3.5c0.4,0.3,0.8,0.5,1.2,0.7c0.5,0.2,0.9,0.2,1.4,0.2c0.5,0,1-0.1,1.4-0.2c0.5-0.2,0.9-0.4,1.3-0.7
			c0.4-0.3,0.7-0.6,0.9-1c0.5-0.7,0.8-1.5,0.8-2.5c0-0.9-0.3-1.7-0.7-2.3C76.1,74.9,75.9,74.6,75.6,74.4z M72.6,75.3
			c1.2,0,2.2,1,2.2,2.2c0,1.2-1,2.2-2.2,2.2c-1.2,0-2.2-1-2.2-2.2C70.4,76.3,71.3,75.3,72.6,75.3z"/>
	</g>
	<path style="fill:#FFFFFF;" d="M34.1,44.7c-0.9,1-8,1-8.9,0c-0.2,0-12.3,6.4-12.3,6.4l2.8,6.6l4.1-0.5v18.1h9.8h0.1h9.8V57.1
		l4.1,0.5l2.8-6.6C46.4,51.1,34.2,44.7,34.1,44.7z M25.4,46.2c2.6,1.1,6.4,1.1,8.4,0C32.6,49.3,27.6,49.8,25.4,46.2z"/>
</g>
<g>
	<circle style="fill:#44A9DF;" cx="50.7" cy="52" r="16.1"/>
	<g>
		<g>
			<circle style="fill-rule:evenodd;clip-rule:evenodd;fill:#FFFFFF;" cx="50.5" cy="52.2" r="13.1"/>
		</g>
	</g>
	<path style="fill-rule:evenodd;clip-rule:evenodd;fill:#44A9DF;" d="M45.3,57.5c-0.7,0.7-1.5,1.5-2.2,2.2c0-2,0-3.9,0-5.9
		c2,0,4,0,6,0c-0.7,0.7-1.5,1.4-2.2,2.2c0.3,0.2,0.6,0.5,0.9,0.6c2.8,1.7,6.4,0.6,7.7-2.4c0.2-0.5,0.6-0.7,1.1-0.7
		c0.5,0,0.9,0.3,1,0.8c0.1,0.3,0.1,0.6-0.1,0.8c-0.4,0.8-0.9,1.6-1.5,2.3c-1.1,1.1-2.4,1.8-3.9,2.1C49.4,60,47.2,59.3,45.3,57.5
		C45.3,57.6,45.3,57.6,45.3,57.5z"/>
	<path style="fill-rule:evenodd;clip-rule:evenodd;fill:#44A9DF;" d="M55.9,46.9c0.7-0.7,1.4-1.5,2.1-2.2c0,2,0,3.9,0,5.9
		c-2,0-4,0-5.9,0c0.7-0.7,1.4-1.5,2.1-2.2c-0.2-0.1-0.4-0.3-0.6-0.5c-0.9-0.6-1.9-1-3-1c-2.2,0-3.8,1-4.9,2.9c0,0.1-0.1,0.1-0.1,0.2
		c-0.2,0.6-0.9,0.9-1.5,0.7c-0.6-0.2-0.9-0.9-0.6-1.5c0.6-1.5,1.6-2.6,3-3.4c2.1-1.3,4.3-1.5,6.6-0.6c0.9,0.3,1.7,0.8,2.4,1.5
		C55.7,46.8,55.8,46.8,55.9,46.9C55.8,46.9,55.8,46.9,55.9,46.9C55.9,46.9,55.9,46.9,55.9,46.9z"/>
</g>
</svg>
