<?xml version="1.0" encoding="utf-8"?>
<!-- Generator: Adobe Illustrator 19.2.1, SVG Export Plug-In . SVG Version: 6.00 Build 0)  -->
<svg version="1.1" id="Layer_1" xmlns="http://www.w3.org/2000/svg" xmlns:xlink="http://www.w3.org/1999/xlink" x="0px" y="0px"
	 viewBox="0 0 100 100" style="enable-background:new 0 0 100 100;" xml:space="preserve">
<circle style="fill:#738035;" cx="50" cy="50" r="50"/>
<path style="fill:#FFFFFF;" d="M34.5,73v6.2c0,1,0.8,1.7,1.7,1.7h24.2c1,0,1.7-0.8,1.7-1.7v-6.1H69c2.7,0,4.9-2.2,4.9-4.9v-8.6
	l4-0.1c1.6,0,2.6-1.7,1.8-3.1l-4.3-8.2c-1-1.8-1.5-3.8-1.5-5.9c0-13-10.6-23.5-23.6-23.4c-13,0.1-23.3,10.6-23.2,23.6
	c0,3.7,1,7.3,2.5,10.4C32.9,59.2,34.5,66,34.5,73L34.5,73z"/>
<g>
	<path style="fill:#738035;" d="M38.2,33.9c0-0.3,0.2-0.6,0.5-0.8l2-0.8c0.2-0.1,0.4-0.3,0.5-0.5c0,0,0,0,0-0.1
		c0.1-0.2,0.1-0.4,0-0.6l-0.8-1.9c-0.1-0.3-0.1-0.7,0.2-0.9l0.9-0.9c0.2-0.2,0.6-0.3,0.9-0.2l2,0.8c0.2,0.1,0.4,0.1,0.6,0
		c0,0,0,0,0.1,0c0.2-0.1,0.4-0.2,0.5-0.5l0.8-2c0.1-0.3,0.4-0.5,0.8-0.5h1.3c0.3,0,0.6,0.2,0.8,0.5l0.8,2c0.1,0.2,0.3,0.4,0.5,0.4
		c0,0,0,0,0,0c0.2,0.1,0.4,0.1,0.6,0l2-0.8c0.3-0.1,0.7-0.1,0.9,0.2l0.9,0.9c0.2,0.2,0.3,0.6,0.2,0.9l-0.8,2c-0.1,0.2-0.1,0.4,0,0.6
		c0,0,0,0,0,0c0.1,0.2,0.2,0.4,0.5,0.5l2,0.8c0.3,0.1,0.5,0.4,0.5,0.8v1.3c0,0.3-0.2,0.6-0.5,0.8l-2,0.8c-0.2,0.1-0.4,0.3-0.5,0.5
		l0,0c-0.1,0.2-0.1,0.4,0,0.6l0.8,2c0.1,0.3,0.1,0.7-0.2,0.9L54,41.6c-0.2,0.2-0.6,0.3-0.9,0.2l-2-0.8c-0.2-0.1-0.4-0.1-0.6,0
		c0,0,0,0,0,0c-0.2,0.1-0.4,0.2-0.5,0.5l-0.8,2C49,43.8,48.7,44,48.3,44h-1.3c-0.3,0-0.6-0.2-0.8-0.5l-0.8-2
		c-0.1-0.2-0.3-0.4-0.5-0.5c0,0,0,0-0.1,0c-0.2-0.1-0.4-0.1-0.6,0l-2,0.8c-0.3,0.1-0.7,0.1-0.9-0.2l-0.9-0.9
		c-0.2-0.2-0.3-0.6-0.2-0.9l0.8-2c0.1-0.2,0.1-0.4,0-0.6c0,0,0,0,0-0.1c-0.1-0.2-0.2-0.4-0.5-0.5l-1.9-0.8c-0.3-0.1-0.5-0.4-0.5-0.8
		L38.2,33.9L38.2,33.9z"/>
	<path style="fill:#FFFFFF;" d="M47.7,38c2,0,3.6-1.6,3.6-3.6c0-2-1.6-3.6-3.6-3.6c-2,0-3.6,1.6-3.6,3.6C44.1,36.4,45.7,38,47.7,38
		L47.7,38z M47.7,38"/>
</g>
<g>
	<path style="fill:#738035;" d="M49.6,49.5c0-0.3,0.2-0.5,0.4-0.6l1.5-0.7c0.2-0.1,0.3-0.2,0.4-0.4c0,0,0,0,0-0.1
		c0.1-0.2,0.1-0.3,0-0.5l-0.6-1.5c-0.1-0.2,0-0.5,0.1-0.7l0.7-0.7c0.2-0.2,0.5-0.2,0.7-0.1l1.6,0.6c0.2,0.1,0.3,0.1,0.5,0
		c0,0,0,0,0,0c0.2-0.1,0.3-0.2,0.4-0.4l0.6-1.6c0.1-0.2,0.3-0.4,0.6-0.4h1c0.3,0,0.5,0.2,0.6,0.4l0.7,1.6c0.1,0.2,0.2,0.3,0.4,0.4
		c0,0,0,0,0,0c0.2,0.1,0.3,0.1,0.5,0l1.6-0.6c0.2-0.1,0.5,0,0.7,0.1l0.7,0.7c0.2,0.2,0.2,0.5,0.1,0.7l-0.6,1.6
		c-0.1,0.2-0.1,0.3,0,0.5c0,0,0,0,0,0c0.1,0.2,0.2,0.3,0.4,0.4l1.6,0.7c0.2,0.1,0.4,0.3,0.4,0.6v1c0,0.3-0.2,0.5-0.4,0.6l-1.6,0.7
		c-0.2,0.1-0.3,0.2-0.4,0.4l0,0c-0.1,0.2-0.1,0.3,0,0.5l0.7,1.6c0.1,0.2,0,0.5-0.1,0.7l-0.7,0.7c-0.2,0.2-0.5,0.2-0.7,0.1l-1.6-0.6
		c-0.2-0.1-0.3-0.1-0.5,0c0,0,0,0,0,0c-0.2,0.1-0.3,0.2-0.4,0.4l-0.6,1.6c-0.1,0.2-0.3,0.4-0.6,0.4h-1c-0.3,0-0.5-0.2-0.6-0.4
		l-0.7-1.6c-0.1-0.2-0.2-0.3-0.4-0.4c0,0,0,0,0,0c-0.2-0.1-0.3-0.1-0.5,0l-1.6,0.6c-0.2,0.1-0.5,0-0.7-0.1L51.5,55
		c-0.2-0.2-0.2-0.5-0.1-0.7l0.6-1.6c0.1-0.2,0.1-0.3,0-0.5c0,0,0,0,0-0.1c-0.1-0.2-0.2-0.3-0.4-0.4l-1.5-0.6
		c-0.2-0.1-0.4-0.3-0.4-0.6L49.6,49.5L49.6,49.5z"/>
	<path style="fill:#FFFFFF;" d="M57.2,52.8c1.6,0,2.8-1.3,2.8-2.8c0-1.6-1.3-2.8-2.8-2.8s-2.8,1.3-2.8,2.8
		C54.4,51.6,55.6,52.8,57.2,52.8L57.2,52.8z M57.2,52.8"/>
</g>
<g>
	<path style="fill:#738035;" d="M37.5,49.4c0-0.2,0.1-0.4,0.3-0.4l1.1-0.5c0.1,0,0.2-0.1,0.2-0.3c0,0,0,0,0,0c0-0.1,0-0.2,0-0.4
		l-0.4-1.1c-0.1-0.2,0-0.4,0.1-0.5l0.5-0.5c0.1-0.1,0.3-0.2,0.5-0.1l1.1,0.4c0.1,0,0.2,0,0.3,0c0,0,0,0,0,0c0.1,0,0.2-0.1,0.3-0.3
		l0.4-1.1c0.1-0.2,0.2-0.3,0.4-0.3h0.7c0.2,0,0.4,0.1,0.4,0.3l0.5,1.1c0,0.1,0.1,0.2,0.3,0.2c0,0,0,0,0,0c0.1,0,0.2,0,0.4,0l1.1-0.4
		c0.2-0.1,0.4,0,0.5,0.1l0.5,0.5c0.1,0.1,0.2,0.3,0.1,0.5l-0.4,1.1c0,0.1,0,0.2,0,0.3c0,0,0,0,0,0c0,0.1,0.1,0.2,0.3,0.3l1.1,0.5
		c0.2,0.1,0.3,0.2,0.3,0.4v0.7c0,0.2-0.1,0.4-0.3,0.4L46.6,51c-0.1,0-0.2,0.1-0.2,0.3l0,0c0,0.1,0,0.2,0,0.3l0.5,1.1
		c0.1,0.2,0,0.4-0.1,0.5l-0.5,0.5c-0.1,0.1-0.3,0.2-0.5,0.1l-1.1-0.4c-0.1,0-0.2,0-0.3,0c0,0,0,0,0,0c-0.1,0-0.2,0.1-0.3,0.2
		l-0.4,1.1c-0.1,0.2-0.2,0.3-0.4,0.3h-0.7c-0.2,0-0.4-0.1-0.4-0.3l-0.5-1.1c0-0.1-0.1-0.2-0.3-0.2c0,0,0,0,0,0c-0.1,0-0.2,0-0.3,0
		l-1.1,0.4c-0.2,0.1-0.4,0-0.5-0.1l-0.5-0.5c-0.1-0.1-0.2-0.3-0.1-0.5l0.4-1.1c0-0.1,0-0.2,0-0.4c0,0,0,0,0,0c0-0.1-0.1-0.2-0.3-0.3
		l-1.1-0.4c-0.2-0.1-0.3-0.2-0.3-0.4L37.5,49.4L37.5,49.4z"/>
	<path style="fill:#FFFFFF;" d="M42.8,51.7c1.1,0,2-0.9,2-2c0-1.1-0.9-2-2-2s-2,0.9-2,2C40.8,50.8,41.7,51.7,42.8,51.7L42.8,51.7z
		 M42.8,51.7"/>
</g>
</svg>
