<?xml version="1.0" encoding="utf-8"?>
<!-- Generator: Adobe Illustrator 19.2.1, SVG Export Plug-In . SVG Version: 6.00 Build 0)  -->
<svg version="1.1" id="Layer_1" xmlns="http://www.w3.org/2000/svg" xmlns:xlink="http://www.w3.org/1999/xlink" x="0px" y="0px"
	 viewBox="0 0 100 100" style="enable-background:new 0 0 100 100;" xml:space="preserve">
<g>
	<circle style="fill:#93C13E;" cx="22.5" cy="22.5" r="22.5"/>
	<path style="fill-rule:evenodd;clip-rule:evenodd;fill:#FFFFFF;" d="M18.9,12.6c5.7,0,10.2,3.4,10.2,7.6c0,4.2-4.6,7.6-10.2,7.6
		c-0.6,0-1.3,0-1.9-0.1c0,0-6.2,2.4-6.2,2.4s2-3.7,2-3.7c-2.5-1.4-4.2-3.6-4.2-6.2C8.6,16,13.2,12.6,18.9,12.6z"/>
	<path style="fill-rule:evenodd;clip-rule:evenodd;fill:#FFFFFF;" d="M27.6,14.9c6.7,6.7-1.2,13.8-7.6,13.8c0,0,0.7,1.5,6.4,1.5
		c0.6,0,1.3,0,1.9-0.1c0,0,6.2,2.4,6.2,2.4s-2-3.7-2-3.7c2.5-1.4,4.2-3.6,4.2-6.2C36.6,18.4,32.3,15,27.6,14.9z"/>
</g>
<g>
	<circle style="fill:#38A7DF;" cx="77.5" cy="77.5" r="22.5"/>
	<path style="fill-rule:evenodd;clip-rule:evenodd;fill:#FFFFFF;" d="M82.7,74.9c0,0,3.2,3.3,4.8,5c2.2,2.3,1.9,6-0.4,8.1
		c-2.2,2.1-5.8,2.4-8,0.2c-1.7-1.6-5-4.8-5-4.8L82.7,74.9z"/>
	<path style="fill-rule:evenodd;clip-rule:evenodd;fill:#FFFFFF;" d="M71.9,81.2c0,0-3.2-3.3-4.8-5c-2.2-2.3-1.9-6,0.4-8.1
		c2.2-2.1,5.8-2.3,8-0.2c1.7,1.6,5,4.8,5,4.8L71.9,81.2z"/>
</g>
<g>
	<circle style="fill:#F19220;" cx="77.5" cy="22.5" r="22.5"/>
	<g>
		<g>
			<path style="fill-rule:evenodd;clip-rule:evenodd;fill:#FFFFFF;" d="M84.8,15.5c-2.1,0-4,0.7-5.5,2c1.1,2,1.2,3.6,1.1,5.4
				c-0.3,2.4-1.3,4.3-3,5.8c1.5,2.5,4.3,4.2,7.4,4.2c4.8,0,8.7-3.9,8.7-8.7C93.5,19.4,89.6,15.5,84.8,15.5z M84.8,27.3
				c-3.3,0-4.4,1.8-4.4,1.8s1-3,4.4-3c3.4,0,4.3,3.1,4.3,3.1S88.1,27.3,84.8,27.3z"/>
		</g>
	</g>
	<g>
		<g>
			<circle style="fill-rule:evenodd;clip-rule:evenodd;fill:#FFFFFF;" cx="69.9" cy="21.6" r="9.1"/>
		</g>
	</g>
	<g>
		<g>
			<path style="fill-rule:evenodd;clip-rule:evenodd;fill:#F19220;" d="M69.8,25.7c-3.3,0-4.3-1.9-4.3-1.9s0.9,3.1,4.3,3.1
				c3.4,0,4.4-3,4.4-3S73.2,25.7,69.8,25.7z"/>
		</g>
	</g>
	<ellipse style="fill-rule:evenodd;clip-rule:evenodd;fill:#F19220;" cx="66.3" cy="19.8" rx="1.2" ry="1.5"/>
	<ellipse style="fill-rule:evenodd;clip-rule:evenodd;fill:#F19220;" cx="73.1" cy="19.8" rx="1.2" ry="1.5"/>
	<ellipse style="fill-rule:evenodd;clip-rule:evenodd;fill:#F19220;" cx="81.2" cy="22.1" rx="1.2" ry="1.5"/>
	<ellipse style="fill-rule:evenodd;clip-rule:evenodd;fill:#F19220;" cx="87.9" cy="22.1" rx="1.2" ry="1.5"/>
</g>
<g>
	<circle style="fill:#E6352B;" cx="22.5" cy="77.5" r="22.5"/>
	<g id="nwNYGv.tif">
		<g>
			<path style="fill:#FFFFFF;" d="M18.6,74.1c-0.2,0.2-0.3,0.5-0.4,0.8c-0.3,1.7-0.6,3.4-1,5.2c-0.1,0.8-0.8,1.2-1.6,1.1
				c-0.7-0.1-1.1-0.8-1-1.6c0.1-0.3,0.1-0.7,0.2-1c0.3-1.5,0.5-2.9,0.8-4.4c0-0.3,0.1-0.5,0.2-0.7c0.7-1.5,1.5-2.9,2.2-4.4
				c0.4-0.8,0.9-1.2,1.8-1.1c0.1,0,0.1,0,0.2,0c0.4,0,0.5,0.1,0.5,0.5c0.2,1.9,0.5,3.9,0.7,5.8c0,0.3,0,0.4-0.2,0.6
				c-0.5,0.3-0.6,0.8-0.5,1.3c0.1,0.5,0.4,0.8,0.9,1c0-0.2-0.2-0.2-0.2-0.2c-0.4-0.3-0.7-0.8-0.6-1.2c0.1-0.5,0.4-1,0.9-1
				c0.5,0,0.7-0.3,0.7-0.7c0.1-0.4,0.2-0.8,0.3-1.2c0.2-0.5,0.1-1-0.1-1.5c-0.5-1-0.9-2-1.4-3c-0.1-0.3-0.1-0.4,0.2-0.4
				c0.8,0,1.6,0,2.3,0c0.4,0,0.4,0,0.3,0.4c-0.3,1-0.5,2.1-0.8,3.1c-0.5,1.9-0.9,3.8-1.4,5.8c-0.1,0.2,0,0.3,0.2,0.3
				c1.3-0.1,2.6-0.2,3.9-0.4c0.2,0,0.3-0.1,0.3-0.3c0-0.3,0.3-0.2,0.4-0.2c0.2,0,0.2,0.1,0.2,0.2c0,0.1,0,0.2,0,0.2
				c0,4.8,0,9.5,0,14.3c0,0.6-0.2,1.2-0.7,1.6c-0.6,0.4-1.2,0.5-1.9,0.2c-0.7-0.3-1-0.9-1-1.6c0-2.5,0-5,0-7.5c0-0.8,0-1.6,0-2.3
				c0-0.3-0.1-0.4-0.4-0.4c-0.8,0-0.7-0.1-0.7,0.7c0,3.2,0,6.3,0,9.5c0,0.8-0.4,1.5-1.2,1.8c-1.1,0.4-2.4-0.4-2.4-1.6
				c0-0.1,0-0.3,0-0.4c0-5.6,0-11.1,0-16.7C18.6,74.4,18.6,74.2,18.6,74.1z"/>
			<path style="fill:#FFFFFF;" d="M26.2,64.1c0,1.8-1.4,3.5-3.5,3.5c-1.9,0-3.5-1.6-3.5-3.5c0-2,1.6-3.5,3.5-3.5
				C24.7,60.6,26.2,62.2,26.2,64.1z"/>
			<path style="fill:#FFFFFF;" d="M25.8,67.9c0.6-0.1,1.1,0.3,1.5,0.9c1.1,1.8,2.2,3.5,3.3,5.2c0.6,1,0.2,1.9-0.9,2.1
				c-0.9,0.2-1.7,0.1-2.6,0.2c-0.1,0-0.1,0-0.2,0c-0.9,0.1-0.7,0.2-0.8-0.7c-0.3-2.4-0.5-4.8-0.9-7.2C25,67.9,24.9,67.9,25.8,67.9z"
				/>
		</g>
	</g>
</g>
</svg>
