<?xml version="1.0" encoding="utf-8"?>
<!-- Generator: Adobe Illustrator 19.2.1, SVG Export Plug-In . SVG Version: 6.00 Build 0)  -->
<svg version="1.1" id="Layer_1" xmlns="http://www.w3.org/2000/svg" xmlns:xlink="http://www.w3.org/1999/xlink" x="0px" y="0px"
	 viewBox="0 0 100 100" style="enable-background:new 0 0 100 100;" xml:space="preserve">
<circle style="fill:#F15A29;" cx="50" cy="50" r="50"/>
<rect x="17.9" y="39.1" style="fill:#FFFFFF;" width="16.4" height="38.5"/>
<rect x="66.1" y="39.1" style="fill:#FFFFFF;" width="16.4" height="38.5"/>
<rect x="33.3" y="21.3" style="fill:#FFFFFF;" width="33.8" height="56.2"/>
<rect x="44" y="77.2" style="fill:#FFFFFF;" width="12.3" height="1.4"/>
<g>
	<g>
		<rect x="35.8" y="58.3" style="fill:#EF4136;" width="2.9" height="2.9"/>
		<rect x="35.8" y="53.9" style="fill:#EF4136;" width="2.9" height="2.9"/>
		<rect x="35.8" y="49.5" style="fill:#EF4136;" width="2.9" height="2.9"/>
	</g>
	<g>
		<rect x="40.1" y="58.3" style="fill:#EF4136;" width="2.9" height="2.9"/>
		<rect x="40.1" y="53.9" style="fill:#EF4136;" width="2.9" height="2.9"/>
		<rect x="40.1" y="49.5" style="fill:#EF4136;" width="2.9" height="2.9"/>
	</g>
	<g>
		<rect x="44.4" y="58.3" style="fill:#EF4136;" width="2.9" height="2.9"/>
		<rect x="44.4" y="53.9" style="fill:#EF4136;" width="2.9" height="2.9"/>
		<rect x="44.4" y="49.5" style="fill:#EF4136;" width="2.9" height="2.9"/>
	</g>
	<g>
		<rect x="48.7" y="58.3" style="fill:#EF4136;" width="2.9" height="2.9"/>
		<rect x="48.7" y="53.9" style="fill:#EF4136;" width="2.9" height="2.9"/>
		<rect x="48.7" y="49.5" style="fill:#EF4136;" width="2.9" height="2.9"/>
	</g>
	<g>
		<rect x="53" y="58.3" style="fill:#EF4136;" width="2.9" height="2.9"/>
		<rect x="53" y="53.9" style="fill:#EF4136;" width="2.9" height="2.9"/>
		<rect x="53" y="49.5" style="fill:#EF4136;" width="2.9" height="2.9"/>
	</g>
	<g>
		<rect x="57.3" y="58.3" style="fill:#EF4136;" width="2.9" height="2.9"/>
		<rect x="57.3" y="53.9" style="fill:#EF4136;" width="2.9" height="2.9"/>
		<rect x="57.3" y="49.5" style="fill:#EF4136;" width="2.9" height="2.9"/>
	</g>
	<g>
		<rect x="61.6" y="58.3" style="fill:#EF4136;" width="2.9" height="2.9"/>
		<rect x="61.6" y="53.9" style="fill:#EF4136;" width="2.9" height="2.9"/>
		<rect x="61.6" y="49.5" style="fill:#EF4136;" width="2.9" height="2.9"/>
	</g>
	<g>
		<rect x="35.8" y="45.4" style="fill:#EF4136;" width="2.9" height="2.9"/>
		<rect x="35.8" y="41.1" style="fill:#EF4136;" width="2.9" height="2.9"/>
		<rect x="35.8" y="36.7" style="fill:#EF4136;" width="2.9" height="2.9"/>
	</g>
	<g>
		<rect x="40.1" y="45.4" style="fill:#EF4136;" width="2.9" height="2.9"/>
		<rect x="40.1" y="41.1" style="fill:#EF4136;" width="2.9" height="2.9"/>
		<rect x="40.1" y="36.7" style="fill:#EF4136;" width="2.9" height="2.9"/>
	</g>
	<g>
		<rect x="44.4" y="45.4" style="fill:#EF4136;" width="2.9" height="2.9"/>
		<rect x="44.4" y="41.1" style="fill:#EF4136;" width="2.9" height="2.9"/>
		<rect x="44.4" y="36.7" style="fill:#EF4136;" width="2.9" height="2.9"/>
	</g>
	<g>
		<rect x="48.7" y="45.4" style="fill:#EF4136;" width="2.9" height="2.9"/>
		<rect x="48.7" y="41.1" style="fill:#EF4136;" width="2.9" height="2.9"/>
		<rect x="48.7" y="36.7" style="fill:#EF4136;" width="2.9" height="2.9"/>
	</g>
	<g>
		<rect x="53" y="45.4" style="fill:#EF4136;" width="2.9" height="2.9"/>
		<rect x="53" y="41.1" style="fill:#EF4136;" width="2.9" height="2.9"/>
		<rect x="53" y="36.7" style="fill:#EF4136;" width="2.9" height="2.9"/>
	</g>
	<g>
		<rect x="57.3" y="45.4" style="fill:#EF4136;" width="2.9" height="2.9"/>
		<rect x="57.3" y="41.1" style="fill:#EF4136;" width="2.9" height="2.9"/>
		<rect x="57.3" y="36.7" style="fill:#EF4136;" width="2.9" height="2.9"/>
	</g>
	<g>
		<rect x="20.3" y="41.6" style="fill:#EF4136;" width="2.9" height="2.9"/>
		<rect x="24.7" y="41.6" style="fill:#EF4136;" width="2.9" height="2.9"/>
		<rect x="29" y="41.6" style="fill:#EF4136;" width="2.9" height="2.9"/>
	</g>
	<g>
		<rect x="20.3" y="45.9" style="fill:#EF4136;" width="2.9" height="2.9"/>
		<rect x="24.7" y="45.9" style="fill:#EF4136;" width="2.9" height="2.9"/>
		<rect x="29" y="45.9" style="fill:#EF4136;" width="2.9" height="2.9"/>
	</g>
	<g>
		<rect x="20.3" y="50.2" style="fill:#EF4136;" width="2.9" height="2.9"/>
		<rect x="24.7" y="50.2" style="fill:#EF4136;" width="2.9" height="2.9"/>
		<rect x="29" y="50.2" style="fill:#EF4136;" width="2.9" height="2.9"/>
	</g>
	<g>
		<rect x="20.3" y="54.5" style="fill:#EF4136;" width="2.9" height="2.9"/>
		<rect x="24.7" y="54.5" style="fill:#EF4136;" width="2.9" height="2.9"/>
		<rect x="29" y="54.5" style="fill:#EF4136;" width="2.9" height="2.9"/>
	</g>
	<g>
		<rect x="20.3" y="58.8" style="fill:#EF4136;" width="2.9" height="2.9"/>
		<rect x="24.7" y="58.8" style="fill:#EF4136;" width="2.9" height="2.9"/>
		<rect x="29" y="58.8" style="fill:#EF4136;" width="2.9" height="2.9"/>
	</g>
	<g>
		<rect x="20.3" y="63.1" style="fill:#EF4136;" width="2.9" height="2.9"/>
		<rect x="24.7" y="63.1" style="fill:#EF4136;" width="2.9" height="2.9"/>
		<rect x="29" y="63.1" style="fill:#EF4136;" width="2.9" height="2.9"/>
	</g>
	<g>
		<rect x="20.3" y="67.4" style="fill:#EF4136;" width="2.9" height="2.9"/>
		<rect x="24.7" y="67.4" style="fill:#EF4136;" width="2.9" height="2.9"/>
		<rect x="29" y="67.4" style="fill:#EF4136;" width="2.9" height="2.9"/>
	</g>
	<g>
		<rect x="20.3" y="71.7" style="fill:#EF4136;" width="2.9" height="2.9"/>
		<rect x="24.7" y="71.7" style="fill:#EF4136;" width="2.9" height="2.9"/>
		<rect x="29" y="71.7" style="fill:#EF4136;" width="2.9" height="2.9"/>
	</g>
	<g>
		<rect x="68.5" y="41.6" style="fill:#EF4136;" width="2.9" height="2.9"/>
		<rect x="72.8" y="41.6" style="fill:#EF4136;" width="2.9" height="2.9"/>
		<rect x="77.2" y="41.6" style="fill:#EF4136;" width="2.9" height="2.9"/>
	</g>
	<g>
		<rect x="68.5" y="45.9" style="fill:#EF4136;" width="2.9" height="2.9"/>
		<rect x="72.8" y="45.9" style="fill:#EF4136;" width="2.9" height="2.9"/>
		<rect x="77.2" y="45.9" style="fill:#EF4136;" width="2.9" height="2.9"/>
	</g>
	<g>
		<rect x="68.5" y="50.2" style="fill:#EF4136;" width="2.9" height="2.9"/>
		<rect x="72.8" y="50.2" style="fill:#EF4136;" width="2.9" height="2.9"/>
		<rect x="77.2" y="50.2" style="fill:#EF4136;" width="2.9" height="2.9"/>
	</g>
	<g>
		<rect x="68.5" y="54.5" style="fill:#EF4136;" width="2.9" height="2.9"/>
		<rect x="72.8" y="54.5" style="fill:#EF4136;" width="2.9" height="2.9"/>
		<rect x="77.2" y="54.5" style="fill:#EF4136;" width="2.9" height="2.9"/>
	</g>
	<g>
		<rect x="68.5" y="58.8" style="fill:#EF4136;" width="2.9" height="2.9"/>
		<rect x="72.8" y="58.8" style="fill:#EF4136;" width="2.9" height="2.9"/>
		<rect x="77.2" y="58.8" style="fill:#EF4136;" width="2.9" height="2.9"/>
	</g>
	<g>
		<rect x="68.5" y="63.1" style="fill:#EF4136;" width="2.9" height="2.9"/>
		<rect x="72.8" y="63.1" style="fill:#EF4136;" width="2.9" height="2.9"/>
		<rect x="77.2" y="63.1" style="fill:#EF4136;" width="2.9" height="2.9"/>
	</g>
	<g>
		<rect x="68.5" y="67.4" style="fill:#EF4136;" width="2.9" height="2.9"/>
		<rect x="72.8" y="67.4" style="fill:#EF4136;" width="2.9" height="2.9"/>
		<rect x="77.2" y="67.4" style="fill:#EF4136;" width="2.9" height="2.9"/>
	</g>
	<g>
		<rect x="68.5" y="71.7" style="fill:#EF4136;" width="2.9" height="2.9"/>
		<rect x="72.8" y="71.7" style="fill:#EF4136;" width="2.9" height="2.9"/>
		<rect x="77.2" y="71.7" style="fill:#EF4136;" width="2.9" height="2.9"/>
	</g>
	<g>
		<rect x="61.6" y="45.4" style="fill:#EF4136;" width="2.9" height="2.9"/>
		<rect x="61.6" y="41.1" style="fill:#EF4136;" width="2.9" height="2.9"/>
		<rect x="61.6" y="36.7" style="fill:#EF4136;" width="2.9" height="2.9"/>
	</g>
	<g>
		<rect x="35.8" y="67" style="fill:#EF4136;" width="2.9" height="2.9"/>
		<rect x="35.8" y="62.6" style="fill:#EF4136;" width="2.9" height="2.9"/>
		<rect x="35.8" y="58.3" style="fill:#EF4136;" width="2.9" height="2.9"/>
	</g>
	<g>
		<rect x="40.1" y="67" style="fill:#EF4136;" width="2.9" height="2.9"/>
		<rect x="40.1" y="62.6" style="fill:#EF4136;" width="2.9" height="2.9"/>
		<rect x="40.1" y="58.3" style="fill:#EF4136;" width="2.9" height="2.9"/>
	</g>
	<g>
		<rect x="44.4" y="67" style="fill:#EF4136;" width="2.9" height="2.9"/>
		<rect x="44.4" y="62.6" style="fill:#EF4136;" width="2.9" height="2.9"/>
		<rect x="44.4" y="58.3" style="fill:#EF4136;" width="2.9" height="2.9"/>
	</g>
	<g>
		<rect x="48.7" y="67" style="fill:#EF4136;" width="2.9" height="2.9"/>
		<rect x="48.7" y="62.6" style="fill:#EF4136;" width="2.9" height="2.9"/>
		<rect x="48.7" y="58.3" style="fill:#EF4136;" width="2.9" height="2.9"/>
	</g>
	<g>
		<rect x="53" y="67" style="fill:#EF4136;" width="2.9" height="2.9"/>
		<rect x="53" y="62.6" style="fill:#EF4136;" width="2.9" height="2.9"/>
		<rect x="53" y="58.3" style="fill:#EF4136;" width="2.9" height="2.9"/>
	</g>
	<g>
		<rect x="57.3" y="67" style="fill:#EF4136;" width="2.9" height="2.9"/>
		<rect x="57.3" y="62.6" style="fill:#EF4136;" width="2.9" height="2.9"/>
		<rect x="57.3" y="58.3" style="fill:#EF4136;" width="2.9" height="2.9"/>
	</g>
	<g>
		<rect x="61.6" y="67" style="fill:#EF4136;" width="2.9" height="2.9"/>
		<rect x="61.6" y="62.6" style="fill:#EF4136;" width="2.9" height="2.9"/>
		<rect x="61.6" y="58.3" style="fill:#EF4136;" width="2.9" height="2.9"/>
	</g>
	<rect x="46.1" y="72.2" style="fill:#EF4136;" width="8.1" height="5.4"/>
	<rect x="43" y="78.6" style="fill:#FFFFFF;" width="14.4" height="1.4"/>
</g>
<circle style="fill:#EF4136;" cx="50.1" cy="29.1" r="5.4"/>
<polygon style="fill:#FFFFFF;" points="53,28.2 51,28.2 51,26.1 49.3,26.1 49.3,28.2 47.2,28.2 47.2,29.9 49.3,29.9 49.3,32 51,32 
	51,29.9 53,29.9 "/>
</svg>
