<?xml version="1.0" encoding="utf-8"?>
<!-- Generator: Adobe Illustrator 19.2.1, SVG Export Plug-In . SVG Version: 6.00 Build 0)  -->
<svg version="1.1" id="Layer_1" xmlns="http://www.w3.org/2000/svg" xmlns:xlink="http://www.w3.org/1999/xlink" x="0px" y="0px"
	 viewBox="0 0 100 100" style="enable-background:new 0 0 100 100;" xml:space="preserve">
<circle style="fill:#C32026;" cx="50" cy="50" r="50"/>
<path style="fill-rule:evenodd;clip-rule:evenodd;fill:#FFFFFF;" d="M58,85c6.7,0,13.5,0,20.2,0c2.1-1.5,7.3-7.3,9-10.9
	c-0.7-0.2-2.1-1-2.8-1.2c-0.9-0.3-1.7-0.6-2.6-1c-0.8-0.3-1.3-1.4-1.3-2.3c0-0.1,0.1-0.2,0.1-0.3c1.8-2.6,2.8-5.5,3.3-8.6
	c0.3-1.7,0.3-3.4,0-5.1c-0.5-2.9-2.4-4.7-5.3-5.1c-1.4-0.2-2.8-0.2-4.1,0.1c-3,0.6-4.7,2.4-5.1,5.4c-0.5,3.4,0.2,6.6,1.4,9.7
	c0.4,1.1,1.1,2.2,1.7,3.3c0.1,0.2,0.2,0.4,0.2,0.6c-0.1,1.3-0.5,2.2-1.8,2.7c-1.8,0.6-3.6,1.2-5.4,1.9c-1.1,0.4-2.2,1-3.3,1.6
	c-1.9,1-2.9,2.6-3.5,4.5c-0.4,1.4-0.6,2.9-0.6,4.4C58,84.7,58,84.8,58,85z"/>
<path style="fill-rule:evenodd;clip-rule:evenodd;fill:#FFFFFF;" d="M67.9,37.3c0,0.5,3.8,2.5,3.7,3c-0.1,0.7-3.9-0.2-4.1,0.4
	c-0.2,0.9,1.9,1.7,1.6,2.6c-0.2,0.6-2.9,1.1-3.2,1.7c-0.3,0.5,3.8,3.3,3.4,3.8c-0.3,0.5-5.1-1.3-5.5-0.8c-0.4,0.4,1.1,2.6,0.7,3
	c-0.4,0.4-2.7-0.9-3.1-0.5c-0.4,0.4,0.3,1.6-0.2,2c-0.5,0.4-2.2-0.2-2.7,0.2c-0.3,0.2,0.6,1.1,0.3,1.3c-0.2,0.1-1.8-0.5-2-0.3
	c0,0.1,5.4,9.8,5.4,9.8s-16.4-6.2-16.4-6.3c-0.8,0.1-0.6,5-1.4,5c-0.8,0.1-2.7-4.7-3.5-4.7c-1.1,0-2.1,1.9-3.1,1.8
	c-0.9-0.1-1.9-2.2-2.8-2.3c-0.9-0.1-2.7,2.2-3.5,2c-0.7-0.2-0.5-2.9-1.3-3.1c-1.1-0.4-5.1,4-6.1,3.6c-0.9-0.4,1.2-5.6,0.4-6.1
	c-0.8-0.4-2.7,1.2-3.4,0.7c-0.7-0.5-0.1-3-0.7-3.5c-0.6-0.5-2.7,0.4-3.2-0.1c-0.5-0.5,0.7-2.5,0.2-3c-0.3-0.4-7,2-7.3,1.5
	c-0.4-0.7,5.5-4.1,5.2-4.9c-0.3-0.6-3.2-0.2-3.4-0.9c-0.2-0.6,2.3-2.3,2.1-3c-0.2-1-2.6-1.6-2.6-2.6c0-0.7,2.3-1.7,2.4-2.4
	c0.1-0.6-4.9-2.6-4.7-3.2c0.2-0.6,5.5,0.2,5.7-0.4c0.3-0.8-1.3-3-0.9-3.8c0.4-0.6,2.6,0.3,3.1-0.2c0.5-0.7-0.1-2.4,0.5-3.1
	c0.5-0.5,2.3,0,2.9-0.5c0.6-0.5-0.5-3.4,0.2-3.9c0.6-0.4,2.9,1.6,3.5,1.2c0.6-0.3-2.3-5.7-1.7-6c0.7-0.3,4.8,4.5,5.5,4.2
	c0.8-0.3-0.2-3.3,0.6-3.6c0.7-0.2,3.2,2.3,3.9,2.2c1-0.2,1.8-2,2.9-2.2c0.7-0.1,1.6,1.4,2.4,1.3c1-0.1,1.4-3.9,2.5-3.9
	c0.8,0,2.2,3.8,3,3.9c0.8,0,2.1-1.8,2.9-1.7c0.9,0.1,1.3,2.2,2.2,2.4c0.8,0.2,3.8-3.8,4.6-3.6c0.8,0.2-0.7,4.7,0,4.9
	c0.7,0.3,2.3-1,3-0.7c0.7,0.3,0.4,2.1,1.1,2.5c0.7,0.4,2.4-0.2,3.1,0.3c0.5,0.4,0,1.7,0.5,2.1c0.6,0.5,4-0.6,4.5-0.1
	c0.5,0.5-1.8,2.5-1.4,3c0.4,0.5,6.6-1.5,7-1c0.3,0.4-5.3,3.3-5,3.7c0.3,0.5,3.3,0.7,3.5,1.2c0.3,0.5-2.2,1.3-2,1.9
	c0.2,0.6,1.5,1.1,1.7,1.7c0.1,0.4-1,0.8-0.9,1.2c0.1,0.6,2.7,1.1,2.8,1.7C70.5,36.8,67.9,37.1,67.9,37.3z"/>
<g>
	<path style="fill:#C32026;" d="M18.6,39.9h-1.3v-1.7h1.5l0.2-2h-1.4v-1.7h1.6l0.4-2.9h1.5l-0.4,2.9h1.9l0.4-2.9h1.5l-0.4,2.9h1.4
		v1.7H24l-0.2,2h1.5v1.7h-1.7l-0.4,3.3h-1.5l0.4-3.3h-1.8l-0.4,3.3h-1.5L18.6,39.9z M22.2,38.2l0.2-2h-1.9l-0.2,2H22.2z"/>
	<path style="fill:#C32026;" d="M26.6,35.1c0-2.3,1.2-3.7,2.9-3.7c1.7,0,2.9,1.4,2.9,3.7c0,2.3-1.2,3.7-2.9,3.7
		C27.8,38.8,26.6,37.4,26.6,35.1z M30.5,35.1c0-1.6-0.5-2.2-1.1-2.2s-1.1,0.6-1.1,2.2c0,1.7,0.5,2.2,1.1,2.2S30.5,36.7,30.5,35.1z
		 M29.9,43.5l6.3-12h1.5l-6.3,12H29.9z M35.1,39.8c0-2.3,1.2-3.7,2.9-3.7c1.7,0,2.9,1.4,2.9,3.7c0,2.3-1.2,3.7-2.9,3.7
		C36.4,43.5,35.1,42.1,35.1,39.8z M39.1,39.8c0-1.7-0.5-2.2-1.1-2.2c-0.6,0-1.1,0.6-1.1,2.2c0,1.7,0.5,2.2,1.1,2.2
		C38.6,42,39.1,41.4,39.1,39.8z"/>
	<path style="fill:#C32026;" d="M50.3,31.3c3.9,0,6.3,2.6,6.3,6.3c0,3.3-2.2,4.9-4.1,4.9c-1,0-1.9-0.5-2.1-1.4h0
		c-0.5,0.7-1.4,1.2-2.1,1.2c-1.4,0-2.4-1-2.4-2.7c0-2.2,1.6-4.4,3.6-4.4c0.6,0,1.1,0.2,1.4,0.9h0l0.2-0.7h1.6L52,39.4
		c-0.2,1,0,1.5,0.8,1.5c1.1,0,2.1-1.2,2.1-3.2c0-2.5-1.4-4.8-4.9-4.8c-3,0-6.1,2.6-6.1,6.6c0,3.5,2.4,5.2,5.2,5.2
		c0.9,0,2-0.3,2.7-0.7l0.6,1.4c-1.1,0.6-2.2,0.9-3.5,0.9c-3.6,0-6.8-2.2-6.8-6.7C42.3,34.6,45.9,31.3,50.3,31.3z M48.9,40.8
		c0.4,0,0.7-0.2,1.2-0.8l0.4-2.4C50.3,37.2,50,37,49.7,37c-1.1,0-1.7,1.5-1.7,2.5C48,40.4,48.3,40.8,48.9,40.8z"/>
	<path style="fill:#C32026;" d="M60.5,40.2c0.9,0,1.6,0.7,1.6,1.7c0,0.9-0.7,1.6-1.6,1.6c-0.9,0-1.6-0.7-1.6-1.6
		C58.9,40.9,59.6,40.2,60.5,40.2z M59.3,33.7l-0.1-2.4h2.6l-0.1,2.4l-0.4,5.5h-1.7L59.3,33.7z"/>
</g>
</svg>
