<?xml version="1.0" encoding="utf-8"?>
<!-- Generator: Adobe Illustrator 19.2.1, SVG Export Plug-In . SVG Version: 6.00 Build 0)  -->
<svg version="1.1" id="Layer_1" xmlns="http://www.w3.org/2000/svg" xmlns:xlink="http://www.w3.org/1999/xlink" x="0px" y="0px"
	 viewBox="0 0 100 100" style="enable-background:new 0 0 100 100;" xml:space="preserve">
<circle style="fill:#9E1F63;" cx="50" cy="50" r="50"/>
<path style="fill-rule:evenodd;clip-rule:evenodd;fill:#FFFFFF;" d="M57.5,74.3l4.1-1.7L66,83.4l-4.1,1.7L57.5,74.3z M57.5,74.3
	l-4.1-1.7L49,83.4l4.1,1.7L57.5,74.3z"/>
<path style="fill-rule:evenodd;clip-rule:evenodd;fill:#FFFFFF;" d="M69.8,65h5.9v12.9c0,1.8-1.5,3.3-3.3,3.3h-5.9
	c1.8,0,3.3-1.5,3.3-3.3V65z"/>
<defs>
	<filter id="Adobe_OpacityMaskFilter" filterUnits="userSpaceOnUse" x="26.1" y="19" width="46.7" height="62.1">
		<feFlood  style="flood-color:white;flood-opacity:1" result="back"/>
		<feBlend  in="SourceGraphic" in2="back" mode="normal"/>
	</filter>
</defs>
<mask maskUnits="userSpaceOnUse" x="26.1" y="19" width="46.7" height="62.1" id="SVGID_1_">
	<g style="filter:url(#Adobe_OpacityMaskFilter);">
		<path style="fill:#231F20;" d="M31.1,37.3c-0.4,0-0.7-0.3-0.7-0.7c0-0.4,0.3-0.7,0.7-0.7h33.8c0.4,0,0.7,0.3,0.7,0.7
			c0,0.4-0.3,0.7-0.7,0.7H31.1L31.1,37.3z M31.1,44c-0.4,0-0.7-0.3-0.7-0.7c0-0.4,0.3-0.7,0.7-0.7h33.8c0.4,0,0.7,0.3,0.7,0.7
			c0,0.4-0.3,0.7-0.7,0.7H31.1L31.1,44z M31.1,50.8c-0.4,0-0.7-0.3-0.7-0.7c0-0.4,0.3-0.7,0.7-0.7h33.8c0.4,0,0.7,0.3,0.7,0.7
			c0,0.4-0.3,0.7-0.7,0.7H31.1L31.1,50.8z M31.1,57.6c-0.4,0-0.7-0.3-0.7-0.7c0-0.4,0.3-0.7,0.7-0.7h33.8c0.4,0,0.7,0.3,0.7,0.7
			c0,0.4-0.3,0.7-0.7,0.7H31.1L31.1,57.6z M31.1,64.3c-0.4,0-0.7-0.3-0.7-0.7c0-0.4,0.3-0.7,0.7-0.7h17c0.4,0,0.7,0.3,0.7,0.7
			c0,0.4-0.3,0.7-0.7,0.7H31.1L31.1,64.3z M31.1,71.1c-0.4,0-0.7-0.3-0.7-0.7c0-0.4,0.3-0.7,0.7-0.7h14.5c0.4,0,0.7,0.3,0.7,0.7
			c0,0.4-0.3,0.7-0.7,0.7H31.1z"/>
	</g>
</mask>
<path style="mask:url(#SVGID_1_);fill-rule:evenodd;clip-rule:evenodd;fill:#FFFFFF;" d="M69.8,77.8C69.8,77.9,69.8,77.9,69.8,77.8
	c0,0.1,0,0.1,0,0.1c0.1,1.6,1.3,3,3,3.1c-0.2,0-0.1,0-0.3,0h-4.4h-1.6h-0.3H29.4c-1.8,0-3.3-1.5-3.3-3.3V22.3c0-1.8,1.5-3.3,3.3-3.3
	h37.1c1.8,0,3.3,1.5,3.3,3.3V65v2V77.8z"/>
<path style="fill-rule:evenodd;clip-rule:evenodd;fill:#9E1F63;" d="M66.6,19L66.6,19c0.3,0,0.6,0,0.9,0.1C66,19.5,65,20.8,65,22.3
	v10.3h-1.7H26.1l-5.1-1.7h42.2v-6.3v-2.3C63.3,20.5,64.8,19,66.6,19z"/>
<path style="fill-rule:evenodd;clip-rule:evenodd;fill:#FFFFFF;" d="M24.4,19h42.2c-1.8,0-3.3,1.5-3.3,3.3v2.3v6.3H21.1v-8.6
	C21.1,20.5,22.6,19,24.4,19z"/>
<path style="fill-rule:evenodd;clip-rule:evenodd;fill:#9E1F63;" d="M71.5,65v12.9c0,1.4,0.9,2.6,2.1,3.1c-0.3,0.1-0.6,0.2-0.8,0.2
	c-1.7-0.2-3-1.6-3-3.3V65H71.5z"/>
<path style="fill-rule:evenodd;clip-rule:evenodd;fill:#9E1F63;" d="M57.5,74.7l4.1-1.7l3.2,8l-4.7,0.1L57.5,74.7z M57.5,74.7
	L53.4,73l-3.3,8.1l4.8,0L57.5,74.7z"/>
<polygon style="fill-rule:evenodd;clip-rule:evenodd;fill:#9E1F63;" points="57.5,60.4 59,61.6 60.7,61.1 61.6,62.7 63.4,63.1 
	63.6,64.9 65.1,66 64.5,67.7 65.5,69.3 64.2,70.6 64.4,72.5 62.7,73.2 62.2,75 60.4,74.9 59.2,76.3 57.5,75.5 55.8,76.3 54.6,74.9 
	52.8,75 52.2,73.2 50.5,72.5 50.8,70.6 49.5,69.3 50.5,67.7 49.9,66 51.4,64.9 51.5,63.1 53.3,62.7 54.2,61.1 56,61.6 "/>
</svg>
