<?xml version="1.0" encoding="utf-8"?>
<!-- Generator: Adobe Illustrator 19.2.1, SVG Export Plug-In . SVG Version: 6.00 Build 0)  -->
<svg version="1.1" id="Layer_1" xmlns="http://www.w3.org/2000/svg" xmlns:xlink="http://www.w3.org/1999/xlink" x="0px" y="0px"
	 viewBox="0 0 100 100" style="enable-background:new 0 0 100 100;" xml:space="preserve">
<circle style="fill:#00ADEE;" cx="50" cy="50" r="50"/>
<path style="fill:#00ADEE;" d="M34.8,66.9c8.4-8.4,22-8.4,30.4,0l26.4-26.4c-23-23-60.2-23-83.1,0L34.8,66.9z"/>
<path style="fill:#FFFFFF;" d="M34.8,68.9c-0.5,0-1-0.2-1.4-0.6L7,41.9c-0.8-0.8-0.8-2,0-2.8c11.5-11.5,26.7-17.8,43-17.8
	c0,0,0,0,0,0c16.2,0,31.5,6.3,43,17.8c0.4,0.4,0.6,0.9,0.6,1.4s-0.2,1-0.6,1.4L66.6,68.3c-0.8,0.8-2,0.8-2.8,0
	c-7.6-7.6-20-7.6-27.5,0C35.8,68.7,35.3,68.9,34.8,68.9z M11.3,40.5l23.6,23.6c8.7-7.4,21.5-7.4,30.2,0l23.6-23.6
	C78.2,30.7,64.5,25.3,50,25.3C35.5,25.3,21.8,30.7,11.3,40.5z"/>
<g>
	<path style="fill:#FFFFFF;" d="M49.7,70.1l-1.3,4.3l1.7,6.5h-3.1l-1-4.7l0,4.7h-3.3V67.8h3.3l0,5.5l1-3.1H49.7z"/>
	<path style="fill:#FFFFFF;" d="M58,70.1v8.3c0,1.1,0,1.8-0.1,2.2c-0.1,0.3-0.2,0.7-0.5,1C57,82,56.6,82.3,56,82.4
		c-0.6,0.2-1.3,0.3-2.1,0.3c-1,0-1.9-0.2-2.5-0.5c-0.6-0.4-1-1.1-1-2.1h3.2c0,0.5,0.2,0.7,0.5,0.7c0.3,0,0.4-0.1,0.5-0.2
		c0.1-0.1,0.1-0.5,0.1-0.9v-0.8c-0.3,0.3-0.6,0.4-0.9,0.6s-0.6,0.2-1,0.2c-0.6,0-1.1-0.1-1.5-0.4s-0.6-0.5-0.8-0.9
		c-0.1-0.4-0.2-0.9-0.2-1.6v-3.9c0-1,0.2-1.8,0.6-2.2c0.4-0.4,0.9-0.7,1.7-0.7c0.4,0,0.8,0.1,1.1,0.3c0.3,0.2,0.6,0.4,0.9,0.8
		l0.2-0.8H58z M54.7,73c0-0.5,0-0.8-0.1-0.9c-0.1-0.1-0.2-0.2-0.4-0.2c-0.2,0-0.3,0.1-0.4,0.2c-0.1,0.2-0.1,0.5-0.1,0.9v3.6
		c0,0.5,0,0.8,0.1,0.9c0.1,0.1,0.2,0.2,0.4,0.2c0.2,0,0.4-0.1,0.4-0.3c0.1-0.2,0.1-0.6,0.1-1.2V73z"/>
</g>
<path style="fill:#FFFFFF;" d="M23.2,42.4l4.5,7.8l-1.9,1.1l-2.4-4.2c-0.3-0.6-0.6-1-0.7-1.1c-0.1-0.1-0.2-0.2-0.4-0.1
	c-0.2,0-0.5,0.1-0.9,0.4l-0.2,0.1l-0.5-0.9c0.8-0.7,1.3-1.6,1.4-2.5L23.2,42.4z"/>
<path style="fill:#FFFFFF;" d="M35,39.1l1.5,2.6c0.3,0.6,0.6,1,0.6,1.3c0.1,0.3,0.1,0.6,0,1c-0.1,0.4-0.2,0.7-0.4,0.9
	c-0.2,0.3-0.5,0.5-0.9,0.7c-0.5,0.3-0.9,0.4-1.3,0.5c-0.4,0.1-0.7,0-1-0.1c-0.3-0.1-0.6-0.3-0.8-0.5c-0.2-0.2-0.5-0.6-0.8-1.1
	l-1.6-2.7C30,41,29.8,40.5,29.7,40s0-0.9,0.2-1.3c0.2-0.4,0.6-0.8,1.1-1.1c0.4-0.2,0.8-0.4,1.3-0.4c0.4,0,0.8,0,1.1,0.1
	s0.5,0.3,0.8,0.5C34.4,38.1,34.7,38.5,35,39.1z M32.7,39.6c-0.2-0.4-0.4-0.7-0.5-0.7c-0.1-0.1-0.2-0.1-0.4,0
	c-0.1,0.1-0.2,0.2-0.2,0.3c0,0.1,0.1,0.4,0.4,0.8l2.2,3.8c0.3,0.5,0.4,0.7,0.5,0.8c0.1,0.1,0.2,0.1,0.4,0c0.1-0.1,0.2-0.2,0.2-0.3
	c0-0.1-0.1-0.4-0.4-0.8L32.7,39.6z"/>
<path style="fill:#FFFFFF;" d="M30.1,41.9l1.5,2.6c0.3,0.6,0.6,1,0.6,1.3c0.1,0.3,0.1,0.6,0,1c-0.1,0.4-0.2,0.7-0.4,0.9
	c-0.2,0.3-0.5,0.5-0.9,0.7c-0.5,0.3-0.9,0.4-1.3,0.5c-0.4,0.1-0.7,0-1-0.1s-0.6-0.3-0.8-0.5c-0.2-0.2-0.5-0.6-0.8-1.1l-1.6-2.7
	c-0.4-0.7-0.7-1.3-0.7-1.7c-0.1-0.4,0-0.9,0.2-1.3s0.6-0.8,1.1-1.1c0.4-0.2,0.8-0.4,1.3-0.4c0.4,0,0.8,0,1.1,0.1
	c0.3,0.1,0.5,0.3,0.8,0.5C29.4,40.9,29.7,41.3,30.1,41.9z M27.7,42.4c-0.2-0.4-0.4-0.7-0.5-0.7c-0.1-0.1-0.2-0.1-0.4,0
	c-0.1,0.1-0.2,0.2-0.2,0.3c0,0.1,0.1,0.4,0.4,0.8l2.2,3.8c0.3,0.5,0.4,0.7,0.5,0.8c0.1,0.1,0.2,0.1,0.4,0c0.1-0.1,0.2-0.2,0.2-0.3
	c0-0.1-0.1-0.4-0.4-0.8L27.7,42.4z"/>
<g>
	<path style="fill:#FFFFFF;" d="M69.5,38.7l-4.2,7.9l-2-1l2.2-4.3c0.3-0.6,0.5-1,0.5-1.1c0-0.1,0-0.3-0.1-0.4
		c-0.1-0.1-0.4-0.3-0.8-0.6L65,39.1l0.5-0.9c1.1,0.3,2,0.3,2.9-0.1L69.5,38.7z"/>
	<path style="fill:#FFFFFF;" d="M71.1,48l-0.7,1.4L66,47l0.6-1.1c2.4-1.4,3.9-2.3,4.4-2.7c0.5-0.4,0.8-0.7,1-1
		c0.1-0.2,0.2-0.4,0.1-0.5c0-0.1-0.1-0.3-0.3-0.3c-0.2-0.1-0.3-0.1-0.4,0c-0.1,0.1-0.3,0.3-0.5,0.6l-0.4,0.8l-1.8-0.9l0.2-0.3
		c0.2-0.4,0.4-0.8,0.6-1c0.2-0.2,0.4-0.4,0.7-0.6c0.3-0.2,0.6-0.2,1-0.2c0.4,0,0.7,0.1,1.1,0.4c0.8,0.4,1.3,0.9,1.5,1.5
		c0.2,0.6,0.1,1.2-0.2,1.8c-0.2,0.5-0.6,0.9-1.1,1.3s-1.7,1.1-3.7,2.2L71.1,48z"/>
	<path style="fill:#FFFFFF;" d="M78.6,46.9l-1.4,2.6c-0.3,0.6-0.6,1-0.8,1.3s-0.5,0.4-0.8,0.6c-0.3,0.1-0.7,0.2-1,0.1
		c-0.3,0-0.7-0.2-1.1-0.4c-0.5-0.3-0.8-0.5-1.1-0.8c-0.3-0.3-0.4-0.6-0.5-0.9c-0.1-0.3-0.1-0.6,0-0.9c0.1-0.3,0.2-0.7,0.5-1.3
		l1.5-2.8c0.4-0.7,0.7-1.2,1.1-1.5c0.3-0.3,0.7-0.5,1.2-0.5c0.5,0,1,0.1,1.5,0.4c0.4,0.2,0.8,0.5,1.1,0.8c0.3,0.3,0.4,0.7,0.5,1
		c0.1,0.3,0,0.6,0,0.9C79.1,45.9,78.9,46.3,78.6,46.9z M76.9,45.2c0.2-0.4,0.3-0.7,0.4-0.8c0-0.1-0.1-0.2-0.2-0.3
		c-0.1-0.1-0.3-0.1-0.4,0c-0.1,0.1-0.3,0.3-0.5,0.7l-2,3.9c-0.2,0.5-0.4,0.8-0.4,0.9c0,0.1,0.1,0.2,0.2,0.3s0.3,0.1,0.4,0
		c0.1-0.1,0.3-0.3,0.5-0.7L76.9,45.2z"/>
</g>
<path style="fill:#FFFFFF;" d="M45.3,35l0.2,9l-2.2,0l-0.1-4.8c0-0.7,0-1.1-0.1-1.3c0-0.1-0.1-0.2-0.3-0.3c-0.2-0.1-0.5-0.1-1-0.1
	l-0.2,0l0-1c1.1-0.3,1.9-0.8,2.4-1.5L45.3,35z"/>
<path style="fill:#FFFFFF;" d="M50.5,35l0.2,9l-2.2,0l-0.1-4.8c0-0.7,0-1.1-0.1-1.3c0-0.1-0.1-0.2-0.3-0.3c-0.2-0.1-0.5-0.1-1-0.1
	l-0.2,0l0-1c1.1-0.3,1.9-0.8,2.4-1.5L50.5,35z"/>
<path style="fill:#FFFFFF;" d="M57.2,37.8l0.1,3c0,0.7,0,1.2-0.1,1.5c-0.1,0.3-0.2,0.6-0.4,0.9c-0.2,0.3-0.5,0.5-0.8,0.6
	c-0.3,0.1-0.7,0.2-1.1,0.2c-0.5,0-1,0-1.3-0.2c-0.4-0.1-0.6-0.3-0.9-0.6c-0.2-0.3-0.4-0.5-0.5-0.8C52.1,42.1,52,41.7,52,41L52,37.9
	c0-0.8,0-1.4,0.2-1.9c0.1-0.4,0.4-0.7,0.8-1c0.4-0.3,0.9-0.4,1.5-0.4c0.5,0,0.9,0.1,1.3,0.2c0.4,0.2,0.7,0.4,0.9,0.6
	c0.2,0.2,0.3,0.5,0.4,0.8C57.2,36.6,57.2,37.1,57.2,37.8z M55,37.1c0-0.5,0-0.8-0.1-0.9c0-0.1-0.2-0.2-0.3-0.2
	c-0.2,0-0.3,0.1-0.3,0.2c0,0.1-0.1,0.4-0.1,0.9l0.1,4.4c0,0.5,0,0.8,0.1,0.9c0.1,0.1,0.2,0.2,0.3,0.2c0.2,0,0.3-0.1,0.3-0.2
	c0-0.1,0.1-0.4,0.1-0.8L55,37.1z"/>
<rect x="48.8" y="25.4" style="fill:#FFFFFF;" width="2.3" height="6.9"/>
<polygon style="fill:#FFFFFF;" points="35.9,34.3 34.1,27.6 36.4,27 38.2,33.7 "/>
<rect x="22.1" y="32.5" transform="matrix(0.866 -0.5 0.5 0.866 -14.8647 16.4449)" style="fill:#FFFFFF;" width="2.3" height="6.9"/>
<rect x="73.3" y="34.9" transform="matrix(0.5003 -0.8658 0.8658 0.5003 7.1102 84.4494)" style="fill:#FFFFFF;" width="6.9" height="2.3"/>
<path style="fill:#FFFFFF;stroke:#231F20;stroke-miterlimit:10;" d="M50,29.4"/>
<path style="fill:#FFFFFF;stroke:#231F20;stroke-miterlimit:10;" d="M50,25.4"/>
<rect x="53.1" y="25.8" transform="matrix(0.1055 -0.9944 0.9944 0.1055 22.3902 78.9042)" style="fill:#FFFFFF;" width="4" height="2.3"/>
<rect x="58.1" y="26.7" transform="matrix(0.207 -0.9783 0.9783 0.207 20.3022 80.881)" style="fill:#FFFFFF;" width="4" height="2.3"/>
<rect x="67" y="29.2" transform="matrix(0.3575 -0.9339 0.9339 0.3575 15.9524 83.9516)" style="fill:#FFFFFF;" width="4" height="2.3"/>
<rect x="71.6" y="30.9" transform="matrix(0.455 -0.8905 0.8905 0.455 11.554 82.9612)" style="fill:#FFFFFF;" width="4" height="2.3"/>
<rect x="79.6" y="35.4" transform="matrix(0.5881 -0.8088 0.8088 0.5881 4.0377 81.0481)" style="fill:#FFFFFF;" width="4" height="2.3"/>
<rect x="83.4" y="38.3" transform="matrix(0.6691 -0.7432 0.7432 0.6691 -1.1087 76.5089)" style="fill:#FFFFFF;" width="4" height="2.3"/>
<rect x="86.8" y="42.4" transform="matrix(0.7071 -0.7071 0.7071 0.7071 -4.7801 75.5584)" style="fill:#FFFFFF;" width="4" height="2.3"/>
<rect x="43.9" y="25.5" transform="matrix(0.9986 -5.264993e-02 5.264993e-02 0.9986 -1.3829 2.4105)" style="fill:#FFFFFF;" width="2.3" height="4"/>
<rect x="38.9" y="26.1" transform="matrix(0.9877 -0.1562 0.1562 0.9877 -3.8895 6.598)" style="fill:#FFFFFF;" width="2.3" height="4"/>
<rect x="30.5" y="28.1" transform="matrix(0.9511 -0.3089 0.3089 0.9511 -7.7319 11.2449)" style="fill:#FFFFFF;" width="2.3" height="4"/>
<rect x="25.8" y="30.1" transform="matrix(0.9135 -0.4069 0.4069 0.9135 -10.725 13.7475)" style="fill:#FFFFFF;" width="2.3" height="4"/>
<rect x="17.2" y="35.1" transform="matrix(0.8092 -0.5875 0.5875 0.8092 -18.3039 17.8808)" style="fill:#FFFFFF;" width="2.3" height="4"/>
<rect x="13.4" y="38.1" transform="matrix(0.7432 -0.6691 0.6691 0.7432 -23.0457 20.0472)" style="fill:#FFFFFF;" width="2.3" height="4"/>
<rect x="10" y="41.4" transform="matrix(0.7071 -0.7071 0.7071 0.7071 -27.427 20.577)" style="fill:#FFFFFF;" width="2.3" height="4"/>
<polygon style="fill:#FFFFFF;" points="64.1,34.3 61.8,33.7 63.6,27.1 65.9,27.7 "/>
<polygon style="fill:#FFFFFF;" points="52.9,59.1 46.3,59.1 49.6,47.7 "/>
</svg>
