<?xml version="1.0" encoding="utf-8"?>
<!-- Generator: Adobe Illustrator 19.2.1, SVG Export Plug-In . SVG Version: 6.00 Build 0)  -->
<svg version="1.1" id="Layer_1" xmlns="http://www.w3.org/2000/svg" xmlns:xlink="http://www.w3.org/1999/xlink" x="0px" y="0px"
	 viewBox="0 0 100 100" style="enable-background:new 0 0 100 100;" xml:space="preserve">
<circle style="fill:#006838;" cx="50" cy="50" r="50"/>
<path style="fill:#FFFFFF;" d="M76.3,53c-0.7,0-1.3,0.2-1.9,0.5l-18,10.7l-5.3,19.7l0.1,0l0,0.1l11.6,3.1l2.3-8.5l16-12.5
	c0.6-0.5,1.1-1.1,1.4-1.9l6.4-24c0.5-1.9-0.6-3.8-2.5-4.3c-1.9-0.5-3.8,0.6-4.3,2.5l-3.7,13.9c0.8,0.4,1.5,1,1.9,1.7
	c1.3,2.3,0.6,5.2-1.6,6.5l-8.2,4.9l-0.6-1.1l8.2-4.9c1.6-1,2.2-3.1,1.2-4.8c-0.3-0.5-0.7-0.9-1.2-1.2C77.5,53.2,76.9,53,76.3,53
	L76.3,53z"/>
<path style="fill:#FFFFFF;" d="M26.7,52.4c-0.6,0-1.2,0.1-1.7,0.4c-0.5,0.2-1,0.6-1.3,1.1c-1.1,1.6-0.8,3.8,0.8,4.9l7.8,5.6l-0.7,1
	l-7.8-5.6c-2.1-1.5-2.6-4.5-1.1-6.6c0.5-0.7,1.3-1.2,2.1-1.6l-2.5-14.1c-0.3-1.9-2.2-3.2-4.1-2.9c-1.9,0.3-3.2,2.2-2.9,4.1l4.3,24.5
	c0.1,0.8,0.6,1.5,1.2,2l14.9,13.8l1.5,8.7L49,85.5l0-0.1l0.1,0l-3.6-20.1L28.5,53C28,52.7,27.4,52.4,26.7,52.4L26.7,52.4z"/>
<g>
	<path style="fill-rule:evenodd;clip-rule:evenodd;fill:#FFFFFF;" d="M50.8,9.9c1.1,1.1,2.2,2.3,3.4,3.4c1.8,1.8,3.7,3.7,5.5,5.5
		c0.4,0.4,0.7,0.8,1.1,1.2c0.7,0.7,1.4,1.4,2.2,2.1c1.2,1.2,2.5,2.5,3.7,3.7c1.1,1.1,2.1,2.1,3.2,3.2c1,1,1.9,2,2.9,3
		c0.1,0.1,0.2,0.2,0.3,0.3c0,0,0,0.1,0,0.1c-0.7,0.6-1.4,1.2-2.1,1.8c-0.2,0.2-0.4,0.2-0.6,0c-4.4-4.4-8.8-8.8-13.2-13.2
		c-2-2-4-4-6.1-6.1c-0.1-0.1-0.2-0.1-0.3-0.3c-0.6,0.7-1.3,1.3-1.9,2c-2.1,2.1-4.1,4.1-6.2,6.2c-1.5,1.5-2.9,2.9-4.4,4.4
		c-1.2,1.2-2.5,2.4-3.7,3.6c-1.2,1.2-2.4,2.4-3.5,3.6c-0.4,0.4-0.5,0.4-0.8,0c-0.6-0.7-1.2-1.4-1.8-2.1c0.1-0.1,0.1-0.2,0.2-0.2
		c2.3-2.4,4.7-4.8,7-7.2c0.6-0.6,1.2-1.2,1.8-1.8c0.1-0.1,0.2-0.3,0.2-0.4c0-2.5,0.1-5,0.1-7.5c0-0.8,0.8-1.7,1.6-1.7
		c0.8,0,1.5,0,2.3,0c0.6,0,1.1,0.7,1.2,1.4c0,0.9,0.1,1.8,0.1,2.8c0,0,0,0.1,0,0.2c0.6-0.5,1-1,1.5-1.5c1.3-1.3,2.6-2.5,3.8-3.8
		c0.8-0.8,1.7-1.7,2.5-2.5C50.7,10,50.7,9.9,50.8,9.9C50.7,9.9,50.8,9.9,50.8,9.9z"/>
	<path style="fill-rule:evenodd;clip-rule:evenodd;fill:#FFFFFF;" d="M57.2,49.5c-2.6,0-4.8,0-7.4,0c-0.5,0-1.1-0.1-1.3-0.6
		c-0.1-0.2-0.2-0.5-0.2-0.7c0-3.1,0-6.3,0-9.4c0-1-0.8-1.5-1.5-1.6c-1.2,0-4,0-5.2,0c-0.9,0-1.6,0.4-1.6,1.6c0,3.1,0,6.1,0,9.2
		c0,0.3-0.1,0.6-0.2,0.9c-0.2,0.3-0.4,0.6-0.9,0.6c-1.3,0-1.2,0-2.4,0c-0.3,0-0.5,0-0.8-0.1c-0.7-0.2-1-0.7-1-1.4
		c0-3.8,0-7.7,0-11.5c0-0.8,0-1.5,0.3-2.3c0.1-0.3,0.4-0.7,0.6-1c0.6-0.7,1.3-1.3,1.9-2c1.2-1.2,2.3-2.3,3.4-3.5
		c1.4-1.5,2.9-3,4.3-4.4c1.1-1.2,2.3-2.3,3.4-3.5c0.4-0.4,0.7-0.8,1.2-1.1c0.5-0.4,1.1-0.3,1.5,0.2c1.7,1.7,3.3,3.4,5,5
		c0.8,0.8,1.8,1.6,2.5,2.5c0.5,0.6,1.1,1,1.6,1.5c0.5,0.6,1.1,1.1,1.6,1.6c0.5,0.5,1.1,1,1.7,1.5c0.8,0.9,1.6,1.8,2.4,2.7
		c0.4,0.4,0.4,1,0.3,1.6c0,0.1,0,0.2,0,0.4c0,4.1,0,8.2,0,12.3c0,1-0.6,1.7-1.7,1.7C62.3,49.5,59.8,49.5,57.2,49.5
		C57.2,49.5,57.2,49.5,57.2,49.5z M61.9,37.9c0-0.4-0.3-0.8-0.8-0.8H55c-0.4,0-0.8,0.3-0.8,0.8V44c0,0.4,0.3,0.8,0.8,0.8h6.1
		c0.4,0,0.8-0.3,0.8-0.8V37.9z"/>
</g>
</svg>
