<?xml version="1.0" encoding="utf-8"?>
<!-- Generator: Adobe Illustrator 19.2.1, SVG Export Plug-In . SVG Version: 6.00 Build 0)  -->
<svg version="1.1" id="Layer_1" xmlns="http://www.w3.org/2000/svg" xmlns:xlink="http://www.w3.org/1999/xlink" x="0px" y="0px"
	 viewBox="0 0 100 100" style="enable-background:new 0 0 100 100;" xml:space="preserve">
<circle style="fill:#27AAE1;" cx="50" cy="50" r="50"/>
<g>
	<circle style="fill:#FFFFFF;" cx="72.5" cy="58" r="12.8"/>
	<circle style="fill:#27AAE1;" cx="72.5" cy="58" r="9.8"/>
	<circle style="fill:#FFFFFF;" cx="75" cy="65.3" r="3.5"/>
	<circle style="fill:#FFFFFF;" cx="68.4" cy="53.9" r="5.7"/>
</g>
<g>
	<circle style="fill:#FFFFFF;" cx="26.5" cy="58" r="12.8"/>
	<circle style="fill:#27AAE1;" cx="26.5" cy="58" r="9.8"/>
	<circle style="fill:#FFFFFF;" cx="28.9" cy="65.3" r="3.5"/>
	<circle style="fill:#FFFFFF;" cx="22.3" cy="53.9" r="5.7"/>
</g>
<g>
	<g>
		<path style="fill-rule:evenodd;clip-rule:evenodd;fill:#FFFFFF;" d="M71.9,30.7c-12.6,0.5-15,14.3-15,14.3s3.1-8.3,15.3-8.8
			c12.2-0.5,16.4,7,16.4,7S84.4,30.1,71.9,30.7z"/>
	</g>
</g>
<g>
	<g>
		<path style="fill-rule:evenodd;clip-rule:evenodd;fill:#FFFFFF;" d="M25.6,30.7C13,31.2,10.6,45,10.6,45s3.1-8.3,15.3-8.8
			c12.2-0.5,16.4,7,16.4,7S38.1,30.1,25.6,30.7z"/>
	</g>
</g>
</svg>
