<?xml version="1.0" encoding="utf-8"?>
<!-- Generator: Adobe Illustrator 19.2.1, SVG Export Plug-In . SVG Version: 6.00 Build 0)  -->
<svg version="1.1" id="Layer_1" xmlns="http://www.w3.org/2000/svg" xmlns:xlink="http://www.w3.org/1999/xlink" x="0px" y="0px"
	 viewBox="0 0 100 100" style="enable-background:new 0 0 100 100;" xml:space="preserve">
<circle style="fill:#C49A6C;" cx="50" cy="50" r="50"/>
<g>
	<g>
		<path style="fill:#FFFFFF;" d="M43.9,86.2c0,0,5.3,2.8,10.8,0c0,0,2.5-34.3,2.8-42.3c0.3-8,1.2-25.1-8.6-25.1
			c-9.8,0-10.7,12.9-8.3,29.1C43,64.1,43.9,86.2,43.9,86.2z"/>
		<g>
			<path style="fill:#FFFFFF;" d="M51.4,69.6c0,0,0.1,0,0.3,0.1c0.2,0.1,0.6,0.1,1.1,0.2c1,0.2,2.4,0.4,4,0.5c0.8,0,1.6,0,2.4-0.1
				c0.8-0.1,1.4-0.3,1.6-0.5c0,0,0.1-0.1,0.1-0.1c0,0,0,0,0,0l0,0l0,0c-0.3,0.3-0.1,0.1-0.1,0.1l0,0l0.1-0.1l0,0c0,0,0,0,0,0
				c0,0-0.1,0.1-0.1,0.1c0,0-0.1,0.1-0.1,0.1c0,0,0,0,0,0c0,0,0,0,0,0c0,0,0,0,0,0l0-0.1c0-0.1,0.1-0.3,0.2-0.4
				c0.2-0.8,0.4-1.8,0.6-2.9c0.2-1.1,0.3-2.3,0.4-3.5c0.1-1.2,0.2-2.3,0.2-3.5c0.1-2.3,0.1-4.4,0.1-6.3c0-1.8,0-3.4,0-4.5
				c0-1.1,0-1.7,0-1.7l0-0.1c-0.1-3,2.3-5.5,5.2-5.5c3-0.1,5.5,2.3,5.5,5.2c0,0.1,0,0.3,0,0.4c0,0,0,0.7-0.1,1.8
				c-0.1,1.1-0.2,2.8-0.3,4.7c-0.1,1.9-0.4,4.2-0.6,6.7c-0.1,1.2-0.3,2.5-0.5,3.8c-0.2,1.3-0.4,2.6-0.7,4c-0.3,1.4-0.7,2.8-1.3,4.4
				c-0.2,0.4-0.3,0.8-0.6,1.3l-0.2,0.3l-0.2,0.4c-0.1,0.1-0.2,0.3-0.3,0.4L68,75l-0.2,0.3l-0.2,0.3c-0.1,0.1,0,0-0.1,0.1l0,0
				l-0.1,0.1l-0.2,0.2l0,0L67.1,76c-0.2,0.2-0.5,0.4-0.7,0.6c-0.5,0.4-1,0.7-1.5,0.9c-1,0.5-1.9,0.7-2.7,0.9
				c-0.8,0.2-1.6,0.2-2.3,0.3c-1.4,0.1-2.6,0-3.7-0.2c-2.2-0.3-3.9-0.7-5.1-1c-0.6-0.2-1.1-0.3-1.4-0.4C49.4,77,49.2,77,49.2,77
				c-2-0.6-3.1-2.8-2.5-4.8c0.6-1.9,2.6-3,4.5-2.6L51.4,69.6z"/>
		</g>
		<g>
			<path style="fill:#FFFFFF;" d="M47.5,68c0,0-0.2,0-0.5,0c-0.3,0-0.8,0.1-1.4,0.1c-1.2,0.1-2.8,0.1-4.9,0c-1,0-2.2-0.1-3.4-0.3
				c-0.6-0.1-1.3-0.2-1.9-0.3c-0.7-0.1-1.4-0.3-2.2-0.6c-0.8-0.3-1.6-0.6-2.5-1.1c-0.2-0.1-0.5-0.3-0.7-0.4l-0.3-0.3l0,0
				c-0.1-0.1-0.1-0.1-0.2-0.2c-0.1-0.1-0.3-0.3-0.4-0.5C29,64.4,29,64.4,29,64.4l-0.1-0.1c-0.5-0.7-0.7-1.2-1-1.7
				c-0.4-0.9-0.6-1.7-0.8-2.4c-0.2-0.7-0.4-1.4-0.5-2.1c-0.3-1.4-0.5-2.7-0.8-3.9c-0.2-1.3-0.4-2.5-0.6-3.7
				c-0.3-2.4-0.6-4.6-0.8-6.6c-0.2-1.9-0.3-3.5-0.4-4.6c-0.1-1.1-0.1-1.8-0.1-1.8c-0.2-3,2-5.6,4.9-5.8c3-0.2,5.3,2,5.5,4.9
				c0,0.1-0.3,0.3-0.3,0.4v0.1c0,0,0.3,0.6,0.3,1.7c0,1.1,0.2,2.6,0.2,4.5c0,1.8,0.2,4,0.3,6.3c0.1,1.1,0.2,2.3,0.3,3.5
				c0.1,1.2,0.2,2.3,0.4,3.4c0.1,0.6,0.2,1.1,0.3,1.6c0.1,0.5,0.2,0.9,0.3,1.2c0,0.1,0.1,0.2-0.1-0.1l-0.1-0.1
				c-0.1-0.1-0.2-0.2-0.3-0.3c0,0-0.1-0.1-0.1-0.1l0,0l0,0l0,0l0,0c0.2,0.2-0.3-0.2-0.2-0.2c0,0,0,0,0.1,0.1
				c0.1,0.1,0.4,0.3,0.8,0.4c0.3,0.1,0.7,0.3,1.2,0.4c0.4,0.1,0.9,0.2,1.3,0.3c0.9,0.2,1.8,0.3,2.6,0.4c1.7,0.2,3.2,0.3,4.2,0.3
				c0.5,0,0.9,0.3,1.2,0.3c0.3,0,0.4,0.3,0.4,0.3h0.1c2.1,0,3.8,1.4,3.8,3.5C51.1,66.5,49.5,67.9,47.5,68z"/>
		</g>
	</g>
	<g>
		<path style="fill:#FFFFFF;" d="M44.5,21.8l-0.8-0.1c0.2-1.8-0.4-3.4-1-5l0.7-0.3C44,18,44.7,19.8,44.5,21.8z"/>
		<path style="fill:#FFFFFF;" d="M43.8,22c-0.4-0.4-1-0.8-1.6-1.1c-0.6-0.3-1.3-0.7-1.8-1.3l0.6-0.5c0.4,0.5,1,0.8,1.6,1.1
			c0.6,0.3,1.3,0.7,1.8,1.2L43.8,22z"/>
		<path style="fill:#FFFFFF;" d="M53.3,21.9l-0.7-0.3c0.6-1.2,0.8-2.5,0.7-4.2l0.8,0C54.2,19.1,53.9,20.6,53.3,21.9z"/>
		<path style="fill:#FFFFFF;" d="M53.4,22.1L53,21.4c0.9-0.6,2-1.1,3-1.4l0.2,0.8C55.3,21.1,54.3,21.5,53.4,22.1z"/>
		<path style="fill:#FFFFFF;" d="M56.9,30.9l-0.5-0.6c0.5-0.5,0.9-1.1,1.3-1.6c0.5-0.7,1.1-1.5,1.8-2.1l0.5,0.6
			c-0.7,0.5-1.2,1.2-1.7,1.9C57.9,29.8,57.4,30.4,56.9,30.9z"/>
		<path style="fill:#FFFFFF;" d="M59.4,32.2c-0.7-0.9-1.7-1.5-2.6-1.7l0.2-0.8c1.2,0.3,2.3,1,3.1,2L59.4,32.2z"/>
		<path style="fill:#FFFFFF;" d="M56.9,43.3c-0.1,0-0.3,0-0.4,0l0.2-0.8c0.6,0.1,1.2-0.3,1.8-0.7c0.5-0.3,1-0.7,1.6-0.8l0.2,0.7
			c-0.5,0.1-1,0.5-1.4,0.8C58.3,42.8,57.6,43.3,56.9,43.3z"/>
		<path style="fill:#FFFFFF;" d="M59.5,45.5c-0.9-0.7-1.8-1.4-2.7-2.4l0.6-0.5c0.9,0.9,1.7,1.7,2.6,2.3L59.5,45.5z"/>
		<path style="fill:#FFFFFF;" d="M67.7,42.4l-0.8-0.1c0-0.6,0-1.3-0.1-2c-0.1-0.7-0.2-1.5-0.1-2.2l0.8,0c0,0.7,0.1,1.4,0.1,2.1
			C67.6,41,67.7,41.7,67.7,42.4z"/>
		<path style="fill:#FFFFFF;" d="M68,42.9l-0.5-0.6c0.4-0.3,0.9-0.7,1.3-1.1c0.8-0.7,1.5-1.3,2.4-1.8l0.4,0.7
			c-0.8,0.4-1.5,1.1-2.3,1.7C68.9,42.2,68.5,42.6,68,42.9z"/>
		<path style="fill:#FFFFFF;" d="M72.2,52.8l-0.4-0.7c0.7-0.4,1.3-0.9,1.9-1.4c0.6-0.5,1.3-1,2-1.5l0.4,0.7
			c-0.7,0.4-1.3,0.9-1.9,1.4C73.6,51.9,72.9,52.4,72.2,52.8z"/>
		<path style="fill:#FFFFFF;" d="M74.2,55c-0.4-1.1-1.3-1.8-2.6-2.1l0.2-0.8c1.5,0.4,2.6,1.3,3.1,2.6L74.2,55z"/>
		<path style="fill:#FFFFFF;" d="M69.7,64C69.7,64,69.6,64,69.7,64l-0.1-0.5c1.1,0,2-0.2,2.9-0.7c0.3-0.2,0.7-0.2,1.1-0.4l0.3,0.8
			c-0.4,0.1-0.7,0-1,0.2C71.9,63.8,70.9,64,69.7,64z"/>
		<path style="fill:#FFFFFF;" d="M72.2,68.3c-0.2-0.3-0.4-0.7-0.6-1c-0.6-1-1.2-2-1.7-2.9l0.7-0.4c0.5,1,1.1,1.9,1.7,2.9
			c0.2,0.3,0.4,0.7,0.6,1L72.2,68.3z"/>
		<path style="fill:#FFFFFF;" d="M27.7,33.3l-0.1-0.8c0.1,0,0.1,0,0.1,0c-1.2-1.3-1.8-2.8-1.8-4.3l0.8,0c-0.1,1.3,0.6,2.7,1.7,3.9
			l0.1,0.1l0,0.2C28.6,32.9,28.3,33.3,27.7,33.3z"/>
		<path style="fill:#FFFFFF;" d="M28.8,33.6l-0.7-0.3c0.2-0.6,0.6-1.2,0.9-1.8c0.5-0.9,1-1.8,1.2-2.9l0.8,0.2
			c-0.2,1.1-0.8,2.1-1.3,3.1C29.3,32.5,29,33.1,28.8,33.6z"/>
		<path style="fill:#FFFFFF;" d="M24.5,41.5c-0.3-0.4-1.3-1.1-2.7-2l0.4-0.7c1.1,0.6,2.5,1.5,3,2.2L24.5,41.5z"/>
		<path style="fill:#FFFFFF;" d="M22.4,44.5L22,43.8c0.9-0.5,1.7-1.2,2.5-2l0.6,0.5C24.2,43.2,23.3,44,22.4,44.5z"/>
		<path style="fill:#FFFFFF;" d="M26.3,54.2c-1.9-0.4-3.7-1.5-4.6-2.2l0.5-0.6c1.4,1,3,1.7,4.3,2L26.3,54.2z"/>
		<path style="fill:#FFFFFF;" d="M24.6,57.4L24,56.9l0.5-0.6c0.7-0.9,1.4-1.9,2.2-2.8l0.6,0.5c-0.7,0.9-1.5,1.9-2.1,2.8L24.6,57.4z"
			/>
		<path style="fill:#FFFFFF;" d="M34.5,46l-0.6-0.5c0.7-0.9,1.5-1.8,2.4-2.6l0.6,0.5C36,44.2,35.2,45.1,34.5,46z"/>
		<path style="fill:#FFFFFF;" d="M37,48.5c-0.5-0.8-1.4-1.2-2.3-1.7c-0.3-0.2-0.6-0.3-0.9-0.5l0.4-0.7c0.3,0.2,0.6,0.3,0.9,0.5
			c1,0.5,2,1,2.6,2L37,48.5z"/>
		<path style="fill:#FFFFFF;" d="M40.4,30.4c-0.4-0.4-0.7-0.8-1-1.2c-0.6-0.8-1.3-1.6-2-2.1l0.5-0.6c0.8,0.6,1.5,1.5,2.2,2.3
			c0.3,0.4,0.7,0.8,1,1.2L40.4,30.4z"/>
		<path style="fill:#FFFFFF;" d="M36.6,32.8L36.5,32c0.6,0,1.1-0.2,1.7-0.4c0.8-0.2,1.6-0.5,2.6-0.4L40.7,32
			c-0.8-0.1-1.5,0.1-2.3,0.4C37.8,32.6,37.2,32.8,36.6,32.8z"/>
		<path style="fill:#FFFFFF;" d="M55.8,58.8l-0.4-0.7c1.2-0.7,2.3-1.5,3.5-2.3l0.4-0.3l0.4,0.6l-0.4,0.3
			C58.1,57.3,57,58.1,55.8,58.8z"/>
		<path style="fill:#FFFFFF;" d="M57.6,62.8c-0.6-1-1.3-1.8-2.2-2.5l0.5-0.6c1,0.7,1.8,1.6,2.5,2.7L57.6,62.8z"/>
	</g>
</g>
</svg>
