<?xml version="1.0" encoding="utf-8"?>
<!-- Generator: Adobe Illustrator 19.2.1, SVG Export Plug-In . SVG Version: 6.00 Build 0)  -->
<svg version="1.1" id="Layer_1" xmlns="http://www.w3.org/2000/svg" xmlns:xlink="http://www.w3.org/1999/xlink" x="0px" y="0px"
	 viewBox="0 0 100 100" style="enable-background:new 0 0 100 100;" xml:space="preserve">
<circle style="fill:#D9D9D8;" cx="50" cy="50" r="50"/>
<g>
	<path style="fill-rule:evenodd;clip-rule:evenodd;fill:#FFFFFF;" d="M72.3,73.1c0,0,9.4,0,10.8-9.2C83.7,53.7,74,51.8,74,51.8
		s1.1-15-12.6-16.7c-11.7-1.2-15.3,9.7-15.3,9.7s-3.5-3.4-8.3-0.6c-4.3,2.7-3.5,7.5-3.5,7.5s-9.5,1.9-9.5,11.6
		C24.9,73,35,73.1,35,73.1H72.3z"/>
</g>
<g>
	<defs>
		<path id="SVGID_1_" d="M15.3,53.9c0,0-4.7-11.9-3.4-21.1c0.6-10.1,22.6-16.7,22.6-16.7S73.7,34.7,60,33
			c-11.7-1.2-15.3,9.7-15.3,9.7s-3.5-3.4-8.3-0.6c-4.3,2.7-3.5,7.5-3.5,7.5s-9.5,1.9-9.5,11.6c0.2,9.7-6.2-5.7-6.2-5.7L15.3,53.9z"
			/>
	</defs>
	<clipPath id="SVGID_2_">
		<use xlink:href="#SVGID_1_"  style="overflow:visible;"/>
	</clipPath>
	<g style="clip-path:url(#SVGID_2_);">
		<g>
			<path style="fill-rule:evenodd;clip-rule:evenodd;fill:#FFFFFF;" d="M23.7,41.7c0,6.2,5,11.2,11.2,11.2s11.2-5,11.2-11.2
				c0-6.2-5-11.2-11.2-11.2S23.7,35.5,23.7,41.7z M34.9,22.6l-3.2,6.3H38L34.9,22.6z M48.4,28.1l-6.7,2.2l4.5,4.5L48.4,28.1z
				 M28.1,30.4l-6.7-2.2l2.2,6.7L28.1,30.4z M22.1,38.5l-6.3,3.2l6.3,3.2V38.5z M47.6,44.9l6.3-3.2l-6.3-3.2V44.9z M34.9,60.7
				l3.2-6.3h-6.3L34.9,60.7z M41.7,53l6.7,2.2l-2.2-6.7L41.7,53z M21.4,55.2l6.7-2.2l-4.5-4.5L21.4,55.2z"/>
		</g>
	</g>
</g>
</svg>
