<?xml version="1.0" encoding="utf-8"?>
<!-- Generator: Adobe Illustrator 19.2.1, SVG Export Plug-In . SVG Version: 6.00 Build 0)  -->
<svg version="1.1" id="Layer_1" xmlns="http://www.w3.org/2000/svg" xmlns:xlink="http://www.w3.org/1999/xlink" x="0px" y="0px"
	 viewBox="0 0 100 100" style="enable-background:new 0 0 100 100;" xml:space="preserve">
<circle style="fill:#EE2749;" cx="50" cy="50" r="50"/>
<g>
	<path style="fill:#FFFFFF;" d="M78.8,36.2L34.3,78.6c-1.6,1.6-4.3,1.5-5.8-0.1l-7.9-8.2c-1.6-1.6-1.5-4.3,0.1-5.8L65.2,22
		c1.6-1.6,4.3-1.5,5.8,0.1l7.9,8.2C80.5,32,80.4,34.6,78.8,36.2z M21.5,65.2c-1.2,1.2-1.3,3.1-0.1,4.3l7.9,8.2
		c1.2,1.2,3.1,1.3,4.3,0.1L78,35.4c1.2-1.2,1.3-3.1,0.1-4.3l-7.9-8.2c-1.2-1.2-3.1-1.3-4.3-0.1L21.5,65.2z"/>
	<path style="fill:#FFFFFF;" d="M57.5,53.5l-4.4,4.2c-3.1,2.9-7.9,2.8-10.9-0.2l0,0c-2.9-3.1-2.8-7.9,0.2-10.9l4.4-4.2
		c3.1-2.9,7.9-2.8,10.9,0.2l0,0C60.7,45.7,60.6,50.6,57.5,53.5z M42.4,52.6c-0.5,0.5-0.5,1.3,0,1.9c0.5,0.5,1.3,0.5,1.9,0
		c0.5-0.5,0.5-1.3,0-1.9S42.9,52.1,42.4,52.6z M45.7,56.1c-0.5,0.5-0.5,1.3,0,1.9c0.5,0.5,1.3,0.5,1.9,0s0.5-1.3,0-1.9
		S46.2,55.6,45.7,56.1z M43.1,48.2c-0.5,0.5-0.5,1.3,0,1.9c0.5,0.5,1.3,0.5,1.9,0s0.5-1.3,0-1.9C44.5,47.7,43.7,47.7,43.1,48.2z
		 M46.5,51.7c-0.5,0.5-0.5,1.3,0,1.9c0.5,0.5,1.3,0.5,1.9,0s0.5-1.3,0-1.9C47.9,51.2,47,51.2,46.5,51.7z M49.9,55.2
		c-0.5,0.5-0.5,1.3,0,1.9c0.5,0.5,1.3,0.5,1.9,0s0.5-1.3,0-1.9C51.2,54.7,50.4,54.7,49.9,55.2z M47.7,47.5c-0.5,0.5-0.5,1.3,0,1.9
		c0.5,0.5,1.3,0.5,1.9,0c0.5-0.5,0.5-1.3,0-1.9S48.2,47,47.7,47.5z M51,51c-0.5,0.5-0.5,1.3,0,1.9c0.5,0.5,1.3,0.5,1.9,0
		c0.5-0.5,0.5-1.3,0-1.9S51.6,50.5,51,51z M48.5,43c-0.5,0.5-0.5,1.3,0,1.9s1.3,0.5,1.9,0s0.5-1.3,0-1.9
		C49.9,42.5,49.1,42.5,48.5,43z M51.9,46.5c-0.5,0.5-0.5,1.3,0,1.9s1.3,0.5,1.9,0c0.5-0.5,0.5-1.3,0-1.9C53.3,46,52.4,46,51.9,46.5z
		 M55.3,50c-0.5,0.5-0.5,1.3,0,1.9c0.5,0.5,1.3,0.5,1.9,0c0.5-0.5,0.5-1.3,0-1.9C56.6,49.6,55.8,49.5,55.3,50z M53.1,42.3
		c-0.5,0.5-0.5,1.3,0,1.9c0.5,0.5,1.3,0.5,1.9,0s0.5-1.3,0-1.9S53.6,41.8,53.1,42.3z M56.5,45.8c-0.5,0.5-0.5,1.3,0,1.9
		c0.5,0.5,1.3,0.5,1.9,0c0.5-0.5,0.5-1.3,0-1.9S57,45.3,56.5,45.8z"/>
	
		<ellipse transform="matrix(0.7228 -0.6911 0.6911 0.7228 -10.4073 51.3676)" style="fill:#FFFFFF;" cx="58.8" cy="38.7" rx="1.3" ry="1.3"/>
	
		<ellipse transform="matrix(0.7228 -0.6911 0.6911 0.7228 -11.9062 54.6676)" style="fill:#FFFFFF;" cx="62.2" cy="42.2" rx="1.3" ry="1.3"/>
	
		<ellipse transform="matrix(0.7228 -0.6911 0.6911 0.7228 -7.1534 50.6874)" style="fill:#FFFFFF;" cx="59.6" cy="34.3" rx="1.3" ry="1.3"/>
	
		<ellipse transform="matrix(0.7228 -0.6911 0.6911 0.7228 -8.6523 53.9874)" style="fill:#FFFFFF;" cx="63" cy="37.8" rx="1.3" ry="1.3"/>
	
		<ellipse transform="matrix(0.7228 -0.6911 0.6911 0.7228 -10.1513 57.2873)" style="fill:#FFFFFF;" cx="66.3" cy="41.3" rx="1.3" ry="1.3"/>
	
		<ellipse transform="matrix(0.7228 -0.6911 0.6911 0.7228 -5.4072 53.6388)" style="fill:#FFFFFF;" cx="64.2" cy="33.6" rx="1.3" ry="1.3"/>
	
		<ellipse transform="matrix(0.7228 -0.6911 0.6911 0.7228 -6.9062 56.9388)" style="fill:#FFFFFF;" cx="67.5" cy="37.1" rx="1.3" ry="1.3"/>
	
		<ellipse transform="matrix(0.7228 -0.6911 0.6911 0.7228 -2.0787 52.9925)" style="fill:#FFFFFF;" cx="65" cy="29.1" rx="1.3" ry="1.3"/>
	
		<ellipse transform="matrix(0.7228 -0.6911 0.6911 0.7228 -3.5777 56.2924)" style="fill:#FFFFFF;" cx="68.4" cy="32.6" rx="1.3" ry="1.3"/>
	
		<ellipse transform="matrix(0.7228 -0.6911 0.6911 0.7228 -5.0766 59.5924)" style="fill:#FFFFFF;" cx="71.7" cy="36.1" rx="1.3" ry="1.3"/>
	
		<ellipse transform="matrix(0.7228 -0.6911 0.6911 0.7228 -0.3326 55.9439)" style="fill:#FFFFFF;" cx="69.6" cy="28.4" rx="1.3" ry="1.3"/>
	
		<ellipse transform="matrix(0.7228 -0.6911 0.6911 0.7228 -1.8315 59.2438)" style="fill:#FFFFFF;" cx="72.9" cy="31.9" rx="1.3" ry="1.3"/>
	
		<ellipse transform="matrix(0.7228 -0.6911 0.6911 0.7228 -40.2313 37.8206)" style="fill:#FFFFFF;" cx="27" cy="69.1" rx="1.3" ry="1.3"/>
	
		<ellipse transform="matrix(0.7228 -0.6911 0.6911 0.7228 -41.7302 41.1206)" style="fill:#FFFFFF;" cx="30.4" cy="72.6" rx="1.3" ry="1.3"/>
	
		<ellipse transform="matrix(0.7228 -0.6911 0.6911 0.7228 -36.9774 37.1404)" style="fill:#FFFFFF;" cx="27.8" cy="64.7" rx="1.3" ry="1.3"/>
	
		<ellipse transform="matrix(0.7228 -0.6911 0.6911 0.7228 -38.4763 40.4404)" style="fill:#FFFFFF;" cx="31.2" cy="68.2" rx="1.3" ry="1.3"/>
	
		<ellipse transform="matrix(0.7228 -0.6911 0.6911 0.7228 -39.9753 43.7403)" style="fill:#FFFFFF;" cx="34.5" cy="71.7" rx="1.3" ry="1.3"/>
	
		<ellipse transform="matrix(0.7228 -0.6911 0.6911 0.7228 -35.2312 40.0918)" style="fill:#FFFFFF;" cx="32.4" cy="64" rx="1.3" ry="1.3"/>
	
		<ellipse transform="matrix(0.7228 -0.6911 0.6911 0.7228 -36.7302 43.3918)" style="fill:#FFFFFF;" cx="35.7" cy="67.5" rx="1.3" ry="1.3"/>
	
		<ellipse transform="matrix(0.7228 -0.6911 0.6911 0.7228 -31.9027 39.4455)" style="fill:#FFFFFF;" cx="33.2" cy="59.5" rx="1.3" ry="1.3"/>
	
		<ellipse transform="matrix(0.7228 -0.6911 0.6911 0.7228 -33.4017 42.7454)" style="fill:#FFFFFF;" cx="36.6" cy="63" rx="1.3" ry="1.3"/>
	
		<ellipse transform="matrix(0.7228 -0.6911 0.6911 0.7228 -34.9006 46.0454)" style="fill:#FFFFFF;" cx="39.9" cy="66.5" rx="1.3" ry="1.3"/>
	
		<ellipse transform="matrix(0.7228 -0.6911 0.6911 0.7228 -30.1566 42.3969)" style="fill:#FFFFFF;" cx="37.8" cy="58.8" rx="1.3" ry="1.3"/>
	
		<ellipse transform="matrix(0.7228 -0.6911 0.6911 0.7228 -31.6555 45.6968)" style="fill:#FFFFFF;" cx="41.1" cy="62.3" rx="1.3" ry="1.3"/>
</g>
<path style="fill:#FFFFFF;" d="M52.1,64.9l13.4,13.7c1.2,1.2,3.1,1.2,4.3,0l8.1-8c1.2-1.2,1.2-3.1,0-4.3L64.7,52.8l0.7-0.8
	l13.4,13.7c1.6,1.6,1.6,4.2-0.1,5.8l-8.1,8c-1.6,1.6-4.2,1.6-5.8-0.1L51.3,65.6L52.1,64.9z M47.6,35.4L35,22.5
	c-1.2-1.2-3.1-1.2-4.3,0l-8.1,8c-1.2,1.2-1.2,3.1,0,4.3l12.7,13l-0.7,0.8l-12.7-13c-1.6-1.6-1.6-4.2,0.1-5.8l8.1-8
	c1.6-1.6,4.2-1.6,5.8,0.1l12.7,13L47.6,35.4z"/>
</svg>
