<?xml version="1.0" encoding="utf-8"?>
<!-- Generator: Adobe Illustrator 19.2.1, SVG Export Plug-In . SVG Version: 6.00 Build 0)  -->
<svg version="1.1" id="Layer_1" xmlns="http://www.w3.org/2000/svg" xmlns:xlink="http://www.w3.org/1999/xlink" x="0px" y="0px"
	 viewBox="0 0 100 100" style="enable-background:new 0 0 100 100;" xml:space="preserve">
<circle style="fill:#F78F1E;" cx="50" cy="50" r="50"/>
<g>
	<path style="fill:#FFFFFF;" d="M57.2,61.8c-12.3-2.1,5.7-16.6,9.5-16.2c-2.5,1.3-5.6,4.8-5.1,9.2c0.2,3.2,2.3,6.4,3.5,9.5
		c2.8,7.5,1.9,15.1-3.7,20c-2.7,2.3-8,4.9-12.8,4.9c-13.5-1.5-19.4-10.4-20.3-20.7c-0.2-2.6,0.4-5.4,1-7.9c0,5,3.2,10.2,9.3,10.1
		c-3-1.5-4.3-2.8-5.5-4.3c-1.7-2.2-2.4-4.6-2-7.3c0.6-5.1,6.1-8.6,6.4-13.8c0.2-3.7-1.5-5.8-4.5-7c2.2,0.2,5,1.1,7.1,2.5
		c3.1,2.2,4.5,4.9,4.7,7.7c0.1,1.6,0.1,3.6-0.8,5c3.3-2.9,2.7-5.8,1.8-8c-1.2-3.3-3.8-6-4.3-9.8c-1-7.4,7.4-10.3,9-16.8
		c1.2-4.7-2.9-9.5-3.8-9.6c4.7,2.7,10.1,7.4,10.2,14c0,3.1-1.2,5.5-2.8,8c-0.8,1.2-1.5,2.9-1.1,4.1c0.2,0.8,0.9,1.4,2.3,1.6
		c4.2,0.4,3.9-6.1,2.2-8c4.2,3,8.1,8.9,5.1,13.9c-2.5,4.6-9.9,8.1-9.5,13.6C53.2,58.6,54.6,61.3,57.2,61.8z"/>
</g>
<g>
	<path style="fill:#F78F1E;" d="M49.6,88c3.3-0.3,8-2.9,10.1-4.8c5.9-5.2,7.5-12,2.5-18.6c0.6,1.9-0.3,6.7-2.1,7.8
		c1.1-5.1-4.2-7.9-6.8-11.9c-3-4-1.2-9.1,2.3-12.5c3.6-3.5,8.4-7.2,4.9-13.2c-0.1,2.3-2.4,4.6-4.5,4.4c-5.2-0.3-5.2-5-3.3-8.2
		c2.2-3.8,3.5-7.6,0.8-11c1.4,5.9-8.8,8.4-8.3,14.4c0.1,2.4,2.1,6,2.9,8.2c0.8,2.3,1.1,4.9,0.6,7.6c-0.4,2.2-2.9,5.5-6.2,5.7
		c1.8-3.5,2.2-6.4-1.4-8.6c2.8,4.5-3.1,6.1-4.5,9.8c-2.7,7.1,3.5,7.6,4.7,12.8c1,4.8-5.1,8.8-9,1.6c-0.1,9,9.5,15.7,17.1,16.4H49.6z
		"/>
</g>
<g>
	<path style="fill:#FFFFFF;" d="M49.4,54.5c-2.3,6.4,1.7,9.3,4.9,13.4c3.4,4,6,9.5,2.9,14.1c-1.6,2.5-4.2,4.7-8.3,5
		c-3-0.3-6-2.7-6-6c0-2.9,2.2-5.8,0.1-7.6c1.8,0.5,3.6,1.5,3.4,4c1.1-1.1,1.5-3,0.8-4.6c-1.3-3.2-4.1-5.7-3.7-9.4
		C44,59.1,46.5,56.7,49.4,54.5z"/>
</g>
</svg>
