<?xml version="1.0" encoding="utf-8"?>
<!-- Generator: Adobe Illustrator 19.2.1, SVG Export Plug-In . SVG Version: 6.00 Build 0)  -->
<svg version="1.1" id="Layer_1" xmlns="http://www.w3.org/2000/svg" xmlns:xlink="http://www.w3.org/1999/xlink" x="0px" y="0px"
	 viewBox="0 0 100 100" style="enable-background:new 0 0 100 100;" xml:space="preserve">
<circle style="fill:#92278F;" cx="50" cy="50" r="50"/>
<path style="fill:#FFFFFF;" d="M8,49.6c0-1.3,0-2.6,0-3.8c0.1,0,0.2-0.1,0.3-0.1c3.2-0.7,6.4-1.4,9.7-2c3.1-0.6,6.2-1,9.3-0.8
	c5.2,0.3,10.4,1.1,15.4,2.3c4.6,1.1,9.2,1.3,13.9,0.5c4.1-0.7,8.1-1.4,12.2-2.2c5.1-1,10.2-0.8,15.3,0.3c2.6,0.5,5.2,1.3,7.9,1.8
	c0.7,0.2,1.1,0.5,1.5,1.1c0,1.5,0,2.9,0,4.4c-0.4,0.4-0.7,0.7-1.1,1.1c-0.4,0.5-0.9,0.9-1.2,1.4c-0.4,0.7-0.7,1.5-0.9,2.3
	c-0.6,2.3-1.2,4.6-1.9,6.8c-0.8,2.9-2.4,5.3-4.9,7.2c-2.1,1.6-4.5,2.5-7.1,2.9c-4.7,0.7-9.1,0.1-13.3-2.3c-3.2-1.8-5.2-4.7-6.6-8
	c-0.9-2-1.5-4.1-2.2-6.1c-0.8-2.2-1.4-2.6-3.7-2.6c-0.2,0-0.5,0-0.7,0c-0.6,0-1.1,0.3-1.3,0.8c-0.3,0.8-0.7,1.6-0.9,2.4
	c-1,4.4-3,8.2-6.1,11.5c-2.1,2.3-4.6,3.7-7.7,4.3c-0.9,0.2-1.8,0.3-2.7,0.4c-1.4,0-2.8,0-4.1,0c-0.2,0-0.3-0.1-0.5-0.1
	c-2.4-0.2-4.7-0.8-6.8-1.8c-2.3-1.1-4-2.7-5-5.1c-1.4-3.3-2.6-6.7-3.4-10.2c-0.3-1.1-0.8-2.1-1.6-3C9,51.9,8.2,51,8,49.6z
	 M73.7,45.5c-5.3-0.2-9.2,0.5-12.9,2.1c-3.5,1.6-4.7,3.8-3.9,7.6c0.5,2.7,1.7,5.2,3,7.6c1.9,3.7,4.9,6,8.9,7.1
	c3.1,0.8,6.2,0.7,9.3,0c3-0.7,5.4-2.3,6.7-5.1c1.9-4.1,2.8-8.5,2.6-13c-0.1-1.7-0.9-3-2.3-3.9c-1.4-0.9-2.9-1.3-4.5-1.5
	C77.8,46,75.1,45.7,73.7,45.5z M30,45.5c-1.4,0.1-2.6,0.1-3.8,0.3c-2.6,0.2-5.2,0.5-7.7,1.4c-2.6,1-3.8,2.6-3.8,5.3
	c-0.1,4,0.9,7.9,2.3,11.6c1.2,3.1,3.5,5,6.7,5.8c2.5,0.6,5.1,0.8,7.7,0.5c3.7-0.5,6.9-2.1,9.2-5.1c2.4-3.1,3.8-6.6,4.6-10.4
	c0.7-3.3-0.4-5.4-3.4-6.9C38,46,34,45.4,30,45.5z"/>
<g>
	<circle style="fill:#FFFFFF;" cx="72.2" cy="57.8" r="7.4"/>
	<circle style="fill:#92278F;" cx="72.2" cy="57.8" r="5.7"/>
	<circle style="fill:#FFFFFF;" cx="73.6" cy="62" r="2"/>
	<circle style="fill:#FFFFFF;" cx="69.9" cy="55.4" r="3.3"/>
</g>
<g>
	<circle style="fill:#FFFFFF;" cx="30.1" cy="57.8" r="7.4"/>
	<circle style="fill:#92278F;" cx="30.1" cy="57.8" r="5.7"/>
	<circle style="fill:#FFFFFF;" cx="31.5" cy="62" r="2"/>
	<circle style="fill:#FFFFFF;" cx="27.7" cy="55.4" r="3.3"/>
</g>
<g>
	<g>
		<path style="fill-rule:evenodd;clip-rule:evenodd;fill:#FFFFFF;" d="M27.5,30.5c-9.2,0.4-10.9,10.4-10.9,10.4s2.2-6,11.1-6.4
			c8.9-0.4,11.9,5.1,11.9,5.1S36.6,30.1,27.5,30.5z"/>
	</g>
</g>
<g>
	<g>
		<path style="fill-rule:evenodd;clip-rule:evenodd;fill:#FFFFFF;" d="M72.3,30.5c-9.2,0.4-10.9,10.4-10.9,10.4s2.2-6,11.1-6.4
			c8.9-0.4,11.9,5.1,11.9,5.1S81.4,30.1,72.3,30.5z"/>
	</g>
</g>
</svg>
