<?xml version="1.0" encoding="utf-8"?>
<!-- Generator: Adobe Illustrator 19.2.1, SVG Export Plug-In . SVG Version: 6.00 Build 0)  -->
<svg version="1.1" id="Layer_1" xmlns="http://www.w3.org/2000/svg" xmlns:xlink="http://www.w3.org/1999/xlink" x="0px" y="0px"
	 viewBox="0 0 100 100" style="enable-background:new 0 0 100 100;" xml:space="preserve">
<circle style="fill:#D9D9D8;" cx="50" cy="50" r="50"/>
<g>
	<g>
		<path style="fill-rule:evenodd;clip-rule:evenodd;fill:#FFFFFF;" d="M70.8,60c0,0,10.9,0,12.5-10.7c0.7-11.7-10.6-14-10.6-14
			S74,18,58.2,16c-13.6-1.4-17.7,11.3-17.7,11.3s-4.1-3.9-9.7-0.7c-5,3.1-4.1,8.7-4.1,8.7s-11,2.1-11,13.4c0.2,11.2,12,11.4,12,11.4
			H70.8z"/>
	</g>
	<g>
		<g>
			<path style="fill:#FFFFFF;" d="M70.5,71.3c0,0-1.5-1.4-2.4-3.3c-0.4-0.9-0.8-2.1-1.2-3.6c-0.3,1.5-0.7,2.7-1.2,3.6
				c-0.9,1.9-2.4,3.3-2.4,3.3c-1.2,1.3-1.8,2.7-1.8,4c0,1.5,0.5,2.7,1.6,3.8c1.1,1.1,2.3,1.6,3.8,1.6c1.5,0,2.8-0.5,3.8-1.6
				c1.1-1.1,1.6-2.3,1.6-3.8C72.3,74,71.7,72.7,70.5,71.3z"/>
		</g>
	</g>
	<g>
		<g>
			<path style="fill:#FFFFFF;" d="M54.3,79.4c0,0-1.5-1.4-2.4-3.3c-0.4-0.9-0.8-2.1-1.2-3.6c-0.3,1.5-0.7,2.7-1.2,3.6
				c-0.9,1.9-2.4,3.3-2.4,3.3c-1.2,1.3-1.8,2.7-1.8,4c0,1.5,0.5,2.7,1.6,3.8c1.1,1.1,2.3,1.6,3.8,1.6c1.5,0,2.8-0.5,3.8-1.6
				c1.1-1.1,1.6-2.3,1.6-3.8C56.1,82.1,55.5,80.8,54.3,79.4z"/>
		</g>
	</g>
	<g>
		<g>
			<path style="fill:#FFFFFF;" d="M38,71.3c0,0-1.5-1.4-2.4-3.3c-0.4-0.9-0.8-2.1-1.2-3.6C34,66,33.6,67.1,33.1,68
				c-0.9,1.9-2.4,3.3-2.4,3.3c-1.2,1.3-1.8,2.7-1.8,4c0,1.5,0.5,2.7,1.6,3.8c1.1,1.1,2.3,1.6,3.8,1.6c1.5,0,2.8-0.5,3.8-1.6
				c1.1-1.1,1.6-2.3,1.6-3.8C39.7,74,39.2,72.7,38,71.3z"/>
		</g>
	</g>
</g>
</svg>
