<?xml version="1.0" encoding="utf-8"?>
<!-- Generator: Adobe Illustrator 19.2.1, SVG Export Plug-In . SVG Version: 6.00 Build 0)  -->
<svg version="1.1" id="Layer_1" xmlns="http://www.w3.org/2000/svg" xmlns:xlink="http://www.w3.org/1999/xlink" x="0px" y="0px"
	 viewBox="0 0 100 100" style="enable-background:new 0 0 100 100;" xml:space="preserve">
<circle style="fill:#FBAA19;" cx="50" cy="50" r="50"/>
<g>
	<path style="fill:#FFFFFF;" d="M50,86.5c20.1,0,36.5-16.3,36.5-36.5c0-20.1-16.3-36.5-36.5-36.5c-20.1,0-36.5,16.3-36.5,36.5
		C13.5,70.2,29.9,86.5,50,86.5L50,86.5z M50,19.7c16.7,0,30.3,13.6,30.3,30.3c0,7-2.4,13.4-6.4,18.6L60.4,55.1h7V44.5H49.8
		L31.3,26.1C36.5,22.1,43,19.7,50,19.7L50,19.7z M26.1,31.4l13.2,13.1H23.4v10.6h26.5l18.8,18.8c-5.2,4.1-11.7,6.5-18.7,6.5
		c-16.7,0-30.3-13.6-30.3-30.3C19.7,43,22.1,36.5,26.1,31.4L26.1,31.4z M26.1,31.4"/>
	<rect x="69" y="44.5" style="fill:#FFFFFF;" width="3.3" height="10.6"/>
	<rect x="73.9" y="44.5" style="fill:#FFFFFF;" width="3.3" height="10.6"/>
	<path style="fill:#FFFFFF;" d="M59.8,33.5c0,0,12.3-0.1,15,7.8c0,0-0.6-12.4-15.8-12.2c-15.2,0.2-14.2-7.1-14.2-7.1
		S40.6,31.4,59.8,33.5L59.8,33.5z M59.8,33.5"/>
	<path style="fill:#FFFFFF;" d="M71.3,43.5c0,0-0.5-8.7-12.9-8.5C45.9,35.1,46.7,30,46.7,30s-3.4,6.5,12.3,8
		C59,38,69.1,38,71.3,43.5L71.3,43.5z M71.3,43.5"/>
</g>
</svg>
