<?xml version="1.0" encoding="utf-8"?>
<!-- Generator: Adobe Illustrator 19.2.1, SVG Export Plug-In . SVG Version: 6.00 Build 0)  -->
<svg version="1.1" id="Layer_1" xmlns="http://www.w3.org/2000/svg" xmlns:xlink="http://www.w3.org/1999/xlink" x="0px" y="0px"
	 viewBox="0 0 100 100" style="enable-background:new 0 0 100 100;" xml:space="preserve">
<path style="fill-rule:evenodd;clip-rule:evenodd;fill:#FFFFFF;" d="M75.7,74.5c-17.8,0-35.6,0-53.4,0c0-0.8,0-1.6,0-2.3
	c0.2-2.2,0.6-4.3,1.5-6.3c0.9-2.1,2.4-3.7,4.4-4.8c3.1-1.7,6.4-2.8,9.7-3.9c1.2-0.4,2.5-0.9,3.7-1.4c1.1-0.5,1.9-2.1,1.8-3.3
	c0-0.2-0.1-0.3-0.2-0.5c-2.6-3.7-4-7.9-4.7-12.3c-0.4-2.4-0.5-4.9,0-7.3c0.8-4.2,3.4-6.7,7.7-7.3c2-0.3,4-0.3,5.9,0.1
	c4.2,0.8,6.7,3.4,7.3,7.7c0.7,4.8-0.3,9.4-2,13.9c-0.6,1.6-1.6,3.1-2.4,4.7c-0.1,0.3-0.2,0.6-0.2,0.8c0.1,1.8,0.8,3.2,2.7,3.9
	c2.6,0.9,5.2,1.8,7.8,2.8c1.6,0.6,3.2,1.4,4.7,2.2c2.7,1.4,4.2,3.7,5.1,6.5c0.6,2,0.9,4.1,0.9,6.3C75.7,74.1,75.7,74.3,75.7,74.5z"
	/>
<path style="fill-rule:evenodd;clip-rule:evenodd;fill:#FFFFFF;" d="M86.3,65.8c-3.3,0-6.7,0-10,0c-1.9-5.4-8-8.2-13.7-9.5
	c0.6-0.2,1.1-0.4,1.7-0.6c0.7-0.2,1.4-0.5,2.1-0.8c0.6-0.3,1.1-1.2,1-1.9c0-0.1-0.1-0.2-0.1-0.3c-1.5-2.1-2.3-4.6-2.7-7.2
	c-0.2-1.4-0.3-2.8,0-4.2c0.5-2.4,2-3.9,4.4-4.3c1.2-0.2,2.3-0.2,3.5,0c2.5,0.5,3.9,2,4.3,4.5c0.4,2.8-0.2,5.5-1.2,8.1
	c-0.4,1-0.9,1.8-1.4,2.7c-0.1,0.1-0.1,0.3-0.1,0.5c0,1.1,0.5,1.9,1.5,2.3c1.5,0.5,3,1,4.5,1.6c0.9,0.4,1.9,0.8,2.8,1.3
	c1.6,0.8,2.5,2.1,3,3.8c0.4,1.2,0.5,2.4,0.5,3.6C86.4,65.5,86.4,65.6,86.3,65.8z"/>
<path style="fill-rule:evenodd;clip-rule:evenodd;fill:#FFFFFF;" d="M11.2,65.8c3.3,0,6.7,0,10,0c1.9-5.4,8-8.2,13.7-9.5
	c-0.6-0.2-1.1-0.4-1.7-0.6c-0.7-0.2-1.4-0.5-2.1-0.8c-0.6-0.3-1.1-1.2-1-1.9c0-0.1,0.1-0.2,0.1-0.3c1.5-2.1,2.3-4.6,2.7-7.2
	c0.2-1.4,0.3-2.8,0-4.2c-0.5-2.4-2-3.9-4.4-4.3c-1.2-0.2-2.3-0.2-3.5,0c-2.5,0.5-3.9,2-4.3,4.5c-0.4,2.8,0.2,5.5,1.2,8.1
	c0.4,1,0.9,1.8,1.4,2.7c0.1,0.1,0.1,0.3,0.1,0.5c0,1.1-0.5,1.9-1.5,2.3c-1.5,0.5-3,1-4.5,1.6c-0.9,0.4-1.9,0.8-2.8,1.3
	c-1.6,0.8-2.5,2.1-3,3.8c-0.4,1.2-0.5,2.4-0.5,3.6C11.2,65.5,11.2,65.6,11.2,65.8z"/>
<circle style="fill:#7BC143;" cx="50" cy="50" r="50"/>
<path style="fill-rule:evenodd;clip-rule:evenodd;fill:#FFFFFF;" d="M76.4,86.6c-17.8,0-35.6,0-53.4,0c0-0.8,0-1.6,0-2.3
	c0.2-2.2,0.6-4.3,1.5-6.3c0.9-2.1,2.4-3.7,4.4-4.8c3.1-1.7,6.4-2.8,9.7-3.9c1.2-0.4,2.5-0.9,3.7-1.4c1.1-0.5,1.9-2.1,1.8-3.3
	c0-0.2-0.1-0.3-0.2-0.5c-2.6-3.7-4-7.9-4.7-12.3c-0.4-2.4-0.5-4.9,0-7.3c0.8-4.2,3.4-6.7,7.7-7.3c2-0.3,4-0.3,5.9,0.1
	c4.2,0.8,6.7,3.4,7.3,7.7c0.7,4.8-0.3,9.4-2,13.9c-0.6,1.6-1.6,3.1-2.4,4.7c-0.1,0.3-0.2,0.6-0.2,0.8c0.1,1.8,0.8,3.2,2.7,3.9
	c2.6,0.9,5.2,1.8,7.8,2.8c1.6,0.6,3.2,1.4,4.7,2.2c2.7,1.4,4.2,3.7,5.1,6.5c0.6,2,0.9,4.1,0.9,6.3C76.4,86.2,76.4,86.4,76.4,86.6z"
	/>
<path style="fill-rule:evenodd;clip-rule:evenodd;fill:#FFFFFF;" d="M27.1,54.2c-6.7,0-13.5,0-20.2,0c0-0.3,0-0.6,0-0.9
	c0.1-0.8,0.2-1.6,0.6-2.4c0.4-0.8,0.9-1.4,1.7-1.8c1.2-0.7,2.4-1.1,3.7-1.5c0.5-0.2,0.9-0.3,1.4-0.5c0.4-0.2,0.7-0.8,0.7-1.2
	c0-0.1,0-0.1-0.1-0.2c-1-1.4-1.5-3-1.8-4.7c-0.1-0.9-0.2-1.8,0-2.8c0.3-1.6,1.3-2.5,2.9-2.8c0.7-0.1,1.5-0.1,2.2,0
	c1.6,0.3,2.6,1.3,2.8,2.9c0.2,1.8-0.1,3.6-0.8,5.3c-0.2,0.6-0.6,1.2-0.9,1.8c0,0.1-0.1,0.2-0.1,0.3c0,0.7,0.3,1.2,1,1.5
	c1,0.3,2,0.7,2.9,1c0.6,0.2,1.2,0.5,1.8,0.8c1,0.5,1.6,1.4,1.9,2.5c0.2,0.8,0.3,1.6,0.3,2.4C27.1,54.1,27.1,54.2,27.1,54.2z"/>
<path style="fill-rule:evenodd;clip-rule:evenodd;fill:#FFFFFF;" d="M93.8,54.2c-6.7,0-13.5,0-20.2,0c0-0.3,0-0.6,0-0.9
	c0.1-0.8,0.2-1.6,0.6-2.4c0.4-0.8,0.9-1.4,1.7-1.8c1.2-0.7,2.4-1.1,3.7-1.5c0.5-0.2,0.9-0.3,1.4-0.5c0.4-0.2,0.7-0.8,0.7-1.2
	c0-0.1,0-0.1-0.1-0.2c-1-1.4-1.5-3-1.8-4.7c-0.1-0.9-0.2-1.8,0-2.8c0.3-1.6,1.3-2.5,2.9-2.8c0.7-0.1,1.5-0.1,2.2,0
	c1.6,0.3,2.6,1.3,2.8,2.9c0.2,1.8-0.1,3.6-0.8,5.3c-0.2,0.6-0.6,1.2-0.9,1.8c0,0.1-0.1,0.2-0.1,0.3c0,0.7,0.3,1.2,1,1.5
	c1,0.3,2,0.7,2.9,1c0.6,0.2,1.2,0.5,1.8,0.8c1,0.5,1.6,1.4,1.9,2.5c0.2,0.8,0.3,1.6,0.3,2.4C93.8,54.1,93.8,54.2,93.8,54.2z"/>
<path style="fill-rule:evenodd;clip-rule:evenodd;fill:#FFFFFF;" d="M60.4,25.2c-6.7,0-13.5,0-20.2,0c0-0.3,0-0.6,0-0.9
	c0.1-0.8,0.2-1.6,0.6-2.4c0.4-0.8,0.9-1.4,1.7-1.8c1.2-0.7,2.4-1.1,3.7-1.5c0.5-0.2,0.9-0.3,1.4-0.5c0.4-0.2,0.7-0.8,0.7-1.2
	c0-0.1,0-0.1-0.1-0.2c-1-1.4-1.5-3-1.8-4.7c-0.1-0.9-0.2-1.8,0-2.8c0.3-1.6,1.3-2.5,2.9-2.8c0.7-0.1,1.5-0.1,2.2,0
	c1.6,0.3,2.6,1.3,2.8,2.9c0.2,1.8-0.1,3.6-0.8,5.3c-0.2,0.6-0.6,1.2-0.9,1.8c0,0.1-0.1,0.2-0.1,0.3c0,0.7,0.3,1.2,1,1.5
	c1,0.3,2,0.7,2.9,1c0.6,0.2,1.2,0.5,1.8,0.8c1,0.5,1.6,1.4,1.9,2.5c0.2,0.8,0.3,1.6,0.3,2.4C60.4,25,60.4,25.1,60.4,25.2z"/>
<g>
	<path style="fill:#FFFFFF;" d="M74.5,22c0-0.7-0.5-1.1-1.2-1.1c-0.7,0-1.1,0.3-1.6,0.8l-1.4-1.3c0.8-1,1.9-1.6,3.3-1.6
		c2,0,3.5,0.9,3.5,3.1c0,2.2-2.7,2.9-2.5,5h-2.3C71.9,24.3,74.5,23.3,74.5,22z M73.4,27.8c0.9,0,1.6,0.7,1.6,1.7
		c0,0.9-0.7,1.6-1.6,1.6s-1.6-0.7-1.6-1.6C71.8,28.5,72.5,27.8,73.4,27.8z"/>
</g>
<g>
	<path style="fill:#FFFFFF;" d="M25.6,22c0-0.7-0.5-1.1-1.2-1.1c-0.7,0-1.1,0.3-1.6,0.8l-1.4-1.3c0.8-1,1.9-1.6,3.3-1.6
		c2,0,3.5,0.9,3.5,3.1c0,2.2-2.7,2.9-2.5,5h-2.3C23,24.3,25.6,23.3,25.6,22z M24.5,27.8c0.9,0,1.6,0.7,1.6,1.7
		c0,0.9-0.7,1.6-1.6,1.6s-1.6-0.7-1.6-1.6C22.9,28.5,23.5,27.8,24.5,27.8z"/>
</g>
<g>
	<path style="fill:#FFFFFF;" d="M83.5,65.6c0-0.7-0.5-1.1-1.2-1.1c-0.7,0-1.1,0.3-1.6,0.8L79.2,64c0.8-1,1.9-1.6,3.3-1.6
		c2,0,3.5,0.9,3.5,3.1c0,2.2-2.7,2.9-2.5,5h-2.3C80.9,68,83.5,67,83.5,65.6z M82.4,71.5c0.9,0,1.6,0.7,1.6,1.7
		c0,0.9-0.7,1.6-1.6,1.6s-1.6-0.7-1.6-1.6C80.8,72.2,81.5,71.5,82.4,71.5z"/>
</g>
<g>
	<path style="fill:#FFFFFF;" d="M18.1,64.9c0-0.7-0.5-1.1-1.2-1.1c-0.7,0-1.1,0.3-1.6,0.8l-1.4-1.3c0.8-1,1.9-1.6,3.3-1.6
		c2,0,3.5,0.9,3.5,3.1c0,2.2-2.7,2.9-2.5,5h-2.3C15.5,67.2,18.1,66.2,18.1,64.9z M17,70.7c0.9,0,1.6,0.7,1.6,1.7
		c0,0.9-0.7,1.6-1.6,1.6s-1.6-0.7-1.6-1.6C15.4,71.4,16.1,70.7,17,70.7z"/>
</g>
<g>
	<rect x="48.6" y="27.1" style="fill:#FFFFFF;" width="2.1" height="1"/>
	<rect x="48.6" y="30" style="fill:#FFFFFF;" width="2.1" height="1.9"/>
	<rect x="48.6" y="33.7" style="fill:#FFFFFF;" width="2.1" height="1"/>
</g>
<g>
	<rect x="27.8" y="49" style="fill:#FFFFFF;" width="1" height="2.1"/>
	<rect x="31.1" y="49" style="fill:#FFFFFF;" width="2.3" height="2.1"/>
	<rect x="35.7" y="49" style="fill:#FFFFFF;" width="1" height="2.1"/>
</g>
<g>
	
		<rect x="27.2" y="30.3" transform="matrix(0.644 -0.7651 0.7651 0.644 -13.4755 32.5866)" style="fill:#FFFFFF;" width="2.1" height="1"/>
	<path style="fill:#FFFFFF;" d="M36.5,39l-1.4-1.2l1.3-1.6l1.4,1.2L36.5,39z M33.7,36.7l-1.4-1.2l1.3-1.6l1.4,1.2L33.7,36.7z
		 M30.8,34.3l-1.4-1.2l1.3-1.6l1.4,1.2L30.8,34.3z"/>
	
		<rect x="37.9" y="39.3" transform="matrix(0.644 -0.7651 0.7651 0.644 -16.561 43.9818)" style="fill:#FFFFFF;" width="2.1" height="1"/>
</g>
<g>
	
		<rect x="69.7" y="29.7" transform="matrix(0.7651 -0.644 0.644 0.7651 -3.3188 52.446)" style="fill:#FFFFFF;" width="1" height="2.1"/>
	<path style="fill:#FFFFFF;" d="M62,39l-1.3-1.6l1.4-1.2l1.3,1.6L62,39z M64.8,36.7l-1.3-1.6l1.4-1.2l1.3,1.6L64.8,36.7z M67.7,34.3
		l-1.3-1.6l1.4-1.2l1.3,1.6L67.7,34.3z"/>
	
		<rect x="59" y="38.8" transform="matrix(0.7651 -0.644 0.644 0.7651 -11.6365 47.6726)" style="fill:#FFFFFF;" width="1" height="2.1"/>
</g>
<g>
	
		<rect x="76.4" y="66.7" transform="matrix(0.4446 -0.8957 0.8957 0.4446 -17.1835 106.6574)" style="fill:#FFFFFF;" width="2.1" height="1"/>
	<path style="fill:#FFFFFF;" d="M74.6,66.9L72.7,66l0.9-1.8l1.9,0.9L74.6,66.9z M70.9,65.1L69,64.1l0.9-1.8l1.9,0.9L70.9,65.1z
		 M67.1,63.2l-1.9-0.9l0.9-1.8l1.9,0.9L67.1,63.2z M63.3,61.4l-1.9-0.9l0.9-1.8l1.9,0.9L63.3,61.4z"/>
	
		<rect x="58.6" y="57.8" transform="matrix(0.4441 -0.896 0.896 0.4441 -19.1466 85.8168)" style="fill:#FFFFFF;" width="2.1" height="1"/>
</g>
<g>
	
		<rect x="22.2" y="65.1" transform="matrix(0.8998 -0.4362 0.4362 0.8998 -26.5882 16.5449)" style="fill:#FFFFFF;" width="1" height="2.1"/>
	<path style="fill:#FFFFFF;" d="M25.3,66l-0.9-1.8l1.7-0.8l0.9,1.8L25.3,66z M28.7,64.4l-0.9-1.8l1.7-0.8l0.9,1.8L28.7,64.4z
		 M32.1,62.8l-0.9-1.8l1.7-0.8l0.9,1.8L32.1,62.8z M35.5,61.1l-0.9-1.8l1.7-0.8l0.9,1.8L35.5,61.1z"/>
	
		<rect x="38.4" y="57.3" transform="matrix(0.9002 -0.4355 0.4355 0.9002 -21.5196 22.7623)" style="fill:#FFFFFF;" width="1" height="2.1"/>
</g>
<g>
	<rect x="62" y="49" style="fill:#FFFFFF;" width="1" height="2.1"/>
	<rect x="65.3" y="49" style="fill:#FFFFFF;" width="2.3" height="2.1"/>
	<rect x="69.9" y="49" style="fill:#FFFFFF;" width="1" height="2.1"/>
</g>
</svg>
