<?xml version="1.0" encoding="utf-8"?>
<!-- Generator: Adobe Illustrator 19.2.1, SVG Export Plug-In . SVG Version: 6.00 Build 0)  -->
<svg version="1.1" id="Layer_1" xmlns="http://www.w3.org/2000/svg" xmlns:xlink="http://www.w3.org/1999/xlink" x="0px" y="0px"
	 viewBox="0 0 100 100" style="enable-background:new 0 0 100 100;" xml:space="preserve">
<circle style="fill:#D1D3D4;" cx="50" cy="50" r="50"/>
<g>
	<g>
		<circle style="fill-rule:evenodd;clip-rule:evenodd;fill:#FFFFFF;" cx="49.7" cy="49.6" r="31.6"/>
	</g>
</g>
<ellipse style="fill-rule:evenodd;clip-rule:evenodd;fill:#D1D3D4;" cx="37.2" cy="43.3" rx="4.1" ry="5.1"/>
<ellipse style="fill-rule:evenodd;clip-rule:evenodd;fill:#D1D3D4;" cx="60.6" cy="43.3" rx="4.1" ry="5.1"/>
<rect x="54" y="38.1" transform="matrix(0.9487 -0.3161 0.3161 0.9487 -9.5317 21.1223)" style="fill-rule:evenodd;clip-rule:evenodd;fill:#D1D3D4;" width="12.6" height="3.7"/>
<rect x="38.9" y="63.4" transform="matrix(0.9888 -0.1491 0.1491 0.9888 -9.1848 8.0136)" style="fill-rule:evenodd;clip-rule:evenodd;fill:#D1D3D4;" width="20" height="3.7"/>
<rect x="31.4" y="38.1" transform="matrix(-0.9487 -0.3161 0.3161 -0.9487 60.9039 89.7671)" style="fill-rule:evenodd;clip-rule:evenodd;fill:#D1D3D4;" width="12.6" height="3.7"/>
<path style="fill-rule:evenodd;clip-rule:evenodd;fill:#FFFFFF;" d="M63.7,24.5c2.4,2.5,4,4.6,10.3,5.1c6.5-7.3-2.4-16-2.4-16
	S73.4,23.6,63.7,24.5z"/>
<path style="fill-rule:evenodd;clip-rule:evenodd;fill:#FFFFFF;" d="M35.6,24.5c-2.4,2.5-4,4.6-10.3,5.1c-6.5-7.3,2.4-16,2.4-16
	S25.9,23.6,35.6,24.5z"/>
</svg>
