<?xml version="1.0" encoding="utf-8"?>
<!-- Generator: Adobe Illustrator 19.2.1, SVG Export Plug-In . SVG Version: 6.00 Build 0)  -->
<svg version="1.1" id="Layer_1" xmlns="http://www.w3.org/2000/svg" xmlns:xlink="http://www.w3.org/1999/xlink" x="0px" y="0px"
	 viewBox="0 0 100 100" style="enable-background:new 0 0 100 100;" xml:space="preserve">
<circle style="fill:#44B2E5;" cx="50" cy="50" r="50"/>
<g>
	<path style="fill:#FFFFFF;" d="M86.6,65.2L80,47.1c1.7-0.6,2.9-2.2,2.9-4.1c0-2.4-1.9-4.3-4.3-4.3c-0.1,0-0.2,0-0.4,0
		c-6.2,0.4-12.1,0.5-18.1,0.6L59,34l-1.2,5.4c-5.9,0-11.9-0.2-18.1-0.6c-0.1,0-0.2,0-0.4,0c-2.4,0-4.3,1.9-4.3,4.3
		c0,1.9,1.2,3.5,2.9,4.1l-6.5,18.1h-1.7c0,2.4,4.4,4.4,9.7,4.4c5.4,0,9.7-2,9.7-4.4h-1.7L41,47c1.6-0.6,2.7-2.2,2.7-4
		c0-0.7-0.2-1.4-0.5-2c4.1,2.2,8.9,3.4,13.8,3.7l0.2,21.6c-0.6,0.4-1,1-1.2,1.7c-0.6,0.7-0.9,1.5-0.9,2.5c0,1.1,0.4,2,1.1,2.7
		C56.1,73.6,56,74,56,74.5c0,0.1,0,0.1,0,0.2c-3.8,0.6-6.8,2.1-8,4.1h22c-1.1-2-4.2-3.6-8-4.1c0-0.1,0-0.1,0-0.2
		c0-0.5-0.1-1-0.3-1.4c0.7-0.7,1.1-1.7,1.1-2.7c0-0.9-0.3-1.8-0.9-2.5c-0.2-0.7-0.6-1.3-1.2-1.7l0.2-21.6c4.9-0.3,9.7-1.5,13.9-3.7
		c-0.3,0.6-0.5,1.3-0.5,2.1c0,1.8,1.1,3.3,2.7,4l-6.6,18.2h-1.7c0,2.4,4.4,4.4,9.7,4.4c5.4,0,9.7-2,9.7-4.4H86.6z M38.9,65.2h-6
		l6-16.6V65.2z M46.2,65.2h-6V48.7L46.2,65.2z M79.2,48.7l6,16.6h-6V48.7z M77.9,48.7v16.6h-6L77.9,48.7z M77.9,48.7"/>
</g>
<g>
	<g>
		<path style="fill:#FFFFFF;" d="M58,44c0,0-7-6.8-11.3-15.4c-2.1-4.1-3.9-9.6-5.6-16.6c-1.6,6.9-3.4,12.5-5.5,16.6
			C31.2,37.3,24.2,44,24.2,44c-5.6,6.2-8.3,12.4-8.3,18.6c0,6.8,2.5,12.7,7.4,17.6c5,4.9,10.9,7.4,17.8,7.4c6.9,0,12.9-2.5,17.8-7.4
			c5-4.9,7.4-10.8,7.4-17.6C66.3,56.4,63.5,50.2,58,44z"/>
	</g>
</g>
<g>
	<path style="fill:#44B2E5;" d="M53.7,39.3c0,0-9.2-0.3-14-0.5c-0.1,0-0.2,0-0.4,0c-2.4,0-4.3,1.9-4.3,4.3c0,1.9,1.2,3.5,2.9,4.1
		l-6.5,18.1h-1.7c0,2.4,4.4,4.4,9.7,4.4c5.4,0,9.7-2,9.7-4.4h-1.7L41,47c1.6-0.6,2.7-2.2,2.7-4c0-0.7-0.2-1.4-0.5-2
		c4.1,2.2,8.9,3.4,13.8,3.7l0.2,21.6c-0.6,0.4-1,1-1.2,1.7c-0.6,0.7-0.9,1.5-0.9,2.5c0,1.1,0.4,2,1.1,2.7C56.1,73.6,56,74,56,74.5
		c0,0.1,0,0.1,0,0.2c-3.8,0.6-6.8,2.1-8,4.1l12.1,0c1-1,2.1-2.5,2.9-4c0,0-0.6-0.1-1-0.2c0-0.1,0-0.1,0-0.2c0-0.5-0.1-1-0.3-1.4
		c0.7-0.7,1.1-1.7,1.1-2.7c0-0.9-0.3-1.8-0.9-2.5c-0.2-0.7-0.6-1.3-1.2-1.7L61,47.8L53.7,39.3z M38.9,65.2h-6l6-16.6V65.2z
		 M46.2,65.2h-6V48.7L46.2,65.2z"/>
</g>
</svg>
