<?xml version="1.0" encoding="utf-8"?>
<!-- Generator: Adobe Illustrator 19.2.1, SVG Export Plug-In . SVG Version: 6.00 Build 0)  -->
<svg version="1.1" id="Layer_1" xmlns="http://www.w3.org/2000/svg" xmlns:xlink="http://www.w3.org/1999/xlink" x="0px" y="0px"
	 viewBox="0 0 100 100" style="enable-background:new 0 0 100 100;" xml:space="preserve">
<circle style="fill:#00A19A;" cx="50" cy="50" r="50"/>
<path style="fill:#FFFFFF;" d="M61.6,37c-0.3-0.3-0.9-0.3-1.3,0c-0.3,0.3-0.3,0.9,0,1.3l3.1,3.1c0.2,0.2,0.4,0.3,0.6,0.3
	c0.2,0,0.5-0.1,0.6-0.3c0.3-0.3,0.3-0.9,0-1.3L61.6,37z M61.6,37"/>
<path style="fill:#FFFFFF;" d="M59.2,39.4c-0.3-0.3-0.9-0.3-1.3,0c-0.3,0.3-0.3,0.9,0,1.3l3.1,3.1c0.2,0.2,0.4,0.3,0.6,0.3
	c0.2,0,0.5-0.1,0.6-0.3c0.3-0.3,0.3-0.9,0-1.3L59.2,39.4z M59.2,39.4"/>
<path style="fill:#FFFFFF;" d="M56.8,41.9c-0.3-0.3-0.9-0.3-1.3,0c-0.3,0.3-0.3,0.9,0,1.3l3.1,3.1c0.2,0.2,0.4,0.3,0.6,0.3
	s0.5-0.1,0.6-0.3c0.3-0.3,0.3-0.9,0-1.3L56.8,41.9z M56.8,41.9"/>
<path style="fill:#FFFFFF;" d="M54.5,44.2c-0.3-0.3-0.9-0.3-1.3,0c-0.3,0.3-0.3,0.9,0,1.3l3.1,3.1c0.2,0.2,0.4,0.3,0.6,0.3
	s0.5-0.1,0.6-0.3c0.3-0.3,0.3-0.9,0-1.3L54.5,44.2z M54.5,44.2"/>
<path style="fill:#FFFFFF;" d="M79.3,32l-9.5-9.5c-0.3-0.3-0.9-0.3-1.3,0c-0.3,0.3-0.3,0.9,0,1.3l2.1,2.1l-5.3,5.3
	c-0.3,0.3-0.3,0.9,0,1.3c0.3,0.3,0.9,0.3,1.3,0l5.3-5.3l2.9,2.9l-5.3,5.3c-0.3,0.3-0.3,0.9,0,1.3c0.2,0.2,0.4,0.3,0.6,0.3
	c0.2,0,0.5-0.1,0.6-0.3l5.3-5.3l2.1,2.1c0.3,0.3,0.9,0.3,1.3,0C79.7,32.9,79.7,32.4,79.3,32L79.3,32z M79.3,32"/>
<path style="fill:#FFFFFF;" d="M71,40.5L71,40.5C71,40.5,71,40.5,71,40.5l-9.7-9.7c0,0,0,0,0,0c0,0,0,0,0,0l-2.7-2.7
	c-0.3-0.3-0.9-0.3-1.3,0c-0.3,0.3-0.3,0.9,0,1.3l2.1,2.1L33.8,57.1c-0.2,0.2-0.3,0.4-0.3,0.6c0,0.2,0.1,0.5,0.3,0.6l2.7,2.7
	l-3.8,3.8c-0.3,0.3-0.3,0.9,0,1.3l0.9,0.9l-9,9c-0.3,0.3-0.3,0.9,0,1.3c0.2,0.2,0.4,0.3,0.6,0.3c0.2,0,0.5-0.1,0.6-0.3l9-9l0.9,0.9
	c0.2,0.2,0.4,0.3,0.6,0.3c0.2,0,0.5-0.1,0.6-0.3l3.8-3.8l2.7,2.7c0.2,0.2,0.4,0.3,0.6,0.3c0.2,0,0.5-0.1,0.6-0.3l25.6-25.6l2.1,2.1
	c0.3,0.3,0.9,0.3,1.3,0c0.3-0.3,0.3-0.9,0-1.3L71,40.5z M44.1,66.1l-2.7-2.7c-0.2-0.2-0.4-0.3-0.6-0.3c-0.2,0-0.5,0.1-0.6,0.3
	l-3.8,3.8l-0.9-0.9l-0.9-0.9l3.8-3.8c0.2-0.2,0.3-0.4,0.3-0.6c0-0.2-0.1-0.5-0.3-0.6l-2.7-2.7l25-25l8.4,8.4L44.1,66.1z M44.1,66.1"
	/>
<rect x="24.4" y="22.3" style="fill:none;" width="55.2" height="55.2"/>
<polygon style="fill:#FFFFFF;" points="38.5,57.6 48.7,47.3 54.3,53 44.2,63.4 "/>
<polygon style="fill:#FFFFFF;" points="49.2,46.7 50.1,45.7 55.8,51.6 54.9,52.5 "/>
</svg>
