<?xml version="1.0" encoding="utf-8"?>
<!-- Generator: Adobe Illustrator 19.2.1, SVG Export Plug-In . SVG Version: 6.00 Build 0)  -->
<svg version="1.1" id="Layer_1" xmlns="http://www.w3.org/2000/svg" xmlns:xlink="http://www.w3.org/1999/xlink" x="0px" y="0px"
	 viewBox="0 0 100 100" style="enable-background:new 0 0 100 100;" xml:space="preserve">
<circle style="fill:#F78F1E;" cx="50" cy="50" r="50"/>
<path style="fill-rule:evenodd;clip-rule:evenodd;fill:#FFFFFF;" d="M39.7,84.5c-6.7,0-13.5,0-20.2,0c-2.1-1.5-7.3-7.3-9-10.9
	c0.7-0.2,2.1-1,2.8-1.2c0.9-0.3,1.7-0.6,2.6-1c0.8-0.3,1.3-1.4,1.3-2.3c0-0.1-0.1-0.2-0.1-0.3c-1.8-2.6-2.8-5.5-3.3-8.6
	c-0.3-1.7-0.3-3.4,0-5.1c0.5-2.9,2.4-4.7,5.3-5.1c1.4-0.2,2.8-0.2,4.1,0.1c3,0.6,4.7,2.4,5.1,5.4c0.5,3.4-0.2,6.6-1.4,9.7
	c-0.4,1.1-1.1,2.2-1.7,3.3c-0.1,0.2-0.2,0.4-0.2,0.6c0.1,1.3,0.5,2.2,1.8,2.7c1.8,0.6,3.6,1.2,5.4,1.9c1.1,0.4,2.2,1,3.3,1.6
	c1.9,1,2.9,2.6,3.5,4.5c0.4,1.4,0.6,2.9,0.6,4.4C39.7,84.3,39.7,84.4,39.7,84.5z"/>
<path style="fill-rule:evenodd;clip-rule:evenodd;fill:#FFFFFF;" d="M60.9,84.5c6.7,0,13.5,0,20.2,0c2.1-1.5,7.3-7.3,9-10.9
	c-0.7-0.2-2.1-1-2.8-1.2c-0.9-0.3-1.7-0.6-2.6-1c-0.8-0.3-1.3-1.4-1.3-2.3c0-0.1,0.1-0.2,0.1-0.3c1.8-2.6,2.8-5.5,3.3-8.6
	c0.3-1.7,0.3-3.4,0-5.1c-0.5-2.9-2.4-4.7-5.3-5.1c-1.4-0.2-2.8-0.2-4.1,0.1c-3,0.6-4.7,2.4-5.1,5.4c-0.5,3.4,0.2,6.6,1.4,9.7
	c0.4,1.1,1.1,2.2,1.7,3.3c0.1,0.2,0.2,0.4,0.2,0.6c-0.1,1.3-0.5,2.2-1.8,2.7c-1.8,0.6-3.6,1.2-5.4,1.9c-1.1,0.4-2.2,1-3.3,1.6
	c-1.9,1-2.9,2.6-3.5,4.5c-0.4,1.4-0.6,2.9-0.6,4.4C60.8,84.3,60.8,84.4,60.9,84.5z"/>
<path style="fill-rule:evenodd;clip-rule:evenodd;fill:#FFFFFF;" d="M51.4,15.2c12.6,0,22.7,7.6,22.7,16.9c0,5.4-2.6,9.7-7.9,12.8
	c0.6,1.7,3,9.1,3,9.1s-9.6-4.4-12-5.5c-1.8,0.4-3.8,0.6-5.8,0.6c-1.4,0-2.8-0.1-4.2-0.3c0,0-13.8,5.3-13.8,5.3s4.5-8.2,4.5-8.2
	c-5.7-3.1-9.3-8.1-9.3-13.7C28.6,22.7,38.8,15.2,51.4,15.2z"/>
<g>
	<path style="fill:#F78F1E;" d="M53.9,26.1c0-1.4-1-2.2-2.4-2.2c-1.3,0-2.3,0.7-3.2,1.6l-2.9-2.6c1.6-1.9,3.8-3.2,6.4-3.2
		c4,0,7,1.9,7,6c0,4.4-5.3,5.7-4.9,9.9h-4.5C48.8,30.7,53.9,28.7,53.9,26.1z M51.7,37.6c1.8,0,3.1,1.4,3.1,3.3
		c0,1.8-1.3,3.2-3.1,3.2c-1.8,0-3.1-1.4-3.1-3.2C48.6,39,49.9,37.6,51.7,37.6z"/>
</g>
</svg>
