<?xml version="1.0" encoding="utf-8"?>
<!-- Generator: Adobe Illustrator 19.2.1, SVG Export Plug-In . SVG Version: 6.00 Build 0)  -->
<svg version="1.1" id="Layer_1" xmlns="http://www.w3.org/2000/svg" xmlns:xlink="http://www.w3.org/1999/xlink" x="0px" y="0px"
	 viewBox="0 0 100 100" style="enable-background:new 0 0 100 100;" xml:space="preserve">
<circle style="fill:#262262;" cx="50" cy="50" r="50"/>
<g>
	<path style="fill:#FFFFFF;" d="M61.5,39.6c0.2,0,0.4,0,0.6,0.1c-2.7-2.2-4.6-4.1-5.7-5.8c-1.1-1.6-1.6-3.5-1.6-5.6
		c0-2.4,1-4.5,3.1-6.3c2-1.8,4.5-2.7,7.4-2.7c2.4,0,4.6,0.7,6.4,2.1c1.9,1.4,2.8,3.2,2.8,5.2c0,1-0.3,1.9-1,2.8
		c-0.6,0.9-1.6,1.3-2.9,1.3c-1,0-1.9-0.3-2.5-1c-0.6-0.7-1-1.4-1-2.3c0-0.9,0.4-1.8,1.3-2.7c0.9-0.9,1.3-1.4,1.3-1.6
		c0-0.7-0.5-1.2-1.6-1.7c-1-0.4-2.1-0.6-3.3-0.6c-1.7,0-3.1,0.4-4.2,1.3c-1.1,0.9-1.7,2.3-1.7,4.1c0,1.5,0.6,3,1.8,4.4
		c0.7,0.9,2,2.1,3.9,3.7l5.8,4.8c2,1.7,3.5,3.2,4.6,4.6c1.9,2.6,2.9,5.1,2.9,7.5c0,2.9-0.9,5.3-2.6,7c-1.8,1.7-4.1,2.5-7.1,2.2
		c2.4,2.1,4,3.8,4.9,5.1c1.4,1.9,2,4,2,6.1c0,2.7-1,4.9-3,6.6c-2,1.8-4.5,2.7-7.7,2.7c-2.7,0-5.1-0.7-7.1-2.1c-2-1.4-3-3.2-3-5.2
		c0-1.1,0.3-2.1,1-3c0.7-0.9,1.7-1.3,3-1.3c1,0,1.9,0.3,2.6,1c0.7,0.7,1,1.5,1,2.5c0,0.6-0.1,1.1-0.3,1.4c-0.2,0.4-0.5,0.7-0.9,1
		l-0.8,0.7c-0.2,0.1-0.3,0.3-0.4,0.4c-0.1,0.1-0.1,0.3-0.1,0.5c0,0.8,0.6,1.4,1.8,1.9c1.2,0.5,2.3,0.7,3.4,0.7
		c1.2,0,2.3-0.3,3.3-0.8c1.9-1,2.8-2.6,2.8-5c0-1.7-0.5-3.2-1.6-4.4c-1.1-1.2-3.2-3.1-6.3-5.5l-3.9-3c-1.7-1.4-3.2-2.9-4.4-4.5
		c-1.8-2.5-2.7-5-2.7-7.6c0-2.8,0.9-5.1,2.8-6.7c1.9-1.6,3.9-2.5,6.1-2.5C61.2,39.6,61.4,39.6,61.5,39.6z M72.6,57.7
		c1.1-0.9,1.6-2.2,1.6-4c0-2.1-1.7-4.7-5-7.9c-3.3-3.1-6.1-4.7-8.4-4.7c-1.4,0-2.6,0.5-3.5,1.5c-1,1-1.5,2.2-1.5,3.6
		c0,1.1,0.3,2.3,0.9,3.4c0.6,1.1,1.9,2.6,4,4.4c2,1.9,3.6,3.1,4.8,3.8c1.2,0.7,2.4,1.1,3.6,1.1C70.3,59,71.5,58.6,72.6,57.7z"/>
</g>
<g>
	<circle style="fill:#FFFFFF;" cx="31.7" cy="50.1" r="12.2"/>
	<path style="fill-rule:evenodd;clip-rule:evenodd;fill:#262262;" d="M39.5,49.4c0-0.7-0.5-1.2-1.2-1.2H25.2c-0.7,0-1.2,0.5-1.2,1.2
		v1.2c0,0.7,0.5,1.2,1.2,1.2h13.1c0.7,0,1.2-0.5,1.2-1.2V49.4z"/>
</g>
</svg>
