<?xml version="1.0" encoding="utf-8"?>
<!-- Generator: Adobe Illustrator 19.2.1, SVG Export Plug-In . SVG Version: 6.00 Build 0)  -->
<svg version="1.1" id="Layer_1" xmlns="http://www.w3.org/2000/svg" xmlns:xlink="http://www.w3.org/1999/xlink" x="0px" y="0px"
	 viewBox="0 0 100 100" style="enable-background:new 0 0 100 100;" xml:space="preserve">
<circle style="fill:#E17226;" cx="50" cy="50" r="50"/>
<g>
	<path style="fill:#FFFFFF;" d="M41,38.8V23.7c0-1-0.1-2.2-0.6-2.8C30.1,18,28.9,28,28.9,28c-0.3,1.2-0.5,3.6-0.6,6
		c0.5-0.1,1.1-0.2,1.6-0.2c1.5,0,2.8,0.6,3.7,1.7c1.1,1.3,1.5,3.3,1.2,6h2.7C39.2,41.5,40.6,40.3,41,38.8L41,38.8z M41,38.8"/>
	<path style="fill:#FFFFFF;" d="M72.5,60.5h-1.7c-3.4,0-6.1-2.2-6.1-4.9v-2.7c-1.1,0.8-2.5,1.3-4.1,1.3h-1.7c-3.4,0-6.1-2.2-6.1-4.9
		v-1.1c-1.1,0.8-2.5,1.3-4.1,1.3h-1.7c-3.3,0-6-2.1-6.1-4.8c-0.9,0.8-2.2,1.3-3.5,1.3h-3c-0.4,1.7,0,6.4-2.1,8.1
		c-1.2,1.1-2.8-0.8-2.8-0.8c3.4-3.7,3.2-9.7,3.2-9.7c0.9-4.6-2.2-7.1-4-7.1c-0.5,0-1.1,0.1-1.6,0.3c0,0-3.4,1.8-4.8,3
		c-1.3,0.9-3.7,3.8-3.9,4.1l-0.1-0.1c-3.3,5.5,0.8,11.1,0.8,11.1c5.3,9.3,15.3,21.6,15.3,21.6c4.7,4,2,6.3,2,6.3l34.9,0.3l1.8-6
		c3.3-6.3,4.6-13.8,5.1-20.1C77.7,58.9,75.3,60.5,72.5,60.5L72.5,60.5z M72.5,60.5"/>
	<path style="fill:#FFFFFF;" d="M70.8,55.8h1.7c2.2,0,4.1-1.3,4.1-2.9V34.7c0-1.6-1.9-2.9-4.1-2.9h-1.7c-2.2,0-4.1,1.3-4.1,2.9v18.2
		C66.7,54.5,68.6,55.8,70.8,55.8L70.8,55.8z M70.8,55.8"/>
	<path style="fill:#FFFFFF;" d="M47.1,44.8h1.7c2.2,0,4.1-1.3,4.1-2.9V23.7c0-1.6-1.9-2.9-4.1-2.9h-1.7c-2.2,0-4.1,1.3-4.1,2.9v18.2
		C43,43.5,44.8,44.8,47.1,44.8L47.1,44.8z M47.1,44.8"/>
	<path style="fill:#FFFFFF;" d="M58.9,49.5h1.7c2.2,0,4.1-1.3,4.1-2.9V28.4c0-1.6-1.9-2.9-4.1-2.9h-1.7c-2.2,0-4.1,1.3-4.1,2.9v18.2
		C54.9,48.2,56.7,49.5,58.9,49.5L58.9,49.5z M58.9,49.5"/>
</g>
</svg>
