<?xml version="1.0" encoding="utf-8"?>
<!-- Generator: Adobe Illustrator 19.2.1, SVG Export Plug-In . SVG Version: 6.00 Build 0)  -->
<svg version="1.1" id="Layer_1" xmlns="http://www.w3.org/2000/svg" xmlns:xlink="http://www.w3.org/1999/xlink" x="0px" y="0px"
	 viewBox="0 0 100 100" style="enable-background:new 0 0 100 100;" xml:space="preserve">
<circle style="fill:#F06392;" cx="50" cy="50" r="50"/>
<path style="fill:#FFFFFF;" d="M90.3,35.9v23.5c0,0-5,1-6.1,1.1c-1,0.1-4.3,1.2-6.6-1.1c-3.6-3.5-16.5-16.3-16.5-16.3
	s-2.2-2.2-5.8-0.3c-3.3,1.7-8.1,4.3-10.2,5.2c-3.8,2-7-1.2-7-3.7c0-1.9,1.2-3.2,2.9-4.2c4.6-2.8,14.4-8.3,18.4-10.4
	c2.5-1.3,4.2-1.4,7.6,1.4c4.2,3.5,7.9,6.7,7.9,6.7s1.2,1,3.1,0.6C82.8,37.5,90.3,35.9,90.3,35.9L90.3,35.9z"/>
<path style="fill:#FFFFFF;" d="M39,75.7c0.6-1.6,0.4-3.4-0.8-4.6c-1.1-1.1-2.6-1.4-4.1-1c0.4-1.5,0.2-3.1-0.9-4.2
	c-1.1-1.1-2.6-1.4-4.1-1c0.4-1.5,0.2-3.1-0.9-4.2c-1.7-1.7-4.6-1.7-6.5,0.2c-1.9,1.8-3.1,5.2-1.4,7.1c1.7,1.9,3.7,0.8,5.2,0.4
	c-0.4,1.5-1.7,2.9-0.1,4.8c1.5,1.9,3.7,0.8,5.2,0.4c-0.4,1.5-1.6,3-0.1,4.8c1.5,1.8,3.9,0.8,5.5,0.3c-0.6,1.6-2,3.3-0.2,5.2
	c1.7,1.9,5.6,1,7.6-0.8c1.9-1.8,2.1-4.7,0.4-6.5C42.3,75.5,40.6,75.2,39,75.7L39,75.7z"/>
<path style="fill:#FFFFFF;" d="M74.1,63.5c-13.9-13.9-7.4-7.4-14.9-14.9c0,0-2.3-2.2-5.2-0.9c-2.1,0.9-4.8,2.2-6.8,3.1
	c-2.2,1.2-3.8,1.5-4.6,1.5c-4.3,0-7.8-3.5-7.8-7.8c0-2.8,1.5-5.2,3.7-6.6c3.1-2.1,10.2-5.9,10.2-5.9s-2.2-2.7-6.9-2.7
	c-4.7,0-14.7,6.5-14.7,6.5s-2.8,1.8-6.8,0.2l-7.7-2.7v26.9c0,0,2.2,0.6,4.2,1.4c0.4-1.3,1.2-2.5,2.2-3.4c3.3-3.1,8.7-3.2,11.7-0.1
	c0.9,0.9,1.5,2.1,1.9,3.3c1.2,0.4,2.3,1,3.2,1.9c0.9,0.9,1.5,2.1,1.9,3.3c1.2,0.4,2.3,1,3.2,1.9c1,1,1.7,2.3,2,3.6
	c1.3,0.4,2.4,1.1,3.3,2c1.8,1.8,2.4,4.4,2.1,6.8c0,0,0,0,0,0c0,0,1.1,1.2,1.8,1.9c1.3,1.3,3.5,1.3,4.8,0c1.3-1.3,1.3-3.5,0-4.8
	c0,0-4.8-5-4.4-5.4c0.4-0.4,6.4,5.9,6.5,6c1.3,1.3,3.5,1.3,4.8,0c1.3-1.3,1.3-3.5,0-4.8c-0.1-0.1-0.3-0.3-0.4-0.4c0,0-6-5.3-5.5-5.8
	c0.5-0.5,7.9,6.5,7.9,6.5c1.3,1.2,3.4,1.2,4.7-0.1c1.3-1.3,1.3-3.2,0.2-4.6c0-0.1-5.7-6-5.2-6.4c0.4-0.4,6,5.3,6,5.3
	c1.3,1.3,3.5,1.3,4.8,0C75.5,67,75.5,64.8,74.1,63.5C74.1,63.5,74.1,63.5,74.1,63.5L74.1,63.5z"/>
<path d="M74.1,63.5"/>
</svg>
