<?xml version="1.0" encoding="utf-8"?>
<!-- Generator: Adobe Illustrator 19.2.1, SVG Export Plug-In . SVG Version: 6.00 Build 0)  -->
<svg version="1.1" id="Layer_1" xmlns="http://www.w3.org/2000/svg" xmlns:xlink="http://www.w3.org/1999/xlink" x="0px" y="0px"
	 viewBox="0 0 100 100" style="enable-background:new 0 0 100 100;" xml:space="preserve">
<circle style="fill:#6BA643;" cx="50" cy="50" r="50"/>
<path style="fill-rule:evenodd;clip-rule:evenodd;fill:#FFFFFF;" d="M58,85c6.7,0,13.5,0,20.2,0c2.1-1.5,7.3-7.3,9-10.9
	c-0.7-0.2-2.1-1-2.8-1.2c-0.9-0.3-1.7-0.6-2.6-1c-0.8-0.3-1.3-1.4-1.3-2.3c0-0.1,0.1-0.2,0.1-0.3c1.8-2.6,2.8-5.5,3.3-8.6
	c0.3-1.7,0.3-3.4,0-5.1c-0.5-2.9-2.4-4.7-5.3-5.1c-1.4-0.2-2.8-0.2-4.1,0.1c-3,0.6-4.7,2.4-5.1,5.4c-0.5,3.4,0.2,6.6,1.4,9.7
	c0.4,1.1,1.1,2.2,1.7,3.3c0.1,0.2,0.2,0.4,0.2,0.6c-0.1,1.3-0.5,2.2-1.8,2.7c-1.8,0.6-3.6,1.2-5.4,1.9c-1.1,0.4-2.2,1-3.3,1.6
	c-1.9,1-2.9,2.6-3.5,4.5c-0.4,1.4-0.6,2.9-0.6,4.4C58,84.7,58,84.8,58,85z"/>
<path style="fill-rule:evenodd;clip-rule:evenodd;fill:#FFFFFF;" d="M67.9,37.3c0,6.7-4.4,12.6-11.1,16.3c0,0.1,5.4,9.8,5.4,9.8
	s-16.4-6.2-16.4-6.3c-1.6,0.2-3.3,0.3-5,0.3c-15,0-27.1-9-27.1-20.2c0-11.2,12.1-20.2,27.1-20.2C55.8,17.1,67.9,26.1,67.9,37.3z"/>
<g>
	<path style="fill:#6BA643;" d="M42.9,29.7c0-1.8-1.2-2.7-2.9-2.7c-1.6,0-2.7,0.8-3.9,2l-3.5-3.2c1.9-2.3,4.6-3.9,7.8-3.9
		c4.9,0,8.5,2.3,8.5,7.3c0,5.3-6.4,6.9-5.9,12h-5.5C36.6,35.4,42.9,32.9,42.9,29.7z M40.2,43.8c2.2,0,3.8,1.7,3.8,4
		c0,2.2-1.6,3.9-3.8,3.9c-2.2,0-3.8-1.7-3.8-3.9C36.5,45.5,38,43.8,40.2,43.8z"/>
</g>
</svg>
