<?xml version="1.0" encoding="utf-8"?>
<!-- Generator: Adobe Illustrator 19.2.0, SVG Export Plug-In . SVG Version: 6.00 Build 0)  -->
<svg version="1.1" id="Layer_1" xmlns="http://www.w3.org/2000/svg" xmlns:xlink="http://www.w3.org/1999/xlink" x="0px" y="0px"
	 viewBox="0 0 100 100" style="enable-background:new 0 0 100 100;" xml:space="preserve">
<path style="fill:#686868;" d="M49.9,11.4L58.6,40c0.4,1.3,1.5,2.1,2.9,2.1c0,0,0,0,0,0c9.7-0.2,19.3-0.4,29-0.6l1.3,0L67.2,58.8
	l-1.6,1.1l0.6,1.8L76,90.5l-6.5-4.8L51.4,72.3l-1.5-1.1l-1.5,1.1L24.1,90.2L31.2,70l2.9-8.3l0.6-1.8l-1.6-1.1l-25-17.4l3,0l8,0.1
	l4.3,0.1l14.9,0.2c1.4,0,2.4-0.8,2.8-2.1L49.9,11.4 M49.9,2.8c0,0.1-0.1,0.2-0.1,0.3C46.1,15,42.4,27,38.7,38.9
	c-0.1,0.2-0.2,0.3-0.4,0.3c0,0,0,0,0,0c-6.4-0.1-12.8-0.2-19.1-0.3c-6.3-0.1-12.5-0.2-18.8-0.2c0,0,0,0,0,0c-0.1,0-0.2,0-0.3,0
	c10.6,7.4,21.2,14.7,31.7,22.1C27.5,72.9,23.2,85,19,97.1c0,0,0,0,0.1,0c10.3-7.6,20.6-15.2,30.9-22.8c10.3,7.6,20.7,15.2,31,22.9
	c0,0,0,0,0.1,0C76.9,85.1,72.8,73,68.7,60.8c10.5-7.3,20.9-14.6,31.3-22c-0.1-0.1-0.2-0.1-0.3-0.1c0,0,0,0,0,0
	c-3.1,0.1-6.1,0.1-9.2,0.2c-9.7,0.2-19.3,0.4-29,0.6c0,0,0,0,0,0c-0.3,0-0.4-0.1-0.4-0.3c-3.7-12-7.4-24.1-11.1-36.1
	C50,3,49.9,2.9,49.9,2.8L49.9,2.8z"/>
</svg>
