<?xml version="1.0" encoding="utf-8"?>
<!-- Generator: Adobe Illustrator 19.2.0, SVG Export Plug-In . SVG Version: 6.00 Build 0)  -->
<svg version="1.1" id="Layer_1" xmlns="http://www.w3.org/2000/svg" xmlns:xlink="http://www.w3.org/1999/xlink" x="0px" y="0px"
	 viewBox="0 0 100 100" style="enable-background:new 0 0 100 100;" xml:space="preserve">
<path style="fill:#686868;" d="M80.9,97.2c-10.3-7.6-20.7-15.2-31-22.9C39.6,81.9,29.3,89.5,19,97.1c0,0,0,0-0.1,0
	c4.3-12.1,8.5-24.1,12.8-36.2C21.2,53.5,10.6,46.2,0,38.8c0.2,0,0.3,0,0.3,0c6.3,0.1,12.5,0.2,18.8,0.2c6.4,0.1,12.8,0.2,19.1,0.3
	c0.3,0,0.4-0.1,0.4-0.3C42.4,27,46.1,15,49.8,3.1c0-0.1,0.1-0.2,0.1-0.3C49.9,2.9,50,3,50,3.1c3.7,12,7.4,24.1,11.1,36.1
	c0.1,0.3,0.2,0.3,0.5,0.3c9.7-0.2,19.3-0.4,29-0.6c3.1-0.1,6.1-0.1,9.2-0.2c0.1,0,0.2,0,0.3,0.1c-10.4,7.3-20.9,14.6-31.3,22
	C72.8,73,76.9,85.1,80.9,97.2C81,97.2,80.9,97.2,80.9,97.2z"/>
</svg>
