<?xml version="1.0" encoding="utf-8"?>
<!-- Generator: Adobe Illustrator 19.2.0, SVG Export Plug-In . SVG Version: 6.00 Build 0)  -->
<svg version="1.1" id="Layer_1" xmlns="http://www.w3.org/2000/svg" xmlns:xlink="http://www.w3.org/1999/xlink" x="0px" y="0px"
	 viewBox="0 0 100 100" style="enable-background:new 0 0 100 100;" xml:space="preserve">
<g>
	<path style="fill:#70706F;" d="M47.8,0c1.4,0,2.8,0,4.1,0c1,0.1,1.9,0.2,2.9,0.2c0.3,0,0.4,0.1,0.5,0.4c0.3,0.9,0.5,1.7,0.8,2.6
		c0.9,2.9,1.8,5.9,2.7,8.8c0.1,0.3,0.2,0.4,0.5,0.5c0.5,0.1,0.9,0.2,1.4,0.3c1.7,0.6,3.5,1.2,5.2,1.8c0.3,0.1,0.5,0.1,0.8-0.1
		c3.1-2.4,6.3-4.7,9.4-7.1c0.2-0.2,0.4-0.2,0.6,0c2.5,1.5,4.9,3.2,7.1,5.1c0.3,0.2,0.3,0.4,0.2,0.7c-1.4,3.7-2.7,7.4-4.1,11.2
		c-0.1,0.2-0.1,0.4,0.1,0.5c0.4,0.4,0.7,0.8,1,1.2c1,1.3,1.9,2.7,2.8,4c0.3,0.5,0.6,0.7,1.3,0.7c3.9-0.1,7.7-0.2,11.6-0.3
		c0.2,0,0.4,0,0.5,0.3c0.7,2,1.4,4,2.1,6c0.3,0.8,0.5,1.7,0.7,2.6c0,0.1,0,0.1,0,0.2c-0.1,0-0.2,0.1-0.3,0.1
		c-3.4,2.3-6.7,4.5-10.1,6.8c-0.2,0.1-0.2,0.3-0.2,0.5c0.1,1.4,0.1,2.9,0.2,4.3c0,0.7-0.1,1.5-0.1,2.2c0,0.4,0,0.6,0.4,0.9
		c2.3,1.5,4.6,3.1,6.9,4.7c1.1,0.7,2.1,1.4,3.2,2.1v0.1c-0.2,0.9-0.5,1.7-0.7,2.5c-0.6,2-1.3,4.1-2.2,6c-0.4,0-0.8,0-1.2,0
		c-3.8-0.1-7.5-0.2-11.2-0.3c-0.3,0-0.4,0.1-0.6,0.3c-1.2,2.1-2.7,4-4.3,5.8c-0.3,0.3-0.3,0.5-0.2,0.9c1.3,3.6,2.7,7.3,4,10.9
		c0.1,0.3,0.1,0.4-0.2,0.7c-2.2,1.9-4.6,3.6-7.2,5c-0.3,0.1-0.4,0.1-0.6,0c-3.2-2.4-6.4-4.8-9.6-7.2c-0.2-0.2-0.4-0.2-0.7-0.1
		c-2.2,0.9-4.5,1.7-6.9,2.2c-0.3,0.1-0.4,0.2-0.5,0.5c-1.1,3.8-2.3,7.5-3.4,11.3c-0.1,0.3-0.2,0.4-0.5,0.4c-0.4,0-0.9,0.1-1.3,0.1
		c-2.5,0.1-5,0.1-7.5-0.1c-0.5,0-0.6-0.2-0.8-0.6c-1.1-3.8-2.2-7.5-3.3-11.2C41,88.1,40.9,88,40.7,88c-0.5-0.1-1-0.2-1.4-0.4
		c-1.7-0.6-3.5-1.2-5.2-1.8c-0.3-0.1-0.5,0-0.8,0.2c-3.1,2.4-6.3,4.7-9.4,7.1c-0.2,0.2-0.4,0.2-0.6,0c-2.5-1.5-4.9-3.2-7.2-5.2
		c-0.2-0.2-0.2-0.3-0.1-0.6c0.5-1.3,1-2.6,1.4-3.9c0.9-2.4,1.8-4.9,2.7-7.3c0-0.1,0.1-0.4,0-0.4c-1.5-1.7-2.8-3.5-4-5.4
		c-0.3-0.4-0.6-0.6-1.2-0.6C11,69.8,7.2,69.9,3.3,70c-0.2,0-0.4,0-0.5-0.3c-0.7-2-1.4-4-2.1-6C0.4,62.9,0.2,62,0,61.2v-0.1
		c0.1,0,0.2-0.1,0.3-0.1c3.4-2.3,6.7-4.5,10.1-6.8c0.2-0.1,0.2-0.2,0.2-0.5c-0.1-1.4-0.1-2.9-0.2-4.3c0-0.7,0.1-1.5,0.1-2.2
		c0-0.4,0-0.7-0.4-0.9c-2.5-1.6-4.9-3.3-7.4-5c-0.9-0.6-1.8-1.2-2.7-1.8C0,39.1,0,39,0,39c0.2-0.8,0.5-1.7,0.7-2.5
		c0.6-2,1.3-4,2.2-6c0.4,0,0.8,0,1.2,0c3.7,0.1,7.5,0.2,11.2,0.3c0.3,0,0.4,0,0.6-0.3c1.2-2.1,2.7-4,4.3-5.8
		c0.2-0.3,0.3-0.5,0.2-0.9c-1.3-3.7-2.6-7.3-4-10.9c-0.1-0.3-0.1-0.5,0.2-0.7c2.2-1.9,4.6-3.6,7.1-5C24,7,24.1,7,24.3,7.2
		c3.2,2.4,6.4,4.8,9.5,7.2c0.3,0.2,0.4,0.2,0.7,0.1c2.2-0.9,4.6-1.7,6.9-2.2c0.3-0.1,0.4-0.2,0.4-0.5c1.1-3.7,2.2-7.5,3.4-11.3
		c0.1-0.3,0.2-0.4,0.6-0.4C46.6,0.1,47.2,0.1,47.8,0z M50.1,25.6C36.9,25.6,26,36.4,26,49.7C25.9,63,36.7,73.9,50,73.9
		c13.2,0,24.1-10.8,24.1-24.1C74.2,36.5,63.4,25.6,50.1,25.6z M27.3,37.6c0-1.5-1.2-2.7-2.7-2.7s-2.7,1.2-2.7,2.6
		c0,1.5,1.2,2.8,2.7,2.8C26,40.2,27.3,39,27.3,37.6z M75.4,65.1c1.5,0,2.8-1.2,2.7-2.6c0-1.5-1.2-2.7-2.6-2.7
		c-1.6,0-2.8,1.2-2.8,2.6C72.7,63.9,73.9,65.1,75.4,65.1z M63,22.6c-1.5,0-2.7,1.1-2.7,2.5c0,1.6,1.1,2.8,2.6,2.8
		c1.5,0,2.8-1.1,2.8-2.6S64.6,22.6,63,22.6z M37,77.4c1.5,0,2.7-1.2,2.7-2.6c0-1.6-1.1-2.8-2.7-2.8c-1.5,0-2.8,1.1-2.8,2.6
		C34.3,76.2,35.4,77.4,37,77.4z"/>
	<path style="fill:#70706F;" d="M84.8,51c0,19.2-15.5,34.7-34.6,34.7S15.6,70.2,15.6,51s15.5-34.7,34.6-34.7
		C69.3,16.3,84.8,31.8,84.8,51z M50,29.5c-11.8,0-21.5,9.6-21.5,21.5S38.1,72.5,50,72.5S71.5,62.8,71.5,51
		C71.5,39.1,61.9,29.5,50,29.5z"/>
	<path style="fill:#CBDB2A;" d="M50,83c-17.6,0-31.9-14.4-31.9-32c0-17.7,14.3-32,31.9-32s31.9,14.4,31.9,32
		C81.9,68.7,67.6,83,50,83z M50,24c-14.9,0-26.9,12.1-26.9,27s12,27,26.9,27s26.9-12.1,26.9-27S64.9,24,50,24z"/>
</g>
</svg>
