<?xml version="1.0" encoding="utf-8"?>
<!-- Generator: Adobe Illustrator 19.2.0, SVG Export Plug-In . SVG Version: 6.00 Build 0)  -->
<svg version="1.1" id="Layer_1" xmlns="http://www.w3.org/2000/svg" xmlns:xlink="http://www.w3.org/1999/xlink" x="0px" y="0px"
	 viewBox="0 0 100 100" style="enable-background:new 0 0 100 100;" xml:space="preserve">
<g>
	<g>
		<path style="fill:#70706F;" d="M91.8,100H8.2c-4.2,0-7.6-3.4-7.6-7.6V8.9c0-4.2,3.4-7.6,7.6-7.6h83.5c4.2,0,7.6,3.4,7.6,7.6v83.5
			C99.4,96.6,96,100,91.8,100z M91.8,27.9H8.2v64.6h83.5V27.9H91.8z M27.2,46.8H15.8V35.5h11.4V46.8z M27.2,65.8H15.8V54.4h11.4
			V65.8z M27.2,84.8H15.8V73.4h11.4V84.8z M46.2,46.8H34.8V35.5h11.4C46.2,35.5,46.2,46.8,46.2,46.8z M46.2,65.8H34.8V54.4h11.4
			C46.2,54.4,46.2,65.8,46.2,65.8z M46.2,84.8H34.8V73.4h11.4C46.2,73.4,46.2,84.8,46.2,84.8z M65.2,46.8H53.8V35.5h11.4V46.8z
			 M65.2,65.8H53.8V54.4h11.4V65.8z M65.2,84.8H53.8V73.4h11.4V84.8z M84.2,46.8H72.8V35.5h11.4C84.2,35.5,84.2,46.8,84.2,46.8z
			 M84.2,65.8H72.8V54.4h11.4C84.2,54.4,84.2,65.8,84.2,65.8z M84.2,84.8H72.8V73.4h11.4C84.2,73.4,84.2,84.8,84.2,84.8z"/>
	</g>
	<path style="fill:#E12230;" d="M0.6,27.8V7.6C0.6,3.4,4,0,8.2,0h83.5c4.2,0,7.6,3.4,7.6,7.6v20.2C99.3,27.8,0.6,27.8,0.6,27.8z"/>
</g>
</svg>
