<?xml version="1.0" encoding="utf-8"?>
<!-- Generator: Adobe Illustrator 19.2.0, SVG Export Plug-In . SVG Version: 6.00 Build 0)  -->
<svg version="1.1" id="Layer_1" xmlns="http://www.w3.org/2000/svg" xmlns:xlink="http://www.w3.org/1999/xlink" x="0px" y="0px"
	 viewBox="0 0 100 100" style="enable-background:new 0 0 100 100;" xml:space="preserve">
<g>
	<path style="fill:#E55125;" d="M50.1,5.6c2.5,2.5,5,5.1,7.5,7.6c4.1,4.1,8.2,8.3,12.3,12.4c0.9,0.9,1.7,1.9,2.6,2.8
		c1.6,1.6,3.2,3.1,4.8,4.7c2.8,2.8,5.5,5.5,8.3,8.3c2.4,2.4,4.8,4.8,7.1,7.2c2.2,2.2,4.4,4.4,6.5,6.6c0.2,0.2,0.5,0.4,0.8,0.6
		c0,0.1,0,0.1,0,0.2c-1.6,1.3-3.2,2.6-4.8,4c-0.6,0.5-0.9,0.5-1.4-0.1C83.9,50,74.1,40.2,64.2,30.3c-4.5-4.5-9-9-13.6-13.6
		c-0.2-0.2-0.3-0.3-0.7-0.6c-1.4,1.5-2.8,2.9-4.3,4.4c-4.6,4.6-9.2,9.2-13.8,13.8c-3.3,3.3-6.5,6.5-9.8,9.8
		c-2.7,2.7-5.5,5.4-8.3,8.1c-2.7,2.6-5.3,5.3-7.9,8c-0.9,0.9-1,1-1.8,0c-1.3-1.6-2.6-3.2-4-4.8c0.1-0.2,0.2-0.4,0.4-0.5
		c5.2-5.4,10.5-10.7,15.7-16.1c1.3-1.4,2.7-2.7,4-4.1c0.2-0.2,0.4-0.6,0.4-0.9c0.1-5.6,0.1-11.1,0.2-16.7c0-1.7,1.9-3.7,3.6-3.8
		c1.7,0,3.4,0,5.1,0.1c1.3,0.1,2.5,1.6,2.6,3.1c0,2.1,0.1,4.1,0.2,6.2c0,0.1,0,0.2,0.1,0.6c1.2-1.2,2.4-2.3,3.4-3.4
		c2.9-2.8,5.7-5.6,8.6-8.5c1.9-1.9,3.7-3.7,5.6-5.6C50,5.7,50,5.6,50.1,5.6C50,5.6,50.1,5.6,50.1,5.6z"/>
	<path style="fill:#70706F;" d="M64.5,94.4c-5.8,0-10.7,0-16.5,0c-1.2,0-2.4-0.3-3-1.4c-0.3-0.5-0.4-1.1-0.4-1.6
		c0-7-0.1-14.1,0-21.1c0-2.3-1.8-3.4-3.5-3.5c-2.6-0.1-9.1-0.1-11.7,0c-2.1,0.1-3.6,1-3.6,3.6c0.1,6.8,0,13.7,0,20.6
		c0,0.6-0.1,1.3-0.4,1.9c-0.4,0.7-1,1.3-2,1.3c-2.8,0-2.6,0-5.4,0c-0.6,0-1.1-0.1-1.7-0.3c-1.6-0.5-2.2-1.5-2.2-3.2
		c0-8.6,0-17.2,0-25.7c0-1.7,0-3.4,0.6-5.2c0.3-0.8,0.8-1.6,1.4-2.2c1.4-1.5,2.9-2.9,4.3-4.4c2.6-2.6,5.2-5.2,7.7-7.9
		c3.2-3.3,6.5-6.6,9.7-9.9c2.5-2.6,5.1-5.2,7.7-7.8c0.8-0.9,1.6-1.8,2.6-2.5c1.2-0.9,2.4-0.6,3.5,0.4c3.7,3.8,7.5,7.5,11.3,11.3
		c1.9,1.9,4,3.5,5.6,5.6c1.1,1.3,2.5,2.1,3.6,3.4c1.1,1.3,2.4,2.4,3.6,3.6c1.2,1.2,2.6,2.2,3.7,3.5c1.8,2,3.6,4,5.4,6.1
		c0.8,1,0.9,2.1,0.8,3.5c-0.1,0.2,0,0.5,0,0.8c0,9.2,0,18.4,0,27.7c0,2.3-1.4,3.7-3.7,3.7C76,94.4,70.3,94.4,64.5,94.4L64.5,94.4z
		 M75,68.3c0-1-0.8-1.7-1.7-1.7H59.6c-1,0-1.7,0.8-1.7,1.7V82c0,1,0.8,1.7,1.7,1.7h13.7c1,0,1.7-0.8,1.7-1.7C75,82,75,68.3,75,68.3z
		"/>
</g>
</svg>
