<?xml version="1.0" encoding="utf-8"?>
<!-- Generator: Adobe Illustrator 19.2.0, SVG Export Plug-In . SVG Version: 6.00 Build 0)  -->
<svg version="1.1" id="Layer_1" xmlns="http://www.w3.org/2000/svg" xmlns:xlink="http://www.w3.org/1999/xlink" x="0px" y="0px"
	 viewBox="0 0 100 100" style="enable-background:new 0 0 100 100;" xml:space="preserve">
<g>
	<polygon style="fill-rule:evenodd;clip-rule:evenodd;fill:#686969;" points="89.7,62.7 85.2,79.4 85.1,79.4 80.2,97.5 48.8,89.1 
		48.4,89.2 15.3,80.3 15.3,80.1 6.5,77.8 8.1,71.5 8.2,71.6 24.6,10.6 24.5,10.6 26.2,4.2 84,19.7 84.1,19.5 100,23.8 89.6,62.5 	
		"/>
	<polygon style="fill-rule:evenodd;clip-rule:evenodd;fill:#FFFFFF;" points="91.9,28.5 30.9,12.1 14.6,71.8 75.5,88.1 	"/>
	<polygon style="fill-rule:evenodd;clip-rule:evenodd;fill:#686969;" points="8.1,27.8 12.3,43.5 8.9,56.3 0,23.1 19.2,18 
		17.2,25.4 	"/>
	<polygon style="fill-rule:evenodd;clip-rule:evenodd;fill:#686969;" points="19.8,96.9 16.3,84 42,90.9 	"/>
	<path style="fill-rule:evenodd;clip-rule:evenodd;fill:#40C3D5;" d="M71.9,81.2c-16.9-4.3-33.7-8.7-50.5-13
		c0.2-0.7,0.3-1.5,0.6-2.2c0.7-2,1.6-3.9,3-5.6c1.4-1.7,3.1-2.9,5.3-3.5c3.3-0.9,6.7-1.1,10.1-1.3c1.3-0.1,2.6-0.2,3.8-0.4
		c1.2-0.2,2.3-1.5,2.5-2.7c0-0.2,0-0.3-0.1-0.5c-1.6-4.1-1.9-8.4-1.5-12.8c0.2-2.4,0.7-4.7,1.8-6.9c1.8-3.8,4.9-5.5,9-5.1
		c1.9,0.2,3.8,0.7,5.6,1.5c3.8,1.8,5.5,4.9,5.1,9.1c-0.6,4.7-2.5,8.9-5.3,12.7c-1,1.4-2.3,2.6-3.4,3.9c-0.2,0.2-0.4,0.5-0.4,0.7
		c-0.4,1.8-0.1,3.2,1.6,4.3c2.2,1.5,4.5,2.9,6.7,4.5c1.4,1,2.7,2.1,3.9,3.3c2.2,2,3.1,4.5,3.2,7.4c0.1,2.1-0.2,4.1-0.7,6.1
		C72,80.9,72,81,71.9,81.2z"/>
	<polygon style="fill-rule:evenodd;clip-rule:evenodd;fill:#686969;" points="67,10.6 65.6,11 52.8,7.5 71.7,2.5 74.7,13.4 
		67.2,11.4 	"/>
</g>
</svg>
