<?xml version="1.0" encoding="utf-8"?>
<!-- Generator: Adobe Illustrator 19.2.0, SVG Export Plug-In . SVG Version: 6.00 Build 0)  -->
<svg version="1.1" id="Layer_1" xmlns="http://www.w3.org/2000/svg" xmlns:xlink="http://www.w3.org/1999/xlink" x="0px" y="0px"
	 viewBox="0 0 100 100" style="enable-background:new 0 0 100 100;" xml:space="preserve">
<g>
	<path style="fill:#70706F;" d="M0,3.9h3.8l0.1,88.4l96.1,0.2v3.7H0V3.9z"/>
	<path style="fill:#EF9021;" d="M38.5,3.9H50c2.1,0,3.8,1.7,3.8,3.8v76.9H34.6V7.7C34.6,5.6,36.3,3.9,38.5,3.9z"/>
	<path style="fill:#70706F;" d="M15.4,26.9h11.5c2.1,0,3.8,1.7,3.8,3.8v53.8H11.5V30.8C11.5,28.6,13.3,26.9,15.4,26.9z"/>
	<path style="fill:#70706F;" d="M61.5,50H73c2.1,0,3.8,1.7,3.8,3.9v30.8H57.7V53.8C57.7,51.7,59.4,50,61.5,50z"/>
	<path style="fill:#70706F;" d="M84.6,73.1h11.5c2.1,0,3.8,1.7,3.8,3.8v7.7H80.8v-7.7C80.8,74.8,82.5,73.1,84.6,73.1z"/>
</g>
</svg>
