<?xml version="1.0" encoding="utf-8"?>
<!-- Generator: Adobe Illustrator 19.2.0, SVG Export Plug-In . SVG Version: 6.00 Build 0)  -->
<svg version="1.1" id="Layer_1" xmlns="http://www.w3.org/2000/svg" xmlns:xlink="http://www.w3.org/1999/xlink" x="0px" y="0px"
	 viewBox="0 0 100 100" style="enable-background:new 0 0 100 100;" xml:space="preserve">
<g>
	<path style="fill:#0B9EDA;" d="M3.5,14.1c4.5,0,27.5,0,30.8,0s5,5.2,5,5.2s1.2,3.6,3.6,3.6c2.4,0,35.5,0,41.4,0
		c5.9,0,5.9,6.4-0.2,6.4c-6.2,0-57.8,0-59.9,0c-1.2,0.1-3.8,1.2-4.4,5L11.7,86c0,0-3.7-1-4.1-4.6C7,77.8,0.1,19.3,0.1,19.3
		S-1,14.1,3.5,14.1z"/>
	<path style="fill:#70706F;" d="M26,31.5h70.2c2.1,0,3.8,1.7,3.8,3.8l-7.4,46.9c0,2.1-1.7,3.8-3.8,3.8H18.6c-2.1,0-3.8-1.7-3.8-3.8
		l7.4-46.9C22.2,33.2,23.9,31.5,26,31.5z"/>
</g>
</svg>
