<?xml version="1.0" encoding="utf-8"?>
<!-- Generator: Adobe Illustrator 19.2.0, SVG Export Plug-In . SVG Version: 6.00 Build 0)  -->
<svg version="1.1" id="Layer_1" xmlns="http://www.w3.org/2000/svg" xmlns:xlink="http://www.w3.org/1999/xlink" x="0px" y="0px"
	 viewBox="0 0 100 100" style="enable-background:new 0 0 100 100;" xml:space="preserve">
<g>
	<path style="fill:#70706F;" d="M34,13c0,0,4.7-4.2,20.6-4.5s45.4,10,45.4,37.9c0,18.7-13.9,28.2-13.9,28.2l4.1,8
		c0,0,2.6,3.9-1.4,5.9c-4,2.1-9.3,4.5-14.2,6.6c-4.9,2.1-5.6-1.7-5.6-1.7l-3.6-8.1H41.7l-3.6,7.8c0,0-0.5,2.5-4.2,1.4
		s-12.2-4.7-15.5-5.9c-3.3-1.2-1.5-4.4-1.5-4.4s3.8-10.3,3.8-10.4C16.4,72,9.5,62,9.5,62s-4.9-0.1-7.2-0.1s-2.2-2.8-2.2-2.8L0,39.5
		c0,0-0.2-2.8,2.3-2.8c2.6,0,7.2-0.1,7.2,0c0.7-6.7,10.6-16.9,10.6-16.9s-4.7-8.1-5.7-9.5c-1-1.5-2.5-5.5-0.1-5.5c3-1,4.1-0.7,8.4,1
		C28.6,9.1,34,13,34,13z"/>
	<path style="fill:#D7D7D7;" d="M22.2,32.6c2.2,0,4,1.8,4,4s-1.8,4-4,4s-4-1.8-4-4C18.2,34.4,20,32.6,22.2,32.6z"/>
	<path style="fill:#D7D7D7;" d="M51.3,17.3c0,0,7.9-0.7,14.5,1.2c6.5,1.9,11.5,6.1,11.5,6.1s2.7,1.8,1.6,3.6
		c-1.3,1.5-2.1,0.4-3.2,0.1c0,0-4.4-4.1-10.8-6c-6.7-2-13.7-1-13.7-1c-1-0.3-2.3-0.3-2.3-1.9C49,17.4,51.4,17.4,51.3,17.3z"/>
	<g>
		<path style="fill:#FEEA00;" d="M56.9,37.4c-2.9,0-5.2,0.7-7.2,2.1c-1.2,0.8-2.2,2-3.1,3.5c-0.9,1.5-1.5,3-1.7,4.4h17.4l-0.7,3.4
			H44.5c0,0.4,0,0.7,0,1c0,1.3,0,2.1,0,2.3h16.4l-0.7,3.4H45c0.7,3.9,2.4,6.7,5.1,8.3c2,1.2,4.1,1.8,6.4,1.8c3.2,0,5.7-0.8,7.4-2.5
			v5.3c-2.1,1-4.5,1.5-7,1.5c-7.7,0-12.9-3.2-15.6-9.6c-0.6-1.3-1-2.8-1.4-4.7H36l0.7-3.4h2.7c-0.1-0.7-0.1-1.5-0.1-2.3
			c0-0.3,0-0.7,0-1H36l0.7-3.4h3c1.1-5.5,3.8-9.5,8.2-11.9c2.7-1.5,5.8-2.2,9.1-2.2c3.2,0,5.8,0.7,8,2.1l-1,4.7
			C61.9,38.3,59.5,37.4,56.9,37.4z"/>
	</g>
</g>
</svg>
