<?xml version="1.0" encoding="utf-8"?>
<!-- Generator: Adobe Illustrator 19.2.0, SVG Export Plug-In . SVG Version: 6.00 Build 0)  -->
<svg version="1.1" id="Layer_1" xmlns="http://www.w3.org/2000/svg" xmlns:xlink="http://www.w3.org/1999/xlink" x="0px" y="0px"
	 viewBox="0 0 100 100" style="enable-background:new 0 0 100 100;" xml:space="preserve">
<g>
	<path style="fill:#70706F;" d="M69.5,83.4c-23.2,0-46.3,0-69.4,0c0-1-0.1-2,0-3c0.2-2.8,0.8-5.6,2-8.2c1.2-2.7,3.1-4.8,5.7-6.3
		c4-2.2,8.3-3.6,12.6-5.1c1.6-0.6,3.2-1.1,4.8-1.8c1.4-0.6,2.5-2.7,2.3-4.3c0-0.2-0.2-0.4-0.3-0.6c-3.4-4.8-5.2-10.2-6.1-16
		c-0.5-3.2-0.6-6.3,0-9.5c1-5.4,4.5-8.8,10-9.5c2.6-0.4,5.2-0.4,7.7,0.1c5.5,1.1,8.8,4.5,9.5,10c0.8,6.3-0.3,12.3-2.6,18.1
		c-0.8,2.1-2.1,4.1-3.1,6.1c-0.2,0.3-0.3,0.7-0.3,1.1c0.1,2.4,1,4.2,3.5,5c3.4,1.1,6.7,2.3,10.1,3.6C58,63.9,60,65,62.1,66
		c3.5,1.8,5.5,4.8,6.6,8.5c0.8,2.7,1.1,5.4,1.1,8.2C69.5,83,69.5,83.2,69.5,83.4z"/>
	<path style="fill:#0B9EDA;" d="M99.9,73.2c-10.4,0-19.4,0-29.7,0c-1.5-11.5-24.5-15.4-24.5-15.4c3.5-2,7.3-3.2,11-4.5
		c1.4-0.5,2.8-1,4.2-1.6c1.3-0.6,2.2-2.4,2.1-3.7c0-0.2-0.1-0.4-0.2-0.5c-3-4.2-4.6-9-5.4-14c-0.4-2.8-0.5-5.5,0-8.3
		c0.9-4.8,3.9-7.7,8.7-8.3c2.3-0.3,4.5-0.3,6.8,0.1c4.8,0.9,7.7,3.9,8.4,8.8C82,31.2,81,36.5,79,41.5c-0.7,1.9-1.8,3.6-2.8,5.4
		c-0.2,0.3-0.3,0.6-0.3,1c0.1,2.1,0.9,3.7,3,4.4c3,1,5.9,2,8.8,3.2c1.9,0.7,3.6,1.6,5.4,2.5c3.1,1.6,4.8,4.2,5.8,7.4
		c0.7,2.3,1,4.7,1,7.2C100,72.8,100,73,99.9,73.2z"/>
</g>
</svg>
