<?xml version="1.0" encoding="utf-8"?>
<!-- Generator: Adobe Illustrator 19.2.0, SVG Export Plug-In . SVG Version: 6.00 Build 0)  -->
<svg version="1.1" id="Layer_1" xmlns="http://www.w3.org/2000/svg" xmlns:xlink="http://www.w3.org/1999/xlink" x="0px" y="0px"
	 viewBox="0 0 100 100" style="enable-background:new 0 0 100 100;" xml:space="preserve">
<g>
	<g>
		<g>
			<path style="fill:#FFFFFF;" d="M50,23c-3,0-5.5,2.4-5.5,5.5V54c0,3,2.4,5.5,5.5,5.5c3,0,5.5-2.4,5.5-5.5V28.5
				C55.4,25.4,53,23,50,23z"/>
		</g>
	</g>
	<path style="fill:#FFFFFF;" d="M55.4,71.6c0,3-2.4,5.4-5.4,5.4s-5.4-2.4-5.4-5.4s2.4-5.4,5.4-5.4C53,66.1,55.4,68.6,55.4,71.6z"/>
</g>
<path style="fill:#FFFFFF;" d="M50,100C22.4,100,0,77.6,0,50S22.4,0,50,0s50,22.4,50,50S77.6,100,50,100z M50,9C27.4,9,9,27.4,9,50
	s18.4,41,41,41s41-18.4,41-41S72.6,9,50,9z"/>
</svg>
