<?xml version="1.0" encoding="utf-8"?>
<!-- Generator: Adobe Illustrator 19.2.0, SVG Export Plug-In . SVG Version: 6.00 Build 0)  -->
<svg version="1.1" id="Layer_1" xmlns="http://www.w3.org/2000/svg" xmlns:xlink="http://www.w3.org/1999/xlink" x="0px" y="0px"
	 viewBox="0 0 100 100" style="enable-background:new 0 0 100 100;" xml:space="preserve">
<path style="fill:#F05B26;" d="M97.3,50c0,26.2-21.2,47.3-47.3,47.3C23.9,97.4,2.7,76.2,2.7,50C2.7,23.9,23.9,2.7,50,2.7
	S97.3,23.9,97.3,50z"/>
<path style="fill:#FFFFFF;" d="M50,100C22.4,100,0,77.6,0,50S22.4,0,50,0s50,22.4,50,50S77.6,100,50,100z M50,5.3
	C25.4,5.3,5.3,25.4,5.3,50S25.4,94.7,50,94.7S94.7,74.6,94.7,50S74.6,5.3,50,5.3z"/>
</svg>
