<?xml version="1.0" encoding="utf-8"?>
<!-- Generator: Adobe Illustrator 21.1.0, SVG Export Plug-In . SVG Version: 6.00 Build 0)  -->
<svg version="1.1" id="Layer_1" xmlns="http://www.w3.org/2000/svg" xmlns:xlink="http://www.w3.org/1999/xlink" x="0px" y="0px"
	 viewBox="0 0 20 20" style="enable-background:new 0 0 20 20;" xml:space="preserve">
<style type="text/css">
	.st0{fill-rule:evenodd;clip-rule:evenodd;fill:#C3C3C2;}
	.st1{fill-rule:evenodd;clip-rule:evenodd;fill:#838383;}
</style>
<path class="st0" d="M5,12v7h10v-7H5z M14,18H6v-2h8V18z M14,15H6v-2h8V15z"/>
<path class="st1" d="M17.6,14.5H16v-1h1v-1H3v1h1v1H2.6c-0.4,0-0.6,0-0.6-0.4V7c0-0.7,2.8-1.5,7.8-1.5c0.3,0,0.5,0,0.7,0
	c5,0,7.5,0.8,7.5,1.5v7.1C18,14.5,18,14.5,17.6,14.5z M15.8,7.7c-0.6,0-1.1,0.5-1.1,1.1c0,0.6,0.5,1.1,1.1,1.1
	c0.6,0,1.1-0.5,1.1-1.1C16.9,8.2,16.4,7.7,15.8,7.7z"/>
<path class="st0" d="M14,1H6C5.4,1,5,1.4,5,2v3h10V2C15,1.4,14.6,1,14,1z"/>
</svg>
