<?xml version="1.0" encoding="utf-8"?>
<!-- Generator: Adobe Illustrator 21.1.0, SVG Export Plug-In . SVG Version: 6.00 Build 0)  -->
<svg version="1.1" id="Layer_1" xmlns="http://www.w3.org/2000/svg" xmlns:xlink="http://www.w3.org/1999/xlink" x="0px" y="0px"
	 viewBox="0 0 22 22" style="enable-background:new 0 0 22 22;" xml:space="preserve">
<style type="text/css">
	.st0{fill-rule:evenodd;clip-rule:evenodd;fill:#E54E1B;}
	.st1{fill-rule:evenodd;clip-rule:evenodd;fill:#E2332A;}
	.st2{fill-rule:evenodd;clip-rule:evenodd;fill:#E2D6C4;}
	.st3{fill-rule:evenodd;clip-rule:evenodd;fill:#838383;}
</style>
<g>
	<path class="st0" d="M5.8,1.8l-4,4l1.3,1.3l1.7-1.7l0.4,0.4L3.5,7.5l1.4,1.4l1.7-1.7L7,7.5L5.3,9.2l1.3,1.3l4-4"/>
	<path class="st0" d="M20.2,16.2l-4,4l-1.3-1.3l1.7-1.7l-0.4-0.4l-1.7,1.7l-1.4-1.4l1.7-1.7L14.5,15l-1.7,1.7l-1.3-1.3l4-4"/>
	<path class="st0" d="M15.9,2.3c0.5-0.5,1.3-0.5,1.7,0l2.2,2.2c0.5,0.5,0.5,1.3,0,1.7l-1.3,1.3l-3.9-3.9L15.9,2.3z"/>
	<path class="st1" d="M4.8,13.3l9.2-9.2L18,8l-9.2,9.2L4.8,13.3z"/>
	<path class="st2" d="M4.4,13.8l3.7,3.7l-3.3,1.2l-1.6-1.6L4.4,13.8z"/>
	<path class="st3" d="M4.2,18.9l-1.9,0.7L3,17.7L4.2,18.9z"/>
</g>
</svg>
