<?xml version="1.0" encoding="utf-8"?>
<!-- Generator: Adobe Illustrator 21.1.0, SVG Export Plug-In . SVG Version: 6.00 Build 0)  -->
<svg version="1.1" id="Layer_1" xmlns="http://www.w3.org/2000/svg" xmlns:xlink="http://www.w3.org/1999/xlink" x="0px" y="0px"
	 viewBox="0 0 22 22" style="enable-background:new 0 0 22 22;" xml:space="preserve">
<style type="text/css">
	.st0{fill:#E9E9E9;}
	.st1{fill:#838383;}
	.st2{fill:#AE7F49;}
</style>
<ellipse transform="matrix(0.5499 -0.8352 0.8352 0.5499 -0.8406 13.7962)" class="st0" cx="12.4" cy="7.7" rx="5.8" ry="5.8"/>
<path class="st1" d="M12.4,14c-1.2,0-2.4-0.3-3.5-1C7.5,12,6.5,10.6,6.2,9c-0.3-1.7,0-3.3,0.9-4.7s2.3-2.4,4-2.7
	c1.7-0.3,3.3,0,4.8,0.9c1.4,0.9,2.4,2.3,2.7,4c0.3,1.7,0,3.3-0.9,4.7l0,0C16.4,13,14.4,14,12.4,14z M12.4,2.4c-0.4,0-0.7,0-1.1,0.1
	C9.9,2.8,8.7,3.6,7.9,4.8c-0.8,1.2-1.1,2.6-0.8,4c0.3,1.4,1.1,2.6,2.3,3.4c2.4,1.6,5.8,0.9,7.4-1.5l0,0c0.8-1.2,1.1-2.6,0.8-4
	c-0.3-1.4-1.1-2.6-2.3-3.4C14.4,2.7,13.4,2.4,12.4,2.4z"/>
<rect x="7.8" y="12.2" transform="matrix(0.5499 -0.8352 0.8352 0.5499 -7.2588 13.2113)" class="st1" width="1.7" height="2.2"/>
<rect x="2.6" y="15.9" transform="matrix(0.5499 -0.8352 0.8352 0.5499 -11.4502 12.8416)" class="st2" width="7.2" height="2.2"/>
</svg>
