<?xml version="1.0" encoding="utf-8"?>
<!-- Generator: Adobe Illustrator 21.1.0, SVG Export Plug-In . SVG Version: 6.00 Build 0)  -->
<svg version="1.1" id="Layer_1" xmlns="http://www.w3.org/2000/svg" xmlns:xlink="http://www.w3.org/1999/xlink" x="0px" y="0px"
	 viewBox="0 0 22 22" style="enable-background:new 0 0 22 22;" xml:space="preserve">
<style type="text/css">
	.st0{fill-rule:evenodd;clip-rule:evenodd;fill:#39A635;}
	.st1{fill-rule:evenodd;clip-rule:evenodd;fill:#009BDF;}
	.st2{fill-rule:evenodd;clip-rule:evenodd;fill:#E54E1B;}
	.st3{fill-rule:evenodd;clip-rule:evenodd;fill:#F9E70D;}
	.st4{fill-rule:evenodd;clip-rule:evenodd;fill:#FFFFFF;}
</style>
<g>
	<path class="st0" d="M7.5,2.7c3.3-1.4,7.2-0.7,9.9,1.9c0.9,0.9,1.5,1.8,1.9,2.9c-1.3,1.3-2,2-3.5,3.5C12.6,7.7,9.4,4.6,7.5,2.7z"/>
	<path class="st1" d="M19.3,7.5c1.4,3.3,0.7,7.2-1.9,9.9c-0.9,0.9-1.8,1.5-2.9,1.9c-1.3-1.3-2-2-3.5-3.5
		C14.3,12.6,17.5,9.4,19.3,7.5z"/>
	<path class="st2" d="M14.5,19.3c-3.3,1.4-7.2,0.7-9.9-1.9c-0.9-0.9-1.5-1.8-1.9-2.9c1.3-1.3,2-2,3.5-3.5
		C9.4,14.3,12.6,17.4,14.5,19.3z"/>
	<path class="st3" d="M2.7,14.5c-1.4-3.3-0.7-7.2,1.9-9.9c0.9-0.9,1.8-1.5,2.9-1.9c1.3,1.3,2,2,3.5,3.5C7.7,9.4,4.5,12.6,2.7,14.5z"
		/>
	<rect x="7.6" y="7.6" transform="matrix(0.7071 -0.7071 0.7071 0.7071 -4.5634 11.0171)" class="st4" width="6.8" height="6.8"/>
</g>
</svg>
