<?xml version="1.0" encoding="utf-8"?>
<!-- Generator: Adobe Illustrator 21.1.0, SVG Export Plug-In . SVG Version: 6.00 Build 0)  -->
<svg version="1.1" id="Layer_1" xmlns="http://www.w3.org/2000/svg" xmlns:xlink="http://www.w3.org/1999/xlink" x="0px" y="0px"
	 viewBox="0 0 22 22" style="enable-background:new 0 0 22 22;" xml:space="preserve">
<style type="text/css">
	.st0{fill-rule:evenodd;clip-rule:evenodd;fill:#6F6F6E;}
	.st1{fill-rule:evenodd;clip-rule:evenodd;fill:#39A635;}
</style>
<path class="st0" d="M10.2,17.4H4.6v-15h11v10.1c0.4,0.1,0.7,0.2,1,0.4V1.4h-13v17h6.8C10.3,18,10.3,17.7,10.2,17.4z"/>
<rect x="5.6" y="3.4" class="st0" width="9" height="1"/>
<rect x="5.6" y="5.4" class="st0" width="9" height="1"/>
<rect x="5.6" y="7.4" class="st0" width="9" height="1"/>
<rect x="5.6" y="9.4" class="st0" width="9" height="1"/>
<rect x="5.6" y="11.4" class="st0" width="9" height="1"/>
<rect x="5.6" y="13.4" class="st0" width="5" height="1"/>
<rect x="5.6" y="15.4" class="st0" width="4" height="1"/>
<path class="st1" d="M14.6,13.1c-2.1,0-3.8,1.7-3.8,3.8c0,2.1,1.7,3.8,3.8,3.8c2.1,0,3.8-1.7,3.8-3.8C18.4,14.8,16.7,13.1,14.6,13.1
	z M16.6,17.4h-1.5v1.5h-1v-1.5h-1.5v-1h1.5v-1.5h1v1.5h1.5V17.4z"/>
</svg>
