<?xml version="1.0" encoding="utf-8"?>
<!-- Generator: Adobe Illustrator 21.1.0, SVG Export Plug-In . SVG Version: 6.00 Build 0)  -->
<svg version="1.1" id="Layer_1" xmlns="http://www.w3.org/2000/svg" xmlns:xlink="http://www.w3.org/1999/xlink" x="0px" y="0px"
	 viewBox="0 0 22 22" style="enable-background:new 0 0 22 22;" xml:space="preserve">
<style type="text/css">
	.st0{fill-rule:evenodd;clip-rule:evenodd;fill:#F5AE33;}
	.st1{fill-rule:evenodd;clip-rule:evenodd;fill:#E54E1B;}
	.st2{fill:#39B54A;}
</style>
<path class="st0" d="M18.5,2.5h-15c-0.5,0-1,0.5-1,1v15c0,0.5,0.5,1,1,1h15c0.5,0,1-0.5,1-1v-15C19.5,3,19,2.5,18.5,2.5z M18.5,18.5
	h-15v-15h15V18.5z"/>
<path class="st1" d="M2.5,6.5v-3c0-0.5,0.5-1,1-1h15c0.5,0,1,0.5,1,1v3H2.5z"/>
<path class="st2" d="M15,13.1h-3.4v3.4h-1.1v-3.4H7v-1.1h3.4V8.5h1.1v3.4H15V13.1z"/>
</svg>
