<?xml version="1.0" encoding="utf-8"?>
<!-- Generator: Adobe Illustrator 21.1.0, SVG Export Plug-In . SVG Version: 6.00 Build 0)  -->
<svg version="1.1" id="Layer_1" xmlns="http://www.w3.org/2000/svg" xmlns:xlink="http://www.w3.org/1999/xlink" x="0px" y="0px"
	 viewBox="0 0 22 22" style="enable-background:new 0 0 22 22;" xml:space="preserve">
<style type="text/css">
	.st0{fill-rule:evenodd;clip-rule:evenodd;fill:#009BDF;}
	.st1{fill-rule:evenodd;clip-rule:evenodd;fill:#F5AE33;}
	.st2{fill-rule:evenodd;clip-rule:evenodd;fill:#E54E1B;}
</style>
<path class="st0" d="M7.1,13.6h4.8c0,1.3,0,2.5,0,2.8c1.3-1.3,2.6-2.6,3.9-3.9c-1.3-1.3-2.6-2.6-3.9-3.9c0,0.4,0,1.6,0,3H7.1
	c-0.4,0-0.9,0.3-0.9,0.7V13C6.2,13.3,6.7,13.6,7.1,13.6z"/>
<path class="st1" d="M18.5,2.5h-15c-0.5,0-1,0.5-1,1v15c0,0.5,0.5,1,1,1h15c0.5,0,1-0.5,1-1v-15C19.5,3,19,2.5,18.5,2.5z M18.5,18.5
	h-15v-15h15V18.5z"/>
<path class="st2" d="M2.5,6.5v-3c0-0.5,0.5-1,1-1h15c0.5,0,1,0.5,1,1v3H2.5z"/>
</svg>
