<svg xmlns="http://www.w3.org/2000/svg" width="144" height="130" viewBox="0 0 144 130">
  <metadata><?xpacket begin="﻿" id="W5M0MpCehiHzreSzNTczkc9d"?>
<x:xmpmeta xmlns:x="adobe:ns:meta/" x:xmptk="Adobe XMP Core 5.6-c138 79.159824, 2016/09/14-01:09:01        ">
   <rdf:RDF xmlns:rdf="http://www.w3.org/1999/02/22-rdf-syntax-ns#">
      <rdf:Description rdf:about=""/>
   </rdf:RDF>
</x:xmpmeta>
                                                                                                    
                                                                                                    
                                                                                                    
                                                                                                    
                                                                                                    
                                                                                                    
                                                                                                    
                                                                                                    
                                                                                                    
                                                                                                    
                                                                                                    
                                                                                                    
                                                                                                    
                                                                                                    
                                                                                                    
                                                                                                    
                                                                                                    
                                                                                                    
                                                                                                    
                                                                                                    
                           
<?xpacket end="w"?></metadata>
<defs>
    <style>
      .cls-1 {
        fill: #42abe7;
        fill-rule: evenodd;
      }
    </style>
  </defs>
  <path id="icon_payment_terms" class="cls-1" d="M4459,440h-44.79c0.21-.278.43-0.557,0.63-0.841A27.971,27.971,0,1,1,4420,423h42V346H4320v77h44c0,0.338.04,0.665,0.05,1H4320v11h0v1h0a3,3,0,0,0,3,3h46.04c0.24,0.342.49,0.67,0.75,1H4323a4,4,0,0,1-4-4V332a4,4,0,0,1,4-4h12v-3a4,4,0,0,1,8,0v3h96v-3a4,4,0,0,1,8,0v3h12a4,4,0,0,1,4,4V436A4,4,0,0,1,4459,440ZM4342,325a3,3,0,0,0-6,0v3h6v-3Zm104,0a3,3,0,0,0-6,0v3h6v-3Zm16,7a3,3,0,0,0-3-3H4323a3,3,0,0,0-3,3v13h142V332Zm-70,64a27,27,0,1,0,27,27A27,27,0,0,0,4392,396Zm70,35v-7h-42.05a27.936,27.936,0,0,1-5.08,15.126c0.03-.042.06-0.083,0.09-0.126H4459a3,3,0,0,0,3-3v-5Zm-66.57-10.02a3.922,3.922,0,0,1-.92,5.113h0l8.51,8.514-0.71.707-8.67-8.674a3.943,3.943,0,0,1-1.64.36,4,4,0,1,1,2.83-6.828h0l13.14-13.143,0.71,0.708-13.25,13.243h0ZM4392,420a3,3,0,1,0,3,3A3,3,0,0,0,4392,420Zm-55-64h4a2,2,0,0,1,2,2v4a2,2,0,0,1-2,2h-4a2,2,0,0,1-2-2v-4A2,2,0,0,1,4337,356Zm-1,6a1,1,0,0,0,1,1h4a1,1,0,0,0,1-1v-4a1,1,0,0,0-1-1h-4a1,1,0,0,0-1,1v4Zm1,17h4a2,2,0,0,1,2,2v4a2,2,0,0,1-2,2h-4a2,2,0,0,1-2-2v-4A2,2,0,0,1,4337,379Zm-1,6a1,1,0,0,0,1,1h4a1,1,0,0,0,1-1v-4a1,1,0,0,0-1-1h-4a1,1,0,0,0-1,1v4Zm27-29h4a2,2,0,0,1,2,2v4a2,2,0,0,1-2,2h-4a2,2,0,0,1-2-2v-4A2,2,0,0,1,4363,356Zm-1,6a1,1,0,0,0,1,1h4a1,1,0,0,0,1-1v-4a1,1,0,0,0-1-1h-4a1,1,0,0,0-1,1v4Zm1,17h4a2,2,0,0,1,2,2v4a2,2,0,0,1-2,2h-4a2,2,0,0,1-2-2v-4A2,2,0,0,1,4363,379Zm-1,6a1,1,0,0,0,1,1h4a1,1,0,0,0,1-1v-4a1,1,0,0,0-1-1h-4a1,1,0,0,0-1,1v4Zm27-29h4a2,2,0,0,1,2,2v4a2,2,0,0,1-2,2h-4a2,2,0,0,1-2-2v-4A2,2,0,0,1,4389,356Zm-1,6a1,1,0,0,0,1,1h4a1,1,0,0,0,1-1v-4a1,1,0,0,0-1-1h-4a1,1,0,0,0-1,1v4Zm1,17h4a2,2,0,0,1,2,2v4a2,2,0,0,1-2,2h-4a2,2,0,0,1-2-2v-4A2,2,0,0,1,4389,379Zm-1,6a1,1,0,0,0,1,1h4a1,1,0,0,0,1-1v-4a1,1,0,0,0-1-1h-4a1,1,0,0,0-1,1v4Zm27-29h4a2,2,0,0,1,2,2v4a2,2,0,0,1-2,2h-4a2,2,0,0,1-2-2v-4A2,2,0,0,1,4415,356Zm-1,6a1,1,0,0,0,1,1h4a1,1,0,0,0,1-1v-4a1,1,0,0,0-1-1h-4a1,1,0,0,0-1,1v4Zm1,17h4a2,2,0,0,1,2,2v4a2,2,0,0,1-2,2h-4a2,2,0,0,1-2-2v-4A2,2,0,0,1,4415,379Zm-1,6a1,1,0,0,0,1,1h4a1,1,0,0,0,1-1v-4a1,1,0,0,0-1-1h-4a1,1,0,0,0-1,1v4Zm27-29h4a2,2,0,0,1,2,2v4a2,2,0,0,1-2,2h-4a2,2,0,0,1-2-2v-4A2,2,0,0,1,4441,356Zm-1,6a1,1,0,0,0,1,1h4a1,1,0,0,0,1-1v-4a1,1,0,0,0-1-1h-4a1,1,0,0,0-1,1v4Zm1,17h4a2,2,0,0,1,2,2v4a2,2,0,0,1-2,2h-4a2,2,0,0,1-2-2v-4A2,2,0,0,1,4441,379Zm-1,6a1,1,0,0,0,1,1h4a1,1,0,0,0,1-1v-4a1,1,0,0,0-1-1h-4a1,1,0,0,0-1,1v4Z" transform="translate(-4319 -321)"/>
</svg>
