<svg xmlns="http://www.w3.org/2000/svg" width="120" height="144" viewBox="0 0 120 144">
  <metadata><?xpacket begin="﻿" id="W5M0MpCehiHzreSzNTczkc9d"?>
<x:xmpmeta xmlns:x="adobe:ns:meta/" x:xmptk="Adobe XMP Core 5.6-c138 79.159824, 2016/09/14-01:09:01        ">
   <rdf:RDF xmlns:rdf="http://www.w3.org/1999/02/22-rdf-syntax-ns#">
      <rdf:Description rdf:about=""/>
   </rdf:RDF>
</x:xmpmeta>
                                                                                                    
                                                                                                    
                                                                                                    
                                                                                                    
                                                                                                    
                                                                                                    
                                                                                                    
                                                                                                    
                                                                                                    
                                                                                                    
                                                                                                    
                                                                                                    
                                                                                                    
                                                                                                    
                                                                                                    
                                                                                                    
                                                                                                    
                                                                                                    
                                                                                                    
                                                                                                    
                           
<?xpacket end="w"?></metadata>
<defs>
    <style>
      .cls-1 {
        fill: #42abe7;
        fill-rule: evenodd;
      }
    </style>
  </defs>
  <path id="icon_stock_count" class="cls-1" d="M5528,436V425h-54.26a7.992,7.992,0,0,1-15.48,0h-16.52a7.992,7.992,0,0,1-15.48,0H5410v30a3,3,0,0,0,3,3h112a3,3,0,0,0,3-3V445h1v10a4,4,0,0,1-4,4H5413a4,4,0,0,1-4-4V319a4,4,0,0,1,4-4h112a4,4,0,0,1,4,4V436h-1Zm-62-6a7,7,0,1,0-7-7A7,7,0,0,0,5466,430Zm-32,0a7,7,0,1,0-7-7A7,7,0,0,0,5434,430Zm94-111a3,3,0,0,0-3-3H5413a3,3,0,0,0-3,3v30h71a8,8,0,0,1,16,0h31V319Zm-46,30a7,7,0,1,0,7-7A7,7,0,0,0,5482,349Zm46,1h-31.07a7.992,7.992,0,0,1-15.86,0H5410v24h16a8,8,0,0,1,16,0h16a8,8,0,0,1,16,0h22a8,8,0,0,1,16,0h16V350Zm-101,24a7,7,0,1,0,7-7A7,7,0,0,0,5427,374Zm32,0a7,7,0,1,0,7-7A7,7,0,0,0,5459,374Zm38,0a7,7,0,1,0,7-7A7,7,0,0,0,5497,374Zm31,1h-16.07a7.992,7.992,0,0,1-15.86,0h-22.14a7.992,7.992,0,0,1-15.86,0h-16.14a7.992,7.992,0,0,1-15.86,0H5410v24h71a8,8,0,0,1,16,0h31V375Zm-46,24a7,7,0,1,0,7-7A7,7,0,0,0,5482,399Zm46,1h-31.07a7.992,7.992,0,0,1-15.86,0H5410v24h16.07a8.243,8.243,0,0,1-.07-1,8,8,0,0,1,16,0,8.243,8.243,0,0,1-.07,1h16.14a8.243,8.243,0,0,1-.07-1,8,8,0,0,1,16,0,8.243,8.243,0,0,1-.07,1H5528V400Z" transform="translate(-5409 -315)"/>
</svg>
