<svg xmlns="http://www.w3.org/2000/svg" width="112" height="144" viewBox="0 0 112 144">
  <metadata><?xpacket begin="﻿" id="W5M0MpCehiHzreSzNTczkc9d"?>
<x:xmpmeta xmlns:x="adobe:ns:meta/" x:xmptk="Adobe XMP Core 5.6-c138 79.159824, 2016/09/14-01:09:01        ">
   <rdf:RDF xmlns:rdf="http://www.w3.org/1999/02/22-rdf-syntax-ns#">
      <rdf:Description rdf:about=""/>
   </rdf:RDF>
</x:xmpmeta>
                                                                                                    
                                                                                                    
                                                                                                    
                                                                                                    
                                                                                                    
                                                                                                    
                                                                                                    
                                                                                                    
                                                                                                    
                                                                                                    
                                                                                                    
                                                                                                    
                                                                                                    
                                                                                                    
                                                                                                    
                                                                                                    
                                                                                                    
                                                                                                    
                                                                                                    
                                                                                                    
                           
<?xpacket end="w"?></metadata>
<defs>
    <style>
      .cls-1 {
        fill: #42abe7;
        fill-rule: evenodd;
      }
    </style>
  </defs>
  <path id="icon_taxes" class="cls-1" d="M4152,458h-96a4,4,0,0,1-4-4v-4h-4a4,4,0,0,1-4-4V327a0.656,0.656,0,0,1,.05-0.176A7.338,7.338,0,0,1,4044,326l1.48-1.481a57.633,57.633,0,0,1,6.18-6.179L4056,314a7.994,7.994,0,0,1,1.44.139A1.633,1.633,0,0,1,4058,314h86a4,4,0,0,1,4,4v4h4a4,4,0,0,1,4,4V454A4,4,0,0,1,4152,458Zm-93-143h-1c-1.66,0-13,10.343-13,12v2h11a3,3,0,0,0,3-3V315Zm88,3a3,3,0,0,0-3-3h-84v11a4,4,0,0,1-4,4h-11V446a3,3,0,0,0,3,3h96a3,3,0,0,0,3-3V318Zm8,8a3,3,0,0,0-3-3h-4V446a4,4,0,0,1-4,4h-91v4a3,3,0,0,0,3,3h96a3,3,0,0,0,3-3V326Zm-86,88h54v1h-54v-1Zm8-16v-1h38v1h-38Zm-8-10h54v1h-54v-1Zm52.56-15.755L4113,357.02l-8.56,15.225-0.88-.49L4112.43,356l-8.87-15.755,0.88-.49L4113,354.98l8.56-15.225,0.88,0.49L4113.57,356l8.87,15.755ZM4097,362h-10v-1h10v1Zm-5-20.153-8.52,30.288-0.96-.27,9-32L4092,340l0.48-.135,9,32-0.96.27ZM4078,372h-1V341h-7v-1h15v1h-7v31Zm37,52h-38v-1h38v1Z" transform="translate(-4044 -314)"/>
</svg>
