<svg xmlns="http://www.w3.org/2000/svg" width="144" height="144" viewBox="0 0 144 144">
  <metadata><?xpacket begin="﻿" id="W5M0MpCehiHzreSzNTczkc9d"?>
<x:xmpmeta xmlns:x="adobe:ns:meta/" x:xmptk="Adobe XMP Core 5.6-c138 79.159824, 2016/09/14-01:09:01        ">
   <rdf:RDF xmlns:rdf="http://www.w3.org/1999/02/22-rdf-syntax-ns#">
      <rdf:Description rdf:about=""/>
   </rdf:RDF>
</x:xmpmeta>
                                                                                                    
                                                                                                    
                                                                                                    
                                                                                                    
                                                                                                    
                                                                                                    
                                                                                                    
                                                                                                    
                                                                                                    
                                                                                                    
                                                                                                    
                                                                                                    
                                                                                                    
                                                                                                    
                                                                                                    
                                                                                                    
                                                                                                    
                                                                                                    
                                                                                                    
                                                                                                    
                           
<?xpacket end="w"?></metadata>
<defs>
    <style>
      .cls-1 {
        fill: #42abe7;
        fill-rule: evenodd;
      }
    </style>
  </defs>
  <path id="icon_product_categories" class="cls-1" d="M1927,459h-48a4,4,0,0,1-4-4V407a4,4,0,0,1,4-4h24V388h-87v15h23a4,4,0,0,1,4,4v48a4,4,0,0,1-4,4h-48a4,4,0,0,1-4-4V407a4,4,0,0,1,4-4h24V387h44V371h-24a4,4,0,0,1-4-4V319a4,4,0,0,1,4-4h48a4,4,0,0,1,4,4v48a4,4,0,0,1-4,4h-23v16h44v16h23a4,4,0,0,1,4,4v48A4,4,0,0,1,1927,459Zm-136-55a3,3,0,0,0-3,3v48a3,3,0,0,0,3,3h48a3,3,0,0,0,3-3V407a3,3,0,0,0-3-3h-48Zm92-34a3,3,0,0,0,3-3V319a3,3,0,0,0-3-3h-48a3,3,0,0,0-3,3v48a3,3,0,0,0,3,3h48Zm47,37a3,3,0,0,0-3-3h-48a3,3,0,0,0-3,3v48a3,3,0,0,0,3,3h48a3,3,0,0,0,3-3V407Zm-15,32c0,6.627-5.37,10-12,10s-12-3.373-12-10,5.37-17,12-17v-3h0.11a7.972,7.972,0,0,1,7.89-7,7.713,7.713,0,0,1,.9.055,5.913,5.913,0,0,1,.1.945c0,0.034-.01.066-0.01,0.1a6.918,6.918,0,0,0-.99-0.1,6.992,6.992,0,0,0-6.99,6.9l-0.01,0V420a7,7,0,0,0,6.99-6.9,6.836,6.836,0,0,1,.99.22A7.991,7.991,0,0,1,1904,421v1.1C1910.16,423.065,1915,432.71,1915,439Zm-12-16c-6.08,0-11,9.925-11,16s4.92,9,11,9,11-2.925,11-9S1909.07,423,1903,423Zm-27.69-90L1859,339.314,1843.69,333l15.31-6.314ZM1859,337.9l14.9-4.9-14.9-4.9-13.9,4.9Zm16,0.1v12a4,4,0,0,1-4,4l-11,4.583V359l-0.5-.208L1859,359v-0.417L1848,354a4,4,0,0,1-4-4V338l15.5,5.813Zm-15,20,11-5a3,3,0,0,0,3-3V339l-14,6v13Zm-1-13-14-6v11a3,3,0,0,0,3,3l11,5V345Zm-44,104a12,12,0,1,1,12-12A12,12,0,0,1,1815,449Zm0-23a11,11,0,1,0,11,11A11,11,0,0,0,1815,426Zm1-5v4h-1v-4h1Zm-1-1c0-.034.01-0.066,0.01-0.1a6.918,6.918,0,0,0,.99.1,7,7,0,0,0,6.99-6.9,6.836,6.836,0,0,1,.99.22A7.991,7.991,0,0,1,1816,421a7.713,7.713,0,0,1-.9-0.055A5.913,5.913,0,0,1,1815,420Zm8-7a6.992,6.992,0,0,0-6.99,6.9,6.836,6.836,0,0,1-.99-0.22A7.991,7.991,0,0,1,1823,412a7.713,7.713,0,0,1,.9.055,5.913,5.913,0,0,1,.1.945c0,0.034-.01.066-0.01,0.1A6.918,6.918,0,0,0,1823,413Z" transform="translate(-1787 -315)"/>
</svg>
