<svg xmlns="http://www.w3.org/2000/svg" width="144.32" height="144" viewBox="0 0 144.32 144">
  <metadata><?xpacket begin="﻿" id="W5M0MpCehiHzreSzNTczkc9d"?>
<x:xmpmeta xmlns:x="adobe:ns:meta/" x:xmptk="Adobe XMP Core 5.6-c138 79.159824, 2016/09/14-01:09:01        ">
   <rdf:RDF xmlns:rdf="http://www.w3.org/1999/02/22-rdf-syntax-ns#">
      <rdf:Description rdf:about=""/>
   </rdf:RDF>
</x:xmpmeta>
                                                                                                    
                                                                                                    
                                                                                                    
                                                                                                    
                                                                                                    
                                                                                                    
                                                                                                    
                                                                                                    
                                                                                                    
                                                                                                    
                                                                                                    
                                                                                                    
                                                                                                    
                                                                                                    
                                                                                                    
                                                                                                    
                                                                                                    
                                                                                                    
                                                                                                    
                                                                                                    
                           
<?xpacket end="w"?></metadata>
<defs>
    <style>
      .cls-1 {
        fill: #42abe7;
        fill-rule: evenodd;
      }
    </style>
  </defs>
  <path id="icon_locations" class="cls-1" d="M3881,412v42a4,4,0,0,1-4,4l-43.53-12.862L3785,457.74V458l-0.47-.138L3784,458v-0.3L3741,445a4,4,0,0,1-4-4V397.524l-0.14-.045L3737,397V353a4,4,0,0,1,4-4l43.53,12.862,24.53-6.378h0c-2.45-4.918-4.06-9.637-4.06-13.484a28,28,0,0,1,56,0c0,3.981-1.73,8.894-4.32,14l-0.01,0-0.39.744h0.01c-6.72,12.819-18.63,26.59-22.29,29.632h0v10.42l46,14.375V366a3,3,0,0,0-3-3l-20.71-6.263c0.12-.247.26-0.5,0.39-0.742l20.32,6a4,4,0,0,1,4,4v45.476l0.14,0.045Zm-97,.211-16-5v-1.047l16,5V363l-43-13a3,3,0,0,0-3,3v43.789l22,6.875v1.047l-22-6.875V441a3,3,0,0,0,3,3l43,13V412.211ZM3785,363v48.178l48-14.4V387c-1.47,0-15.95-16.018-23.49-30.639Zm75-21a27,27,0,0,0-54,0c0,14.912,26.03,44,27,44S3860,356.912,3860,342Zm20,70.211-46-14.375V415h-1V397.822l-48,14.4V457l48-13V423h1v21l43,13a3,3,0,0,0,3-3V412.211ZM3821,342a12,12,0,1,1,12,12A12,12,0,0,1,3821,342Zm23,0a11,11,0,1,0-11,11A11,11,0,0,0,3844,342Z" transform="translate(-3736.84 -314)"/>
</svg>
