<svg xmlns="http://www.w3.org/2000/svg" width="120" height="144" viewBox="0 0 120 144">
  <metadata><?xpacket begin="﻿" id="W5M0MpCehiHzreSzNTczkc9d"?>
<x:xmpmeta xmlns:x="adobe:ns:meta/" x:xmptk="Adobe XMP Core 5.6-c138 79.159824, 2016/09/14-01:09:01        ">
   <rdf:RDF xmlns:rdf="http://www.w3.org/1999/02/22-rdf-syntax-ns#">
      <rdf:Description rdf:about=""/>
   </rdf:RDF>
</x:xmpmeta>
                                                                                                    
                                                                                                    
                                                                                                    
                                                                                                    
                                                                                                    
                                                                                                    
                                                                                                    
                                                                                                    
                                                                                                    
                                                                                                    
                                                                                                    
                                                                                                    
                                                                                                    
                                                                                                    
                                                                                                    
                                                                                                    
                                                                                                    
                                                                                                    
                                                                                                    
                                                                                                    
                           
<?xpacket end="w"?></metadata>
<defs>
    <style>
      .cls-1 {
        fill: #42abe7;
        fill-rule: evenodd;
      }
    </style>
  </defs>
  <path id="icon_adjustments" class="cls-1" d="M5239,452.783V455a4,4,0,0,1-4,4H5123a4,4,0,0,1-4-4V319a4,4,0,0,1,4-4h112a4,4,0,0,1,4,4v39h0v94.783h0ZM5160,458h38V411h-38v47Zm-40-3a3,3,0,0,0,3,3h36V411h-39v14h0v30Zm118-10V363H5120v-1h118V339h0V319a3,3,0,0,0-3-3H5123a3,3,0,0,0-3,3v30h0v1h0v24h0v36h39V363.217h1V410h38V363.217h1V458h36a3,3,0,0,0,3-3v-6h0v-4Zm-27-30h17v1h-17v-1Zm0-9h17v1h-17v-1Zm-40-20h17v1h-17v-1Zm-31,9h-1v-8h-8v-1h8v-8h1v8h8v1h-8v8Zm63-56h-8v-1h8v1Zm24-12v24h-16v-1h15V339h-7v-1h7V328h-15v-1h16Zm-93.16,101.136,5.66,5.657,5.66-5.657,0.7,0.707-5.65,5.657,5.65,5.657-0.7.707-5.66-5.657-5.66,5.657-0.7-.707,5.65-5.657-5.65-5.657ZM5171,434h17v1h-17v-1Zm8.5-4a1.5,1.5,0,1,1,1.5-1.5A1.5,1.5,0,0,1,5179.5,430Zm0,9a1.5,1.5,0,1,1-1.5,1.5A1.5,1.5,0,0,1,5179.5,439Z" transform="translate(-5119 -315)"/>
</svg>
