<svg xmlns="http://www.w3.org/2000/svg" width="144" height="119" viewBox="0 0 144 119">
  <metadata><?xpacket begin="﻿" id="W5M0MpCehiHzreSzNTczkc9d"?>
<x:xmpmeta xmlns:x="adobe:ns:meta/" x:xmptk="Adobe XMP Core 5.6-c138 79.159824, 2016/09/14-01:09:01        ">
   <rdf:RDF xmlns:rdf="http://www.w3.org/1999/02/22-rdf-syntax-ns#">
      <rdf:Description rdf:about=""/>
   </rdf:RDF>
</x:xmpmeta>
                                                                                                    
                                                                                                    
                                                                                                    
                                                                                                    
                                                                                                    
                                                                                                    
                                                                                                    
                                                                                                    
                                                                                                    
                                                                                                    
                                                                                                    
                                                                                                    
                                                                                                    
                                                                                                    
                                                                                                    
                                                                                                    
                                                                                                    
                                                                                                    
                                                                                                    
                                                                                                    
                           
<?xpacket end="w"?></metadata>
<defs>
    <style>
      .cls-1 {
        fill: #42abe7;
        fill-rule: evenodd;
      }
    </style>
  </defs>
  <path id="icon_fulfilment" class="cls-1" d="M557,446H421a4,4,0,0,1-4-4V352h0v-1h0V338a4,4,0,0,1,4-4h12v-3a4,4,0,0,1,8,0v3h96v-3a4,4,0,0,1,8,0v3h12a4,4,0,0,1,4,4V442A4,4,0,0,1,557,446ZM440,331a3,3,0,0,0-6,0v3h6v-3Zm104,0a3,3,0,0,0-6,0v3h6v-3Zm16,8v-1a3,3,0,0,0-3-3H421a3,3,0,0,0-3,3v13H560V339Zm0,13H418v77H560V352Zm0,89V430H418v11H560Zm0,1H418a3,3,0,0,0,3,3H557a3,3,0,0,0,3-3h0ZM444.68,367a12.366,12.366,0,0,1,6.394,1.787l-1.286.319A11.659,11.659,0,0,0,444.68,368a12,12,0,1,0,11.728,12,13.2,13.2,0,0,0-.537-3.793l0.409-1.444A13.212,13.212,0,0,1,457.359,380,12.684,12.684,0,1,1,444.68,367ZM432.5,402h27a0.5,0.5,0,0,1,0,1h-27A0.5,0.5,0,0,1,432.5,402Zm8,5h11a0.5,0.5,0,0,1,0,1h-11A0.5,0.5,0,0,1,440.5,407Zm47.181-40a12.368,12.368,0,0,1,6.394,1.787l-1.286.319A11.659,11.659,0,0,0,487.68,368a12,12,0,1,0,11.729,12,13.236,13.236,0,0,0-.537-3.793l0.408-1.444A13.229,13.229,0,0,1,500.359,380,12.683,12.683,0,1,1,487.68,367ZM475.5,402h27a0.5,0.5,0,0,1,0,1h-27A0.5,0.5,0,0,1,475.5,402Zm8,5h11a0.5,0.5,0,0,1,0,1h-11A0.5,0.5,0,0,1,483.5,407Zm47.179-40a12.367,12.367,0,0,1,6.395,1.787l-1.286.319A11.66,11.66,0,0,0,530.679,368a12,12,0,1,0,11.729,12,13.2,13.2,0,0,0-.537-3.793l0.409-1.444A13.23,13.23,0,0,1,543.36,380,12.684,12.684,0,1,1,530.679,367ZM518.5,402h27a0.5,0.5,0,0,1,0,1h-27A0.5,0.5,0,0,1,518.5,402Zm8,5h11a0.5,0.5,0,1,1,0,1h-11A0.5,0.5,0,0,1,526.5,407Zm2.378-21.222-1.414-1.414-4.242-4.243L524,379l4.878,4.95L538,375l0.778,0.879-8.486,8.485Zm-43,0-1.414-1.414-4.243-4.243L481,379l4.879,4.95L495,375l0.779,0.879-8.486,8.485Zm-43,0-1.414-1.414-4.243-4.243L438,379l4.878,4.95L452,375l0.779,0.879-8.486,8.485Z" transform="translate(-417 -327)"/>
</svg>
