<svg id="Layer_1" data-name="Layer 1" xmlns="http://www.w3.org/2000/svg" viewBox="0 0 144 144"><defs><style>.cls-1{fill:#42abe7;}.cls-2{fill:#fff;}</style></defs><title>Artboard 1</title><path class="cls-1" d="M109.19,139a1.42,1.42,0,0,1-1.4-1.15l-.67-3.5a5.67,5.67,0,0,0-3.56-4.28,5.84,5.84,0,0,0-2.13-.41,5.73,5.73,0,0,0-3.4,1.13L95,133a1.51,1.51,0,0,1-.85.27,1.38,1.38,0,0,1-1-.42l-4.75-4.74a1.41,1.41,0,0,1-.17-1.8l2-3a5.76,5.76,0,0,0-3.9-8.94l-3.67-.57a1.43,1.43,0,0,1-1.21-1.4v-6.71a1.41,1.41,0,0,1,1.15-1.39l3.5-.67a5.77,5.77,0,0,0,3.57-9.09l-2.2-3a1.4,1.4,0,0,1,.14-1.84L92.39,85a1.42,1.42,0,0,1,1-.42,1.5,1.5,0,0,1,.8.24L98,87.41a5.71,5.71,0,0,0,5.45.55,5.65,5.65,0,0,0,3.46-4.24l.87-4.51a1.43,1.43,0,0,1,1.4-1.16h6.71a1.42,1.42,0,0,1,1.4,1.2l.57,3.67a5.69,5.69,0,0,0,3.4,4.42,5.72,5.72,0,0,0,5.55-.51l3-2a1.42,1.42,0,0,1,.8-.24,1.46,1.46,0,0,1,1,.41l4.75,4.75a1.4,1.4,0,0,1,.14,1.84l-2.2,3a5.76,5.76,0,0,0,3.57,9.08l3.5.67a1.43,1.43,0,0,1,1.16,1.4v6.71a1.44,1.44,0,0,1-1.21,1.4l-3.67.56a5.78,5.78,0,0,0-3.91,8.95l2,3a1.42,1.42,0,0,1-.17,1.8l-4.75,4.74a1.42,1.42,0,0,1-1,.42h0a1.44,1.44,0,0,1-.84-.28l-2.11-1.54a5.77,5.77,0,0,0-9.12,3.78l-.4,2.57A1.42,1.42,0,0,1,115.9,139Zm-7.75-12.18a8.64,8.64,0,0,1,8.48,7l.45,2.35h4.31l.21-1.38a8.56,8.56,0,0,1,5.22-6.65,8.7,8.7,0,0,1,3.32-.66,8.56,8.56,0,0,1,5.09,1.68l1.12.82,3.05-3-1.34-2a8.61,8.61,0,0,1,5.83-13.34l2.47-.38v-4.31l-2.35-.45A8.61,8.61,0,0,1,132,92.9l1.47-2-3-3-2,1.34a8.63,8.63,0,0,1-13.36-5.82l-.38-2.47h-4.31l-.65,3.37a8.64,8.64,0,0,1-8.47,7,8.5,8.5,0,0,1-4.83-1.49l-2.84-1.92-3.06,3,1.48,2a8.62,8.62,0,0,1-5.33,13.56l-2.34.45v4.31l2.46.38a8.61,8.61,0,0,1,5.83,13.34l-1.34,2,3,3,2-1.48A8.62,8.62,0,0,1,101.44,126.82ZM1.5,134.16V126A18.16,18.16,0,0,1,11,110L27.17,99.86a6.21,6.21,0,0,0,3.3-5.48v-7L30.19,87a35.78,35.78,0,0,1-8.58-14.78L21.52,72l-.25-.2a7.67,7.67,0,0,1-2.81-5.92V57.46a7.42,7.42,0,0,1,2.16-5l.27-.29V40.74C20.9,40.58,22.3,20,46.55,20A30.61,30.61,0,0,1,60.7,23.07l1.29.67.16-1.45a20.09,20.09,0,0,1,4.76-11.08C71.69,5.76,79.52,3,90.17,3s18.49,2.76,23.27,8.21a20.86,20.86,0,0,1,4.82,15V39.6l.25.28a8.66,8.66,0,0,1,2.17,5.7v9.68a8.63,8.63,0,0,1-6.16,8.27,1.42,1.42,0,0,1-.42.06h0a1.41,1.41,0,0,1-1.25-2.08,1.36,1.36,0,0,1,.83-.69,5.81,5.81,0,0,0,4.15-5.56V45.58a5.73,5.73,0,0,0-2-4.31l-.47-.43,0-14.89A17.87,17.87,0,0,0,111.25,13C107,8.26,99.94,5.84,90.17,5.84s-16.9,2.44-21.12,7.24a17.87,17.87,0,0,0-4.18,12.27l0,.46,0,0v15l-.47.42a5.78,5.78,0,0,0-2,4.32v9.68a5.81,5.81,0,0,0,2.71,4.9l.48.31.13.57c.19.82.4,1.6.65,2.42l.18.57c.23.74.46,1.44.72,2.12l.4,1,.14.34q.21.53.42,1l.12.28q.41.9.81,1.71l.14.29a46.4,46.4,0,0,0,4.72,7.56l.17.21h0l.33.4v9.36a10.26,10.26,0,0,1-5.34,9L47.66,109.1a18,18,0,0,0-9.38,15.8v6.42H65.94a1.42,1.42,0,0,1,0,2.84ZM33.32,94.38a9,9,0,0,1-4.72,7.93L12.43,112.45A15.44,15.44,0,0,0,4.34,126v5.36H35.43V124.9A20.81,20.81,0,0,1,46.3,106.6L67.93,94.82a7.43,7.43,0,0,0,3.79-5.5h.06V80l-.21-.26c-.26-.34-1-1.28-1.9-2.73l-.06-.09c-.36-.56-.75-1.2-1.16-1.89l-.14-.26c-.38-.66-.76-1.35-1.15-2.09L67,72.4l-.18-.35-.13-.26c-.22-.45-.44-.93-.67-1.42L65.87,70l-.26-.62c-.22-.49-.42-1-.62-1.51,0,0-.19-.44-.22-.53-.18-.47-.33-.9-.47-1.32-.07-.19-.13-.38-.19-.57l-.17-.52-.2-.64c-.15-.49-.29-1-.43-1.53l-.12-.43L62.92,62a9.17,9.17,0,0,1-3.25-6.75V45.58a8.66,8.66,0,0,1,2.17-5.7l.25-.28V27.24l-.44-.3c-4-2.75-9.1-4.15-15.1-4.15-21.37,0-22.77,17.29-22.82,18V53.46l-.46.42a5.08,5.08,0,0,0-2,3.58v8.37a4.85,4.85,0,0,0,2.24,4.07l.49.31.13.56c2,8.58,8.65,14.89,8.72,15l.42.4ZM112,119.63a11.11,11.11,0,1,1,11.12-11.1A11.12,11.12,0,0,1,112,119.63Zm0-19.37a8.27,8.27,0,1,0,8.27,8.27A8.28,8.28,0,0,0,112,100.26ZM44.5,82V79h10v3Zm43-9V70h10v3Z"/><path class="cls-2" d="M90.17,4c10.36,0,17.93,2.65,22.51,7.87a19.8,19.8,0,0,1,4.59,14.27V40l.5.57a7.59,7.59,0,0,1,1.92,5v9.68a7.64,7.64,0,0,1-5.44,7.31l-.14,0a.42.42,0,0,1-.4-.29.41.41,0,0,1,0-.32.42.42,0,0,1,.25-.21,6.8,6.8,0,0,0,4.85-6.51V45.58a6.72,6.72,0,0,0-2.28-5l-.14-.13,0-14.42A19.15,19.15,0,0,0,112,12.36c-4.42-5-11.76-7.52-21.83-7.52S72.71,7.39,68.3,12.42a18.63,18.63,0,0,0-4.43,13l.05.92,0,0V40.4l-.14.12a6.74,6.74,0,0,0-2.29,5.06v9.68A6.83,6.83,0,0,0,64.67,61l.15.09h0l0,.11v.07l0,.09c.18.77.39,1.56.65,2.39l.18.6c.19.59.44,1.38.73,2.14.14.39.28.73.41,1.06l.11.26,0,.1c.14.35.28.68.43,1l.12.28c.22.49.52,1.14.82,1.75v0l0,.08v0l.09.18A48.12,48.12,0,0,0,73.35,79l.06.07.13.16.09.11v9a9.24,9.24,0,0,1-4.82,8.12L47.19,108.22a19,19,0,0,0-9.91,16.68v7.42H65.94a.42.42,0,0,1,.42.42.42.42,0,0,1-.42.42H2.5V126a17.2,17.2,0,0,1,9-15.1l0,0,.06,0,16.07-10.07a7.25,7.25,0,0,0,3.82-6.36V86.93l-.55-.58A34.79,34.79,0,0,1,22.57,72l-.16-.63-.5-.41a6.61,6.61,0,0,1-2.45-5.14V57.46a6.42,6.42,0,0,1,1.9-4.28l.53-.58V40.8C22,39.5,23.68,21,46.55,21a29.58,29.58,0,0,1,13.69,3l2.58,1.33.33-2.89a19.07,19.07,0,0,1,4.51-10.53C72.25,6.65,79.82,4,90.17,4M22.73,53l-.13.13a6.06,6.06,0,0,0-2.29,4.32v8.37A5.85,5.85,0,0,0,23,70.74l.15.09,0,.17c2,8.59,8.39,14.85,9,15.42h0l.13.13v7.83a8,8,0,0,1-4.2,7.06l-.05,0-.05,0L12,111.57A16.47,16.47,0,0,0,3.34,126v6.35H36.43V124.9a19.81,19.81,0,0,1,10.35-17.42l13.64-7.43L62,99.19l6.42-3.5a8.36,8.36,0,0,0,4.13-5.37h.25V79.64l-.42-.54c-.25-.33-.92-1.24-1.83-2.63l-.07-.11c-.36-.55-.74-1.18-1.13-1.84l-.16-.29c-.36-.62-.73-1.29-1.13-2.06L68,72l0-.07-.17-.34,0-.06-.09-.2q-.33-.67-.66-1.41l-.1-.2-.09-.18-.14-.33,0-.08-.09-.21q-.3-.72-.6-1.47l-.12-.3a2,2,0,0,1-.09-.22c-.18-.46-.32-.88-.47-1.31l-.18-.53L65,64.92c0-.11-.07-.22-.1-.3L64.7,64c-.15-.48-.28-1-.43-1.52l0-.17-.17-.63-.51-.41a7.76,7.76,0,0,1-1.79-2.15,7.54,7.54,0,0,1-1.08-3.82V45.58a7.59,7.59,0,0,1,1.92-5l.5-.57V26.72l-.87-.6c-4.2-2.87-9.47-4.33-15.67-4.33-22.3,0-23.77,18.18-23.82,19V53M96.5,71v1h-8V71h8m19.4,8a.42.42,0,0,1,.42.36l.56,3.67a6.67,6.67,0,0,0,4,5.18,6.85,6.85,0,0,0,2.73.57,6.7,6.7,0,0,0,3.78-1.18l3-2a.43.43,0,0,1,.24-.07.39.39,0,0,1,.3.12l4.75,4.74a.41.41,0,0,1,0,.55l-2.19,3a6.77,6.77,0,0,0,4.18,10.66l3.5.67a.42.42,0,0,1,.34.41v6.71a.42.42,0,0,1-.35.41l-3.67.57a6.77,6.77,0,0,0-4.59,10.49l2,3a.42.42,0,0,1,0,.53l-4.75,4.75a.45.45,0,0,1-.3.12.42.42,0,0,1-.25-.08l-2.11-1.55a6.78,6.78,0,0,0-10.7,4.43l-.4,2.58a.42.42,0,0,1-.42.36h-6.71a.43.43,0,0,1-.42-.34l-.67-3.5a6.67,6.67,0,0,0-4.17-5,6.71,6.71,0,0,0-6.49.84l-3,2.19a.45.45,0,0,1-.26.09.47.47,0,0,1-.3-.12l-4.74-4.75a.4.4,0,0,1-.05-.53l2-3a6.77,6.77,0,0,0-4.58-10.49l-3.67-.57a.42.42,0,0,1-.36-.41v-6.71a.42.42,0,0,1,.34-.41l3.5-.67A6.78,6.78,0,0,0,90.51,94l-2.2-3a.41.41,0,0,1,0-.55l4.75-4.74a.45.45,0,0,1,.3-.12.43.43,0,0,1,.24.07l3.81,2.58a6.74,6.74,0,0,0,6.39.65,6.64,6.64,0,0,0,4.06-5l.87-4.52a.43.43,0,0,1,.42-.34h6.71m-14.65,11.2A7.56,7.56,0,0,1,97,88.93l-2.16-1.45-1.37-.93-1.16,1.17-1.86,1.86-1.22,1.21,1,1.39,1,1.31a7.61,7.61,0,0,1-4.7,12l-1.54.3-1.62.31v6l1.69.26,1.62.25a7.6,7.6,0,0,1,5.15,11.79l-.87,1.29L90,127l1.17,1.17L93,130.07l1.21,1.21,1.39-1,1.31-1a7.58,7.58,0,0,1,4.5-1.48,7.69,7.69,0,0,1,2.8.53,7.56,7.56,0,0,1,4.7,5.65l.3,1.53.31,1.63h6l.26-1.7.08-.53a7.63,7.63,0,0,1,12.05-5l.43.32,1.38,1,1.21-1.21,1.86-1.86L134,127l-.92-1.37-.88-1.29a7.61,7.61,0,0,1,5.16-11.79l1.61-.25,1.7-.26v-6l-1.63-.31-1.53-.29a7.63,7.63,0,0,1-4.71-12l1-1.31,1-1.39-1.22-1.21-1.86-1.86-1.17-1.17-1.36.93-1.3.87a7.62,7.62,0,0,1-11.81-5.15l-.25-1.61-.26-1.7h-6l-.31,1.63-.49,2.55a7.6,7.6,0,0,1-4.57,5.6,7.72,7.72,0,0,1-2.92.58M53.5,80v1h-8V80h8M112,98.42a10.11,10.11,0,1,1-10.12,10.11A10.12,10.12,0,0,1,112,98.42m0,19.37a9.27,9.27,0,1,0-9.27-9.26,9.28,9.28,0,0,0,9.27,9.26M90.17,2c-11,0-19,2.88-24,8.55a20.94,20.94,0,0,0-5,11.63A31.46,31.46,0,0,0,46.55,19C21.37,19,19.9,40.39,19.89,40.74V51.82a8.45,8.45,0,0,0-2.43,5.64v8.37a8.63,8.63,0,0,0,3.18,6.69,37.19,37.19,0,0,0,8.83,15.22v6.64A5.26,5.26,0,0,1,26.63,99L10.51,109.12A19.16,19.16,0,0,0,.5,126v9.19H65.94a2.42,2.42,0,0,0,0-4.84H39.28V124.9A17,17,0,0,1,48.14,110L69.77,98.19a11.24,11.24,0,0,0,5.86-9.87V78.59l-.56-.67-.16-.19a46.15,46.15,0,0,1-4.6-7.38l-.11-.23,0-.06c-.26-.53-.52-1.1-.78-1.68l-.13-.27c-.13-.31-.27-.63-.4-1,0-.11-.09-.22-.14-.34-.13-.32-.26-.64-.4-1-.25-.66-.47-1.34-.7-2.05l-.17-.57c-.23-.75-.44-1.52-.62-2.31l0,0,0-.17-.17-.79-.83-.53a4.81,4.81,0,0,1-2.25-4.06V45.58A4.76,4.76,0,0,1,65.14,42l.8-.72V25.35l-.07-.05A16.77,16.77,0,0,1,69.8,13.74c4-4.58,10.88-6.9,20.37-6.9s16.31,2.3,20.33,6.85a17,17,0,0,1,3.93,12.2l0,15.4.8.72a4.75,4.75,0,0,1,1.62,3.57v9.68a4.8,4.8,0,0,1-3.44,4.6,2.42,2.42,0,0,0,.71,4.73,2.25,2.25,0,0,0,.72-.11,9.63,9.63,0,0,0,6.86-9.22V45.58a9.68,9.68,0,0,0-2.42-6.36V26.35a21.66,21.66,0,0,0-5.07-15.8c-5-5.67-13.06-8.55-24-8.55ZM5.34,130.32V126A14.39,14.39,0,0,1,13,113.3l16.12-10.11a10,10,0,0,0,5.24-8.81V85.69L33.55,85c-.06-.06-6.51-6.19-8.41-14.42l-.22-1-.83-.53a3.87,3.87,0,0,1-1.78-3.23V57.46a4.22,4.22,0,0,1,1.63-2.84l.79-.72v-13c.05-.7,1.3-17.09,21.82-17.09,5.8,0,10.68,1.34,14.54,4V39.22a9.68,9.68,0,0,0-2.42,6.36v9.68A9.53,9.53,0,0,0,60,60.09a9.72,9.72,0,0,0,2.26,2.7l.06.18c.14.54.28,1.06.44,1.57l.2.66.12.37.24.73c.15.43.3.87.48,1.35l.23.55c.2.52.41,1,.63,1.54,0,.09.08.2.12.3l.14.33c.07.14.14.27.21.42.22.5.45,1,.68,1.45,0,.08.08.18.13.27l.18.35.14.25c.39.76.77,1.46,1.16,2.12l.15.27c.41.71.81,1.36,1.19,1.94a.41.41,0,0,1,0,.09c.8,1.23,1.5,2.2,2,2.78v8h0a6.4,6.4,0,0,1-3.33,5.62L61,97.43l-1.57.86-13.64,7.43A21.83,21.83,0,0,0,34.43,124.9v5.42ZM98.5,69h-12v5h12V69Zm17.4,8h-6.71a2.43,2.43,0,0,0-2.38,2l-.87,4.51A4.7,4.7,0,0,1,103.08,87a4.85,4.85,0,0,1-1.85.37,4.72,4.72,0,0,1-2.66-.83L94.76,84a2.41,2.41,0,0,0-3.07.29L86.94,89a2.41,2.41,0,0,0-.24,3.14l2.19,3a4.76,4.76,0,0,1-3,7.5l-3.5.67a2.43,2.43,0,0,0-2,2.38v6.71a2.42,2.42,0,0,0,2,2.39l3.68.56a4.78,4.78,0,0,1,3.23,7.4l-2,2.95a2.42,2.42,0,0,0,.29,3.07l4.75,4.74a2.43,2.43,0,0,0,3.15.24l3-2.19a4.69,4.69,0,0,1,4.57-.6,4.69,4.69,0,0,1,3,3.54l.67,3.5a2.43,2.43,0,0,0,2.38,2h6.71a2.42,2.42,0,0,0,2.4-2.05l.4-2.58a4.72,4.72,0,0,1,2.89-3.69,4.9,4.9,0,0,1,1.84-.36,4.71,4.71,0,0,1,2.81.93l2.11,1.54a2.38,2.38,0,0,0,1.43.47,2.42,2.42,0,0,0,1.72-.71l4.74-4.74a2.43,2.43,0,0,0,.3-3.07l-2-2.95a4.78,4.78,0,0,1,3.23-7.4l3.67-.56a2.42,2.42,0,0,0,2.05-2.39v-6.71a2.42,2.42,0,0,0-2-2.38l-3.5-.67a4.77,4.77,0,0,1-2.95-7.51l2.2-3A2.42,2.42,0,0,0,137,89l-4.74-4.74a2.42,2.42,0,0,0-1.72-.71,2.49,2.49,0,0,0-1.36.41l-3,2a4.78,4.78,0,0,1-7.4-3.23l-.57-3.67a2.41,2.41,0,0,0-2.39-2Zm-14.65,15.2a9.64,9.64,0,0,0,9.45-7.8l.49-2.56h2.63l.25,1.62A9.62,9.62,0,0,0,129,90l1.3-.88L132.14,91l-1,1.32a9.61,9.61,0,0,0,6,15.13l1.53.29v2.63l-1.62.25a9.61,9.61,0,0,0-6.5,14.9l.87,1.29-1.86,1.85-.43-.31a9.63,9.63,0,0,0-15.21,6.29l-.08.53h-2.63l-.29-1.53a9.62,9.62,0,0,0-15.15-5.94l-1.32,1-1.86-1.86.88-1.29a9.61,9.61,0,0,0-6.51-14.89l-1.61-.25v-2.63l1.53-.29a9.62,9.62,0,0,0,6-15.13l-1-1.32,1.86-1.86,2.15,1.46a9.6,9.6,0,0,0,5.4,1.66ZM55.5,78h-12v5h12V78ZM112,96.42a12.11,12.11,0,1,0,12.12,12.11A12.12,12.12,0,0,0,112,96.42Zm0,19.37a7.27,7.27,0,1,1,7.27-7.26,7.27,7.27,0,0,1-7.27,7.26Z"/></svg>