<svg xmlns="http://www.w3.org/2000/svg" width="144" height="144" viewBox="0 0 144 144">
  <metadata><?xpacket begin="﻿" id="W5M0MpCehiHzreSzNTczkc9d"?>
<x:xmpmeta xmlns:x="adobe:ns:meta/" x:xmptk="Adobe XMP Core 5.6-c138 79.159824, 2016/09/14-01:09:01        ">
   <rdf:RDF xmlns:rdf="http://www.w3.org/1999/02/22-rdf-syntax-ns#">
      <rdf:Description rdf:about=""/>
   </rdf:RDF>
</x:xmpmeta>
                                                                                                    
                                                                                                    
                                                                                                    
                                                                                                    
                                                                                                    
                                                                                                    
                                                                                                    
                                                                                                    
                                                                                                    
                                                                                                    
                                                                                                    
                                                                                                    
                                                                                                    
                                                                                                    
                                                                                                    
                                                                                                    
                                                                                                    
                                                                                                    
                                                                                                    
                                                                                                    
                           
<?xpacket end="w"?></metadata>
<defs>
    <style>
      .cls-1 {
        fill: #42abe7;
        fill-rule: evenodd;
      }
    </style>
  </defs>
  <path id="icon_units_of_measerements" class="cls-1" d="M2221,373a24.99,24.99,0,0,1-49.9,2H2171v-1h0.05c-0.01-.334-0.05-0.662-0.05-1,0-4.575,21-44.45,24.5-51.051a4,4,0,0,1-3.42-3.154l-35.51,10.614a8,8,0,1,1-15.32,4.578l-35.11,10.492L2106,344a3.988,3.988,0,0,1-3.5,3.949c3.49,6.615,24.5,46.651,24.5,51.051a24.99,24.99,0,0,1-49.9,2H2077v-1h0.05c-0.01-.334-0.05-0.662-0.05-1,0-4.575,21-44.45,24.5-51.051a3.99,3.99,0,1,1,4.45-4.456L2141.06,333a8.233,8.233,0,0,1-.06-1,7.981,7.981,0,0,1,3-6.245V322c0-2.209,2.79-4,5-4s5,1.791,5,4v3.755a8.2,8.2,0,0,1,2.19,2.725l35.83-10.71a3.993,3.993,0,1,1,4.48,4.179C2199.99,328.564,2221,368.6,2221,373Zm-143,27h32v1h-31.95c0.53,12.737,11.03,22,23.95,22s23.42-9.263,23.95-22H2118v-1h8c0-7.156-24-51-24-51S2078,393.058,2078,400Zm24-59a3,3,0,1,0,3,3A3,3,0,0,0,2102,341Zm51-19c0-1.657-2.34-3-4-3s-4,1.343-4,3v3.07a8.012,8.012,0,0,1,8,0V322Zm-4,3a7,7,0,1,0,7,7A7,7,0,0,0,2149,325Zm23,49h32v1h-31.95c0.53,12.737,11.03,22,23.95,22s23.42-9.263,23.95-22H2212v-1h8c0-7.156-24-51-24-51S2172,367.058,2172,374Zm27-56a3,3,0,0,0-6,0l0.14,0.479-0.09.028A3,3,0,0,0,2199,318Zm-78,124h16v-3a4,4,0,0,1,4-4h3V339h1v96h8V339h1v96h3a4,4,0,0,1,4,4v3h16a4,4,0,0,1,4,4v12h-64V446A4,4,0,0,1,2121,442Zm39-3a3,3,0,0,0-3-3h-16a3,3,0,0,0-3,3v3h22v-3Zm-42,18h62v-3h-62v3Zm0-4h62v-7a3,3,0,0,0-3-3h-56a3,3,0,0,0-3,3v7Z" transform="translate(-2077 -314)"/>
</svg>
