<svg xmlns="http://www.w3.org/2000/svg" width="136" height="136" viewBox="0 0 136 136">
  <metadata><?xpacket begin="﻿" id="W5M0MpCehiHzreSzNTczkc9d"?>
<x:xmpmeta xmlns:x="adobe:ns:meta/" x:xmptk="Adobe XMP Core 5.6-c138 79.159824, 2016/09/14-01:09:01        ">
   <rdf:RDF xmlns:rdf="http://www.w3.org/1999/02/22-rdf-syntax-ns#">
      <rdf:Description rdf:about=""/>
   </rdf:RDF>
</x:xmpmeta>
                                                                                                    
                                                                                                    
                                                                                                    
                                                                                                    
                                                                                                    
                                                                                                    
                                                                                                    
                                                                                                    
                                                                                                    
                                                                                                    
                                                                                                    
                                                                                                    
                                                                                                    
                                                                                                    
                                                                                                    
                                                                                                    
                                                                                                    
                                                                                                    
                                                                                                    
                                                                                                    
                           
<?xpacket end="w"?></metadata>
<defs>
    <style>
      .cls-1 {
        fill: #42abe7;
        fill-rule: evenodd;
      }
    </style>
  </defs>
  <path id="icon_channels" class="cls-1" d="M263,383H207a4,4,0,0,1-4-4V323a4,4,0,0,1,4-4h56a4,4,0,0,1,4,4v56A4,4,0,0,1,263,383Zm3-60a3,3,0,0,0-3-3H207a3,3,0,0,0-3,3v56a3,3,0,0,0,3,3h56a3,3,0,0,0,3-3V323Zm-23,40H227a4,4,0,0,1-4-4V342a4,4,0,0,1,4-4h2v-1a6,6,0,0,1,12,0v1h2a4,4,0,0,1,4,4v17A4,4,0,0,1,243,363Zm-3-26a5,5,0,0,0-10,0v1h10v-1Zm6,5a3,3,0,0,0-3-3h-2v4h-1v-4H230v4h-1v-4h-2a3,3,0,0,0-3,3v17a3,3,0,0,0,3,3h16a3,3,0,0,0,3-3V342Zm-16.545,29H240.39a0.5,0.5,0,0,1,0,1H229.455A0.5,0.5,0,0,1,229.455,371ZM191,455H135a4,4,0,0,1-4-4V395a4,4,0,0,1,4-4h56a4,4,0,0,1,4,4v56A4,4,0,0,1,191,455Zm3-60a3,3,0,0,0-3-3H135a3,3,0,0,0-3,3v56a3,3,0,0,0,3,3h56a3,3,0,0,0,3-3V395Zm-23,40H155a4,4,0,0,1-4-4V414a4,4,0,0,1,4-4h2v-1a6,6,0,0,1,12,0v1h2a4,4,0,0,1,4,4v17A4,4,0,0,1,171,435Zm-3-26a5,5,0,0,0-10,0v1h10v-1Zm6,5a3,3,0,0,0-3-3h-2v4h-1v-4H158v4h-1v-4h-2a3,3,0,0,0-3,3v17a3,3,0,0,0,3,3h16a3,3,0,0,0,3-3V414Zm-16.543,29H168.39a0.5,0.5,0,0,1,0,1H157.456A0.5,0.5,0,1,1,157.456,443ZM191,383H135a4,4,0,0,1-4-4V323a4,4,0,0,1,4-4h56a4,4,0,0,1,4,4v56A4,4,0,0,1,191,383Zm3-60a3,3,0,0,0-3-3H135a3,3,0,0,0-3,3v56a3,3,0,0,0,3,3h56a3,3,0,0,0,3-3V323Zm-23,40H155a4,4,0,0,1-4-4V342a4,4,0,0,1,4-4h2v-1a6,6,0,0,1,12,0v1h2a4,4,0,0,1,4,4v17A4,4,0,0,1,171,363Zm-3-26a5,5,0,0,0-10,0v1h10v-1Zm6,5a3,3,0,0,0-3-3h-2v4h-1v-4H158v4h-1v-4h-2a3,3,0,0,0-3,3v17a3,3,0,0,0,3,3h16a3,3,0,0,0,3-3V342Zm-16.543,29H168.39a0.5,0.5,0,0,1,0,1H157.456A0.5,0.5,0,1,1,157.456,371ZM247,415v2l-12.942,11.9-2.184,2.1-2.184-2.1L223,423v-2l8.874,8.282Z" transform="translate(-131 -319)"/>
</svg>
