<?xml version="1.0" encoding="utf-8"?>
<!-- Generator: Adobe Illustrator 21.0.2, SVG Export Plug-In . SVG Version: 6.00 Build 0)  -->
<svg version="1.1" id="Layer_1" xmlns="http://www.w3.org/2000/svg" xmlns:xlink="http://www.w3.org/1999/xlink" x="0px" y="0px"
	 viewBox="0 0 60 60" style="enable-background:new 0 0 60 60;" xml:space="preserve">
<style type="text/css">
	.st0{fill-rule:evenodd;clip-rule:evenodd;fill:#fff;}
</style>
<path class="st0" d="M47.8,42.2c0,0,6.9-4.7,6.9-13.9c0-13.8-14.6-18.8-22.4-18.7c-7.8,0.1-10.2,2.2-10.2,2.2s-2.7-1.9-5.5-3.6
	c-2.2-0.8-2.7-1-4.2-0.5c-1.2,0-0.5,2,0,2.7c0.5,0.7,2.8,4.7,2.8,4.7s-4.9,5-5.2,8.3c0-0.1-2.3,0-3.6,0c-1.3,0-1.1,1.4-1.1,1.4
	l0,9.7c0,0-0.1,1.4,1.1,1.4c1.1,0,3.6,0,3.6,0s3.4,5,5.6,5.9c0,0.1-1.9,5.1-1.9,5.1s-0.9,1.6,0.7,2.2c1.6,0.6,5.9,2.4,7.7,2.9
	c1.8,0.5,2.1-0.7,2.1-0.7l1.8-3.9l11.7,0l1.8,4c0,0,0.3,1.8,2.7,0.8c2.4-1,5-2.2,7-3.3c2-1,0.7-2.9,0.7-2.9L47.8,42.2z M16.3,25.4
	c-1.1,0-2-0.9-2-2c0-1.1,0.9-2,2-2c1.1,0,2,0.9,2,2C18.2,24.5,17.4,25.4,16.3,25.4z M36.9,25c-1-0.8-2.2-1.3-3.5-1.3
	c-1.4,0-2.6,0.3-3.5,1c-0.6,0.4-1.1,0.9-1.5,1.7c-0.5,0.8-0.7,1.1-0.8,2.1h8.6l-0.3,2h-8.4c0,0,0,0,0,0.2c0,0.6,0,0.8,0,0.8h8.1
	l-0.4,2h-7.5c0.4,2,1.2,3.3,2.5,4.2c1,0.6,1.9,0.9,3,0.9c1.6,0,2.5-0.4,3.5-1.2V40c-1,0.5-2.1,0.7-3.3,0.7c-3.8,0-6.3-1.6-7.6-4.8
	c-0.3-0.6-0.4-1.4-0.6-2.4h-1.9l0.3-2h1.3c0,0,0-0.4,0-0.8c0-0.2,0-0.2,0-0.2h-1.6l0.3-2h1.5c0.5-3,1.9-4.6,4.1-5.8
	c1.3-0.7,2.8-1.1,4.5-1.1c1.6,0,2.9,0.4,3.9,1L36.9,25z M44.2,19.2c-0.6,0.7-1,0.2-1.6,0c0,0-2.2-2-5.3-2.9c-3.3-1-6.8-0.5-6.8-0.5
	c-0.5-0.1-1.1-0.2-1.1-0.9c0-1,1.2-1,1.2-1c0,0,3.9-0.4,7.2,0.6c3.2,0.9,5.7,3,5.7,3S44.8,18.3,44.2,19.2z"/>
</svg>
