<?xml version="1.0" encoding="utf-8"?>
<!-- Generator: Adobe Illustrator 21.0.2, SVG Export Plug-In . SVG Version: 6.00 Build 0)  -->
<svg version="1.1" id="Layer_1" xmlns="http://www.w3.org/2000/svg" xmlns:xlink="http://www.w3.org/1999/xlink" x="0px" y="0px"
	 viewBox="0 0 18 18" style="enable-background:new 0 0 18 18;" xml:space="preserve" preserveAspectRatio="xMinYMid">
<style type="text/css">
	.st0{fill:#00AEEF;}
</style>
<path class="st0" d="M10.8,8.1c1-1.6,1-3.7-0.2-5.3C9,0.8,6.1,0.4,4.1,2S1.7,6.4,3.3,8.4C4.5,10,6.6,10.6,8.4,10l2,2.7L8,14.6
	L9.9,17l2.4-1.9l0.9,1.2l2.4-1.9L10.8,8.1z M5.7,6.6C5.2,5.9,5.3,4.9,6,4.4S7.6,4,8.2,4.7s0.4,1.6-0.3,2.2S6.2,7.2,5.7,6.6z"/>
</svg>
