<?xml version="1.0" encoding="utf-8"?>
<!-- Generator: Adobe Illustrator 21.0.2, SVG Export Plug-In . SVG Version: 6.00 Build 0)  -->
<svg version="1.1" id="Layer_1" xmlns="http://www.w3.org/2000/svg" xmlns:xlink="http://www.w3.org/1999/xlink" x="0px" y="0px"
	 viewBox="0 0 90 90" style="enable-background:new 0 0 90 90;" xml:space="preserve">
<style type="text/css">
	.st0{fill:#FFFFFF;}
</style>
<path class="st0" d="M71.7,14.5h-3.8V6.8h-7.6v7.6H29.7V6.8h-7.6v7.6h-3.8c-4.2,0-7.6,3.4-7.6,7.6v53.4c0,4.2,3.4,7.6,7.6,7.6h53.4
	c4.2,0,7.6-3.4,7.6-7.6V22.1C79.4,17.9,75.9,14.5,71.7,14.5z M45,25.9c6.3,0,11.5,5.1,11.5,11.5S51.3,48.8,45,48.8
	s-11.5-5.1-11.5-11.5S38.7,25.9,45,25.9z M67.9,71.7H22.1v-3.8c0-7.6,15.3-11.8,22.9-11.8s22.9,4.2,22.9,11.8V71.7z"/>
</svg>
