<?xml version="1.0" encoding="utf-8"?>
<!-- Generator: Adobe Illustrator 21.0.2, SVG Export Plug-In . SVG Version: 6.00 Build 0)  -->
<svg version="1.1" id="Layer_1" xmlns="http://www.w3.org/2000/svg" xmlns:xlink="http://www.w3.org/1999/xlink" x="0px" y="0px"
	 viewBox="0 0 90 90" style="enable-background:new 0 0 90 90;" xml:space="preserve">
<style type="text/css">
	.st0{fill:#FFFFFF;}
</style>
<path class="st0" d="M29.2,68.7c-4.3,0-7.9,3.6-7.9,7.9s3.5,7.9,7.9,7.9s7.9-3.6,7.9-7.9S33.6,68.7,29.2,68.7z M5.5,5.5v7.9h7.9
	l14.2,29.9L22.3,53c-0.6,1.1-1,2.4-1,3.8c0,4.3,3.6,7.9,7.9,7.9h47.3v-7.9H30.9c-0.6,0-1-0.4-1-1l0.1-0.5l3.6-6.4H63
	c3,0,5.6-1.6,6.9-4.1L84,19.3c0.3-0.6,0.5-1.2,0.5-1.9c0-2.2-1.8-3.9-3.9-3.9H22.2l-3.7-7.9L5.5,5.5z M68.7,68.7
	c-4.3,0-7.9,3.6-7.9,7.9s3.5,7.9,7.9,7.9s7.9-3.6,7.9-7.9S73,68.7,68.7,68.7z"/>
</svg>
