<?xml version="1.0" encoding="utf-8"?>
<!-- Generator: Adobe Illustrator 21.0.2, SVG Export Plug-In . SVG Version: 6.00 Build 0)  -->
<svg version="1.1" id="Layer_1" xmlns="http://www.w3.org/2000/svg" xmlns:xlink="http://www.w3.org/1999/xlink" x="0px" y="0px"
	 viewBox="0 0 90 90" style="enable-background:new 0 0 90 90;" xml:space="preserve">
<style type="text/css">
	.st0{fill:#FFFFFF;}
</style>
<path class="st0" d="M55.1,40.2c5.7-8.8,5.6-20.7-1.2-29.5C45.3-0.5,29.2-2.6,18,6S4.7,30.7,13.3,41.9c6.8,8.8,18.2,12,28.2,8.7
	l11.3,14.7L39.3,75.8l10.4,13.5l13.5-10.4l5.2,6.8L82,75.2L55.1,40.2z M26.8,31.5c-2.9-3.7-2.2-9.1,1.6-12s9.1-2.2,12,1.6
	c2.9,3.7,2.2,9.1-1.6,12C35.1,35.9,29.7,35.2,26.8,31.5z"/>
</svg>
