<?xml version="1.0" encoding="utf-8"?>
<!-- Generator: Adobe Illustrator 21.0.2, SVG Export Plug-In . SVG Version: 6.00 Build 0)  -->
<svg version="1.1" id="Layer_1" xmlns="http://www.w3.org/2000/svg" xmlns:xlink="http://www.w3.org/1999/xlink" x="0px" y="0px"
	 viewBox="0 0 60 60" style="enable-background:new 0 0 60 60;" xml:space="preserve">
<style type="text/css">
	.st0{fill-rule:evenodd;clip-rule:evenodd;fill:#808080;}
</style>
<g>
	<path class="st0" d="M31.1,34.3c0,0-0.5,0.4-1.1,0.4c-0.6,0-1.1-0.4-1.1-0.4l-6.3-4.9L9.7,47.8h40.6L37.4,29.4L31.1,34.3z"/>
	<path class="st0" d="M53.6,12.2H6.4c-0.5,0-1,0.4-1,1v1l23.4,18.3c0,0,0.5,0.4,1.1,0.4c0.6,0,1.1-0.4,1.1-0.4l23.4-18.3v-1
		C54.6,12.6,54.1,12.2,53.6,12.2z"/>
	<path class="st0" d="M5.4,15.9v30.9c0,0.5,0.4,1,1,1h1.5l13.5-19.4L5.4,15.9z"/>
	<path class="st0" d="M52.1,47.8h1.5c0.5,0,1-0.4,1-1V16L38.6,28.5L52.1,47.8z"/>
</g>
</svg>
