<?xml version="1.0" encoding="utf-8"?>
<!-- Generator: Adobe Illustrator 21.0.2, SVG Export Plug-In . SVG Version: 6.00 Build 0)  -->
<svg version="1.1" id="Layer_1" xmlns="http://www.w3.org/2000/svg" xmlns:xlink="http://www.w3.org/1999/xlink" x="0px" y="0px"
	 viewBox="0 0 60 60" style="enable-background:new 0 0 60 60;" xml:space="preserve">
<style type="text/css">
	.st0{fill-rule:evenodd;clip-rule:evenodd;fill:#fff;}
</style>
<g>
	<path class="st0" d="M50.7,7.8H9.3c-0.5,0-1,0.4-1,1v42.4c0,0.5,0.4,1,1,1h41.4c0.5,0,1-0.4,1-1V8.8C51.7,8.3,51.2,7.8,50.7,7.8z
		 M48.2,47.3c0,0.5-0.4,1-1,1H12.7c-0.5,0-1-0.4-1-1V20.6h36.5V47.3z"/>
	<rect x="15.6" y="39.8" class="st0" width="4.9" height="4.9"/>
	<rect x="15.6" y="24" class="st0" width="4.9" height="4.9"/>
	<rect x="15.6" y="31.9" class="st0" width="4.9" height="4.9"/>
	<rect x="39.3" y="39.8" class="st0" width="4.9" height="4.9"/>
	<rect x="39.3" y="24" class="st0" width="4.9" height="4.9"/>
	<rect x="39.3" y="31.9" class="st0" width="4.9" height="4.9"/>
	<rect x="23.5" y="39.8" class="st0" width="4.9" height="4.9"/>
	<rect x="23.5" y="24" class="st0" width="4.9" height="4.9"/>
	<rect x="23.5" y="31.9" class="st0" width="4.9" height="4.9"/>
	<rect x="31.4" y="39.8" class="st0" width="4.9" height="4.9"/>
	<rect x="31.4" y="24" class="st0" width="4.9" height="4.9"/>
	<rect x="31.4" y="31.9" class="st0" width="4.9" height="4.9"/>
</g>
</svg>
