<?xml version="1.0" encoding="utf-8"?>
<!-- Generator: Adobe Illustrator 21.1.0, SVG Export Plug-In . SVG Version: 6.00 Build 0)  -->
<svg version="1.1" id="Layer_1" xmlns="http://www.w3.org/2000/svg" xmlns:xlink="http://www.w3.org/1999/xlink" x="0px" y="0px"
	 viewBox="0 0 652 97" style="enable-background:new 0 0 652 97;" xml:space="preserve">
<style type="text/css">
	.st0{fill:#1D1D1B;}
	.st1{fill:#CDFF2A;}
	.st2{fill:#DDE7F2;}
	.st3{fill:#9AB1C8;}
	.st4{fill:#4D6F8B;}
</style>
<g>
	<path class="st0" d="M180.7,49.1c0,6.9-0.9,13-2.8,18.2s-4.6,9.6-8.2,13.1s-7.9,6.1-13.1,7.9c-5.2,1.8-11.1,2.6-17.7,2.6h-21.6v-82
		h24c6,0,11.5,0.9,16.3,2.6c4.8,1.7,9,4.3,12.4,7.7c3.4,3.4,6.1,7.6,7.9,12.6C179.8,36.7,180.7,42.5,180.7,49.1z M163.1,49.5
		c0-4.6-0.5-8.5-1.4-11.8s-2.2-6-4-8.2c-1.7-2.2-3.9-3.8-6.4-4.8s-5.4-1.6-8.7-1.6h-8v53.4h6.4c7.3,0,12.8-2.2,16.5-6.7
		C161.2,65.3,163.1,58.5,163.1,49.5z"/>
	<path class="st0" d="M245.8,59.4c0,5.2-0.7,9.9-2,13.9s-3.2,7.4-5.7,10.2c-2.5,2.8-5.5,4.9-9.1,6.3s-7.6,2.2-12,2.2
		c-4.2,0-8-0.7-11.4-2.2c-3.5-1.4-6.5-3.5-9-6.3s-4.5-6.2-5.9-10.2s-2.1-8.7-2.1-13.9c0-5.2,0.7-9.8,2-13.9c1.3-4,3.2-7.4,5.7-10.2
		c2.5-2.7,5.5-4.8,9.1-6.3c3.6-1.4,7.6-2.1,12.1-2.1c4.2,0,8,0.7,11.4,2.1c3.5,1.4,6.5,3.5,9,6.3c2.5,2.7,4.5,6.1,5.9,10.2
		C245.1,49.6,245.8,54.2,245.8,59.4z M206,59.4c0,6.2,0.9,10.9,2.6,14.1c1.8,3.2,4.6,4.7,8.6,4.7c3.9,0,6.8-1.6,8.5-4.8
		c1.8-3.2,2.6-7.9,2.6-14.1s-0.9-10.9-2.6-14c-1.8-3.1-4.6-4.6-8.6-4.6c-3.9,0-6.8,1.5-8.5,4.6C206.9,48.5,206,53.1,206,59.4z"/>
	<path class="st0" d="M307.6,90.9h-17.1V54.3c0-4.5-0.7-7.9-2-10.2c-1.3-2.3-3.5-3.4-6.3-3.4c-2.2,0-4,0.4-5.4,1.3s-2.6,2.2-3.5,4
		s-1.5,3.9-1.9,6.5s-0.6,5.5-0.6,8.9v29.5h-17.1V28.2h13.1l2.3,8h1c0.9-1.6,2-3,3.2-4.2c1.3-1.2,2.6-2.1,4.1-2.9
		c1.5-0.7,3.1-1.3,4.8-1.7c1.7-0.4,3.4-0.5,5.1-0.5c4.3,0,8,0.7,11,2.2s5.3,3.8,6.9,7h1.4c0.9-1.6,2-3,3.3-4.2s2.7-2.1,4.2-2.9
		c1.5-0.7,3.2-1.3,4.9-1.7c1.7-0.4,3.4-0.5,5.1-0.5c6.7,0,11.8,1.8,15.2,5.5c3.4,3.6,5.1,9.5,5.1,17.5v40.9h-17.2V54.1
		c0-4.5-0.7-7.9-2-10.2c-1.3-2.3-3.5-3.4-6.3-3.4c-4.1,0-7,1.6-8.7,4.9c-1.7,3.2-2.6,7.9-2.6,13.9V90.9z"/>
	<path class="st0" d="M393.7,90.9l-3.3-8.5h-0.5c-1.2,1.7-2.5,3.1-3.7,4.3c-1.2,1.2-2.6,2.2-4,3c-1.5,0.8-3.1,1.4-4.9,1.7
		c-1.8,0.4-3.9,0.6-6.3,0.6c-2.5,0-4.9-0.4-7.1-1.2c-2.2-0.8-4.1-2-5.6-3.6c-1.6-1.6-2.8-3.7-3.7-6.2c-0.9-2.5-1.3-5.4-1.3-8.8
		c0-6.7,2.1-11.6,6.4-14.7c4.3-3.2,10.6-4.9,19.1-5.2l10-0.3v-4.7c0-2.6-0.7-4.5-2.2-5.7s-3.6-1.9-6.3-1.9c-2.7,0-5.3,0.4-7.9,1.2
		c-2.6,0.8-5.1,1.8-7.7,3.1l-5.6-11.3c3.1-1.8,6.6-3.1,10.4-4.2c3.8-1,7.8-1.5,12-1.5c7.8,0,13.8,1.8,18,5.5s6.3,9.2,6.3,16.7V91
		L393.7,90.9L393.7,90.9z M388.7,61.8L383,62c-2.3,0.1-4.2,0.4-5.8,0.9c-1.6,0.5-2.8,1.2-3.8,2.1s-1.6,1.9-2.1,3.1
		c-0.4,1.2-0.6,2.6-0.6,4.1c0,2.6,0.6,4.5,1.9,5.6s2.9,1.7,5,1.7c1.6,0,3-0.3,4.4-0.8c1.3-0.5,2.5-1.3,3.5-2.4s1.8-2.4,2.3-3.9
		c0.6-1.6,0.8-3.3,0.8-5.4v-5.2H388.7z"/>
	<path class="st0" d="M454.9,22.1c-3.3,0-6.3,0.6-8.8,1.9c-2.6,1.3-4.7,3.1-6.5,5.6c-1.7,2.4-3.1,5.3-4,8.8s-1.3,7.3-1.3,11.6
		c0,4.4,0.4,8.3,1.2,11.7c0.8,3.4,2,6.3,3.7,8.6c1.7,2.3,3.8,4.1,6.4,5.3c2.6,1.2,5.7,1.8,9.3,1.8c3.3,0,6.7-0.4,10-1.1
		s7-1.8,10.9-3.2v14.6c-1.8,0.8-3.6,1.4-5.3,1.9c-1.8,0.5-3.6,1-5.4,1.3c-1.8,0.3-3.7,0.6-5.6,0.8c-1.9,0.2-4,0.3-6.2,0.3
		c-6.3,0-11.8-1-16.4-3c-4.6-2-8.5-4.9-11.5-8.5c-3-3.7-5.3-8.1-6.7-13.2c-1.5-5.2-2.2-10.9-2.2-17.2c0-6.2,0.8-11.9,2.5-17.1
		s4.2-9.6,7.4-13.4c3.3-3.7,7.3-6.6,12.1-8.7s10.3-3.1,16.5-3.1c4.1,0,8.2,0.5,12.3,1.5s8,2.4,11.8,4.2l-5.6,14.1
		c-3.1-1.5-6.2-2.7-9.3-3.8C460.9,22.7,457.9,22.1,454.9,22.1z"/>
	<path class="st0" d="M523.7,90.9l-3.3-8.5h-0.5c-1.2,1.7-2.5,3.1-3.7,4.3c-1.2,1.2-2.6,2.2-4,3c-1.5,0.8-3.1,1.4-4.9,1.7
		c-1.8,0.4-3.9,0.6-6.3,0.6c-2.5,0-4.9-0.4-7.1-1.2c-2.2-0.8-4-2-5.6-3.6s-2.8-3.7-3.7-6.2s-1.3-5.4-1.3-8.8
		c0-6.7,2.1-11.6,6.4-14.7c4.3-3.2,10.6-4.9,19.1-5.2l10-0.3v-4.7c0-2.6-0.7-4.5-2.2-5.7s-3.6-1.9-6.3-1.9s-5.3,0.4-7.9,1.2
		c-2.6,0.8-5.1,1.8-7.7,3.1l-5.6-11.3c3.1-1.8,6.6-3.1,10.4-4.2c3.8-1,7.8-1.5,12-1.5c7.8,0,13.8,1.8,18,5.5s6.3,9.2,6.3,16.7V91
		L523.7,90.9L523.7,90.9z M518.7,61.8L513,62c-2.3,0.1-4.2,0.4-5.8,0.9s-2.8,1.2-3.8,2.1s-1.6,1.9-2.1,3.1c-0.4,1.2-0.6,2.6-0.6,4.1
		c0,2.6,0.6,4.5,1.9,5.6c1.3,1.1,2.9,1.7,5,1.7c1.6,0,3-0.3,4.4-0.8c1.3-0.5,2.5-1.3,3.5-2.4s1.8-2.4,2.3-3.9
		c0.6-1.6,0.8-3.3,0.8-5.4L518.7,61.8L518.7,61.8z"/>
	<path class="st0" d="M581.4,27c0.4,0,0.9,0,1.5,0c0.5,0,1.1,0.1,1.6,0.1c0.5,0.1,1,0.1,1.4,0.2s0.8,0.1,1,0.2v16
		c-0.3-0.1-0.7-0.1-1.2-0.2s-1.1-0.1-1.7-0.2c-0.6-0.1-1.2-0.1-1.7-0.1c-0.6,0-1,0-1.4,0c-2.2,0-4.2,0.3-6.1,0.8
		c-1.9,0.6-3.4,1.5-4.8,2.7c-1.3,1.3-2.4,2.9-3.1,4.9c-0.7,2-1.1,4.5-1.1,7.5v31.9h-17.1V28.1h13l2.5,9.4h0.8
		c0.9-1.6,1.9-3.1,2.9-4.4s2.2-2.4,3.5-3.3s2.7-1.6,4.4-2.1C577.4,27.2,579.3,27,581.4,27z"/>
	<path class="st0" d="M621.5,92c-4.5,0-8.6-0.7-12.4-2c-3.8-1.3-7-3.3-9.8-5.9c-2.7-2.6-4.9-6-6.4-10s-2.3-8.7-2.3-14.2
		s0.7-10.3,2.1-14.4c1.4-4.1,3.3-7.5,5.8-10.3c2.5-2.7,5.5-4.8,9-6.2c3.5-1.4,7.4-2.1,11.6-2.1c4.2,0,7.9,0.6,11.2,1.9
		s6.2,3.1,8.5,5.5s4.1,5.4,5.4,8.9c1.3,3.5,1.9,7.6,1.9,12.1v8.3H608c0.1,2.4,0.5,4.6,1.1,6.5c0.7,1.9,1.7,3.6,2.9,4.9
		c1.3,1.3,2.8,2.3,4.5,3.1c1.8,0.7,3.8,1.1,6.1,1.1c1.9,0,3.7-0.1,5.4-0.3c1.7-0.2,3.4-0.5,5-0.9s3.2-0.9,4.8-1.5s3.2-1.3,4.8-2.2
		v13.2c-1.5,0.8-3,1.5-4.5,2s-3.1,1-4.8,1.4s-3.5,0.6-5.4,0.8C626,91.9,623.8,92,621.5,92z M619.3,39.1c-3,0-5.5,1.1-7.5,3.2
		s-3.2,5.5-3.5,10h21.8c0-1.9-0.3-3.7-0.7-5.3c-0.4-1.6-1.1-3-2-4.2s-2-2.1-3.4-2.8C622.7,39.5,621.1,39.1,619.3,39.1z"/>
</g>
<polygon class="st1" points="26.1,7.4 90.3,7.4 90.3,24.6 7.2,24.6 "/>
<rect x="7.2" y="29.2" class="st2" width="83.1" height="17.2"/>
<rect x="7.2" y="50.9" class="st3" width="83.1" height="17.2"/>
<polygon class="st4" points="7.2,72.7 90.3,72.7 74.6,89.9 7.2,89.9 "/>
</svg>
