<?xml version="1.0" encoding="utf-8"?>
<!-- Generator: Adobe Illustrator 19.2.1, SVG Export Plug-In . SVG Version: 6.00 Build 0)  -->
<svg version="1.1" id="Layer_1" xmlns="http://www.w3.org/2000/svg" xmlns:xlink="http://www.w3.org/1999/xlink" x="0px" y="0px"
	 viewBox="0 0 100 100" style="enable-background:new 0 0 100 100;" xml:space="preserve">
<circle style="fill:#44A9DF;" cx="50" cy="50" r="50"/>
<g>
	<rect x="27.1" y="20.3" style="fill-rule:evenodd;clip-rule:evenodd;fill:#FFFFFF;" width="45.9" height="58.1"/>
	<rect x="29.5" y="23.2" style="fill-rule:evenodd;clip-rule:evenodd;fill:#44A9DF;" width="40.9" height="9"/>
	<path style="fill:#FFFFFF;" d="M32.3,25.7h2.8c0.5,0,0.8,0.1,1.1,0.3c0.2,0.2,0.4,0.5,0.4,0.8c0,0.3-0.1,0.5-0.3,0.7
		c-0.1,0.1-0.3,0.2-0.5,0.3c0.3,0.1,0.6,0.2,0.8,0.4c0.2,0.2,0.2,0.5,0.2,0.8c0,0.2-0.1,0.5-0.2,0.7c-0.1,0.2-0.3,0.4-0.5,0.5
		c-0.1,0.1-0.3,0.1-0.6,0.2c-0.3,0-0.6,0.1-0.7,0.1h-2.5V25.7L32.3,25.7z M33.8,27.6h0.6c0.2,0,0.4,0,0.5-0.1
		c0.1-0.1,0.1-0.2,0.1-0.3c0-0.1,0-0.2-0.1-0.3c-0.1-0.1-0.2-0.1-0.5-0.1h-0.6V27.6L33.8,27.6z M33.8,29.5h0.8c0.3,0,0.4,0,0.5-0.1
		c0.1-0.1,0.2-0.2,0.2-0.4c0-0.1-0.1-0.3-0.2-0.3c-0.1-0.1-0.3-0.1-0.5-0.1h-0.7V29.5z"/>
	<rect x="40.3" y="25.7" style="fill:#FFFFFF;" width="1.5" height="4.8"/>
	<polygon style="fill:#FFFFFF;" points="45.5,25.7 46.9,25.7 48.7,28.4 48.7,25.7 50.1,25.7 50.1,30.5 48.7,30.5 46.9,27.9 
		46.9,30.5 45.5,30.5 	"/>
	<path style="fill:#FFFFFF;" d="M56.1,28.8v-1h2.3v2c-0.4,0.3-0.8,0.5-1.2,0.6c-0.3,0.1-0.7,0.2-1.2,0.2c-0.6,0-1-0.1-1.4-0.3
		c-0.4-0.2-0.6-0.5-0.8-0.9c-0.2-0.4-0.3-0.8-0.3-1.3c0-0.5,0.1-1,0.3-1.4c0.2-0.4,0.5-0.7,0.9-0.9c0.3-0.2,0.8-0.2,1.3-0.2
		c0.5,0,0.9,0,1.2,0.1c0.3,0.1,0.5,0.2,0.6,0.4c0.2,0.2,0.3,0.5,0.4,0.8l-1.4,0.3c-0.1-0.2-0.2-0.3-0.3-0.4
		c-0.1-0.1-0.3-0.1-0.5-0.1c-0.3,0-0.6,0.1-0.8,0.3c-0.2,0.2-0.3,0.6-0.3,1.1c0,0.5,0.1,0.9,0.3,1.1c0.2,0.2,0.5,0.3,0.8,0.3
		c0.2,0,0.3,0,0.5-0.1c0.1,0,0.3-0.1,0.5-0.2v-0.4H56.1z"/>
	<path style="fill:#FFFFFF;" d="M61.8,28.1c0-0.8,0.2-1.4,0.6-1.8c0.4-0.4,1-0.6,1.8-0.6c0.8,0,1.4,0.2,1.8,0.6
		c0.4,0.4,0.6,1,0.6,1.8c0,0.6-0.1,1-0.3,1.4c-0.2,0.4-0.5,0.6-0.8,0.8c-0.4,0.2-0.8,0.3-1.3,0.3c-0.5,0-1-0.1-1.3-0.3
		c-0.4-0.2-0.6-0.4-0.9-0.8C61.9,29.1,61.8,28.7,61.8,28.1L61.8,28.1z M63.3,28.1c0,0.5,0.1,0.8,0.3,1c0.2,0.2,0.4,0.3,0.7,0.3
		c0.3,0,0.6-0.1,0.7-0.3c0.2-0.2,0.3-0.6,0.3-1.1c0-0.4-0.1-0.8-0.3-1c-0.2-0.2-0.4-0.3-0.7-0.3c-0.3,0-0.5,0.1-0.7,0.3
		C63.3,27.3,63.3,27.6,63.3,28.1z"/>
	<circle style="fill-rule:evenodd;clip-rule:evenodd;fill:#44A9DF;" cx="33" cy="38" r="3.4"/>
	<circle style="fill-rule:evenodd;clip-rule:evenodd;fill:#44A9DF;" cx="41.5" cy="38" r="3.4"/>
	<circle style="fill-rule:evenodd;clip-rule:evenodd;fill:#44A9DF;" cx="50" cy="38" r="3.4"/>
	<circle style="fill-rule:evenodd;clip-rule:evenodd;fill:#44A9DF;" cx="58.5" cy="38" r="3.4"/>
	<circle style="fill-rule:evenodd;clip-rule:evenodd;fill:#44A9DF;" cx="67" cy="38" r="3.4"/>
	<circle style="fill-rule:evenodd;clip-rule:evenodd;fill:#44A9DF;" cx="33" cy="46.7" r="3.4"/>
	<circle style="fill-rule:evenodd;clip-rule:evenodd;fill:#44A9DF;" cx="41.5" cy="46.7" r="3.4"/>
	<circle style="fill-rule:evenodd;clip-rule:evenodd;fill:#44A9DF;" cx="50" cy="46.7" r="3.4"/>
	<circle style="fill-rule:evenodd;clip-rule:evenodd;fill:#44A9DF;" cx="58.5" cy="46.7" r="3.4"/>
	<circle style="fill-rule:evenodd;clip-rule:evenodd;fill:#44A9DF;" cx="67" cy="46.7" r="3.4"/>
	<circle style="fill-rule:evenodd;clip-rule:evenodd;fill:#44A9DF;" cx="33" cy="55.4" r="3.4"/>
	<circle style="fill-rule:evenodd;clip-rule:evenodd;fill:#44A9DF;" cx="41.5" cy="55.4" r="3.4"/>
	<circle style="fill-rule:evenodd;clip-rule:evenodd;fill:#44A9DF;" cx="50" cy="55.4" r="3.4"/>
	<circle style="fill-rule:evenodd;clip-rule:evenodd;fill:#44A9DF;" cx="58.5" cy="55.4" r="3.4"/>
	<circle style="fill-rule:evenodd;clip-rule:evenodd;fill:#44A9DF;" cx="67" cy="55.4" r="3.4"/>
	<circle style="fill-rule:evenodd;clip-rule:evenodd;fill:#44A9DF;" cx="33" cy="63.9" r="3.4"/>
	<circle style="fill-rule:evenodd;clip-rule:evenodd;fill:#44A9DF;" cx="41.5" cy="63.9" r="3.4"/>
	<circle style="fill-rule:evenodd;clip-rule:evenodd;fill:#44A9DF;" cx="50" cy="63.9" r="3.4"/>
	<circle style="fill-rule:evenodd;clip-rule:evenodd;fill:#932580;" cx="58.5" cy="63.9" r="3.4"/>
	<circle style="fill-rule:evenodd;clip-rule:evenodd;fill:#932580;" cx="67" cy="63.9" r="3.4"/>
	<circle style="fill-rule:evenodd;clip-rule:evenodd;fill:#44A9DF;" cx="33" cy="72.6" r="3.4"/>
	<circle style="fill-rule:evenodd;clip-rule:evenodd;fill:#44A9DF;" cx="41.5" cy="72.6" r="3.4"/>
	<circle style="fill-rule:evenodd;clip-rule:evenodd;fill:#44A9DF;" cx="50" cy="72.6" r="3.4"/>
	<circle style="fill-rule:evenodd;clip-rule:evenodd;fill:#932580;" cx="58.5" cy="72.6" r="3.4"/>
	<circle style="fill-rule:evenodd;clip-rule:evenodd;fill:#932580;" cx="67" cy="72.6" r="3.4"/>
</g>
<circle style="fill:#44A9DF;" cx="67" cy="71" r="16.1"/>
<g>
	<g>
		<circle style="fill-rule:evenodd;clip-rule:evenodd;fill:#FFFFFF;" cx="66.8" cy="71.2" r="13.1"/>
	</g>
</g>
<path style="fill-rule:evenodd;clip-rule:evenodd;fill:#44A9DF;" d="M61.6,76.5c-0.7,0.7-1.5,1.5-2.2,2.2c0-2,0-3.9,0-5.9
	c2,0,4,0,6,0c-0.7,0.7-1.5,1.4-2.2,2.2c0.3,0.2,0.6,0.5,0.9,0.6c2.8,1.7,6.4,0.6,7.7-2.4c0.2-0.5,0.6-0.7,1.1-0.7
	c0.5,0,0.9,0.3,1,0.8c0.1,0.3,0.1,0.6-0.1,0.8c-0.4,0.8-0.9,1.6-1.5,2.3c-1.1,1.1-2.4,1.8-3.9,2.1C65.8,79,63.6,78.3,61.6,76.5
	C61.7,76.5,61.7,76.5,61.6,76.5z"/>
<path style="fill-rule:evenodd;clip-rule:evenodd;fill:#44A9DF;" d="M72.3,65.9c0.7-0.7,1.4-1.5,2.1-2.2c0,2,0,3.9,0,5.9
	c-2,0-4,0-5.9,0c0.7-0.7,1.4-1.5,2.1-2.2c-0.2-0.1-0.4-0.3-0.6-0.5c-0.9-0.6-1.9-1-3-1c-2.2,0-3.8,1-4.9,2.9c0,0.1-0.1,0.1-0.1,0.2
	c-0.2,0.6-0.9,0.9-1.5,0.7c-0.6-0.2-0.9-0.9-0.6-1.5c0.6-1.5,1.6-2.6,3-3.4c2.1-1.3,4.3-1.5,6.6-0.6c0.9,0.3,1.7,0.8,2.4,1.5
	C72.1,65.7,72.1,65.8,72.3,65.9C72.2,65.8,72.2,65.8,72.3,65.9C72.2,65.9,72.3,65.9,72.3,65.9z"/>
</svg>
