<?xml version="1.0" encoding="utf-8"?>
<!-- Generator: Adobe Illustrator 19.2.1, SVG Export Plug-In . SVG Version: 6.00 Build 0)  -->
<svg version="1.1" id="Layer_1" xmlns="http://www.w3.org/2000/svg" xmlns:xlink="http://www.w3.org/1999/xlink" x="0px" y="0px"
	 viewBox="0 0 100 100" style="enable-background:new 0 0 100 100;" xml:space="preserve">
<circle style="fill:#9B51A0;" cx="50" cy="50" r="50"/>
<path style="fill:#FFFFFF;" d="M33.2,72.4v6.2c0,1,0.8,1.7,1.7,1.7h24.2c1,0,1.7-0.8,1.7-1.7v-6.1h6.8c2.7,0,4.9-2.2,4.9-4.9V59
	l4-0.1c1.6,0,2.6-1.7,1.8-3.1L74,47.7c-1-1.8-1.5-3.8-1.5-5.9c0-13-10.6-23.5-23.6-23.4C36,18.5,25.6,29.1,25.8,42
	c0,3.7,1,7.3,2.5,10.4C31.5,58.6,33.2,65.4,33.2,72.4L33.2,72.4z"/>
<g>
	<path style="fill:#9B51A0;" d="M32.1,39.6c0.1-0.7,0.2-1.3,0.3-2c0.7-2.8,2.1-5.2,4.4-7c1.8-1.5,3.9-2.5,6.3-2.9
		c2.3-0.4,4.6-0.1,6.8,0.9c3.3,1.6,5.5,4.1,6.5,7.7c0.9,3.3,0.3,6.5-1.9,9.2c-1.6,2-3.7,3.3-6.3,3.7c-3.5,0.5-6.5-0.6-8.8-3.4
		c-1-1.2-1.6-2.7-1.7-4.2c-0.4-4,2-7.6,6-8.4c2.8-0.6,5.5,0.7,6.9,3.2c1,1.9,0.9,4.2-0.4,5.8c-0.9,1.1-2,1.7-3.4,1.8
		c-1.6,0.1-3.1-1-3.6-2.6c-0.3-1.1,0.1-2.2,1-2.8c0.5-0.3,1.6-0.4,2.2,0.1c0.6,0.5,0.5,1.6-0.1,1.9c-0.4,0.2-0.8,0.1-1.1-0.2
		c0,0-0.1-0.2-0.2-0.1c-0.1,0-0.1,0.1-0.1,0.2c0,0.5,0.2,0.8,0.5,1.1c0.5,0.4,1.1,0.5,1.8,0.4c1.6-0.4,2.4-2,2.2-3.5
		c-0.2-1.9-1.9-3.6-4.1-3.7c-2.1-0.1-3.7,0.8-4.8,2.4c-1.4,2-1.4,4.1-0.3,6.3c1.1,2.2,2.9,3.5,5.3,3.9c1.6,0.3,3.1,0,4.5-0.7
		c1.7-0.8,3-2.1,3.9-3.7c0.8-1.5,1.1-3.2,1-4.9c-0.2-2.1-1-3.9-2.3-5.4c-1.5-1.7-3.4-2.8-5.7-3.3c-4.6-0.9-9.1,1.5-11.3,5.2
		c-0.9,1.5-1.5,3.1-1.6,4.9c-0.3,3.6,0.9,6.7,3.3,9.4c1.8,2,4.1,3.3,6.7,3.8c3,0.6,5.9,0.2,8.7-1.2c3.9-2,6.4-5,7.5-9.3
		c0.7-2.8,0.5-5.6-0.4-8.3c-0.9-2.5-2.3-4.6-4.2-6.4c-1.4-1.3-3.1-2.4-4.9-3c-0.3-0.1-0.6-0.3-0.7-0.7c-0.1-0.5,0.1-0.9,0.6-1.1
		c0.2,0,0.4,0,0.5,0c0.2,0.1,0.3,0.1,0.5,0.2c1.2,0.5,2.3,1.1,3.4,1.8c2.2,1.5,4,3.4,5.3,5.8c1.3,2.3,2,4.7,2.2,7.3
		c0.1,1.2,0,2.4-0.2,3.6c-0.6,3.4-2.1,6.2-4.5,8.6c-1.4,1.3-2.9,2.4-4.7,3.2c-2.7,1.2-5.5,1.6-8.4,1.3c-1.7-0.2-3.3-0.7-4.9-1.6
		c-3.7-2-6.1-5.1-7.2-9.1c-0.2-0.8-0.3-1.5-0.4-2.3C32.1,41.1,32.1,40.3,32.1,39.6z"/>
</g>
</svg>
