<?xml version="1.0" encoding="utf-8"?>
<!-- Generator: Adobe Illustrator 21.0.2, SVG Export Plug-In . SVG Version: 6.00 Build 0)  -->
<svg version="1.1" id="Layer_1" xmlns="http://www.w3.org/2000/svg" xmlns:xlink="http://www.w3.org/1999/xlink" x="0px" y="0px"
	 viewBox="0 0 90 90" style="enable-background:new 0 0 90 90;" xml:space="preserve">
<style type="text/css">
	.st0{fill:#00AFF0;}
</style>
<path class="st0" d="M71.7,14.5h-16C54.2,10,50,6.8,45,6.8s-9.2,3.2-10.8,7.6h-16c-4.2,0-7.6,3.4-7.6,7.6v53.4
	c0,4.2,3.4,7.6,7.6,7.6h53.4c4.2,0,7.6-3.4,7.6-7.6V22.1C79.4,17.9,75.9,14.5,71.7,14.5z M45,14.5c2.1,0,3.8,1.7,3.8,3.8
	s-1.7,3.8-3.8,3.8s-3.8-1.7-3.8-3.8S42.9,14.5,45,14.5z M52.6,67.9H25.9v-7.6h26.7V67.9z M64.1,52.6H25.9V45h38.2V52.6z M64.1,37.4
	H25.9v-7.6h38.2V37.4z"/>
</svg>
