<?xml version="1.0" encoding="utf-8"?>
<!-- Generator: Adobe Illustrator 21.0.2, SVG Export Plug-In . SVG Version: 6.00 Build 0)  -->
<svg version="1.1" id="Layer_1" xmlns="http://www.w3.org/2000/svg" xmlns:xlink="http://www.w3.org/1999/xlink" x="0px" y="0px"
	 viewBox="0 0 90 90" style="enable-background:new 0 0 90 90;" xml:space="preserve">
<style type="text/css">
	.st0{fill:#EE1F79;}
</style>
<g>
	<path class="st0" d="M81.9,42.2c0-6.4-5.2-11.6-11.6-11.6c-6.4,0-11.6,5.2-11.6,11.6c0,5.8,4.2,10.5,9.7,11.4v12.2
		c0,9.5-7.7,17.2-17.2,17.2c-9.5,0-17.2-7.7-17.2-17.2l0-14c4.5-0.6,8.9-3.2,12.8-7.8c0.6-0.7,0.8-1.5,0.7-2.3
		c5.1-6.8,8.3-16,8.3-23.1c0-11-4.9-12.1-13-13.9l0,0C42.1,3.7,41,3,39.8,3c-1.7,0-3.1,1.4-3.1,3.1c0,1.7,1.4,3.1,3.1,3.1
		c0.7,0,1.3-0.3,1.8-0.7l0.1,0c7.9,1.8,10,2.3,10,10.2c0,6.2-3,14.6-7.5,20.6c-0.7,0-1.5,0.4-2,1c-2.3,2.7-6,5.9-10.3,5.9
		c-4.4,0-8-3.2-10.3-5.8c-0.6-0.6-1.3-1-2-1C15,33.3,12,24.9,12,18.7c0-7.9,2.1-8.4,10-10.2l0,0c0.5,0.4,1.1,0.7,1.9,0.7
		c1.7,0,3.1-1.4,3.1-3.1C27,4.4,25.6,3,23.9,3c-1.2,0-2.2,0.7-2.8,1.7h0c-8.1,1.9-13,3-13,14c0,7.1,3.2,16.4,8.4,23.2
		c-0.1,0.8,0.1,1.7,0.6,2.3c3.9,4.5,8.3,7.1,12.8,7.7l0,14c0,11.7,9.5,21.1,21.1,21.1c11.6,0,21.1-9.5,21.1-21.1V53.7
		C77.7,52.7,81.9,48,81.9,42.2L81.9,42.2z M70.3,50c-4.3,0-7.8-3.5-7.8-7.8c0-4.3,3.5-7.8,7.8-7.8c4.3,0,7.7,3.5,7.7,7.8
		C78,46.5,74.5,50,70.3,50L70.3,50z M70.3,50"/>
	<path class="st0" d="M70.3,36.4c-3.2,0-5.8,2.6-5.8,5.8c0,3.2,2.6,5.8,5.8,5.8c3.2,0,5.8-2.6,5.8-5.8C76.1,39,73.5,36.4,70.3,36.4
		L70.3,36.4z M70.3,36.4"/>
</g>
</svg>
