<?xml version="1.0" encoding="utf-8"?>
<!-- Generator: Adobe Illustrator 19.2.1, SVG Export Plug-In . SVG Version: 6.00 Build 0)  -->
<svg version="1.1" id="Layer_1" xmlns="http://www.w3.org/2000/svg" xmlns:xlink="http://www.w3.org/1999/xlink" x="0px" y="0px"
	 viewBox="0 0 100 100" style="enable-background:new 0 0 100 100;" xml:space="preserve">
<circle style="fill:#8BC53F;" cx="50" cy="50" r="50"/>
<path style="fill:#FFFFFF;" d="M75.8,53c-0.7,0-1.3,0.2-1.9,0.5l-18,10.7l-5.3,19.7l0.1,0l0,0.1l11.6,3.1l2.3-8.5l16-12.5
	c0.6-0.5,1.1-1.1,1.4-1.9l6.4-24c0.5-1.9-0.6-3.8-2.5-4.3c-1.9-0.5-3.8,0.6-4.3,2.5l-3.7,13.9c0.8,0.4,1.5,1,1.9,1.7
	c1.3,2.3,0.6,5.2-1.6,6.5l-8.2,4.9l-0.6-1.1l8.2-4.9c1.6-1,2.2-3.1,1.2-4.8c-0.3-0.5-0.7-0.9-1.2-1.2C76.9,53.2,76.3,53,75.8,53
	L75.8,53z"/>
<path style="fill:#FFFFFF;" d="M26.1,52.4c-0.6,0-1.2,0.1-1.7,0.4c-0.5,0.2-1,0.6-1.3,1.1c-1.1,1.6-0.8,3.8,0.8,4.9l7.8,5.6l-0.7,1
	l-7.8-5.6c-2.1-1.5-2.6-4.5-1.1-6.6c0.5-0.7,1.3-1.2,2.1-1.6l-2.5-14.1c-0.3-1.9-2.2-3.2-4.1-2.9c-1.9,0.3-3.2,2.2-2.9,4.1L19,63.1
	c0.1,0.8,0.6,1.5,1.2,2l14.9,13.8l1.5,8.7l11.8-2.1l0-0.1l0.1,0L45,65.3L27.9,53C27.4,52.7,26.8,52.4,26.1,52.4L26.1,52.4z"/>
<path style="fill:#FFFFFF;" d="M49.8,58.4"/>
<g id="svg1_copy_3_2_" inkscape:output_extension="org.inkscape.output.svg.inkscape" inkscape:version="0.46" sodipodi:docbase="C:\Documents and Settings\Jon Phillips\My Documents\projects\clipart-project\submissions" sodipodi:docname="heart_jon_phillips_01.svg" sodipodi:version="0.32" xmlns:cc="http://creativecommons.org/ns#" xmlns:dc="http://purl.org/dc/elements/1.1/" xmlns:inkscape="http://www.inkscape.org/namespaces/inkscape" xmlns:rdf="http://www.w3.org/1999/02/22-rdf-syntax-ns#" xmlns:sodipodi="http://sodipodi.sourceforge.net/DTD/sodipodi-0.dtd" xmlns:svg="http://www.w3.org/2000/svg">
	<defs>
		
		
			<inkscape:perspective  id="perspective9" inkscape:persp3d-origin="372.04724 : 350.78739 : 1" inkscape:vp_x="0 : 526.18109 : 1" inkscape:vp_y="0 : 1000 : 0" inkscape:vp_z="744.09448 : 526.18109 : 1" sodipodi:type="inkscape:persp3d">
			</inkscape:perspective>
	</defs>
	
		<sodipodi:namedview  bordercolor="#666666" borderopacity="1.0" id="base" inkscape:current-layer="layer1" inkscape:cx="549.40674" inkscape:cy="596.00159" inkscape:document-units="px" inkscape:guide-bbox="true" inkscape:pageopacity="0.0" inkscape:pageshadow="2" inkscape:window-height="667" inkscape:window-width="866" inkscape:window-x="88" inkscape:window-y="116" inkscape:zoom="0.35" pagecolor="#ffffff" showgrid="false" showguides="true">
		</sodipodi:namedview>
	<g id="layer1_3_" transform="translate(-134.06575,-225.79588)" inkscape:groupmode="layer" inkscape:label="Layer 1">
		<path id="path7_3_" sodipodi:nodetypes="ccccccc" style="fill:#FFFFFF;" d="M174.2,241.7c-6.4,0-11.6,5.2-11.6,11.6
			c0,13,13.1,16.4,22,29.2c8.5-12.8,22-16.7,22-29.2c0-6.4-5.2-11.6-11.6-11.6c-4.6,0-8.6,2.7-10.5,6.7
			C182.8,244.4,178.9,241.7,174.2,241.7z"/>
	</g>
</g>
</svg>
