<?xml version="1.0" encoding="utf-8"?>
<!-- Generator: Adobe Illustrator 19.2.1, SVG Export Plug-In . SVG Version: 6.00 Build 0)  -->
<svg version="1.1" id="Layer_1" xmlns="http://www.w3.org/2000/svg" xmlns:xlink="http://www.w3.org/1999/xlink" x="0px" y="0px"
	 viewBox="0 0 100 100" style="enable-background:new 0 0 100 100;" xml:space="preserve">
<circle style="fill:#00ADEE;" cx="50" cy="50" r="50"/>
<g>
	<g>
		<path style="fill-rule:evenodd;clip-rule:evenodd;fill:#FFFFFF;" d="M53.4,71.5c-1.1,1.2-2.4,2-3.1,1.8c-0.6-0.2-0.9-0.9-0.8-1.5
			l8.7-28.8c0.7-3.7-1.2-7-5.4-7.4c-4.4,0-10.8,4.7-14.8,10.6c0,0.7-0.1,2.5,0,3.5l5.2-6.3c1.1-1.2,2.3-2,3-1.8c0.6,0.2,1,1,0.8,1.7
			l-8.7,28.7c-1,3.4,0.9,6.6,5.5,7.4c6.7,0,10.7-4.6,14.7-10.5c0-0.7,0.2-2.6,0.1-3.6L53.4,71.5z M57.4,19.4c-3.3,0-6,2.4-6,6
			c0,3.6,2.7,6,6,6c3.3,0,6-2.4,6-6C63.4,21.8,60.7,19.4,57.4,19.4z"/>
	</g>
</g>
</svg>
