<?xml version="1.0" encoding="utf-8"?>
<!-- Generator: Adobe Illustrator 19.2.1, SVG Export Plug-In . SVG Version: 6.00 Build 0)  -->
<svg version="1.1" id="Layer_1" xmlns="http://www.w3.org/2000/svg" xmlns:xlink="http://www.w3.org/1999/xlink" x="0px" y="0px"
	 viewBox="0 0 100 100" style="enable-background:new 0 0 100 100;" xml:space="preserve">
<circle style="fill:#EF4123;" cx="50" cy="50" r="50"/>
<path style="fill:#FFFFFF;" d="M57.2,22.1c0,3.7-3,6.7-6.7,6.7c-3.7,0-6.7-3-6.7-6.7c0-3.7,3-6.7,6.7-6.7
	C54.2,15.4,57.2,18.4,57.2,22.1L57.2,22.1z M57.2,22.1"/>
<path style="fill:#FFFFFF;" d="M78.8,47.3c-0.6-4.1-1.3-7.6-4.2-10.8c-3.7-4.2-9.8-6.2-15.1-7.7l0,0c-3.8-1-8.7,1.5-8.8,1.6
	c-0.1,0-1.3,0.6-2.1,1.7c-0.2,0.2-0.4,0.4-0.6,0.6c-6.5,8.1-5,17.5-0.5,26.2c0.8,1.5,2.1,1.9,3.3,1.6c-1.2,5.5-2.3,12.1-2.1,16.7
	c0.3,5.8,9.3,5.8,9.1,0c-0.3-7.3,0.6-14.3,3-21.1c0.4,0.2,0.9,0.3,1.3,0.5c0.4,7.6,1.6,15.2,3.8,22.5c1.7,5.6,10.4,3.2,8.7-2.4
	c-2.5-8.4-3.6-16.9-3.7-25.7c0-0.7-0.4-2.6-0.5-3c-0.5-2.1-1.1-4.2-1.9-6.1l-2.5-3.6c1.2,0.6,2.3,1.4,3.3,2.3
	c2.5,2.2,2.6,5.4,3.1,8.5C73.1,53.3,79.5,51.5,78.8,47.3L78.8,47.3z M52.5,54c-2.1-4.5-3.3-9.5-1.3-14c0.3,0.3,0.6,0.7,0.8,1
	c1.5,2.5,1.5,9,1.5,9S53.1,51.6,52.5,54L52.5,54z M52.5,54"/>
<g id="mEzZy2.tif">
	<g>
		<path style="fill:#FFFFFF;" d="M48.2,66.4c-0.2,0.3-0.4,0.5-0.7,0.8c-1.6,1.8-3.1,3.6-4.7,5.4c-0.8,1-1.7,1.9-2.5,2.9
			c-0.1,0.1-0.1,0.2,0,0.3c1,0.7,2,1.4,3.1,2.1c0.2,0.1,0.2,0.1,0,0.3c-2.6,1.3-5.2,2.6-7.8,3.9c-1.9,0.9-3.7,1.9-5.6,2.8
			c-0.1,0-0.1,0.1-0.2,0.1c0-0.1,0-0.1,0-0.1c2.6-2.2,5.1-4.4,7.7-6.6c0,0,0,0,0.1-0.1c0.2-0.2,0.2-0.2,0-0.3c-1-0.7-2-1.4-3.1-2.1
			c-0.2-0.1-0.2-0.1,0-0.3c4.5-3,9-6,13.5-9C48.1,66.4,48.1,66.4,48.2,66.4C48.2,66.4,48.2,66.4,48.2,66.4z"/>
	</g>
</g>
<g id="mEzZy2.tif_1_">
	<g>
		<path style="fill:#FFFFFF;" d="M41.9,63.4c-0.3,0.1-0.6,0.2-1,0.2c-2.3,0.6-4.6,1.2-6.9,1.8c-1.2,0.3-2.5,0.6-3.7,0.9
			c-0.2,0-0.2,0.1-0.1,0.3c0.5,1.1,0.9,2.3,1.4,3.4c0.1,0.2,0.1,0.2-0.2,0.2c-2.9-0.4-5.8-0.8-8.7-1.2c-2.1-0.3-4.1-0.6-6.2-0.9
			c-0.1,0-0.1,0-0.2,0c0-0.1,0.1-0.1,0.1-0.1c3.4-0.3,6.7-0.7,10.1-1c0,0,0.1,0,0.1,0c0.2,0,0.2,0,0.2-0.3c-0.5-1.1-0.9-2.3-1.4-3.4
			C25.2,63,25.2,63,25.5,63c5.4,0.1,10.8,0.2,16.3,0.3C41.8,63.3,41.8,63.3,41.9,63.4C41.9,63.3,41.9,63.3,41.9,63.4z"/>
	</g>
</g>
<g id="mEzZy2.tif_2_">
	<g>
		<path style="fill:#FFFFFF;" d="M42.6,57.8c-0.3-0.1-0.6-0.2-1-0.3c-2.3-0.7-4.6-1.4-6.8-2.1c-1.2-0.4-2.4-0.8-3.7-1.1
			c-0.2-0.1-0.2,0-0.2,0.2c-0.2,1.2-0.4,2.4-0.6,3.6c0,0.2,0,0.2-0.2,0.1c-2.2-1.9-4.5-3.7-6.7-5.6c-1.6-1.3-3.2-2.7-4.8-4
			c-0.1,0-0.1-0.1-0.2-0.1c0.1-0.1,0.1,0,0.1,0c3.1,1.5,6.1,2.9,9.2,4.4c0,0,0,0,0.1,0c0.2,0.1,0.2,0.1,0.3-0.1
			c0.2-1.2,0.4-2.4,0.6-3.6c0-0.2,0-0.2,0.2-0.1c4.6,2.9,9.2,5.8,13.7,8.7C42.6,57.7,42.6,57.7,42.6,57.8
			C42.6,57.8,42.6,57.8,42.6,57.8z"/>
	</g>
</g>
</svg>
