<?xml version="1.0" encoding="utf-8"?>
<!-- Generator: Adobe Illustrator 19.2.1, SVG Export Plug-In . SVG Version: 6.00 Build 0)  -->
<svg version="1.1" id="Layer_1" xmlns="http://www.w3.org/2000/svg" xmlns:xlink="http://www.w3.org/1999/xlink" x="0px" y="0px"
	 viewBox="0 0 100 100" style="enable-background:new 0 0 100 100;" xml:space="preserve">
<circle style="fill:#FFFFFF;" cx="50" cy="50" r="46.1"/>
<g>
	<path style="fill:#1C75BC;" d="M47.3,0c1.8,0,3.6,0,5.3,0c0.1,0,0.1,0,0.2,0c1.2,0,2.5,0.2,3.7,0.3c1.9,0.2,3.8,0.6,5.6,1.1
		c2.1,0.5,4.2,1.2,6.3,2c2.3,0.9,4.5,2,6.7,3.2c1.9,1.1,3.7,2.3,5.5,3.7c1.3,1,2.6,2.1,3.9,3.3c1.3,1.3,2.6,2.6,3.8,4.1
		c1.1,1.3,2.1,2.7,3.1,4.1c1.5,2.2,2.8,4.5,4,7c0.7,1.6,1.4,3.2,2,4.9c1,2.9,1.7,5.8,2.1,8.9c0.2,1.7,0.4,3.3,0.5,5
		c0.1,1.8,0.1,3.5,0,5.3c-0.1,1.2-0.2,2.4-0.3,3.7c-0.2,1.9-0.6,3.8-1.1,5.6c-0.5,2.1-1.2,4.2-2,6.3c-0.9,2.3-2,4.5-3.2,6.7
		c-1.1,1.9-2.3,3.7-3.7,5.5c-1,1.3-2.1,2.6-3.3,3.9c-1.3,1.4-2.7,2.6-4.1,3.8c-1.3,1.1-2.7,2.1-4.1,3.1c-2.2,1.5-4.5,2.8-7,4
		c-1.6,0.7-3.2,1.4-4.9,2c-2.9,1-5.8,1.7-8.9,2.1c-1.7,0.2-3.3,0.4-5,0.5c-1.8,0.1-3.5,0.1-5.3,0c-1.2-0.1-2.4-0.2-3.7-0.3
		c-1.9-0.2-3.8-0.6-5.6-1.1c-2.1-0.5-4.2-1.2-6.3-2c-2.3-0.9-4.5-2-6.7-3.2c-1.9-1.1-3.8-2.4-5.5-3.7c-1.4-1.1-2.7-2.2-3.9-3.4
		c-1.3-1.3-2.6-2.6-3.8-4c-1.1-1.3-2.1-2.7-3.1-4.1c-1.5-2.2-2.8-4.5-4-7c-0.7-1.6-1.4-3.2-2-4.9c-0.7-2-1.2-3.9-1.6-6
		c-0.4-2.1-0.7-4.2-0.9-6.4c0-0.4,0-0.9-0.1-1.3c0-1.8,0-3.6,0-5.3c0-0.1,0-0.2,0-0.2c0-1.2,0.2-2.4,0.3-3.7
		c0.2-1.9,0.6-3.8,1.1-5.6c0.5-2.1,1.2-4.2,2-6.3c0.9-2.3,2-4.5,3.2-6.7c1.1-1.9,2.3-3.7,3.7-5.5c1-1.3,2.1-2.6,3.3-3.9
		c1.3-1.3,2.6-2.6,4.1-3.8c1.3-1.1,2.7-2.1,4.1-3.1c2.2-1.5,4.5-2.8,7-4c1.6-0.7,3.2-1.4,4.9-2c2-0.7,3.9-1.2,6-1.6
		c2.1-0.4,4.2-0.7,6.4-0.9C46.5,0.1,46.9,0.1,47.3,0z M54.1,87.8c4,0,7.9,0,11.9,0c1.1,0,2-0.9,1.9-1.9c-0.1-1.7,0-3.5,0-5.2
		c0-0.6,0-0.6,0.7-0.6c2.1,0,4.1,0,6.2,0c2.6,0,4.8-2.2,4.8-4.8c0-2.7,0-5.5,0-8.2c0-0.5,0-0.5,0.5-0.5c1.1,0,2.3-0.1,3.4,0
		c1.5,0,2.7-1.7,1.9-3.1c-0.1-0.1-0.1-0.3-0.2-0.4c-1.4-2.7-2.9-5.4-4.3-8.2c-0.8-1.6-1.2-3.4-1.2-5.2c0-1.1-0.1-2.2-0.2-3.3
		c-0.4-3.1-1.4-6-3-8.6c-1.2-2.1-2.8-3.9-4.6-5.6c0,0-0.1-0.1-0.1-0.1c-0.1,0-0.1-0.1-0.2,0c-0.1,0.1-0.1,0.1,0,0.2
		c0.1,0.2,0.2,0.4,0.3,0.5c0.3,0.3,0.6,0.5,0.9,0.8c0.5,0.5,0.6,1,0.2,1.6c-0.5,0.9-1.2,1.3-2.2,1.4c-0.9,0.1-1.2-0.2-1.5-1
		c-0.1-0.3-0.2-0.7-0.3-1.1c-0.2-0.7-0.6-0.9-1.3-0.6c-0.8,0.4-1.4,0.9-2,1.5c-0.2,0.2-0.4,0.3-0.6,0c-0.7-0.7-1.3-1.4-1.7-2.3
		c-0.4-1.1,0-1.5,0.9-1.8c0.1,0,0.2,0,0.3-0.1c0.3-0.1,0.6-0.2,0.9-0.3c0.5-0.2,0.6-0.5,0.5-1c-0.2-0.8-0.6-1.5-1.4-1.9
		c-0.2-0.1-0.4-0.1-0.6,0c-0.3,0.3-0.6,0.6-0.9,0.9c-0.6,0.7-1.3,0.9-2,0.4c-0.2-0.2-0.3-0.4-0.5-0.6c-0.4-0.6-0.6-1.2-0.8-1.9
		c0-0.1-0.1-0.3-0.3-0.2c-0.8,0.3-1.6,0.5-2.2,1.1c-0.5,0.5-0.5,0.8,0,1.2c0.3,0.3,0.6,0.5,0.8,0.8c0.6,0.6,0.6,1.2,0.1,1.9
		c-0.5,0.6-1.1,1-1.8,1.1c-1,0.2-1.4-0.1-1.7-1.1c-0.1-0.4-0.2-0.7-0.3-1.1c-0.2-0.6-0.6-0.7-1.1-0.5c-0.6,0.2-1.2,0.7-1.6,1.1
		c-0.6,0.6-0.6,0.4,0,1c0,0,0.1,0.1,0.1,0.1c0.5,0.6,1,1.2,1.2,2c0.1,0.6-0.1,1-0.6,1.2c-0.2,0.1-0.4,0.2-0.7,0.2
		c-0.3,0.1-0.6,0.1-0.9,0.3c-0.5,0.2-0.6,0.5-0.6,1c0.1,0.7,0.5,1.2,1,1.6c0.5,0.4,0.7,0.4,1.2,0c0.4-0.3,0.6-0.7,1-1
		c0.5-0.5,1.2-0.5,1.7,0c0.8,0.8,1.1,1.8,1.4,2.9c0.1,0.2-0.1,0.3-0.2,0.3c-0.3,0.1-0.5,0.2-0.8,0.3c-0.6,0.2-1.2,0.5-1.7,0.9
		c-0.5,0.5-0.5,0.7-0.1,1.2c0.3,0.3,0.6,0.6,0.9,0.9c0.5,0.5,0.5,1,0.2,1.6c-0.4,0.7-1.1,1.2-1.9,1.3c-1,0.1-1.5,0.2-1.8-1.2
		c-0.1-0.3-0.2-0.7-0.3-1c-0.2-0.5-0.5-0.7-1.1-0.5c-0.6,0.2-1.1,0.6-1.6,1.1c-0.6,0.5-1.1,1.2-1.7,1.7c-0.6,0.4-1.1,0.9-1.9,1
		c-0.5,0.1-0.9-0.1-1.2-0.6c-0.1-0.3-0.2-0.6-0.3-0.9c-0.1-0.3-0.1-0.5-0.3-0.8c-0.2-0.4-0.5-0.6-1-0.5c-0.6,0.1-1.1,0.3-1.4,0.7
		c-0.7,0.8-0.7,1.1,0,1.7c0.2,0.2,0.5,0.4,0.7,0.7c0.7,0.7,0.6,1.5-0.2,2.1c-0.1,0.1-0.2,0.2-0.4,0.2c-0.5,0.4-1.2,0.6-1.8,0.8
		c-0.2,0.1-0.4,0.1-0.3,0.3c0.3,0.8,0.6,1.7,1.2,2.3c0.4,0.4,0.7,0.4,1.1,0c0.3-0.3,0.5-0.6,0.8-0.8c0.5-0.6,1.1-0.7,1.8-0.3
		c0.9,0.5,1.3,1.3,1.3,2.4c0,0.7-0.2,1-0.9,1.2c-0.4,0.1-0.8,0.2-1.2,0.3c-0.7,0.2-0.9,0.7-0.6,1.3c0.3,0.6,0.7,1.1,1.2,1.6
		c0.7,0.7,0.7,0.6,0,1.3c-0.5,0.5-1.1,1-1.8,1.3c-1,0.3-1.6,0.2-1.9-0.8c-0.1-0.4-0.2-0.7-0.3-1.1c-0.2-0.6-0.6-0.9-1.2-0.7
		c-0.5,0.1-0.9,0.3-1.3,0.7c-0.7,0.7-0.8,1.1,0.1,1.8c0.3,0.2,0.5,0.5,0.7,0.7c0.3,0.4,0.4,1,0.1,1.4c-0.1,0.2-0.1,0.4-0.1,0.6
		c0.3,1,0.7,2,0.9,3c1,3.6,1.5,7.2,1.6,11c0,2.2,0,4.4,0,6.6c0,1.3,0.7,2,2,2C46.2,87.8,50.2,87.8,54.1,87.8z M19.9,42.4
		c0-0.3,0-0.4,0-0.6c0,0,0,0,0-0.1c0-0.4-0.1-0.4-0.5-0.4c-0.9,0.1-1.7,0-2.5-0.3c-0.8-0.3-0.9-0.7-0.6-1.5c0.2-0.4,0.4-0.8,0.5-1.1
		c0.3-0.6,0.2-1-0.3-1.4c-0.7-0.5-1.5-0.7-2.4-0.4c-0.5,0.2-0.7,0.4-0.7,0.9c0,0.4,0.1,0.8,0.1,1.2c0.1,0.8-0.3,1.3-1.1,1.3
		c-0.1,0-0.2,0-0.4,0c-0.8-0.1-1.5-0.4-2.2-0.6c-0.4-0.2-0.4-0.1-0.5,0.3c-0.3,1.5-0.6,3-0.8,4.5c-0.3,1.6-0.6,3.2-0.9,4.8
		c-0.1,0.4-0.1,0.4,0.4,0.4c0.7,0,1.4,0,2,0.1c1.3,0.3,1.6,1,0.9,2.1c-0.2,0.3-0.3,0.6-0.4,1c-0.1,0.3,0,0.6,0.2,0.8
		c0.7,0.7,1.5,0.9,2.5,0.7c0.6-0.1,0.8-0.4,0.8-1.1c0-0.5-0.1-1-0.1-1.5c0-0.5,0.2-0.8,0.8-0.9c0.3-0.1,0.6-0.1,0.8,0
		c0.7,0.1,1.4,0.4,2.1,0.7c0.2,0.1,0.3,0.1,0.4-0.1c0.4-0.8,0.8-1.7,0.7-2.6c0-0.6-0.3-1-1-1c-0.4,0-0.9,0-1.3,0.1
		c-0.6,0.1-1-0.2-1.2-0.7c-0.3-0.7-0.2-1.4,0.2-2.1c0.4-0.9,1-1,1.8-0.6c0.3,0.2,0.7,0.3,1,0.5c0.6,0.3,1,0.1,1.3-0.4
		c0.1-0.2,0.2-0.4,0.2-0.6C19.9,43.3,20,42.8,19.9,42.4z M30.4,14.7c0,0.9-0.2,1.2-0.8,1.3c-0.2,0-0.4,0.1-0.6,0.1
		c-0.3,0-0.6,0-0.9,0.1c-0.6,0.1-0.9,0.4-0.9,1c-0.1,0.7,0.2,1.3,0.6,1.9c0.5,0.6,1,0.7,1.6,0.3c0.4-0.3,0.8-0.6,1.2-0.8
		c0.5-0.2,0.9-0.1,1.2,0.3c0.1,0.2,0.3,0.4,0.3,0.6c0.3,0.7,0.4,1.4,0.4,2.2c0,0.2,0,0.3,0.2,0.3c0.9-0.1,1.8-0.2,2.6-0.6
		c0.7-0.4,0.8-0.8,0.4-1.5c-0.2-0.3-0.5-0.7-0.7-1c-0.4-0.6-0.3-1,0.2-1.5c0.5-0.6,1.2-0.8,2-0.8c0.7,0,1.2,0.2,1.3,1.1
		c0,0.3,0,0.7,0,1c0,1,0.6,1.4,1.5,1.1c0.7-0.2,1.4-0.6,2-1c0.2-0.2,0.3-0.3,0.1-0.5c-0.5-0.7-0.9-1.5-1-2.3
		c-0.1-0.8,0.1-1.1,0.9-1.3c0.5-0.1,1,0,1.5-0.1c0.5-0.1,0.8-0.3,0.9-0.8c0.2-0.8-0.1-1.5-0.6-2.1c-0.6-0.7-0.9-0.7-1.7-0.2
		c-0.2,0.2-0.5,0.3-0.7,0.5c-0.8,0.5-1.5,0.3-1.9-0.6c-0.3-0.7-0.4-1.4-0.5-2.1c0-0.5,0-0.5-0.5-0.3c-2.3,0.8-4.5,1.5-6.8,2.3
		c-0.7,0.2-1.4,0.5-2.1,0.7c-0.4,0.1-0.4,0.1-0.2,0.5c0.1,0.2,0.2,0.4,0.3,0.6C30.1,13.6,30.4,14.2,30.4,14.7z M22.8,21.3
		c-0.6,0-1.3,0.3-1.8,0.7c-0.5,0.5-0.6,0.9-0.2,1.5c0.2,0.3,0.5,0.6,0.7,1c0.4,0.7,0.3,1.2-0.4,1.6c-0.6,0.3-1.3,0.5-1.9,0.6
		c-0.9,0.1-0.9,0.1-0.8,1c0.1,0.7,0.3,1.5,0.7,2.1c0.3,0.4,0.7,0.5,1.1,0.3c0.2-0.1,0.3-0.2,0.5-0.3c0.3-0.2,0.5-0.4,0.8-0.6
		c0.6-0.4,1.1-0.3,1.5,0.2c0.6,0.6,0.8,1.3,0.8,2.1c0,0.6-0.3,0.9-0.9,1c-0.5,0.1-0.9,0.1-1.4,0.1c-0.7,0.1-1,0.6-0.9,1.2
		c0.2,0.9,0.6,1.6,1.1,2.3c0.1,0.2,0.3,0.2,0.5,0.1c0.2-0.1,0.4-0.2,0.5-0.3c0.6-0.4,1.3-0.7,2-0.8c0.7-0.1,1,0.2,1.1,0.9
		c0.1,0.5,0.1,0.9,0.1,1.4c0.1,0.5,0.3,0.8,0.8,0.9c0.8,0.2,1.5-0.1,2.1-0.6c0.8-0.7,0.7-1,0.2-1.7c-0.1-0.2-0.3-0.4-0.4-0.5
		c-0.1-0.2-0.3-0.4-0.4-0.6c-0.2-0.5-0.1-0.9,0.3-1.2c0.3-0.2,0.7-0.4,1.1-0.5c0.5-0.1,1-0.2,1.6-0.3c0.2,0,0.4,0,0.4-0.3
		c-0.1-0.9-0.2-1.8-0.7-2.6c-0.4-0.6-0.9-0.7-1.5-0.3c-0.3,0.2-0.7,0.5-1,0.7c-0.6,0.4-1,0.3-1.5-0.2c-0.5-0.5-0.7-1.1-0.8-1.9
		c0-0.9,0.4-1.3,1.3-1.4c0.4,0,0.9,0,1.3-0.1c0.4-0.1,0.6-0.4,0.7-0.8c0-0.2,0-0.5-0.1-0.7c-0.2-0.7-0.5-1.2-0.9-1.8
		c-0.3-0.4-0.3-0.4-0.7-0.1c-0.7,0.5-1.5,0.9-2.3,1c-0.7,0.1-1.1-0.2-1.2-0.9c0-0.3-0.1-0.7-0.1-1C24.1,21.7,23.7,21.3,22.8,21.3z
		 M35.9,36.7c0,0,0,0.1,0,0.2c0.2,0.9,0.7,1.7,1.3,2.4c0.1,0.1,0.2,0.1,0.4,0c0.3-0.2,0.6-0.4,0.9-0.6c0.6-0.3,1.2-0.7,1.9-0.7
		c0.4,0,0.7,0.2,0.8,0.6c0.1,0.2,0.1,0.4,0.1,0.6c0.1,0.4,0.1,0.8,0.2,1.1c0.1,0.4,0.4,0.7,0.9,0.7c0.9,0.1,1.6-0.3,2.2-0.9
		c0.4-0.5,0.4-0.9,0.1-1.4c-0.3-0.4-0.6-0.7-0.9-1.1c-0.3-0.5-0.3-1,0.1-1.3c0.2-0.2,0.4-0.3,0.7-0.5c0.7-0.3,1.3-0.5,2-0.6
		c0.2,0,0.3-0.1,0.3-0.3c-0.1-0.9-0.3-1.7-0.8-2.5c-0.4-0.7-0.9-0.7-1.6-0.3c-0.4,0.3-0.7,0.6-1.1,0.9c-0.4,0.2-0.8,0.2-1.2-0.1
		c-0.6-0.5-1-1.1-1-1.9c-0.1-0.9,0.2-1.3,1-1.4c0.4-0.1,0.9-0.1,1.3-0.2c0.7-0.2,0.9-0.6,0.8-1.3c0-0.2-0.1-0.3-0.2-0.5
		c-0.3-0.6-0.6-1.1-1-1.7c-0.3-0.4-0.3-0.4-0.6-0.1c-0.6,0.5-1.3,0.9-2.1,1.1c-0.9,0.3-1.4,0-1.6-1c-0.1-0.4-0.1-0.8-0.2-1.2
		c-0.1-0.4-0.4-0.7-0.8-0.8c-0.7-0.1-1.3,0.1-1.8,0.5c-0.9,0.6-1,1.2-0.3,2c0.3,0.3,0.6,0.6,0.8,1c0.2,0.4,0.1,0.8-0.2,1.2
		c-0.2,0.2-0.5,0.4-0.8,0.5c-0.6,0.2-1.2,0.4-1.8,0.5c-0.2,0-0.5,0.1-0.4,0.4c0.2,0.8,0.3,1.6,0.8,2.4c0.5,0.7,1,0.8,1.7,0.3
		c0.3-0.2,0.6-0.5,0.9-0.7c0.5-0.4,1-0.4,1.5,0c0.5,0.4,0.9,1,0.9,1.7c0.1,1.1-0.1,1.4-1.3,1.6c-0.4,0.1-0.7,0.1-1.1,0.2
		C36.1,35.9,35.9,36.2,35.9,36.7z M28.7,49.6c0.1-0.9,0.6-1.5,1.3-1.9c1-0.5,1.5-0.4,2,0.6c0.2,0.3,0.3,0.6,0.5,0.9
		c0.3,0.5,0.7,0.6,1.2,0.3c0.1-0.1,0.3-0.2,0.4-0.3c0.6-0.5,1-1.1,1.5-1.7c0.2-0.3,0.1-0.4-0.1-0.6c-0.7-0.4-1.3-0.9-1.8-1.5
		c-0.5-0.7-0.5-1.4,0.4-1.9c0.4-0.2,0.7-0.3,1-0.6c0.5-0.3,0.6-0.7,0.4-1.2c-0.2-0.7-0.7-1.2-1.3-1.5c-0.8-0.4-1.2-0.3-1.7,0.4
		c-0.2,0.3-0.4,0.7-0.6,1c-0.3,0.5-0.8,0.6-1.4,0.3c-0.3-0.2-0.6-0.4-0.8-0.7c-0.4-0.5-0.7-1-1-1.5c-0.1-0.1-0.2-0.3-0.3-0.2
		c-0.8,0.5-1.6,0.9-2.2,1.7c-0.4,0.6-0.3,1,0.3,1.4c0.4,0.2,0.7,0.4,1.1,0.7c0.5,0.4,0.7,0.7,0.5,1.3c-0.3,0.8-0.8,1.4-1.6,1.7
		c-0.7,0.3-1.1,0.1-1.5-0.6c-0.1-0.3-0.3-0.5-0.4-0.8c-0.5-1-1.1-1.1-1.9-0.4c0,0,0,0,0,0c-0.5,0.5-1,1.1-1.4,1.7
		c-0.1,0.2-0.1,0.3,0.1,0.4c0.3,0.2,0.7,0.5,1,0.7c0.4,0.3,0.7,0.6,1,1c0.4,0.6,0.3,1.2-0.3,1.6c-0.3,0.2-0.5,0.3-0.8,0.4
		c-0.2,0.1-0.5,0.3-0.7,0.5c-0.2,0.2-0.3,0.5-0.2,0.8c0.2,0.9,0.8,1.5,1.7,1.9c0.5,0.2,0.9,0.1,1.3-0.4c0.2-0.3,0.4-0.7,0.6-1
		c0.5-0.8,1-0.9,1.7-0.4c0.1,0.1,0.2,0.2,0.3,0.3c0.5,0.5,0.9,1.1,1.3,1.8c0.1,0.2,0.2,0.3,0.4,0.1c0.7-0.4,1.4-0.8,1.9-1.5
		c0.6-0.7,0.5-1.2-0.3-1.7c-0.4-0.2-0.7-0.4-1.1-0.7C28.8,50.3,28.6,50,28.7,49.6z M51.9,17.6c-0.1,1-0.6,1.7-1.6,2.2
		c-0.6,0.3-1,0.1-1.4-0.4c-0.3-0.4-0.6-0.9-1-1.3c-0.3-0.3-0.6-0.3-0.9-0.1c-0.2,0.1-0.4,0.2-0.5,0.4c-0.6,0.6-1,1.3-1.3,2.1
		c-0.1,0.2,0,0.3,0.1,0.3c0.4,0.2,0.7,0.4,1.1,0.6c0.5,0.3,0.9,0.6,1.3,1.1c0.3,0.5,0.3,0.9-0.1,1.3c-0.1,0.1-0.3,0.3-0.5,0.4
		c-0.3,0.2-0.5,0.3-0.8,0.5C46,25,45.8,25.4,46,25.8c0.4,0.9,1.1,1.5,2.1,1.7c0.2,0,0.5,0,0.6-0.2c0.2-0.2,0.4-0.5,0.5-0.7
		c0.1-0.3,0.3-0.6,0.4-0.9c0.4-0.8,1-0.8,1.6-0.5c0.2,0.1,0.3,0.2,0.5,0.3c0.6,0.4,1,1,1.4,1.5c0.1,0.1,0.2,0.2,0.4,0.1
		c0.7-0.5,1.4-1,1.8-1.8c0.5-0.8,0.3-1.3-0.6-1.6c-0.4-0.2-0.9-0.3-1.2-0.6c-0.3-0.2-0.4-0.4-0.4-0.8c0-1,0.5-1.7,1.4-2.2
		c0.7-0.4,1.2-0.3,1.6,0.4c0.2,0.3,0.4,0.6,0.6,0.9c0.5,0.6,1,0.7,1.6,0.1c0.5-0.5,0.9-1.1,1.2-1.7c0.3-0.6,0.3-0.6-0.3-0.9
		c-0.7-0.3-1.3-0.7-1.8-1.3c-0.5-0.6-0.5-1.2,0.2-1.7c0.4-0.3,0.8-0.5,1.2-0.9c0.3-0.3,0.4-0.6,0.2-1c-0.4-0.9-1-1.5-2-1.7
		c-0.5-0.1-0.8,0.1-1.1,0.5c-0.2,0.4-0.4,0.8-0.6,1.2c-0.4,0.7-0.8,0.9-1.6,0.5c-0.1-0.1-0.3-0.1-0.4-0.2c-0.6-0.5-1.1-1-1.5-1.6
		c-0.1-0.1-0.2-0.3-0.4-0.1c-0.7,0.5-1.4,1.1-1.8,1.8c-0.4,0.7-0.2,1.3,0.5,1.6c0.3,0.1,0.6,0.2,1,0.4C51.6,16.8,51.9,17,51.9,17.6z
		 M32.6,60.8c-0.1-0.8-0.4-1.5-1.1-2c-0.6-0.5-1-0.4-1.5,0.1c-0.2,0.2-0.3,0.4-0.5,0.5c-0.2,0.2-0.4,0.4-0.6,0.5
		c-0.4,0.3-0.8,0.3-1.2-0.1c-0.2-0.1-0.3-0.3-0.4-0.5c-0.4-0.5-0.6-1.1-0.8-1.7c-0.3-0.8-0.3-0.8-1.1-0.5c-0.7,0.3-1.4,0.5-1.9,1.1
		c-0.5,0.5-0.5,0.9,0,1.4c0.2,0.3,0.5,0.5,0.8,0.7c0.6,0.5,0.7,1.2,0.3,1.8c-0.4,0.6-1,0.9-1.7,1.1c-0.9,0.2-1.2-0.1-1.5-0.9
		c-0.2-0.4-0.2-0.9-0.4-1.4c-0.3-0.5-0.6-0.6-1.1-0.5c-0.3,0.1-0.5,0.2-0.8,0.3c-0.5,0.3-1,0.7-1.4,1.1c-0.4,0.4-0.4,0.4-0.1,0.9
		c1,1.6,1.9,3.2,2.9,4.7c0.7,1.1,1.3,2.2,2,3.3c0.2,0.3,0.4,0.4,0.7,0.3c0.5-0.2,1-0.4,1.5-0.6c0.3-0.1,0.5-0.3,0.7-0.5
		c0.6-0.5,0.6-1,0.1-1.5c-0.2-0.2-0.5-0.5-0.7-0.7c-0.6-0.5-0.8-1-0.2-1.9c0.5-0.6,1.2-1,2-1c0.6-0.1,0.9,0.2,1.1,0.7
		c0.1,0.4,0.2,0.9,0.4,1.3c0.3,0.8,0.7,1,1.5,0.7c0.8-0.4,1.5-0.9,2.1-1.5c0.1-0.1,0.1-0.2,0-0.3c-0.2-0.2-0.3-0.3-0.5-0.5
		c-0.5-0.5-1-1.1-1.2-1.8c-0.2-0.8,0-1.1,0.7-1.4c0.4-0.1,0.8-0.2,1.2-0.3C32.4,61.7,32.6,61.4,32.6,60.8z"/>
</g>
</svg>
