<?xml version="1.0" encoding="utf-8"?>
<!-- Generator: Adobe Illustrator 19.2.1, SVG Export Plug-In . SVG Version: 6.00 Build 0)  -->
<svg version="1.1" id="Layer_1" xmlns="http://www.w3.org/2000/svg" xmlns:xlink="http://www.w3.org/1999/xlink" x="0px" y="0px"
	 viewBox="0 0 100 100" style="enable-background:new 0 0 100 100;" xml:space="preserve">
<circle style="fill:#F57F20;" cx="50" cy="50" r="50"/>
<path style="fill:#FFFFFF;" d="M83.9,45.1c-0.7,0-1.2,0.7-1.2,1.5v9c0,0.8,0.5,1.5,1.2,1.5c0.7,0,1.2-0.7,1.2-1.5v-9
	C85.1,45.8,84.6,45.1,83.9,45.1L83.9,45.1z M83.9,45.1"/>
<path style="fill:#FFFFFF;" d="M16.5,45.1c-0.7,0-1.2,0.7-1.2,1.5c0,2.3,0,6.7,0,9c0,0.8,0.5,1.5,1.2,1.5c0.7,0,1.2-0.7,1.2-1.5
	c0-2.3,0-6.7,0-9C17.7,45.8,17.1,45.1,16.5,45.1L16.5,45.1z M16.5,45.1"/>
<path style="fill:#FFFFFF;" d="M31.3,31.4c-2.2,0-4,2-4,4.5c0,7.6,0,22.8,0,30.4c0,2.5,1.8,4.5,4,4.5c2.2,0,4-2,4-4.5V54.8h29.2
	v11.5c0,2.5,1.8,4.5,4,4.5c2.2,0,4-2,4-4.5V36c0-2.5-1.8-4.5-4-4.5c-2.2,0-4,2-4,4.5v11.5H35.3V36C35.3,33.5,33.5,31.4,31.3,31.4
	L31.3,31.4z M31.3,31.4"/>
<path style="fill:#FFFFFF;" d="M77.8,37.5h-0.4c-1.7,0-3,1.3-3,3v21.3c0,1.7,1.4,3,3,3h0.4c1.7,0,3-1.4,3-3c0-5.3,0-16,0-21.3
	C80.8,38.8,79.5,37.5,77.8,37.5L77.8,37.5z M77.8,37.5"/>
<path style="fill:#FFFFFF;" d="M22.6,37.5h-0.4c-1.7,0-3,1.3-3,3v21.3c0,1.7,1.4,3,3,3h0.4c1.7,0,3-1.4,3-3V40.5
	C25.6,38.8,24.2,37.5,22.6,37.5L22.6,37.5z M22.6,37.5"/>
</svg>
