<?xml version="1.0" encoding="utf-8"?>
<!-- Generator: Adobe Illustrator 19.2.1, SVG Export Plug-In . SVG Version: 6.00 Build 0)  -->
<svg version="1.1" id="Layer_1" xmlns="http://www.w3.org/2000/svg" xmlns:xlink="http://www.w3.org/1999/xlink" x="0px" y="0px"
	 viewBox="0 0 100 100" style="enable-background:new 0 0 100 100;" xml:space="preserve">
<circle style="fill:#9E1F63;" cx="50" cy="50" r="50"/>
<path style="fill:#FFFFFF;" d="M50.2,70.9H30.9c-5.1,0-9.3-4.2-9.3-9.3V28c0-5.1,4.2-9.3,9.3-9.3h19.3c5.1,0,9.3,4.2,9.3,9.3v33.6
	C59.5,66.7,55.3,70.9,50.2,70.9z M30.9,20.7c-4,0-7.2,3.2-7.2,7.2v33.6c0,4,3.2,7.2,7.2,7.2h19.3c4,0,7.2-3.2,7.2-7.2V28
	c0-4-3.2-7.2-7.2-7.2H30.9z"/>
<path style="fill:#FFFFFF;" d="M74.3,72.9V56.1c0-5.1,4.2-9.3,9.3-9.3h16.3l0.1,2.1H83.6c-4,0-7.2,3.2-7.2,7.2v16.9l0,4.6
	c0,5.1-4.2,9.3-9.3,9.3H47.8c-5.1,0-9.3-4.2-9.3-9.3v-7.7h2.1v7.7c0,4,3.2,7.2,7.2,7.2h19.3c4,0,7.2-3.2,7.2-7.2L74.3,72.9z"/>
<path style="fill-rule:evenodd;clip-rule:evenodd;fill:#FFFFFF;" d="M45.9,66.2H34.8c-4.5,0-8.3-3.7-8.3-8.3V35.7h27.7v22.3
	C54.2,62.5,50.5,66.2,45.9,66.2z"/>
<g>
	<path style="fill:#9E1F63;" d="M51.1,56.2L44.9,50c-0.2,0.1-0.4,0.2-0.7,0.3c-0.3,0.1-0.6,0.1-1,0.1c-0.4,0-0.8-0.1-1.1-0.2l-2,2.1
		c0.2,0.2,0.6,0.3,0.9,0.3c0.4,0,0.9-0.1,1.2-0.5l0,0l6.2,6.5c0.2,0.2,0.6,0.4,0.9,0.4c0.3,0,0.7-0.1,0.9-0.4l0.8-0.8
		c0.2-0.2,0.4-0.6,0.4-0.9C51.5,56.7,51.3,56.4,51.1,56.2L51.1,56.2z M51.1,56.2"/>
	<path style="fill:#9E1F63;" d="M36.3,48l1.8-1.7c-0.1-0.3-0.1-0.7-0.1-1c0-0.6,0.2-1.2,0.5-1.6l-3.9-4c-0.6-0.6-1.6-0.6-2.2,0
		c-1,1-1.1,2.7-0.1,3.8L36.3,48z M36.3,48"/>
	<path style="fill:#9E1F63;" d="M42.2,48.6c0.3,0.3,0.7,0.4,1.1,0.4c0.4,0,0.8-0.1,1.1-0.4l4.9-4.9c0.2-0.2,0.2-0.5,0-0.7l-0.1-0.1
		c-0.1-0.1-0.2-0.1-0.3-0.1c-0.1,0-0.2,0-0.3,0.1l-3.3,3.3c-0.1,0.1-0.3,0.2-0.5,0.2c-0.2,0-0.4-0.1-0.5-0.2L44,46.1
		c-0.3-0.3-0.3-0.7,0-1l3.3-3.3c0.2-0.2,0.2-0.5,0-0.7l-0.1-0.1c-0.1-0.1-0.2-0.1-0.3-0.1c-0.1,0-0.2,0-0.3,0.1l-3.3,3.3
		c-0.1,0.1-0.3,0.2-0.5,0.2c-0.2,0-0.4-0.1-0.5-0.2l-0.1-0.1c-0.1-0.1-0.2-0.3-0.2-0.5c0-0.2,0.1-0.4,0.2-0.5l3.3-3.3
		c0.1-0.1,0.1-0.2,0.1-0.3c0-0.1,0-0.2-0.1-0.3l-0.1-0.1C45.1,39,45,39,44.9,39c-0.1,0,0,0.2-0.1,0.3l-4.9,4.9
		c-0.3,0.3-0.4,0.7-0.4,1.1c0,0.4,0.1,0.8,0.4,1.1l0.1,0.1L29.9,56c-0.2,0.2-0.4,0.6-0.4,0.9c0,0.3,0.1,0.7,0.4,0.9l0.7,0.8
		c0.2,0.2,0.6,0.5,0.9,0.5c0.3,0,0.7-0.2,0.9-0.5L42,48.5L42.2,48.6z M42.2,48.6"/>
</g>
</svg>
