<?xml version="1.0" encoding="utf-8"?>
<!-- Generator: Adobe Illustrator 19.2.1, SVG Export Plug-In . SVG Version: 6.00 Build 0)  -->
<svg version="1.1" id="Layer_1" xmlns="http://www.w3.org/2000/svg" xmlns:xlink="http://www.w3.org/1999/xlink" x="0px" y="0px"
	 viewBox="0 0 100 100" style="enable-background:new 0 0 100 100;" xml:space="preserve">
<circle style="fill:#D1D3D4;" cx="50" cy="50" r="50"/>
<g>
	<g>
		<circle style="fill-rule:evenodd;clip-rule:evenodd;fill:#FFFFFF;" cx="49.6" cy="50" r="31.6"/>
	</g>
</g>
<g>
	<g>
		<path style="fill-rule:evenodd;clip-rule:evenodd;fill:#D1D3D4;" d="M49.5,61.2c-11.9,0-15.2,10.5-15.2,10.5s3.6-6.1,15.2-6.1
			c11.6,0,14.9,6.4,14.9,6.4S61.4,61.2,49.5,61.2z"/>
	</g>
</g>
<ellipse style="fill-rule:evenodd;clip-rule:evenodd;fill:#D1D3D4;" cx="37.1" cy="43.8" rx="4.1" ry="5.1"/>
<ellipse style="fill-rule:evenodd;clip-rule:evenodd;fill:#D1D3D4;" cx="60.5" cy="43.8" rx="4.1" ry="5.1"/>
<g>
	<g>
		<path style="fill:#D1D3D4;" d="M64.1,54.5c0,0-0.7-0.8-1.1-1.8c-0.2-0.5-0.4-1.1-0.5-2c-0.2,0.8-0.3,1.5-0.5,2
			c-0.4,1-1.1,1.8-1.1,1.8c-0.5,0.7-0.8,1.5-0.8,2.2c0,0.8,0.2,1.5,0.7,2.1c0.5,0.6,1,0.9,1.7,0.9c0.7,0,1.2-0.3,1.7-0.9
			c0.5-0.6,0.7-1.3,0.7-2.1C64.9,55.9,64.6,55.2,64.1,54.5z"/>
	</g>
</g>
</svg>
