<?xml version="1.0" encoding="utf-8"?>
<!-- Generator: Adobe Illustrator 19.2.0, SVG Export Plug-In . SVG Version: 6.00 Build 0)  -->
<svg version="1.1" id="Layer_1" xmlns="http://www.w3.org/2000/svg" xmlns:xlink="http://www.w3.org/1999/xlink" x="0px" y="0px"
	 viewBox="0 0 100 100" style="enable-background:new 0 0 100 100;" xml:space="preserve">
<path style="fill:#FFFFFF;" d="M69.4,55.7L47.6,77.5c-1.5,1.5-3.9,1.5-5.4,0l-0.3-0.3c-1.5-1.5-1.5-3.9,0-5.4L63.7,50L41.9,28.3
	c-1.5-1.5-1.5-3.9,0-5.4l0.3-0.3c1.5-1.5,3.9-1.5,5.4,0l24.7,24.7c1.5,1.5,1.5,3.9,0,5.4L72.1,53C70.6,54.5,70.6,54.5,69.4,55.7z"/>
<path style="fill:#FFFFFF;" d="M50,3c25.9,0,47,21.1,47,47S75.9,97,50,97S3,75.9,3,50S24.1,3,50,3 M50,0C22.4,0,0,22.4,0,50
	s22.4,50,50,50s50-22.4,50-50S77.6,0,50,0L50,0z"/>
</svg>
