<?xml version="1.0" encoding="utf-8"?>
<!-- Generator: Adobe Illustrator 19.2.1, SVG Export Plug-In . SVG Version: 6.00 Build 0)  -->
<svg version="1.1" id="Layer_1" xmlns="http://www.w3.org/2000/svg" xmlns:xlink="http://www.w3.org/1999/xlink" x="0px" y="0px"
	 viewBox="0 0 100 100" style="enable-background:new 0 0 100 100;" xml:space="preserve">
<circle style="fill:#61C5BF;" cx="50" cy="50" r="50"/>
<g>
	<path style="fill:#FFFFFF;" d="M11,66.1v4c0,0.6,0.5,1.1,1.1,1.1h15.7c0.6,0,1.1-0.5,1.1-1.1v-3.9h4.4c1.7,0,3.2-1.4,3.2-3.2v-5.6
		l2.6,0c1,0,1.7-1.1,1.2-2l-2.8-5.3c-0.6-1.2-0.9-2.5-0.9-3.8c0-8.4-6.8-15.2-15.2-15.1c-8.4,0.1-15.1,6.9-15,15.3
		c0,2.4,0.6,4.7,1.6,6.7C10,57.2,11,61.6,11,66.1L11,66.1z"/>
	<g>
		<path style="fill:#61C5BF;" d="M30.4,42.4C30.1,39.9,28,38,25.4,38c-1.2,0-2.4,0.5-3.3,1.2c-0.8-1.1-2.1-1.8-3.6-1.8
			c-2.2,0-4,1.5-4.4,3.6c-2.4,0.2-4.2,2.1-4.2,4.5c0,2.5,2,4.6,4.6,4.6c0.5,0,1-0.1,1.5-0.3c0.8,1.1,2.2,1.9,3.7,1.9
			c0.9,0,1.8-0.3,2.5-0.8c0.8,0.8,1.9,1.3,3.2,1.3c1.8,0,3.4-1.1,4.1-2.6c0.2,0,0.5,0.1,0.7,0.1c2,0,3.6-1.6,3.6-3.6
			C33.7,44.1,32.3,42.6,30.4,42.4L30.4,42.4z M30.4,42.4"/>
		<path style="fill:#61C5BF;" d="M22.7,54.1c0,1.1-0.9,2.1-2.1,2.1c-1.1,0-2.1-0.9-2.1-2.1c0-1.1,0.9-2.1,2.1-2.1
			C21.8,52.1,22.7,53,22.7,54.1L22.7,54.1z M22.7,54.1"/>
		<path style="fill:#61C5BF;" d="M18.6,56.6c0,0.7-0.6,1.2-1.2,1.2c-0.7,0-1.2-0.6-1.2-1.2c0-0.7,0.6-1.2,1.2-1.2
			C18,55.4,18.6,55.9,18.6,56.6L18.6,56.6z M18.6,56.6"/>
	</g>
	<path style="fill-rule:evenodd;clip-rule:evenodd;fill:#FFFFFF;" d="M22.7,44.4c-0.1-1.3,0.8-2.6,2.1-2.9c1.3-0.3,2.7,0.4,3.2,1.7
		C26.6,43.5,23.5,44.2,22.7,44.4z"/>
	<path style="fill-rule:evenodd;clip-rule:evenodd;fill:#FFFFFF;" d="M28.2,44c0.1,1.3-0.8,2.6-2.1,2.9c-1.3,0.3-2.7-0.4-3.2-1.7
		C23.8,45,27.1,44.2,28.2,44z"/>
	<path style="fill-rule:evenodd;clip-rule:evenodd;fill:#FFFFFF;" d="M20.8,44.9c0,0,1,1,1.5,1.6c0.7,0.7,0.6,1.9-0.1,2.6
		c-0.7,0.7-1.8,0.7-2.5,0.1c-0.5-0.5-1.6-1.5-1.6-1.5L20.8,44.9z"/>
	<path style="fill-rule:evenodd;clip-rule:evenodd;fill:#FFFFFF;" d="M17.4,46.9c0,0-1-1-1.5-1.6c-0.7-0.7-0.6-1.9,0.1-2.6
		c0.7-0.7,1.8-0.7,2.5-0.1c0.5,0.5,1.6,1.5,1.6,1.5L17.4,46.9z"/>
</g>
<path style="fill:#FFFFFF;" d="M65.5,35.5l-13.8,0c-0.5,0-0.9-0.3-1.1-0.7c-0.2-0.4-0.1-1,0.3-1.3l6.8-2.8c-4.6-3.3-10.8-10-21.3,0
	c0,0-2.4-2.3-4.2-4.9c17.6-17,29.8,0.7,29.8,0.7l2.8-6.8c0.3-0.3,0.9-0.4,1.3-0.3c0.1,0.1,0.3,0.2,0.4,0.3c0.2,0.2,0.4,0.5,0.4,0.8
	l0,13.8c0,0.3-0.1,0.6-0.4,0.8C66.1,35.4,65.8,35.5,65.5,35.5z"/>
<path style="fill-rule:evenodd;clip-rule:evenodd;fill:#FFFFFF;" d="M89.4,56.3c0,0.3,2.6,1.8,2.6,2.1c0,0.5-2.8-0.2-2.9,0.3
	c-0.1,0.6,1.3,1.2,1.1,1.8c-0.2,0.4-2,0.8-2.2,1.2c-0.2,0.4,2.7,2.3,2.4,2.7c-0.2,0.3-3.6-0.9-3.9-0.6c-0.3,0.3,0.8,1.8,0.5,2.1
	c-0.3,0.3-1.9-0.6-2.2-0.3c-0.3,0.3,0.2,1.1-0.1,1.4c-0.3,0.2-1.5-0.1-1.9,0.1c-0.2,0.1,0.4,0.8,0.2,0.9c-0.2,0.1-1.2-0.3-1.4-0.2
	c0,0,3.8,6.9,3.8,6.9s-11.5-4.4-11.5-4.4c-0.6,0.1-0.4,3.5-1,3.5c-0.6,0-1.9-3.3-2.5-3.3c-0.8,0-1.5,1.4-2.2,1.3
	c-0.6-0.1-1.3-1.5-2-1.6c-0.6-0.1-1.9,1.5-2.5,1.4c-0.5-0.1-0.4-2-0.9-2.2c-0.8-0.2-3.6,2.8-4.3,2.5c-0.6-0.3,0.8-3.9,0.3-4.3
	c-0.5-0.3-1.9,0.8-2.4,0.5C56,67.8,56.4,66,56,65.6c-0.4-0.3-1.9,0.3-2.3-0.1c-0.3-0.4,0.5-1.7,0.2-2.1c-0.2-0.3-4.9,1.4-5.1,1.1
	c-0.3-0.5,3.9-2.9,3.6-3.4c-0.2-0.4-2.3-0.2-2.4-0.6c-0.1-0.4,1.6-1.6,1.5-2.1c-0.1-0.7-1.8-1.1-1.8-1.8c0-0.5,1.6-1.2,1.7-1.7
	c0.1-0.4-3.4-1.8-3.3-2.3c0.1-0.4,3.8,0.1,4-0.3c0.2-0.5-0.9-2.1-0.6-2.6c0.2-0.4,1.9,0.2,2.2-0.2c0.4-0.5-0.1-1.7,0.3-2.2
	c0.4-0.4,1.6,0,2-0.4c0.4-0.4-0.3-2.4,0.2-2.7c0.4-0.3,2,1.1,2.5,0.8c0.4-0.2-1.6-4-1.2-4.2c0.5-0.2,3.3,3.1,3.8,2.9
	c0.5-0.2-0.1-2.3,0.4-2.5c0.5-0.2,2.2,1.6,2.7,1.5c0.7-0.2,1.3-1.4,2-1.5c0.5-0.1,1.1,1,1.7,0.9c0.7-0.1,1-2.8,1.7-2.8
	c0.5,0,1.6,2.7,2.1,2.7c0.6,0,1.5-1.3,2-1.2c0.6,0.1,0.9,1.5,1.5,1.7c0.6,0.1,2.7-2.7,3.2-2.5c0.5,0.2-0.5,3.3,0,3.5
	c0.5,0.2,1.6-0.7,2.1-0.5c0.5,0.2,0.3,1.5,0.7,1.7c0.5,0.3,1.7-0.1,2.2,0.2c0.4,0.3,0,1.2,0.4,1.5c0.4,0.3,2.8-0.4,3.2-0.1
	c0.4,0.3-1.3,1.8-1,2.1c0.3,0.3,4.7-1,4.9-0.7c0.2,0.3-3.7,2.3-3.5,2.6c0.2,0.3,2.3,0.5,2.5,0.8c0.2,0.4-1.6,0.9-1.4,1.3
	c0.1,0.4,1.1,0.8,1.2,1.2c0.1,0.3-0.7,0.6-0.6,0.9c0.1,0.4,1.9,0.8,1.9,1.2C91.2,56,89.4,56.2,89.4,56.3z"/>
<g>
	<path style="fill:#61C5BF;" d="M54.8,58.2h-0.9V57h1.1l0.2-1.4h-1v-1.2h1.1l0.3-2.1h1.1l-0.3,2.1h1.3l0.3-2.1h1.1l-0.3,2.1h1v1.2
		h-1.1L58.4,57h1.1v1.2h-1.2l-0.3,2.3h-1.1l0.3-2.3h-1.3l-0.3,2.3h-1.1L54.8,58.2z M57.3,57l0.2-1.4h-1.3L56,57H57.3z"/>
	<path style="fill:#61C5BF;" d="M60.4,54.8c0-1.6,0.9-2.6,2-2.6c1.2,0,2,1,2,2.6c0,1.6-0.9,2.6-2,2.6C61.2,57.4,60.4,56.4,60.4,54.8
		z M63.1,54.8c0-1.2-0.3-1.6-0.8-1.6c-0.4,0-0.8,0.4-0.8,1.6c0,1.2,0.3,1.6,0.8,1.6C62.8,56.4,63.1,55.9,63.1,54.8z M62.7,60.7
		l4.4-8.5h1.1l-4.4,8.5H62.7z M66.4,58.1c0-1.6,0.9-2.6,2-2.6c1.2,0,2,1,2,2.6c0,1.6-0.9,2.6-2,2.6C67.2,60.7,66.4,59.7,66.4,58.1z
		 M69.2,58.1c0-1.2-0.3-1.6-0.8-1.6c-0.4,0-0.8,0.4-0.8,1.6s0.3,1.6,0.8,1.6C68.8,59.6,69.2,59.2,69.2,58.1z"/>
	<path style="fill:#61C5BF;" d="M77,52.1c2.7,0,4.4,1.8,4.4,4.5c0,2.3-1.5,3.4-2.9,3.4c-0.7,0-1.3-0.4-1.4-1h0
		c-0.4,0.5-1,0.8-1.5,0.8c-1,0-1.7-0.7-1.7-1.9c0-1.5,1.1-3.1,2.5-3.1c0.4,0,0.7,0.2,1,0.6h0l0.2-0.5h1.1l-0.6,2.8
		c-0.2,0.7,0,1.1,0.6,1.1c0.8,0,1.5-0.9,1.5-2.3c0-1.8-1-3.4-3.4-3.4c-2.1,0-4.3,1.8-4.3,4.6c0,2.5,1.7,3.7,3.7,3.7
		c0.7,0,1.4-0.2,1.9-0.5l0.4,1c-0.8,0.4-1.6,0.6-2.5,0.6c-2.5,0-4.7-1.5-4.7-4.7C71.4,54.4,73.9,52.1,77,52.1z M76,58.8
		c0.3,0,0.5-0.2,0.8-0.6l0.3-1.7c-0.1-0.2-0.3-0.4-0.6-0.4c-0.8,0-1.2,1-1.2,1.8C75.4,58.5,75.6,58.8,76,58.8z"/>
	<path style="fill:#61C5BF;" d="M84.2,58.4c0.6,0,1.1,0.5,1.1,1.2c0,0.7-0.5,1.2-1.1,1.2c-0.6,0-1.1-0.5-1.1-1.2
		C83.1,58.9,83.6,58.4,84.2,58.4z M83.3,53.8l-0.1-1.7h1.9l-0.1,1.7l-0.3,3.8h-1.2L83.3,53.8z"/>
</g>
</svg>
