<?xml version="1.0" encoding="utf-8"?>
<!-- Generator: Adobe Illustrator 19.2.1, SVG Export Plug-In . SVG Version: 6.00 Build 0)  -->
<svg version="1.1" id="Layer_1" xmlns="http://www.w3.org/2000/svg" xmlns:xlink="http://www.w3.org/1999/xlink" x="0px" y="0px"
	 viewBox="0 0 100 100" style="enable-background:new 0 0 100 100;" xml:space="preserve">
<circle style="fill:#61C5BF;" cx="50" cy="50" r="50"/>
<g>
	<path style="fill:#FFFFFF;" d="M11.7,66.1v4c0,0.6,0.5,1.1,1.1,1.1h15.7c0.6,0,1.1-0.5,1.1-1.1v-3.9h4.4c1.7,0,3.2-1.4,3.2-3.2
		v-5.6l2.6,0c1,0,1.7-1.1,1.2-2L38,50.2c-0.6-1.2-0.9-2.5-0.9-3.8c0-8.4-6.8-15.2-15.2-15.1c-8.4,0.1-15.1,6.9-15,15.3
		c0,2.4,0.6,4.7,1.6,6.7C10.6,57.2,11.7,61.6,11.7,66.1L11.7,66.1z"/>
	<g>
		<path style="fill:#61C5BF;" d="M31,42.4C30.7,39.9,28.6,38,26,38c-1.2,0-2.4,0.5-3.3,1.2c-0.8-1.1-2.1-1.8-3.6-1.8
			c-2.2,0-4,1.5-4.4,3.6c-2.4,0.2-4.2,2.1-4.2,4.5c0,2.5,2,4.6,4.6,4.6c0.5,0,1-0.1,1.5-0.3c0.8,1.1,2.2,1.9,3.7,1.9
			c0.9,0,1.8-0.3,2.5-0.8c0.8,0.8,1.9,1.3,3.2,1.3c1.8,0,3.4-1.1,4.1-2.6c0.2,0,0.5,0.1,0.7,0.1c2,0,3.6-1.6,3.6-3.6
			C34.3,44.1,32.9,42.6,31,42.4L31,42.4z M31,42.4"/>
		<path style="fill:#61C5BF;" d="M23.3,54.1c0,1.1-0.9,2.1-2.1,2.1c-1.1,0-2.1-0.9-2.1-2.1c0-1.1,0.9-2.1,2.1-2.1
			C22.4,52.1,23.3,53,23.3,54.1L23.3,54.1z M23.3,54.1"/>
		<path style="fill:#61C5BF;" d="M19.2,56.6c0,0.7-0.6,1.2-1.2,1.2c-0.7,0-1.2-0.6-1.2-1.2c0-0.7,0.6-1.2,1.2-1.2
			C18.6,55.4,19.2,55.9,19.2,56.6L19.2,56.6z M19.2,56.6"/>
	</g>
	<path style="fill-rule:evenodd;clip-rule:evenodd;fill:#FFFFFF;" d="M23.3,44.4c-0.1-1.3,0.8-2.6,2.1-2.9c1.3-0.3,2.7,0.4,3.2,1.7
		C27.2,43.5,24.1,44.2,23.3,44.4z"/>
	<path style="fill-rule:evenodd;clip-rule:evenodd;fill:#FFFFFF;" d="M28.8,44c0.1,1.3-0.8,2.6-2.1,2.9c-1.3,0.3-2.7-0.4-3.2-1.7
		C24.4,45,27.7,44.2,28.8,44z"/>
	<path style="fill-rule:evenodd;clip-rule:evenodd;fill:#FFFFFF;" d="M21.4,44.9c0,0,1,1,1.5,1.6c0.7,0.7,0.6,1.9-0.1,2.6
		c-0.7,0.7-1.8,0.7-2.5,0.1c-0.5-0.5-1.6-1.5-1.6-1.5L21.4,44.9z"/>
	<path style="fill-rule:evenodd;clip-rule:evenodd;fill:#FFFFFF;" d="M18,46.9c0,0-1-1-1.5-1.6c-0.7-0.7-0.6-1.9,0.1-2.6
		c0.7-0.7,1.8-0.7,2.5-0.1c0.5,0.5,1.6,1.5,1.6,1.5L18,46.9z"/>
</g>
<g>
	<g>
		<path style="fill:#FFFFFF;" d="M69.6,54.9c0,1,0,2,0,3c0,0.5,0.2,0.6,0.6,0.6c2-0.3,3.8,0.2,5.3,1.5c0.4,0.3,0.5,0.1,0.7-0.1
			c1.2-1.3,1.8-2.9,2.1-4.6c0.5-2.7,0.4-5.4,0.2-8.1c0-0.5-0.2-1.1-0.2-1.6c0-0.5-0.2-0.6-0.6-0.6c-0.3,0-0.5,0-0.8,0
			c-0.4,0-0.7-0.2-0.9-0.6c-0.2-0.4-0.2-0.8,0.1-1.2c0.3-0.3,0.6-0.2,1-0.1c1.3,0.4,2.5,0.4,3.8,0c0.7-0.2,1.1-0.1,1.2,0.4
			c0.2,0.6-0.2,1.3-0.8,1.4c-0.3,0.1-0.6,0.1-0.9,0c-0.4,0-0.6,0.1-0.5,0.5c0.3,2.2,0.3,4.5,0.3,6.7c0,1.8-0.3,3.6-0.9,5.3
			c-0.5,1.3-1.1,2.5-2.1,3.5c-0.2,0.2-0.4,0.3-0.1,0.6c0.8,0.9,1.4,2,2.4,2.7c2.7,2.3,6.5,1.6,8.3-1.4c1.3-2.1,1.7-4.5,2-7
			c0-0.3-0.2-0.4-0.4-0.4c-0.7-0.1-0.9-0.3-0.9-1.1c0-0.1,0-0.2,0-0.3c0.1-0.8-0.1-1.4-0.9-1.9c-1.1-0.8-1.6-2-1.7-3.4
			c0-0.8-0.1-1.7,0.1-2.5c0.5-2.3,2.6-3.8,5-3.5c2.5,0.2,4.2,2.1,4.2,4.5c0,0.8,0.1,1.7-0.1,2.5c-0.3,1.2-0.9,2.1-1.9,2.7
			c-0.4,0.2-0.6,0.5-0.5,1c0,0.3,0,0.5,0,0.8c0,1-0.1,1.1-1,1.3c-0.5,0.1-0.4,0.4-0.4,0.7c-0.2,2.5-0.7,4.8-1.9,7
			c-0.7,1.3-1.7,2.4-3,3.1c-2.5,1.4-6.4,1.1-8.8-1.8c-0.5-0.7-1.1-1.3-1.6-2c-0.2-0.3-0.4-0.3-0.7-0.2c-1.6,0.7-3.3,1-5,0.8
			c-0.5-0.1-0.6,0.1-0.6,0.6c0,1.1,0,2.2,0,3.3c0,1-1,2.1-2,2.1c-0.4,0-0.3-0.3-0.3-0.5c0-0.7,0-1.5,0-2.2c0-0.6-0.6-1.1-1.1-0.9
			c-0.3,0.1-0.2,0.4-0.2,0.6c0,1.8,0,3.6,0,5.4c0,0.8,0,0.9-0.9,0.7c-0.7-0.1-1.3-0.5-1.8-0.9c-0.8-0.8-1.7-1.1-2.8-1.1
			c-2.1,0-4.1-0.2-6.1-0.8c-0.4-0.1-0.8-0.3-1.1-0.4c-0.9-0.4-1.3-1-1.3-2c0-4.9,0-9.9,0-14.8c0-1,0.4-1.6,1.3-2
			c1.4-0.6,2.9-0.9,4.5-1.1c3-0.3,6-0.2,8.9,0.5c0.8,0.2,1.6,0.5,2.3,0.9c0.5,0.3,0.8,0.8,0.8,1.4C69.6,52.9,69.6,53.9,69.6,54.9z
			 M66,60.1c0,1.2,0,2.5,0,3.7c0,0.5,0.4,0.8,1,0.8c0.6,0,0.2-0.5,0.3-0.7c0-0.1,0-0.3,0-0.4c0-3.3,0-6.6,0-9.9c0-0.4,0-0.7,0.4-0.9
			c0.4-0.2,1.2-0.3,1.1-0.7c0-0.4-0.8-0.5-1.2-0.7c-2.2-0.8-4.5-0.9-6.9-0.9c-2.5,0-4.9,0.2-7.3,1.1c-0.3,0.1-0.8,0.2-0.8,0.6
			c0,0.3,0.5,0.4,0.8,0.6c2.2,0.9,4.5,1.1,6.8,1.1c1.2,0,2.2,0.3,3,1.2c0.6,0.6,1.3,1,2.1,1c0.5,0,0.6,0.3,0.6,0.7
			C65.9,57.7,66,58.9,66,60.1z M71,61.8c1.1,0,2-0.1,2.8-0.4c0.2-0.1,0.5-0.1,0.6-0.3c0-0.3-0.3-0.4-0.5-0.5c-1-0.7-2.2-0.7-3.3-0.7
			c-0.8,0-0.9,0.1-0.9,0.9c0,0.9,0,0.9,0.9,0.9C70.7,61.8,70.9,61.8,71,61.8z"/>
		<path style="fill:#FFFFFF;" d="M73.9,37.5c0-2.9,2.4-5.3,5.3-5.3c2.9,0,5.3,2.4,5.3,5.4c0,2.9-2.4,5.3-5.3,5.3
			C76.2,42.8,73.9,40.5,73.9,37.5z M79.2,33.8c-2.1,0-3.8,1.7-3.8,3.7c0,2.1,1.7,3.8,3.8,3.8c2.1,0,3.8-1.7,3.8-3.8
			C82.9,35.4,81.3,33.8,79.2,33.8z"/>
		<path style="fill:#FFFFFF;" d="M79.8,37.5c-0.1,0.4-0.3,0.7-0.7,0.7c-0.4,0-0.7-0.3-0.7-0.7c0-0.4,0.3-0.7,0.7-0.7
			C79.6,36.9,79.8,37.1,79.8,37.5z"/>
	</g>
	<polygon style="fill:#FFFFFF;" points="78.6,36.4 79.6,36.4 79.1,34.1 	"/>
</g>
<path style="fill:#FFFFFF;" d="M66.1,35.5l-13.8,0c-0.5,0-0.9-0.3-1.1-0.7c-0.2-0.4-0.1-1,0.3-1.3l6.8-2.8c-4.6-3.3-10.8-10-21.3,0
	c0,0-2.4-2.3-4.2-4.9c17.6-17,29.8,0.7,29.8,0.7l2.8-6.8c0.3-0.3,0.9-0.4,1.3-0.3c0.1,0.1,0.3,0.2,0.4,0.3c0.2,0.2,0.4,0.5,0.4,0.8
	l0,13.8c0,0.3-0.1,0.6-0.4,0.8C66.7,35.4,66.4,35.5,66.1,35.5z"/>
</svg>
