<?xml version="1.0" encoding="utf-8"?>
<!-- Generator: Adobe Illustrator 19.2.1, SVG Export Plug-In . SVG Version: 6.00 Build 0)  -->
<svg version="1.1" id="Layer_1" xmlns="http://www.w3.org/2000/svg" xmlns:xlink="http://www.w3.org/1999/xlink" x="0px" y="0px"
	 viewBox="0 0 100 100" style="enable-background:new 0 0 100 100;" xml:space="preserve">
<circle style="fill:#61C5BF;" cx="50" cy="50" r="50"/>
<g>
	<path style="fill:#FFFFFF;" d="M11,66.1v4c0,0.6,0.5,1.1,1.1,1.1h15.7c0.6,0,1.1-0.5,1.1-1.1v-3.9h4.4c1.7,0,3.2-1.4,3.2-3.2v-5.6
		l2.6,0c1,0,1.7-1.1,1.2-2l-2.8-5.3c-0.6-1.2-0.9-2.5-0.9-3.8c0-8.4-6.8-15.2-15.2-15.1c-8.4,0.1-15.1,6.9-15,15.3
		c0,2.4,0.6,4.7,1.6,6.7C9.9,57.2,11,61.6,11,66.1L11,66.1z"/>
	<g>
		<path style="fill:#61C5BF;" d="M30.4,42.4c-0.3-2.5-2.4-4.5-5.1-4.5c-1.2,0-2.4,0.5-3.3,1.2c-0.8-1.1-2.1-1.8-3.6-1.8
			c-2.2,0-4,1.5-4.4,3.6c-2.4,0.2-4.2,2.1-4.2,4.5c0,2.5,2,4.6,4.6,4.6c0.5,0,1-0.1,1.5-0.3c0.8,1.1,2.2,1.9,3.7,1.9
			c0.9,0,1.8-0.3,2.5-0.8c0.8,0.8,1.9,1.3,3.2,1.3c1.8,0,3.4-1.1,4.1-2.6c0.2,0,0.5,0.1,0.7,0.1c2,0,3.6-1.6,3.6-3.6
			C33.7,44.1,32.2,42.6,30.4,42.4L30.4,42.4z M30.4,42.4"/>
		<path style="fill:#61C5BF;" d="M22.6,54.1c0,1.1-0.9,2.1-2.1,2.1c-1.1,0-2.1-0.9-2.1-2.1c0-1.1,0.9-2.1,2.1-2.1
			C21.7,52.1,22.6,53,22.6,54.1L22.6,54.1z M22.6,54.1"/>
		<path style="fill:#61C5BF;" d="M18.5,56.6c0,0.7-0.6,1.2-1.2,1.2c-0.7,0-1.2-0.6-1.2-1.2c0-0.7,0.6-1.2,1.2-1.2
			C18,55.4,18.5,55.9,18.5,56.6L18.5,56.6z M18.5,56.6"/>
	</g>
	<path style="fill-rule:evenodd;clip-rule:evenodd;fill:#FFFFFF;" d="M22.7,44.4c-0.1-1.3,0.8-2.6,2.1-2.9c1.3-0.3,2.7,0.4,3.2,1.7
		C26.6,43.5,23.5,44.2,22.7,44.4z"/>
	<path style="fill-rule:evenodd;clip-rule:evenodd;fill:#FFFFFF;" d="M28.1,44c0.1,1.3-0.8,2.6-2.1,2.9c-1.3,0.3-2.7-0.4-3.2-1.7
		C23.7,45,27,44.2,28.1,44z"/>
	<path style="fill-rule:evenodd;clip-rule:evenodd;fill:#FFFFFF;" d="M20.8,44.9c0,0,1,1,1.5,1.6c0.7,0.7,0.6,1.9-0.1,2.6
		c-0.7,0.7-1.8,0.7-2.5,0.1c-0.5-0.5-1.6-1.5-1.6-1.5L20.8,44.9z"/>
	<path style="fill-rule:evenodd;clip-rule:evenodd;fill:#FFFFFF;" d="M17.4,46.9c0,0-1-1-1.5-1.6c-0.7-0.7-0.6-1.9,0.1-2.6
		c0.7-0.7,1.8-0.7,2.5-0.1c0.5,0.5,1.6,1.5,1.6,1.5L17.4,46.9z"/>
</g>
<path style="fill:#FFFFFF;" d="M65.4,35.5l-13.8,0c-0.5,0-0.9-0.3-1.1-0.7c-0.2-0.4-0.1-1,0.3-1.3l6.8-2.8c-4.6-3.3-10.8-10-21.3,0
	c0,0-2.4-2.3-4.2-4.9c17.6-17,29.8,0.7,29.8,0.7l2.8-6.8c0.3-0.3,0.9-0.4,1.3-0.3c0.1,0.1,0.3,0.2,0.4,0.3c0.2,0.2,0.4,0.5,0.4,0.8
	l0,13.8c0,0.3-0.1,0.6-0.4,0.8C66.1,35.4,65.8,35.5,65.4,35.5z"/>
<g>
	<path style="fill:#FFFFFF;" d="M81.6,45.4c0-2.2-1.4-3.4-3.6-3.4c-2,0-3.4,1-4.9,2.5l-4.3-3.9c2.4-2.9,5.8-4.9,9.7-4.9
		c6,0,10.6,2.8,10.6,9.1c0,6.6-8,8.6-7.4,14.9h-6.9C73.8,52.5,81.6,49.4,81.6,45.4z M78.3,62.9c2.7,0,4.7,2.1,4.7,5
		c0,2.8-2,4.9-4.7,4.9s-4.7-2.1-4.7-4.9C73.6,65,75.6,62.9,78.3,62.9z"/>
</g>
</svg>
