<?xml version="1.0" encoding="utf-8"?>
<!-- Generator: Adobe Illustrator 19.2.1, SVG Export Plug-In . SVG Version: 6.00 Build 0)  -->
<svg version="1.1" id="Layer_1" xmlns="http://www.w3.org/2000/svg" xmlns:xlink="http://www.w3.org/1999/xlink" x="0px" y="0px"
	 viewBox="0 0 100 100" style="enable-background:new 0 0 100 100;" xml:space="preserve">
<circle style="fill:#61C5BF;" cx="50" cy="50" r="50"/>
<path style="fill:#FFFFFF;" d="M32.7,73v6.2c0,1,0.8,1.7,1.7,1.7h24.2c1,0,1.7-0.8,1.7-1.7v-6.1h6.8c2.7,0,4.9-2.2,4.9-4.9v-8.6
	l4-0.1c1.6,0,2.6-1.7,1.8-3.1l-4.3-8.2c-1-1.8-1.5-3.8-1.5-5.9c0-13-10.6-23.5-23.6-23.4c-13,0.1-23.3,10.6-23.2,23.6
	c0,3.7,1,7.3,2.5,10.4C31.1,59.2,32.7,66,32.7,73L32.7,73z"/>
<g>
	<path style="fill:#61C5BF;" d="M62.7,36.4c-0.5-3.9-3.8-6.9-7.8-6.9c-1.9,0-3.7,0.7-5,1.9c-1.3-1.7-3.3-2.7-5.5-2.7
		c-3.4,0-6.2,2.4-6.9,5.5c-3.7,0.3-6.6,3.3-6.6,7c0,3.9,3.2,7,7,7c0.8,0,1.6-0.2,2.4-0.4c1.3,1.8,3.3,2.9,5.7,2.9
		c1.4,0,2.8-0.4,3.9-1.2c1.3,1.2,3,2,4.9,2c2.8,0,5.2-1.7,6.4-4c0.3,0.1,0.7,0.1,1.1,0.1c3.1,0,5.6-2.5,5.6-5.6
		C67.8,39,65.5,36.6,62.7,36.4L62.7,36.4z M62.7,36.4"/>
	<path style="fill:#61C5BF;" d="M50.8,54.4c0,1.8-1.4,3.2-3.2,3.2c-1.8,0-3.2-1.4-3.2-3.2c0-1.8,1.4-3.2,3.2-3.2
		C49.3,51.2,50.8,52.7,50.8,54.4L50.8,54.4z M50.8,54.4"/>
	<path style="fill:#61C5BF;" d="M44.4,58.3c0,1.1-0.9,1.9-1.9,1.9c-1.1,0-1.9-0.9-1.9-1.9c0-1.1,0.9-1.9,1.9-1.9
		C43.5,56.4,44.4,57.2,44.4,58.3L44.4,58.3z M44.4,58.3"/>
</g>
<path style="fill-rule:evenodd;clip-rule:evenodd;fill:#FFFFFF;" d="M50.8,39.3c-0.1-2,1.2-3.9,3.3-4.4c2.1-0.5,4.1,0.7,4.9,2.6
	C56.8,38,52,39,50.8,39.3z"/>
<path style="fill-rule:evenodd;clip-rule:evenodd;fill:#FFFFFF;" d="M59.2,38.7c0.2,2.1-1.2,4-3.3,4.5c-2.1,0.5-4.1-0.7-4.9-2.6
	C52.4,40.3,57.6,39.2,59.2,38.7z"/>
<path style="fill-rule:evenodd;clip-rule:evenodd;fill:#FFFFFF;" d="M47.8,40.2c0,0,1.6,1.6,2.4,2.4c1.1,1.1,0.9,2.9-0.2,4
	c-1.1,1-2.8,1.1-3.9,0.1c-0.8-0.8-2.4-2.4-2.4-2.4L47.8,40.2z"/>
<path style="fill-rule:evenodd;clip-rule:evenodd;fill:#FFFFFF;" d="M42.6,43.3c0,0-1.6-1.6-2.4-2.4c-1.1-1.1-0.9-2.9,0.2-4
	c1.1-1,2.8-1.1,3.9-0.1c0.8,0.8,2.4,2.4,2.4,2.4L42.6,43.3z"/>
</svg>
