<?xml version="1.0" encoding="utf-8"?>
<!-- Generator: Adobe Illustrator 19.2.1, SVG Export Plug-In . SVG Version: 6.00 Build 0)  -->
<svg version="1.1" id="Layer_1" xmlns="http://www.w3.org/2000/svg" xmlns:xlink="http://www.w3.org/1999/xlink" x="0px" y="0px"
	 viewBox="0 0 100 100" style="enable-background:new 0 0 100 100;" xml:space="preserve">
<circle style="fill:#C22026;" cx="50" cy="50" r="50"/>
<path style="fill:#FFFFFF;" d="M49.6,42.2c-6.8,0-13.6,0-20.4,0c-1.4,0-1.9-0.4-1.8-1.8c0.1-3.6-0.1-7.1,0.2-10.7
	c0.3-3.9,2.2-7.2,5-9.9c9.1-8.9,25.8-8.6,34.6,0.6c3,3.1,4.6,6.8,4.6,11.1c0,3,0,5.9,0,8.9c0,1.3-0.4,1.7-1.7,1.7
	C63.3,42.1,56.5,42.2,49.6,42.2z"/>
<path style="fill:#FFFFFF;" d="M71.7,53.4c0,0.2,0,0.4-0.1,0.7c-3,11-7,21.5-14.1,30.7c-1.4,1.9-3.2,3.4-5.3,4.3
	c-0.8,0.4-1.4,0.4-1.7-0.7c-1.4-4.5-4.3-8-7.5-11.3c-3.4-3.4-7.1-6.6-9.8-10.6c-2.9-4.1-5-8.6-6.5-13.4c-0.4-1.1-0.2-1.2,1-1.1
	c4.9,0.4,9.9,0.5,14.7-0.8c0.3-0.1,0.7-0.2,1-0.3c5.6-2,11-1.7,16.5,0.6c3.2,1.3,6.5,1.9,9.9,0.7C70.7,51.8,71.8,51.8,71.7,53.4z"/>
<path style="fill:#FFFFFF;" d="M32.3,45.8c2.1,3.2,7.1,4.3,10.1,2.4c0.9-0.6,0.9-1-0.1-1.5C39.1,45.4,35.8,45.4,32.3,45.8z"/>
<path style="fill:#FFFFFF;" d="M68.2,45.8c-3.3-0.4-6.4-0.4-9.4,0.9c-0.4,0.2-0.9,0.3-0.9,0.8c0,0.3,0.4,0.5,0.7,0.7
	C61.4,50,66.3,48.9,68.2,45.8z"/>
<path style="fill:#FFFFFF;" d="M68.2,43.2H31.1c-4.9,0-6.7-4-6.7-8.9v0c0-4.9,1.9-8.9,6.7-8.9h37.1c4.9,0,6.2,4,6.2,8.9v0
	C74.4,39.2,73.1,43.2,68.2,43.2z"/>
</svg>
