<?xml version="1.0" encoding="utf-8"?>
<!-- Generator: Adobe Illustrator 19.2.1, SVG Export Plug-In . SVG Version: 6.00 Build 0)  -->
<svg version="1.1" id="Layer_1" xmlns="http://www.w3.org/2000/svg" xmlns:xlink="http://www.w3.org/1999/xlink" x="0px" y="0px"
	 viewBox="0 0 100 100" style="enable-background:new 0 0 100 100;" xml:space="preserve">
<circle style="fill:#D9D9D8;" cx="50" cy="50" r="50"/>
<g>
	<g>
		<path style="fill-rule:evenodd;clip-rule:evenodd;fill:#FFFFFF;" d="M30,50.4c0,10.8,8.7,19.5,19.5,19.5
			c10.8,0,19.5-8.7,19.5-19.5c0-10.8-8.7-19.5-19.5-19.5C38.7,30.9,30,39.7,30,50.4z M49.4,17.3l-5.5,11h11L49.4,17.3z M72.9,26.9
			l-11.6,3.9l7.8,7.8L72.9,26.9z M37.6,30.8L26,26.9l3.9,11.6L37.6,30.8z M27.2,44.9l-11,5.5l11,5.5V44.9z M71.5,56l11-5.5l-11-5.5
			V56z M49.4,83.6l5.5-11H44L49.4,83.6z M61.2,70l11.6,3.9L69,62.3L61.2,70z M26,73.9L37.6,70l-7.8-7.8L26,73.9z"/>
	</g>
</g>
</svg>
