<?xml version="1.0" encoding="utf-8"?>
<!-- Generator: Adobe Illustrator 19.2.1, SVG Export Plug-In . SVG Version: 6.00 Build 0)  -->
<svg version="1.1" id="Layer_1" xmlns="http://www.w3.org/2000/svg" xmlns:xlink="http://www.w3.org/1999/xlink" x="0px" y="0px"
	 viewBox="0 0 100 100" style="enable-background:new 0 0 100 100;" xml:space="preserve">
<circle style="fill:#6ABD45;" cx="50" cy="50" r="50"/>
<path style="fill:#FFFFFF;" d="M14.6,51.2c0,0-4-15.7,9.2-12.1c0,0,23.5,12.7,52.9,0c13.2-3.5,9.2,12.1,9.2,12.1
	c-7.6,23.2-35.6,21.3-35.6,21.3S22.2,74.4,14.6,51.2L14.6,51.2z"/>
<g>
	<path style="fill:#6ABD45;" d="M49.3,59.1c-11,0-23.8-2.6-36.8-10.8l0.7-1.2c19.4,12.3,38.6,11.7,51.3,8.9c13.7-3,23-8.9,23.1-8.9
		l0.8,1.2c-0.1,0.1-9.5,6.1-23.5,9.1C60.3,58.4,55.1,59.1,49.3,59.1z"/>
	<rect x="23.1" y="37.6" style="fill:#6ABD45;" width="1.4" height="29.2"/>
	<rect x="37.3" y="42.1" style="fill:#6ABD45;" width="1.4" height="31.1"/>
	<rect x="53.2" y="43.1" style="fill:#6ABD45;" width="1.4" height="30.8"/>
	<rect x="67.3" y="40.5" style="fill:#6ABD45;" width="1.4" height="30.4"/>
	<rect x="78.8" y="38.5" style="fill:#6ABD45;" width="1.4" height="26"/>
</g>
<g>
	<g>
		<path style="fill-rule:evenodd;clip-rule:evenodd;fill:#FFFFFF;" d="M91.2,37.7c-4-5.5-11.7-2.3-11.7-2.3s5-1.1,8.9,4.3
			c3.9,5.4,0.9,9.8,0.9,9.8S95.2,43.2,91.2,37.7z"/>
	</g>
</g>
<g>
	<g>
		<path style="fill-rule:evenodd;clip-rule:evenodd;fill:#FFFFFF;" d="M9.9,37.7c-4,5.5,1.9,11.8,1.9,11.8s-3-4.5,0.9-9.8
			s8.9-4.3,8.9-4.3S13.9,32.2,9.9,37.7z"/>
	</g>
</g>
</svg>
