<?xml version="1.0" encoding="utf-8"?>
<!-- Generator: Adobe Illustrator 19.2.1, SVG Export Plug-In . SVG Version: 6.00 Build 0)  -->
<svg version="1.1" id="Layer_1" xmlns="http://www.w3.org/2000/svg" xmlns:xlink="http://www.w3.org/1999/xlink" x="0px" y="0px"
	 viewBox="0 0 100 100" style="enable-background:new 0 0 100 100;" xml:space="preserve">
<circle style="fill:#262261;" cx="50" cy="50" r="50"/>
<g>
	<path style="fill:#FFFFFF;" d="M53.5,20.2c0-1.6-1-2.4-2.6-2.4c-1.4,0-2.5,0.7-3.5,1.8l-3.1-2.9c1.7-2.1,4.2-3.5,7.1-3.5
		c4.4,0,7.7,2.1,7.7,6.6c0,4.8-5.8,6.2-5.4,10.9h-5C47.8,25.4,53.5,23.1,53.5,20.2z M51.1,32.9c2,0,3.5,1.6,3.5,3.6
		c0,2-1.5,3.6-3.5,3.6s-3.4-1.6-3.4-3.6C47.6,34.5,49.1,32.9,51.1,32.9z"/>
</g>
<path style="fill:#FFFFFF;" d="M53.6,62.3c8.8,0,17.7,0,26.5,0c1,0,1,0,1,1c0,4.3,0,8.6,0,13c0,1.4-1,2.4-2.4,2.4c-0.5,0-1,0-1.5,0
	c-1.3,0-2.3-1-2.3-2.3c0-1.7,0-3.3,0-5c0-0.7-0.2-0.8-0.8-0.8c-10,0-19.9,0-29.9,0c-5.7,0-11.4,0-17.2,0c-0.9,0-0.9,0-0.9,0.9
	c0,1.6,0,3.2,0,4.8c0,1.5-0.9,2.4-2.4,2.4c-0.5,0-1,0-1.5,0c-1.4,0-2.3-1-2.3-2.3c0-11.3,0-22.6,0-33.9c0-1.5,0.9-2.4,2.4-2.4
	c0.4,0,0.8,0,1.3,0c1.6,0,2.5,0.9,2.5,2.5c0,3.5,0,7,0,10.5c0,2.7,0,5.4,0,8.1c0,1.4-0.2,1.3,1.3,1.3C36.1,62.3,44.8,62.3,53.6,62.3
	L53.6,62.3z"/>
<path style="fill:#FFFFFF;" d="M61.7,60.3c-6.1,0-12.3,0-18.4,0c-0.9,0-0.9,0-0.9-0.9c0-3.1,0-6.1,0-9.2c0-2.4,1.7-4.2,4.2-4.2
	c8.5,0,17,0,25.6,0c4.9,0,9,4.1,9,9c0,1.5,0,2.9,0,4.4c0,0.9,0,0.9-1,0.9C74,60.3,67.8,60.3,61.7,60.3z"/>
<path style="fill:#FFFFFF;" d="M28.1,54.2c0-3.5,2.7-6.2,6.2-6.1c3.4,0,6.1,2.7,6.1,6.1c0,3.5-2.7,6.2-6.3,6.2
	C30.8,60.3,28.1,57.5,28.1,54.2z"/>
<path style="fill:#FFFFFF;" d="M39.4,35.8c-0.8,0-1.6,0-2.4,0c-0.7,0-0.8-0.2-0.8-1c0-0.9,0.1-1.1,0.8-1.1c1.6,0,3.1,0,4.7,0
	c0.5,0,0.7,0.2,0.7,0.7c0.1,0.9-0.1,1.6-0.7,2.3c-0.8,0.8-1.4,1.6-2.1,2.5c-0.1,0.2-0.3,0.3-0.3,0.6c0.8,0,1.5,0,2.3,0
	c0.8,0,0.9,0.2,0.9,1.2c0,0.8-0.1,0.9-0.9,0.9c-1.5,0-2.9,0-4.4,0c-0.7,0-0.9-0.2-0.9-0.9c-0.1-0.8,0.1-1.5,0.7-2.1
	c0.8-0.8,1.4-1.6,2.1-2.5C39.2,36.3,39.4,36.2,39.4,35.8z"/>
</svg>
