<?xml version="1.0" encoding="utf-8"?>
<!-- Generator: Adobe Illustrator 19.2.1, SVG Export Plug-In . SVG Version: 6.00 Build 0)  -->
<svg version="1.1" id="Layer_1" xmlns="http://www.w3.org/2000/svg" xmlns:xlink="http://www.w3.org/1999/xlink" x="0px" y="0px"
	 viewBox="0 0 100 100" style="enable-background:new 0 0 100 100;" xml:space="preserve">
<circle style="fill:#FED600;" cx="50" cy="50" r="50"/>
<g>
	<g>
		<path style="fill:#FFFFFF;" d="M54.2,39c0,0-1.9-1.8-3-4.1c-0.6-1.1-1-2.6-1.5-4.4c-0.4,1.8-0.9,3.3-1.5,4.4c-1.2,2.3-3,4.1-3,4.1
			c-1.5,1.6-2.2,3.3-2.2,4.9c0,1.8,0.7,3.4,2,4.7c1.3,1.3,2.9,2,4.7,2c1.8,0,3.4-0.7,4.7-2c1.3-1.3,2-2.9,2-4.7
			C56.4,42.3,55.7,40.6,54.2,39z"/>
	</g>
</g>
<g>
	<g>
		<path style="fill:#FFFFFF;" d="M56.4,69.9c0,0-2.7-2.7-4.5-6.1c-0.8-1.6-1.5-3.8-2.2-6.5c-0.6,2.7-1.4,4.9-2.2,6.5
			c-1.7,3.4-4.5,6.1-4.5,6.1c-2.2,2.4-3.3,4.9-3.3,7.3c0,2.7,1,5,2.9,6.9c2,1.9,4.3,2.9,7,2.9c2.7,0,5.1-1,7-2.9
			c2-1.9,2.9-4.2,2.9-6.9C59.6,74.8,58.5,72.3,56.4,69.9z"/>
	</g>
</g>
<g>
	<g>
		<path style="fill:#FFFFFF;" d="M52.1,17.1c0,0-1-0.9-1.6-2.2c-0.3-0.6-0.5-1.3-0.8-2.3c-0.2,1-0.5,1.7-0.8,2.3
			c-0.6,1.2-1.6,2.2-1.6,2.2c-0.8,0.9-1.2,1.7-1.2,2.6c0,1,0.3,1.8,1,2.5c0.7,0.7,1.5,1,2.5,1c1,0,1.8-0.3,2.5-1
			c0.7-0.7,1-1.5,1-2.5C53.2,18.8,52.8,17.9,52.1,17.1z"/>
	</g>
</g>
</svg>
