<?xml version="1.0" encoding="utf-8"?>
<!-- Generator: Adobe Illustrator 19.2.1, SVG Export Plug-In . SVG Version: 6.00 Build 0)  -->
<svg version="1.1" id="Layer_1" xmlns="http://www.w3.org/2000/svg" xmlns:xlink="http://www.w3.org/1999/xlink" x="0px" y="0px"
	 viewBox="0 0 100 100" style="enable-background:new 0 0 100 100;" xml:space="preserve">
<circle style="fill:#F57F20;" cx="50" cy="50" r="50"/>
<g>
	<g>
		<path style="fill-rule:evenodd;clip-rule:evenodd;fill:#FFFFFF;" d="M75.7,63.2L53,24.3c-1.9-1.9-5-1.9-6.9,0L23.5,63.2
			c-1.9,1.9-1.9,5,0,6.9h52.2C77.6,68.1,77.6,65.1,75.7,63.2z"/>
	</g>
</g>
<g>
	<g>
		<g>
			<path style="fill-rule:evenodd;clip-rule:evenodd;fill:#F57F20;" d="M50.1,35.5c-1.5,0-2.7,1.2-2.7,2.7v12.7
				c0,1.5,1.2,2.7,2.7,2.7c1.5,0,2.7-1.2,2.7-2.7V38.3C52.8,36.7,51.6,35.5,50.1,35.5z"/>
		</g>
	</g>
	<circle style="fill-rule:evenodd;clip-rule:evenodd;fill:#F57F20;" cx="50.1" cy="59.7" r="2.7"/>
</g>
</svg>
